%TF.GenerationSoftware,KiCad,Pcbnew,8.0.3*%
%TF.CreationDate,2024-11-03T20:58:58+01:00*%
%TF.ProjectId,Rev2_RGB2HDMI,52657632-5f52-4474-9232-48444d492e6b,rev?*%
%TF.SameCoordinates,Original*%
%TF.FileFunction,Drillmap*%
%TF.FilePolarity,Positive*%
%FSLAX45Y45*%
G04 Gerber Fmt 4.5, Leading zero omitted, Abs format (unit mm)*
G04 Created by KiCad (PCBNEW 8.0.3) date 2024-11-03 20:58:58*
%MOMM*%
%LPD*%
G01*
G04 APERTURE LIST*
%ADD10C,0.100000*%
%ADD11C,0.200000*%
%ADD12C,0.110000*%
%ADD13C,0.140000*%
%ADD14C,0.160000*%
%ADD15C,0.275000*%
G04 APERTURE END LIST*
D10*
X14445140Y-7290220D02*
X15520140Y-7290220D01*
X15520140Y-8965220D01*
X14445140Y-8965220D01*
X14445140Y-7290220D01*
X21560593Y-4200363D02*
X21563893Y-9801623D01*
X7445992Y-9798503D02*
X7445992Y-4198503D01*
X7445992Y-4198503D02*
X21560593Y-4200363D01*
X21563893Y-9801623D02*
X7445992Y-9798503D01*
D11*
D10*
X15728912Y-8008962D02*
X15759392Y-8039442D01*
X15759392Y-8008962D02*
X15728912Y-8039442D01*
X15825432Y-8200432D02*
X15855912Y-8230912D01*
X15855912Y-8200432D02*
X15825432Y-8230912D01*
X15878772Y-7516202D02*
X15909252Y-7546682D01*
X15909252Y-7516202D02*
X15878772Y-7546682D01*
X16922713Y-8049602D02*
X16953193Y-8080082D01*
X16953193Y-8049602D02*
X16922713Y-8080082D01*
X17273753Y-7373962D02*
X17304233Y-7404442D01*
X17304233Y-7373962D02*
X17273753Y-7404442D01*
X17280661Y-8080274D02*
X17311141Y-8110754D01*
X17311141Y-8080274D02*
X17280661Y-8110754D01*
X17334904Y-7650111D02*
X17365384Y-7680591D01*
X17365384Y-7650111D02*
X17334904Y-7680591D01*
X17364673Y-7452703D02*
X17395153Y-7483183D01*
X17395153Y-7452703D02*
X17364673Y-7483183D01*
X17403293Y-8605863D02*
X17433773Y-8636343D01*
X17433773Y-8605863D02*
X17403293Y-8636343D01*
X17539933Y-7589862D02*
X17570413Y-7620342D01*
X17570413Y-7589862D02*
X17539933Y-7620342D01*
X17689793Y-7752422D02*
X17720273Y-7782902D01*
X17720273Y-7752422D02*
X17689793Y-7782902D01*
X17748213Y-8123262D02*
X17778693Y-8153742D01*
X17778693Y-8123262D02*
X17748213Y-8153742D01*
X17769053Y-7716862D02*
X17799533Y-7747342D01*
X17799533Y-7716862D02*
X17769053Y-7747342D01*
X18665153Y-7274902D02*
X18695633Y-7305382D01*
X18695633Y-7274902D02*
X18665153Y-7305382D01*
X18746433Y-9154503D02*
X18776913Y-9184983D01*
X18776913Y-9154503D02*
X18746433Y-9184983D01*
X18911533Y-7368882D02*
X18942013Y-7399362D01*
X18942013Y-7368882D02*
X18911533Y-7399362D01*
X19526213Y-7353642D02*
X19556693Y-7384122D01*
X19556693Y-7353642D02*
X19526213Y-7384122D01*
X19914833Y-7658442D02*
X19945313Y-7688922D01*
X19945313Y-7658442D02*
X19914833Y-7688922D01*
X19917373Y-8382342D02*
X19947853Y-8412823D01*
X19947853Y-8382342D02*
X19917373Y-8412823D01*
X20051994Y-7394282D02*
X20082474Y-7424762D01*
X20082474Y-7394282D02*
X20051994Y-7424762D01*
X20255193Y-7506042D02*
X20285673Y-7536522D01*
X20285673Y-7506042D02*
X20255193Y-7536522D01*
X20379913Y-7392002D02*
X20410393Y-7422482D01*
X20410393Y-7392002D02*
X20379913Y-7422482D01*
X17455764Y-8736271D02*
G75*
G02*
X17417664Y-8736271I-19050J0D01*
G01*
X17417664Y-8736271D02*
G75*
G02*
X17455764Y-8736271I19050J0D01*
G01*
X17609033Y-8449653D02*
G75*
G02*
X17570933Y-8449653I-19050J0D01*
G01*
X17570933Y-8449653D02*
G75*
G02*
X17609033Y-8449653I19050J0D01*
G01*
X17643323Y-9100000D02*
G75*
G02*
X17605223Y-9100000I-19050J0D01*
G01*
X17605223Y-9100000D02*
G75*
G02*
X17643323Y-9100000I19050J0D01*
G01*
X17868113Y-8807793D02*
G75*
G02*
X17830013Y-8807793I-19050J0D01*
G01*
X17830013Y-8807793D02*
G75*
G02*
X17868113Y-8807793I19050J0D01*
G01*
X17927803Y-7351102D02*
G75*
G02*
X17889703Y-7351102I-19050J0D01*
G01*
X17889703Y-7351102D02*
G75*
G02*
X17927803Y-7351102I19050J0D01*
G01*
X18282883Y-7277442D02*
G75*
G02*
X18244783Y-7277442I-19050J0D01*
G01*
X18244783Y-7277442D02*
G75*
G02*
X18282883Y-7277442I19050J0D01*
G01*
X18355543Y-7715502D02*
G75*
G02*
X18317443Y-7715502I-19050J0D01*
G01*
X18317443Y-7715502D02*
G75*
G02*
X18355543Y-7715502I19050J0D01*
G01*
X18834583Y-7981022D02*
G75*
G02*
X18796483Y-7981022I-19050J0D01*
G01*
X18796483Y-7981022D02*
G75*
G02*
X18834583Y-7981022I19050J0D01*
G01*
X18835543Y-8555503D02*
G75*
G02*
X18797443Y-8555503I-19050J0D01*
G01*
X18797443Y-8555503D02*
G75*
G02*
X18835543Y-8555503I19050J0D01*
G01*
X12050000Y-6105000D02*
X12050000Y-6145000D01*
X12030000Y-6125000D02*
X12070000Y-6125000D01*
X13000000Y-6180000D02*
X13000000Y-6220000D01*
X12980000Y-6200000D02*
X13020000Y-6200000D01*
X13369092Y-6019002D02*
X13369092Y-6059002D01*
X13349092Y-6039002D02*
X13389092Y-6039002D01*
X13750000Y-4880000D02*
X13750000Y-4920000D01*
X13730000Y-4900000D02*
X13770000Y-4900000D01*
X14325000Y-4880000D02*
X14325000Y-4920000D01*
X14305000Y-4900000D02*
X14345000Y-4900000D01*
X14425000Y-5330000D02*
X14425000Y-5370000D01*
X14405000Y-5350000D02*
X14445000Y-5350000D01*
X14895140Y-5645220D02*
X14895140Y-5685220D01*
X14875140Y-5665220D02*
X14915140Y-5665220D01*
X15195140Y-6095220D02*
X15195140Y-6135220D01*
X15175140Y-6115220D02*
X15215140Y-6115220D01*
X15195140Y-6470220D02*
X15195140Y-6510220D01*
X15175140Y-6490220D02*
X15215140Y-6490220D01*
X15370140Y-5095220D02*
X15370140Y-5135220D01*
X15350140Y-5115220D02*
X15390140Y-5115220D01*
X15370140Y-5370220D02*
X15370140Y-5410220D01*
X15350140Y-5390220D02*
X15390140Y-5390220D01*
X15380000Y-4780000D02*
X15380000Y-4820000D01*
X15360000Y-4800000D02*
X15400000Y-4800000D01*
X15975000Y-7830000D02*
X15975000Y-7870000D01*
X15955000Y-7850000D02*
X15995000Y-7850000D01*
X16000000Y-6625110D02*
X16000000Y-6665110D01*
X15980000Y-6645110D02*
X16020000Y-6645110D01*
X16283889Y-5796889D02*
X16283889Y-5836889D01*
X16263889Y-5816889D02*
X16303889Y-5816889D01*
X16350000Y-6630000D02*
X16350000Y-6670000D01*
X16330000Y-6650000D02*
X16370000Y-6650000D01*
X16924823Y-8725109D02*
X16924823Y-8765109D01*
X16904823Y-8745109D02*
X16944823Y-8745109D01*
X17128000Y-8928000D02*
X17128000Y-8968000D01*
X17108000Y-8948000D02*
X17148000Y-8948000D01*
X17514823Y-8985109D02*
X17514823Y-9025109D01*
X17494823Y-9005109D02*
X17534823Y-9005109D01*
X17884823Y-9025109D02*
X17884823Y-9065109D01*
X17864823Y-9045109D02*
X17904823Y-9045109D01*
X18100000Y-8955000D02*
X18100000Y-8995000D01*
X18080000Y-8975000D02*
X18120000Y-8975000D01*
X20050413Y-7880000D02*
X20050413Y-7920000D01*
X20030413Y-7900000D02*
X20070413Y-7900000D01*
X15875268Y-7400229D02*
X15875268Y-7336589D01*
X15811627Y-7336589D01*
X15811627Y-7400229D01*
X15875268Y-7400229D01*
X16129268Y-7400229D02*
X16129268Y-7336589D01*
X16065627Y-7336589D01*
X16065627Y-7400229D01*
X16129268Y-7400229D01*
X10046000Y-9450000D02*
X10096000Y-9400000D01*
X10046000Y-9350000D01*
X9996000Y-9400000D01*
X10046000Y-9450000D01*
X10050000Y-8300000D02*
X10100000Y-8250000D01*
X10050000Y-8200000D01*
X10000000Y-8250000D01*
X10050000Y-8300000D01*
X10100000Y-5522500D02*
X10150000Y-5472500D01*
X10100000Y-5422500D01*
X10050000Y-5472500D01*
X10100000Y-5522500D01*
X10100000Y-5776500D02*
X10150000Y-5726500D01*
X10100000Y-5676500D01*
X10050000Y-5726500D01*
X10100000Y-5776500D01*
X10300000Y-9450000D02*
X10350000Y-9400000D01*
X10300000Y-9350000D01*
X10250000Y-9400000D01*
X10300000Y-9450000D01*
X10304000Y-8300000D02*
X10354000Y-8250000D01*
X10304000Y-8200000D01*
X10254000Y-8250000D01*
X10304000Y-8300000D01*
X10700000Y-5522500D02*
X10750000Y-5472500D01*
X10700000Y-5422500D01*
X10650000Y-5472500D01*
X10700000Y-5522500D01*
X10700000Y-5776500D02*
X10750000Y-5726500D01*
X10700000Y-5676500D01*
X10650000Y-5726500D01*
X10700000Y-5776500D01*
X11175000Y-8569785D02*
X11225000Y-8519785D01*
X11175000Y-8469785D01*
X11125000Y-8519785D01*
X11175000Y-8569785D01*
X11550000Y-8569785D02*
X11600000Y-8519785D01*
X11550000Y-8469785D01*
X11500000Y-8519785D01*
X11550000Y-8569785D01*
X11654092Y-5441303D02*
X11704092Y-5391303D01*
X11654092Y-5341303D01*
X11604092Y-5391303D01*
X11654092Y-5441303D01*
X11908092Y-5441303D02*
X11958092Y-5391303D01*
X11908092Y-5341303D01*
X11858092Y-5391303D01*
X11908092Y-5441303D01*
X11925000Y-8569785D02*
X11975000Y-8519785D01*
X11925000Y-8469785D01*
X11875000Y-8519785D01*
X11925000Y-8569785D01*
X12300000Y-8569785D02*
X12350000Y-8519785D01*
X12300000Y-8469785D01*
X12250000Y-8519785D01*
X12300000Y-8569785D01*
X12422500Y-6000000D02*
X12472500Y-5950000D01*
X12422500Y-5900000D01*
X12372500Y-5950000D01*
X12422500Y-6000000D01*
X12425000Y-5448503D02*
X12475000Y-5398503D01*
X12425000Y-5348503D01*
X12375000Y-5398503D01*
X12425000Y-5448503D01*
X12675000Y-8569785D02*
X12725000Y-8519785D01*
X12675000Y-8469785D01*
X12625000Y-8519785D01*
X12675000Y-8569785D01*
X12676500Y-6000000D02*
X12726500Y-5950000D01*
X12676500Y-5900000D01*
X12626500Y-5950000D01*
X12676500Y-6000000D01*
X12679000Y-5448503D02*
X12729000Y-5398503D01*
X12679000Y-5348503D01*
X12629000Y-5398503D01*
X12679000Y-5448503D01*
X13050000Y-8569785D02*
X13100000Y-8519785D01*
X13050000Y-8469785D01*
X13000000Y-8519785D01*
X13050000Y-8569785D01*
X13343500Y-5550000D02*
X13393500Y-5500000D01*
X13343500Y-5450000D01*
X13293500Y-5500000D01*
X13343500Y-5550000D01*
X13425000Y-8569785D02*
X13475000Y-8519785D01*
X13425000Y-8469785D01*
X13375000Y-8519785D01*
X13425000Y-8569785D01*
X13597500Y-5550000D02*
X13647500Y-5500000D01*
X13597500Y-5450000D01*
X13547500Y-5500000D01*
X13597500Y-5550000D01*
X13800000Y-8569785D02*
X13850000Y-8519785D01*
X13800000Y-8469785D01*
X13750000Y-8519785D01*
X13800000Y-8569785D01*
X15843447Y-6910409D02*
X15893447Y-6860409D01*
X15843447Y-6810409D01*
X15793447Y-6860409D01*
X15843447Y-6910409D01*
X15843447Y-7164409D02*
X15893447Y-7114409D01*
X15843447Y-7064409D01*
X15793447Y-7114409D01*
X15843447Y-7164409D01*
X16097447Y-6910409D02*
X16147447Y-6860409D01*
X16097447Y-6810409D01*
X16047447Y-6860409D01*
X16097447Y-6910409D01*
X16097447Y-7164409D02*
X16147447Y-7114409D01*
X16097447Y-7064409D01*
X16047447Y-7114409D01*
X16097447Y-7164409D01*
X16351447Y-6910409D02*
X16401447Y-6860409D01*
X16351447Y-6810409D01*
X16301447Y-6860409D01*
X16351447Y-6910409D01*
X16351447Y-7164409D02*
X16401447Y-7114409D01*
X16351447Y-7064409D01*
X16301447Y-7114409D01*
X16351447Y-7164409D01*
X16400000Y-5450000D02*
X16450000Y-5400000D01*
X16400000Y-5350000D01*
X16350000Y-5400000D01*
X16400000Y-5450000D01*
X16575000Y-6025000D02*
X16625000Y-5975000D01*
X16575000Y-5925000D01*
X16525000Y-5975000D01*
X16575000Y-6025000D01*
X16605447Y-6910409D02*
X16655447Y-6860409D01*
X16605447Y-6810409D01*
X16555447Y-6860409D01*
X16605447Y-6910409D01*
X16605447Y-7164409D02*
X16655447Y-7114409D01*
X16605447Y-7064409D01*
X16555447Y-7114409D01*
X16605447Y-7164409D01*
X16654000Y-5450000D02*
X16704000Y-5400000D01*
X16654000Y-5350000D01*
X16604000Y-5400000D01*
X16654000Y-5450000D01*
X16829000Y-6025000D02*
X16879000Y-5975000D01*
X16829000Y-5925000D01*
X16779000Y-5975000D01*
X16829000Y-6025000D01*
X16859448Y-6910409D02*
X16909448Y-6860409D01*
X16859448Y-6810409D01*
X16809448Y-6860409D01*
X16859448Y-6910409D01*
X16859448Y-7164409D02*
X16909448Y-7114409D01*
X16859448Y-7064409D01*
X16809448Y-7114409D01*
X16859448Y-7164409D01*
X17113448Y-6910409D02*
X17163448Y-6860409D01*
X17113448Y-6810409D01*
X17063448Y-6860409D01*
X17113448Y-6910409D01*
X17113448Y-7164409D02*
X17163448Y-7114409D01*
X17113448Y-7064409D01*
X17063448Y-7114409D01*
X17113448Y-7164409D01*
X17367448Y-6910409D02*
X17417448Y-6860409D01*
X17367448Y-6810409D01*
X17317448Y-6860409D01*
X17367448Y-6910409D01*
X17367448Y-7164409D02*
X17417448Y-7114409D01*
X17367448Y-7064409D01*
X17317448Y-7114409D01*
X17367448Y-7164409D01*
X17621448Y-6910409D02*
X17671448Y-6860409D01*
X17621448Y-6810409D01*
X17571448Y-6860409D01*
X17621448Y-6910409D01*
X17621448Y-7164409D02*
X17671448Y-7114409D01*
X17621448Y-7064409D01*
X17571448Y-7114409D01*
X17621448Y-7164409D01*
X17875448Y-6910409D02*
X17925448Y-6860409D01*
X17875448Y-6810409D01*
X17825448Y-6860409D01*
X17875448Y-6910409D01*
X17875448Y-7164409D02*
X17925448Y-7114409D01*
X17875448Y-7064409D01*
X17825448Y-7114409D01*
X17875448Y-7164409D01*
X18129448Y-6910409D02*
X18179448Y-6860409D01*
X18129448Y-6810409D01*
X18079448Y-6860409D01*
X18129448Y-6910409D01*
X18129448Y-7164409D02*
X18179448Y-7114409D01*
X18129448Y-7064409D01*
X18079448Y-7114409D01*
X18129448Y-7164409D01*
X18383448Y-6910409D02*
X18433448Y-6860409D01*
X18383448Y-6810409D01*
X18333448Y-6860409D01*
X18383448Y-6910409D01*
X18383448Y-7164409D02*
X18433448Y-7114409D01*
X18383448Y-7064409D01*
X18333448Y-7114409D01*
X18383448Y-7164409D01*
X18637448Y-6910409D02*
X18687448Y-6860409D01*
X18637448Y-6810409D01*
X18587448Y-6860409D01*
X18637448Y-6910409D01*
X18637448Y-7164409D02*
X18687448Y-7114409D01*
X18637448Y-7064409D01*
X18587448Y-7114409D01*
X18637448Y-7164409D01*
X18891448Y-6910409D02*
X18941448Y-6860409D01*
X18891448Y-6810409D01*
X18841448Y-6860409D01*
X18891448Y-6910409D01*
X18891448Y-7164409D02*
X18941448Y-7114409D01*
X18891448Y-7064409D01*
X18841448Y-7114409D01*
X18891448Y-7164409D01*
X19145448Y-6910409D02*
X19195448Y-6860409D01*
X19145448Y-6810409D01*
X19095448Y-6860409D01*
X19145448Y-6910409D01*
X19145448Y-7164409D02*
X19195448Y-7114409D01*
X19145448Y-7064409D01*
X19095448Y-7114409D01*
X19145448Y-7164409D01*
X19399448Y-6910409D02*
X19449448Y-6860409D01*
X19399448Y-6810409D01*
X19349448Y-6860409D01*
X19399448Y-6910409D01*
X19399448Y-7164409D02*
X19449448Y-7114409D01*
X19399448Y-7064409D01*
X19349448Y-7114409D01*
X19399448Y-7164409D01*
X19653448Y-6910409D02*
X19703448Y-6860409D01*
X19653448Y-6810409D01*
X19603448Y-6860409D01*
X19653448Y-6910409D01*
X19653448Y-7164409D02*
X19703448Y-7114409D01*
X19653448Y-7064409D01*
X19603448Y-7114409D01*
X19653448Y-7164409D01*
X19898500Y-4975000D02*
X19948500Y-4925000D01*
X19898500Y-4875000D01*
X19848500Y-4925000D01*
X19898500Y-4975000D01*
X19907448Y-6910409D02*
X19957448Y-6860409D01*
X19907448Y-6810409D01*
X19857448Y-6860409D01*
X19907448Y-6910409D01*
X19907448Y-7164409D02*
X19957448Y-7114409D01*
X19907448Y-7064409D01*
X19857448Y-7114409D01*
X19907448Y-7164409D01*
X20152500Y-4975000D02*
X20202500Y-4925000D01*
X20152500Y-4875000D01*
X20102500Y-4925000D01*
X20152500Y-4975000D01*
X20161448Y-6910409D02*
X20211448Y-6860409D01*
X20161448Y-6810409D01*
X20111448Y-6860409D01*
X20161448Y-6910409D01*
X20161448Y-7164409D02*
X20211448Y-7114409D01*
X20161448Y-7064409D01*
X20111448Y-7114409D01*
X20161448Y-7164409D01*
X20415448Y-6910409D02*
X20465448Y-6860409D01*
X20415448Y-6810409D01*
X20365448Y-6860409D01*
X20415448Y-6910409D01*
X20415448Y-7164409D02*
X20465448Y-7114409D01*
X20415448Y-7064409D01*
X20365448Y-7114409D01*
X20415448Y-7164409D01*
X20669448Y-6910409D02*
X20719448Y-6860409D01*
X20669448Y-6810409D01*
X20619448Y-6860409D01*
X20669448Y-6910409D01*
X20669448Y-7164409D02*
X20719448Y-7114409D01*
X20669448Y-7064409D01*
X20619448Y-7114409D01*
X20669448Y-7164409D01*
D12*
X17180840Y-5391220D02*
X17290840Y-5501220D01*
X17290840Y-5391220D02*
X17180840Y-5501220D01*
X17290840Y-5446220D02*
G75*
G02*
X17180840Y-5446220I-55000J0D01*
G01*
X17180840Y-5446220D02*
G75*
G02*
X17290840Y-5446220I55000J0D01*
G01*
X17180840Y-6041220D02*
X17290840Y-6151220D01*
X17290840Y-6041220D02*
X17180840Y-6151220D01*
X17290840Y-6096220D02*
G75*
G02*
X17180840Y-6096220I-55000J0D01*
G01*
X17180840Y-6096220D02*
G75*
G02*
X17290840Y-6096220I55000J0D01*
G01*
X17630840Y-5391220D02*
X17740840Y-5501220D01*
X17740840Y-5391220D02*
X17630840Y-5501220D01*
X17740840Y-5446220D02*
G75*
G02*
X17630840Y-5446220I-55000J0D01*
G01*
X17630840Y-5446220D02*
G75*
G02*
X17740840Y-5446220I55000J0D01*
G01*
X17630840Y-6041220D02*
X17740840Y-6151220D01*
X17740840Y-6041220D02*
X17630840Y-6151220D01*
X17740840Y-6096220D02*
G75*
G02*
X17630840Y-6096220I-55000J0D01*
G01*
X17630840Y-6096220D02*
G75*
G02*
X17740840Y-6096220I55000J0D01*
G01*
X18069840Y-5391220D02*
X18179840Y-5501220D01*
X18179840Y-5391220D02*
X18069840Y-5501220D01*
X18179840Y-5446220D02*
G75*
G02*
X18069840Y-5446220I-55000J0D01*
G01*
X18069840Y-5446220D02*
G75*
G02*
X18179840Y-5446220I55000J0D01*
G01*
X18069840Y-6041220D02*
X18179840Y-6151220D01*
X18179840Y-6041220D02*
X18069840Y-6151220D01*
X18179840Y-6096220D02*
G75*
G02*
X18069840Y-6096220I-55000J0D01*
G01*
X18069840Y-6096220D02*
G75*
G02*
X18179840Y-6096220I55000J0D01*
G01*
X18519840Y-5391220D02*
X18629840Y-5501220D01*
X18629840Y-5391220D02*
X18519840Y-5501220D01*
X18629840Y-5446220D02*
G75*
G02*
X18519840Y-5446220I-55000J0D01*
G01*
X18519840Y-5446220D02*
G75*
G02*
X18629840Y-5446220I55000J0D01*
G01*
X18519840Y-6041220D02*
X18629840Y-6151220D01*
X18629840Y-6041220D02*
X18519840Y-6151220D01*
X18629840Y-6096220D02*
G75*
G02*
X18519840Y-6096220I-55000J0D01*
G01*
X18519840Y-6096220D02*
G75*
G02*
X18629840Y-6096220I55000J0D01*
G01*
X18958840Y-5391220D02*
X19068840Y-5501220D01*
X19068840Y-5391220D02*
X18958840Y-5501220D01*
X19068840Y-5446220D02*
G75*
G02*
X18958840Y-5446220I-55000J0D01*
G01*
X18958840Y-5446220D02*
G75*
G02*
X19068840Y-5446220I55000J0D01*
G01*
X18958840Y-6041220D02*
X19068840Y-6151220D01*
X19068840Y-6041220D02*
X18958840Y-6151220D01*
X19068840Y-6096220D02*
G75*
G02*
X18958840Y-6096220I-55000J0D01*
G01*
X18958840Y-6096220D02*
G75*
G02*
X19068840Y-6096220I55000J0D01*
G01*
X19408840Y-5391220D02*
X19518840Y-5501220D01*
X19518840Y-5391220D02*
X19408840Y-5501220D01*
X19518840Y-5446220D02*
G75*
G02*
X19408840Y-5446220I-55000J0D01*
G01*
X19408840Y-5446220D02*
G75*
G02*
X19518840Y-5446220I55000J0D01*
G01*
X19408840Y-6041220D02*
X19518840Y-6151220D01*
X19518840Y-6041220D02*
X19408840Y-6151220D01*
X19518840Y-6096220D02*
G75*
G02*
X19408840Y-6096220I-55000J0D01*
G01*
X19408840Y-6096220D02*
G75*
G02*
X19518840Y-6096220I55000J0D01*
G01*
X19847840Y-5391220D02*
X19957840Y-5501220D01*
X19957840Y-5391220D02*
X19847840Y-5501220D01*
X19957840Y-5446220D02*
G75*
G02*
X19847840Y-5446220I-55000J0D01*
G01*
X19847840Y-5446220D02*
G75*
G02*
X19957840Y-5446220I55000J0D01*
G01*
X19847840Y-6041220D02*
X19957840Y-6151220D01*
X19957840Y-6041220D02*
X19847840Y-6151220D01*
X19957840Y-6096220D02*
G75*
G02*
X19847840Y-6096220I-55000J0D01*
G01*
X19847840Y-6096220D02*
G75*
G02*
X19957840Y-6096220I55000J0D01*
G01*
X20297840Y-5391220D02*
X20407840Y-5501220D01*
X20407840Y-5391220D02*
X20297840Y-5501220D01*
X20407840Y-5446220D02*
G75*
G02*
X20297840Y-5446220I-55000J0D01*
G01*
X20297840Y-5446220D02*
G75*
G02*
X20407840Y-5446220I55000J0D01*
G01*
X20297840Y-6041220D02*
X20407840Y-6151220D01*
X20407840Y-6041220D02*
X20297840Y-6151220D01*
X20407840Y-6096220D02*
G75*
G02*
X20297840Y-6096220I-55000J0D01*
G01*
X20297840Y-6096220D02*
G75*
G02*
X20407840Y-6096220I55000J0D01*
G01*
D13*
X11153155Y-7443000D02*
X11293155Y-7583000D01*
X11293155Y-7443000D02*
X11153155Y-7583000D01*
X11223155Y-7443000D02*
X11223155Y-7583000D01*
X11153155Y-7513000D02*
X11293155Y-7513000D01*
X11153155Y-7993000D02*
X11293155Y-8133000D01*
X11293155Y-7993000D02*
X11153155Y-8133000D01*
X11223155Y-7993000D02*
X11223155Y-8133000D01*
X11153155Y-8063000D02*
X11293155Y-8063000D01*
X11573155Y-7443000D02*
X11713155Y-7583000D01*
X11713155Y-7443000D02*
X11573155Y-7583000D01*
X11643155Y-7443000D02*
X11643155Y-7583000D01*
X11573155Y-7513000D02*
X11713155Y-7513000D01*
X11573155Y-7993000D02*
X11713155Y-8133000D01*
X11713155Y-7993000D02*
X11573155Y-8133000D01*
X11643155Y-7993000D02*
X11643155Y-8133000D01*
X11573155Y-8063000D02*
X11713155Y-8063000D01*
X11993155Y-7443000D02*
X12133155Y-7583000D01*
X12133155Y-7443000D02*
X11993155Y-7583000D01*
X12063155Y-7443000D02*
X12063155Y-7583000D01*
X11993155Y-7513000D02*
X12133155Y-7513000D01*
X11993155Y-7993000D02*
X12133155Y-8133000D01*
X12133155Y-7993000D02*
X11993155Y-8133000D01*
X12063155Y-7993000D02*
X12063155Y-8133000D01*
X11993155Y-8063000D02*
X12133155Y-8063000D01*
X12413155Y-7443000D02*
X12553155Y-7583000D01*
X12553155Y-7443000D02*
X12413155Y-7583000D01*
X12483155Y-7443000D02*
X12483155Y-7583000D01*
X12413155Y-7513000D02*
X12553155Y-7513000D01*
X12413155Y-7993000D02*
X12553155Y-8133000D01*
X12553155Y-7993000D02*
X12413155Y-8133000D01*
X12483155Y-7993000D02*
X12483155Y-8133000D01*
X12413155Y-8063000D02*
X12553155Y-8063000D01*
X12833155Y-7443000D02*
X12973155Y-7583000D01*
X12973155Y-7443000D02*
X12833155Y-7583000D01*
X12903155Y-7443000D02*
X12903155Y-7583000D01*
X12833155Y-7513000D02*
X12973155Y-7513000D01*
X12833155Y-7993000D02*
X12973155Y-8133000D01*
X12973155Y-7993000D02*
X12833155Y-8133000D01*
X12903155Y-7993000D02*
X12903155Y-8133000D01*
X12833155Y-8063000D02*
X12973155Y-8063000D01*
X13253155Y-7443000D02*
X13393155Y-7583000D01*
X13393155Y-7443000D02*
X13253155Y-7583000D01*
X13323155Y-7443000D02*
X13323155Y-7583000D01*
X13253155Y-7513000D02*
X13393155Y-7513000D01*
X13253155Y-7993000D02*
X13393155Y-8133000D01*
X13393155Y-7993000D02*
X13253155Y-8133000D01*
X13323155Y-7993000D02*
X13323155Y-8133000D01*
X13253155Y-8063000D02*
X13393155Y-8063000D01*
X13673155Y-7443000D02*
X13813155Y-7583000D01*
X13813155Y-7443000D02*
X13673155Y-7583000D01*
X13743155Y-7443000D02*
X13743155Y-7583000D01*
X13673155Y-7513000D02*
X13813155Y-7513000D01*
X13673155Y-7993000D02*
X13813155Y-8133000D01*
X13813155Y-7993000D02*
X13673155Y-8133000D01*
X13743155Y-7993000D02*
X13743155Y-8133000D01*
X13673155Y-8063000D02*
X13813155Y-8063000D01*
D14*
X8802993Y-4796503D02*
X8962993Y-4956503D01*
X8962993Y-4796503D02*
X8802993Y-4956503D01*
X8939562Y-4933072D02*
X8939562Y-4819933D01*
X8826423Y-4819933D01*
X8826423Y-4933072D01*
X8939562Y-4933072D01*
X8802993Y-5216503D02*
X8962993Y-5376503D01*
X8962993Y-5216503D02*
X8802993Y-5376503D01*
X8939562Y-5353072D02*
X8939562Y-5239933D01*
X8826423Y-5239933D01*
X8826423Y-5353072D01*
X8939562Y-5353072D01*
X8802993Y-5636502D02*
X8962993Y-5796502D01*
X8962993Y-5636502D02*
X8802993Y-5796502D01*
X8939562Y-5773072D02*
X8939562Y-5659933D01*
X8826423Y-5659933D01*
X8826423Y-5773072D01*
X8939562Y-5773072D01*
X8802993Y-6056502D02*
X8962993Y-6216502D01*
X8962993Y-6056502D02*
X8802993Y-6216502D01*
X8939562Y-6193072D02*
X8939562Y-6079933D01*
X8826423Y-6079933D01*
X8826423Y-6193072D01*
X8939562Y-6193072D01*
X8802993Y-6476502D02*
X8962993Y-6636502D01*
X8962993Y-6476502D02*
X8802993Y-6636502D01*
X8939562Y-6613072D02*
X8939562Y-6499933D01*
X8826423Y-6499933D01*
X8826423Y-6613072D01*
X8939562Y-6613072D01*
X8802993Y-6896502D02*
X8962993Y-7056502D01*
X8962993Y-6896502D02*
X8802993Y-7056502D01*
X8939562Y-7033072D02*
X8939562Y-6919933D01*
X8826423Y-6919933D01*
X8826423Y-7033072D01*
X8939562Y-7033072D01*
X8802993Y-7316502D02*
X8962993Y-7476502D01*
X8962993Y-7316502D02*
X8802993Y-7476502D01*
X8939562Y-7453072D02*
X8939562Y-7339933D01*
X8826423Y-7339933D01*
X8826423Y-7453072D01*
X8939562Y-7453072D01*
X8802993Y-7736502D02*
X8962993Y-7896502D01*
X8962993Y-7736502D02*
X8802993Y-7896502D01*
X8939562Y-7873072D02*
X8939562Y-7759933D01*
X8826423Y-7759933D01*
X8826423Y-7873072D01*
X8939562Y-7873072D01*
X8802993Y-8156502D02*
X8962993Y-8316502D01*
X8962993Y-8156502D02*
X8802993Y-8316502D01*
X8939562Y-8293072D02*
X8939562Y-8179933D01*
X8826423Y-8179933D01*
X8826423Y-8293072D01*
X8939562Y-8293072D01*
X8802993Y-8576503D02*
X8962993Y-8736503D01*
X8962993Y-8576503D02*
X8802993Y-8736503D01*
X8939562Y-8713072D02*
X8939562Y-8599933D01*
X8826423Y-8599933D01*
X8826423Y-8713072D01*
X8939562Y-8713072D01*
X8802993Y-8996503D02*
X8962993Y-9156503D01*
X8962993Y-8996503D02*
X8802993Y-9156503D01*
X8939562Y-9133072D02*
X8939562Y-9019933D01*
X8826423Y-9019933D01*
X8826423Y-9133072D01*
X8939562Y-9133072D01*
X8802993Y-9416503D02*
X8962993Y-9576503D01*
X8962993Y-9416503D02*
X8802993Y-9576503D01*
X8939562Y-9553072D02*
X8939562Y-9439933D01*
X8826423Y-9439933D01*
X8826423Y-9553072D01*
X8939562Y-9553072D01*
X9352993Y-4796503D02*
X9512993Y-4956503D01*
X9512993Y-4796503D02*
X9352993Y-4956503D01*
X9489562Y-4933072D02*
X9489562Y-4819933D01*
X9376423Y-4819933D01*
X9376423Y-4933072D01*
X9489562Y-4933072D01*
X9352993Y-5216503D02*
X9512993Y-5376503D01*
X9512993Y-5216503D02*
X9352993Y-5376503D01*
X9489562Y-5353072D02*
X9489562Y-5239933D01*
X9376423Y-5239933D01*
X9376423Y-5353072D01*
X9489562Y-5353072D01*
X9352993Y-5636502D02*
X9512993Y-5796502D01*
X9512993Y-5636502D02*
X9352993Y-5796502D01*
X9489562Y-5773072D02*
X9489562Y-5659933D01*
X9376423Y-5659933D01*
X9376423Y-5773072D01*
X9489562Y-5773072D01*
X9352993Y-6056502D02*
X9512993Y-6216502D01*
X9512993Y-6056502D02*
X9352993Y-6216502D01*
X9489562Y-6193072D02*
X9489562Y-6079933D01*
X9376423Y-6079933D01*
X9376423Y-6193072D01*
X9489562Y-6193072D01*
X9352993Y-6476502D02*
X9512993Y-6636502D01*
X9512993Y-6476502D02*
X9352993Y-6636502D01*
X9489562Y-6613072D02*
X9489562Y-6499933D01*
X9376423Y-6499933D01*
X9376423Y-6613072D01*
X9489562Y-6613072D01*
X9352993Y-6896502D02*
X9512993Y-7056502D01*
X9512993Y-6896502D02*
X9352993Y-7056502D01*
X9489562Y-7033072D02*
X9489562Y-6919933D01*
X9376423Y-6919933D01*
X9376423Y-7033072D01*
X9489562Y-7033072D01*
X9352993Y-7316502D02*
X9512993Y-7476502D01*
X9512993Y-7316502D02*
X9352993Y-7476502D01*
X9489562Y-7453072D02*
X9489562Y-7339933D01*
X9376423Y-7339933D01*
X9376423Y-7453072D01*
X9489562Y-7453072D01*
X9352993Y-7736502D02*
X9512993Y-7896502D01*
X9512993Y-7736502D02*
X9352993Y-7896502D01*
X9489562Y-7873072D02*
X9489562Y-7759933D01*
X9376423Y-7759933D01*
X9376423Y-7873072D01*
X9489562Y-7873072D01*
X9352993Y-8156502D02*
X9512993Y-8316502D01*
X9512993Y-8156502D02*
X9352993Y-8316502D01*
X9489562Y-8293072D02*
X9489562Y-8179933D01*
X9376423Y-8179933D01*
X9376423Y-8293072D01*
X9489562Y-8293072D01*
X9352993Y-8576503D02*
X9512993Y-8736503D01*
X9512993Y-8576503D02*
X9352993Y-8736503D01*
X9489562Y-8713072D02*
X9489562Y-8599933D01*
X9376423Y-8599933D01*
X9376423Y-8713072D01*
X9489562Y-8713072D01*
X9352993Y-8996503D02*
X9512993Y-9156503D01*
X9512993Y-8996503D02*
X9352993Y-9156503D01*
X9489562Y-9133072D02*
X9489562Y-9019933D01*
X9376423Y-9019933D01*
X9376423Y-9133072D01*
X9489562Y-9133072D01*
X9352993Y-9416503D02*
X9512993Y-9576503D01*
X9512993Y-9416503D02*
X9352993Y-9576503D01*
X9489562Y-9553072D02*
X9489562Y-9439933D01*
X9376423Y-9439933D01*
X9376423Y-9553072D01*
X9489562Y-9553072D01*
D15*
X10858493Y-4461003D02*
X11133493Y-4736003D01*
X11133493Y-4461003D02*
X10858493Y-4736003D01*
X10995993Y-4736003D02*
X11133493Y-4598503D01*
X10995993Y-4461003D01*
X10858493Y-4598503D01*
X10995993Y-4736003D01*
X10858493Y-9147500D02*
X11133493Y-9422500D01*
X11133493Y-9147500D02*
X10858493Y-9422500D01*
X10995993Y-9422500D02*
X11133493Y-9285000D01*
X10995993Y-9147500D01*
X10858493Y-9285000D01*
X10995993Y-9422500D01*
X15221500Y-6847500D02*
X15496500Y-7122500D01*
X15496500Y-6847500D02*
X15221500Y-7122500D01*
X15359000Y-7122500D02*
X15496500Y-6985000D01*
X15359000Y-6847500D01*
X15221500Y-6985000D01*
X15359000Y-7122500D01*
X15221500Y-9147500D02*
X15496500Y-9422500D01*
X15496500Y-9147500D02*
X15221500Y-9422500D01*
X15359000Y-9422500D02*
X15496500Y-9285000D01*
X15359000Y-9147500D01*
X15221500Y-9285000D01*
X15359000Y-9422500D01*
X20958493Y-4461003D02*
X21233493Y-4736003D01*
X21233493Y-4461003D02*
X20958493Y-4736003D01*
X21095993Y-4736003D02*
X21233493Y-4598503D01*
X21095993Y-4461003D01*
X20958493Y-4598503D01*
X21095993Y-4736003D01*
X21021500Y-6847500D02*
X21296500Y-7122500D01*
X21296500Y-6847500D02*
X21021500Y-7122500D01*
X21159000Y-7122500D02*
X21296500Y-6985000D01*
X21159000Y-6847500D01*
X21021500Y-6985000D01*
X21159000Y-7122500D01*
X21021500Y-9147500D02*
X21296500Y-9422500D01*
X21296500Y-9147500D02*
X21021500Y-9422500D01*
X21159000Y-9422500D02*
X21296500Y-9285000D01*
X21159000Y-9147500D01*
X21021500Y-9285000D01*
X21159000Y-9422500D01*
D11*
X7701769Y-10118106D02*
X7701769Y-9918106D01*
X7701769Y-9918106D02*
X7749388Y-9918106D01*
X7749388Y-9918106D02*
X7777960Y-9927630D01*
X7777960Y-9927630D02*
X7797007Y-9946678D01*
X7797007Y-9946678D02*
X7806531Y-9965725D01*
X7806531Y-9965725D02*
X7816055Y-10003821D01*
X7816055Y-10003821D02*
X7816055Y-10032392D01*
X7816055Y-10032392D02*
X7806531Y-10070487D01*
X7806531Y-10070487D02*
X7797007Y-10089535D01*
X7797007Y-10089535D02*
X7777960Y-10108583D01*
X7777960Y-10108583D02*
X7749388Y-10118106D01*
X7749388Y-10118106D02*
X7701769Y-10118106D01*
X7901769Y-10118106D02*
X7901769Y-9984773D01*
X7901769Y-10022868D02*
X7911293Y-10003821D01*
X7911293Y-10003821D02*
X7920817Y-9994297D01*
X7920817Y-9994297D02*
X7939864Y-9984773D01*
X7939864Y-9984773D02*
X7958912Y-9984773D01*
X8025579Y-10118106D02*
X8025579Y-9984773D01*
X8025579Y-9918106D02*
X8016055Y-9927630D01*
X8016055Y-9927630D02*
X8025579Y-9937154D01*
X8025579Y-9937154D02*
X8035103Y-9927630D01*
X8035103Y-9927630D02*
X8025579Y-9918106D01*
X8025579Y-9918106D02*
X8025579Y-9937154D01*
X8149388Y-10118106D02*
X8130341Y-10108583D01*
X8130341Y-10108583D02*
X8120817Y-10089535D01*
X8120817Y-10089535D02*
X8120817Y-9918106D01*
X8254150Y-10118106D02*
X8235103Y-10108583D01*
X8235103Y-10108583D02*
X8225579Y-10089535D01*
X8225579Y-10089535D02*
X8225579Y-9918106D01*
X8482722Y-10118106D02*
X8482722Y-9918106D01*
X8482722Y-9918106D02*
X8549388Y-10060963D01*
X8549388Y-10060963D02*
X8616055Y-9918106D01*
X8616055Y-9918106D02*
X8616055Y-10118106D01*
X8797007Y-10118106D02*
X8797007Y-10013344D01*
X8797007Y-10013344D02*
X8787484Y-9994297D01*
X8787484Y-9994297D02*
X8768436Y-9984773D01*
X8768436Y-9984773D02*
X8730341Y-9984773D01*
X8730341Y-9984773D02*
X8711293Y-9994297D01*
X8797007Y-10108583D02*
X8777960Y-10118106D01*
X8777960Y-10118106D02*
X8730341Y-10118106D01*
X8730341Y-10118106D02*
X8711293Y-10108583D01*
X8711293Y-10108583D02*
X8701769Y-10089535D01*
X8701769Y-10089535D02*
X8701769Y-10070487D01*
X8701769Y-10070487D02*
X8711293Y-10051440D01*
X8711293Y-10051440D02*
X8730341Y-10041916D01*
X8730341Y-10041916D02*
X8777960Y-10041916D01*
X8777960Y-10041916D02*
X8797007Y-10032392D01*
X8892246Y-9984773D02*
X8892246Y-10184773D01*
X8892246Y-9994297D02*
X8911293Y-9984773D01*
X8911293Y-9984773D02*
X8949388Y-9984773D01*
X8949388Y-9984773D02*
X8968436Y-9994297D01*
X8968436Y-9994297D02*
X8977960Y-10003821D01*
X8977960Y-10003821D02*
X8987484Y-10022868D01*
X8987484Y-10022868D02*
X8987484Y-10080011D01*
X8987484Y-10080011D02*
X8977960Y-10099059D01*
X8977960Y-10099059D02*
X8968436Y-10108583D01*
X8968436Y-10108583D02*
X8949388Y-10118106D01*
X8949388Y-10118106D02*
X8911293Y-10118106D01*
X8911293Y-10118106D02*
X8892246Y-10108583D01*
X9073198Y-10099059D02*
X9082722Y-10108583D01*
X9082722Y-10108583D02*
X9073198Y-10118106D01*
X9073198Y-10118106D02*
X9063674Y-10108583D01*
X9063674Y-10108583D02*
X9073198Y-10099059D01*
X9073198Y-10099059D02*
X9073198Y-10118106D01*
X9073198Y-9994297D02*
X9082722Y-10003821D01*
X9082722Y-10003821D02*
X9073198Y-10013344D01*
X9073198Y-10013344D02*
X9063674Y-10003821D01*
X9063674Y-10003821D02*
X9073198Y-9994297D01*
X9073198Y-9994297D02*
X9073198Y-10013344D01*
D10*
X7410512Y-10431383D02*
X7440992Y-10461863D01*
X7440992Y-10431383D02*
X7410512Y-10461863D01*
D11*
X7739864Y-10338106D02*
X7758912Y-10338106D01*
X7758912Y-10338106D02*
X7777960Y-10347630D01*
X7777960Y-10347630D02*
X7787484Y-10357154D01*
X7787484Y-10357154D02*
X7797007Y-10376202D01*
X7797007Y-10376202D02*
X7806531Y-10414297D01*
X7806531Y-10414297D02*
X7806531Y-10461916D01*
X7806531Y-10461916D02*
X7797007Y-10500011D01*
X7797007Y-10500011D02*
X7787484Y-10519059D01*
X7787484Y-10519059D02*
X7777960Y-10528583D01*
X7777960Y-10528583D02*
X7758912Y-10538106D01*
X7758912Y-10538106D02*
X7739864Y-10538106D01*
X7739864Y-10538106D02*
X7720817Y-10528583D01*
X7720817Y-10528583D02*
X7711293Y-10519059D01*
X7711293Y-10519059D02*
X7701769Y-10500011D01*
X7701769Y-10500011D02*
X7692245Y-10461916D01*
X7692245Y-10461916D02*
X7692245Y-10414297D01*
X7692245Y-10414297D02*
X7701769Y-10376202D01*
X7701769Y-10376202D02*
X7711293Y-10357154D01*
X7711293Y-10357154D02*
X7720817Y-10347630D01*
X7720817Y-10347630D02*
X7739864Y-10338106D01*
X7892245Y-10519059D02*
X7901769Y-10528583D01*
X7901769Y-10528583D02*
X7892245Y-10538106D01*
X7892245Y-10538106D02*
X7882722Y-10528583D01*
X7882722Y-10528583D02*
X7892245Y-10519059D01*
X7892245Y-10519059D02*
X7892245Y-10538106D01*
X7968436Y-10338106D02*
X8092245Y-10338106D01*
X8092245Y-10338106D02*
X8025579Y-10414297D01*
X8025579Y-10414297D02*
X8054150Y-10414297D01*
X8054150Y-10414297D02*
X8073198Y-10423821D01*
X8073198Y-10423821D02*
X8082722Y-10433344D01*
X8082722Y-10433344D02*
X8092245Y-10452392D01*
X8092245Y-10452392D02*
X8092245Y-10500011D01*
X8092245Y-10500011D02*
X8082722Y-10519059D01*
X8082722Y-10519059D02*
X8073198Y-10528583D01*
X8073198Y-10528583D02*
X8054150Y-10538106D01*
X8054150Y-10538106D02*
X7997007Y-10538106D01*
X7997007Y-10538106D02*
X7977960Y-10528583D01*
X7977960Y-10528583D02*
X7968436Y-10519059D01*
X8216055Y-10338106D02*
X8235103Y-10338106D01*
X8235103Y-10338106D02*
X8254150Y-10347630D01*
X8254150Y-10347630D02*
X8263674Y-10357154D01*
X8263674Y-10357154D02*
X8273198Y-10376202D01*
X8273198Y-10376202D02*
X8282722Y-10414297D01*
X8282722Y-10414297D02*
X8282722Y-10461916D01*
X8282722Y-10461916D02*
X8273198Y-10500011D01*
X8273198Y-10500011D02*
X8263674Y-10519059D01*
X8263674Y-10519059D02*
X8254150Y-10528583D01*
X8254150Y-10528583D02*
X8235103Y-10538106D01*
X8235103Y-10538106D02*
X8216055Y-10538106D01*
X8216055Y-10538106D02*
X8197007Y-10528583D01*
X8197007Y-10528583D02*
X8187484Y-10519059D01*
X8187484Y-10519059D02*
X8177960Y-10500011D01*
X8177960Y-10500011D02*
X8168436Y-10461916D01*
X8168436Y-10461916D02*
X8168436Y-10414297D01*
X8168436Y-10414297D02*
X8177960Y-10376202D01*
X8177960Y-10376202D02*
X8187484Y-10357154D01*
X8187484Y-10357154D02*
X8197007Y-10347630D01*
X8197007Y-10347630D02*
X8216055Y-10338106D01*
X8463674Y-10338106D02*
X8368436Y-10338106D01*
X8368436Y-10338106D02*
X8358912Y-10433344D01*
X8358912Y-10433344D02*
X8368436Y-10423821D01*
X8368436Y-10423821D02*
X8387484Y-10414297D01*
X8387484Y-10414297D02*
X8435103Y-10414297D01*
X8435103Y-10414297D02*
X8454150Y-10423821D01*
X8454150Y-10423821D02*
X8463674Y-10433344D01*
X8463674Y-10433344D02*
X8473198Y-10452392D01*
X8473198Y-10452392D02*
X8473198Y-10500011D01*
X8473198Y-10500011D02*
X8463674Y-10519059D01*
X8463674Y-10519059D02*
X8454150Y-10528583D01*
X8454150Y-10528583D02*
X8435103Y-10538106D01*
X8435103Y-10538106D02*
X8387484Y-10538106D01*
X8387484Y-10538106D02*
X8368436Y-10528583D01*
X8368436Y-10528583D02*
X8358912Y-10519059D01*
X8558912Y-10538106D02*
X8558912Y-10404773D01*
X8558912Y-10423821D02*
X8568436Y-10414297D01*
X8568436Y-10414297D02*
X8587484Y-10404773D01*
X8587484Y-10404773D02*
X8616055Y-10404773D01*
X8616055Y-10404773D02*
X8635103Y-10414297D01*
X8635103Y-10414297D02*
X8644627Y-10433344D01*
X8644627Y-10433344D02*
X8644627Y-10538106D01*
X8644627Y-10433344D02*
X8654150Y-10414297D01*
X8654150Y-10414297D02*
X8673198Y-10404773D01*
X8673198Y-10404773D02*
X8701769Y-10404773D01*
X8701769Y-10404773D02*
X8720817Y-10414297D01*
X8720817Y-10414297D02*
X8730341Y-10433344D01*
X8730341Y-10433344D02*
X8730341Y-10538106D01*
X8825579Y-10538106D02*
X8825579Y-10404773D01*
X8825579Y-10423821D02*
X8835103Y-10414297D01*
X8835103Y-10414297D02*
X8854150Y-10404773D01*
X8854150Y-10404773D02*
X8882722Y-10404773D01*
X8882722Y-10404773D02*
X8901769Y-10414297D01*
X8901769Y-10414297D02*
X8911293Y-10433344D01*
X8911293Y-10433344D02*
X8911293Y-10538106D01*
X8911293Y-10433344D02*
X8920817Y-10414297D01*
X8920817Y-10414297D02*
X8939865Y-10404773D01*
X8939865Y-10404773D02*
X8968436Y-10404773D01*
X8968436Y-10404773D02*
X8987484Y-10414297D01*
X8987484Y-10414297D02*
X8997008Y-10433344D01*
X8997008Y-10433344D02*
X8997008Y-10538106D01*
X9387484Y-10328583D02*
X9216055Y-10585725D01*
X9644627Y-10338106D02*
X9663674Y-10338106D01*
X9663674Y-10338106D02*
X9682722Y-10347630D01*
X9682722Y-10347630D02*
X9692246Y-10357154D01*
X9692246Y-10357154D02*
X9701770Y-10376202D01*
X9701770Y-10376202D02*
X9711293Y-10414297D01*
X9711293Y-10414297D02*
X9711293Y-10461916D01*
X9711293Y-10461916D02*
X9701770Y-10500011D01*
X9701770Y-10500011D02*
X9692246Y-10519059D01*
X9692246Y-10519059D02*
X9682722Y-10528583D01*
X9682722Y-10528583D02*
X9663674Y-10538106D01*
X9663674Y-10538106D02*
X9644627Y-10538106D01*
X9644627Y-10538106D02*
X9625579Y-10528583D01*
X9625579Y-10528583D02*
X9616055Y-10519059D01*
X9616055Y-10519059D02*
X9606531Y-10500011D01*
X9606531Y-10500011D02*
X9597008Y-10461916D01*
X9597008Y-10461916D02*
X9597008Y-10414297D01*
X9597008Y-10414297D02*
X9606531Y-10376202D01*
X9606531Y-10376202D02*
X9616055Y-10357154D01*
X9616055Y-10357154D02*
X9625579Y-10347630D01*
X9625579Y-10347630D02*
X9644627Y-10338106D01*
X9797008Y-10519059D02*
X9806531Y-10528583D01*
X9806531Y-10528583D02*
X9797008Y-10538106D01*
X9797008Y-10538106D02*
X9787484Y-10528583D01*
X9787484Y-10528583D02*
X9797008Y-10519059D01*
X9797008Y-10519059D02*
X9797008Y-10538106D01*
X9930341Y-10338106D02*
X9949389Y-10338106D01*
X9949389Y-10338106D02*
X9968436Y-10347630D01*
X9968436Y-10347630D02*
X9977960Y-10357154D01*
X9977960Y-10357154D02*
X9987484Y-10376202D01*
X9987484Y-10376202D02*
X9997008Y-10414297D01*
X9997008Y-10414297D02*
X9997008Y-10461916D01*
X9997008Y-10461916D02*
X9987484Y-10500011D01*
X9987484Y-10500011D02*
X9977960Y-10519059D01*
X9977960Y-10519059D02*
X9968436Y-10528583D01*
X9968436Y-10528583D02*
X9949389Y-10538106D01*
X9949389Y-10538106D02*
X9930341Y-10538106D01*
X9930341Y-10538106D02*
X9911293Y-10528583D01*
X9911293Y-10528583D02*
X9901770Y-10519059D01*
X9901770Y-10519059D02*
X9892246Y-10500011D01*
X9892246Y-10500011D02*
X9882722Y-10461916D01*
X9882722Y-10461916D02*
X9882722Y-10414297D01*
X9882722Y-10414297D02*
X9892246Y-10376202D01*
X9892246Y-10376202D02*
X9901770Y-10357154D01*
X9901770Y-10357154D02*
X9911293Y-10347630D01*
X9911293Y-10347630D02*
X9930341Y-10338106D01*
X10187484Y-10538106D02*
X10073198Y-10538106D01*
X10130341Y-10538106D02*
X10130341Y-10338106D01*
X10130341Y-10338106D02*
X10111293Y-10366678D01*
X10111293Y-10366678D02*
X10092246Y-10385725D01*
X10092246Y-10385725D02*
X10073198Y-10395249D01*
X10263674Y-10357154D02*
X10273198Y-10347630D01*
X10273198Y-10347630D02*
X10292246Y-10338106D01*
X10292246Y-10338106D02*
X10339865Y-10338106D01*
X10339865Y-10338106D02*
X10358912Y-10347630D01*
X10358912Y-10347630D02*
X10368436Y-10357154D01*
X10368436Y-10357154D02*
X10377960Y-10376202D01*
X10377960Y-10376202D02*
X10377960Y-10395249D01*
X10377960Y-10395249D02*
X10368436Y-10423821D01*
X10368436Y-10423821D02*
X10254151Y-10538106D01*
X10254151Y-10538106D02*
X10377960Y-10538106D01*
X10501770Y-10338106D02*
X10520817Y-10338106D01*
X10520817Y-10338106D02*
X10539865Y-10347630D01*
X10539865Y-10347630D02*
X10549389Y-10357154D01*
X10549389Y-10357154D02*
X10558912Y-10376202D01*
X10558912Y-10376202D02*
X10568436Y-10414297D01*
X10568436Y-10414297D02*
X10568436Y-10461916D01*
X10568436Y-10461916D02*
X10558912Y-10500011D01*
X10558912Y-10500011D02*
X10549389Y-10519059D01*
X10549389Y-10519059D02*
X10539865Y-10528583D01*
X10539865Y-10528583D02*
X10520817Y-10538106D01*
X10520817Y-10538106D02*
X10501770Y-10538106D01*
X10501770Y-10538106D02*
X10482722Y-10528583D01*
X10482722Y-10528583D02*
X10473198Y-10519059D01*
X10473198Y-10519059D02*
X10463674Y-10500011D01*
X10463674Y-10500011D02*
X10454151Y-10461916D01*
X10454151Y-10461916D02*
X10454151Y-10414297D01*
X10454151Y-10414297D02*
X10463674Y-10376202D01*
X10463674Y-10376202D02*
X10473198Y-10357154D01*
X10473198Y-10357154D02*
X10482722Y-10347630D01*
X10482722Y-10347630D02*
X10501770Y-10338106D01*
X10644627Y-10338106D02*
X10644627Y-10376202D01*
X10720817Y-10338106D02*
X10720817Y-10376202D01*
X11016055Y-10614297D02*
X11006532Y-10604773D01*
X11006532Y-10604773D02*
X10987484Y-10576202D01*
X10987484Y-10576202D02*
X10977960Y-10557154D01*
X10977960Y-10557154D02*
X10968436Y-10528583D01*
X10968436Y-10528583D02*
X10958913Y-10480963D01*
X10958913Y-10480963D02*
X10958913Y-10442868D01*
X10958913Y-10442868D02*
X10968436Y-10395249D01*
X10968436Y-10395249D02*
X10977960Y-10366678D01*
X10977960Y-10366678D02*
X10987484Y-10347630D01*
X10987484Y-10347630D02*
X11006532Y-10319059D01*
X11006532Y-10319059D02*
X11016055Y-10309535D01*
X11082722Y-10357154D02*
X11092246Y-10347630D01*
X11092246Y-10347630D02*
X11111293Y-10338106D01*
X11111293Y-10338106D02*
X11158913Y-10338106D01*
X11158913Y-10338106D02*
X11177960Y-10347630D01*
X11177960Y-10347630D02*
X11187484Y-10357154D01*
X11187484Y-10357154D02*
X11197008Y-10376202D01*
X11197008Y-10376202D02*
X11197008Y-10395249D01*
X11197008Y-10395249D02*
X11187484Y-10423821D01*
X11187484Y-10423821D02*
X11073198Y-10538106D01*
X11073198Y-10538106D02*
X11197008Y-10538106D01*
X11273198Y-10357154D02*
X11282722Y-10347630D01*
X11282722Y-10347630D02*
X11301770Y-10338106D01*
X11301770Y-10338106D02*
X11349389Y-10338106D01*
X11349389Y-10338106D02*
X11368436Y-10347630D01*
X11368436Y-10347630D02*
X11377960Y-10357154D01*
X11377960Y-10357154D02*
X11387484Y-10376202D01*
X11387484Y-10376202D02*
X11387484Y-10395249D01*
X11387484Y-10395249D02*
X11377960Y-10423821D01*
X11377960Y-10423821D02*
X11263674Y-10538106D01*
X11263674Y-10538106D02*
X11387484Y-10538106D01*
X11625579Y-10538106D02*
X11625579Y-10338106D01*
X11711293Y-10538106D02*
X11711293Y-10433344D01*
X11711293Y-10433344D02*
X11701770Y-10414297D01*
X11701770Y-10414297D02*
X11682722Y-10404773D01*
X11682722Y-10404773D02*
X11654151Y-10404773D01*
X11654151Y-10404773D02*
X11635103Y-10414297D01*
X11635103Y-10414297D02*
X11625579Y-10423821D01*
X11835103Y-10538106D02*
X11816055Y-10528583D01*
X11816055Y-10528583D02*
X11806532Y-10519059D01*
X11806532Y-10519059D02*
X11797008Y-10500011D01*
X11797008Y-10500011D02*
X11797008Y-10442868D01*
X11797008Y-10442868D02*
X11806532Y-10423821D01*
X11806532Y-10423821D02*
X11816055Y-10414297D01*
X11816055Y-10414297D02*
X11835103Y-10404773D01*
X11835103Y-10404773D02*
X11863674Y-10404773D01*
X11863674Y-10404773D02*
X11882722Y-10414297D01*
X11882722Y-10414297D02*
X11892246Y-10423821D01*
X11892246Y-10423821D02*
X11901770Y-10442868D01*
X11901770Y-10442868D02*
X11901770Y-10500011D01*
X11901770Y-10500011D02*
X11892246Y-10519059D01*
X11892246Y-10519059D02*
X11882722Y-10528583D01*
X11882722Y-10528583D02*
X11863674Y-10538106D01*
X11863674Y-10538106D02*
X11835103Y-10538106D01*
X12016055Y-10538106D02*
X11997008Y-10528583D01*
X11997008Y-10528583D02*
X11987484Y-10509535D01*
X11987484Y-10509535D02*
X11987484Y-10338106D01*
X12168436Y-10528583D02*
X12149389Y-10538106D01*
X12149389Y-10538106D02*
X12111293Y-10538106D01*
X12111293Y-10538106D02*
X12092246Y-10528583D01*
X12092246Y-10528583D02*
X12082722Y-10509535D01*
X12082722Y-10509535D02*
X12082722Y-10433344D01*
X12082722Y-10433344D02*
X12092246Y-10414297D01*
X12092246Y-10414297D02*
X12111293Y-10404773D01*
X12111293Y-10404773D02*
X12149389Y-10404773D01*
X12149389Y-10404773D02*
X12168436Y-10414297D01*
X12168436Y-10414297D02*
X12177960Y-10433344D01*
X12177960Y-10433344D02*
X12177960Y-10452392D01*
X12177960Y-10452392D02*
X12082722Y-10471440D01*
X12254151Y-10528583D02*
X12273198Y-10538106D01*
X12273198Y-10538106D02*
X12311293Y-10538106D01*
X12311293Y-10538106D02*
X12330341Y-10528583D01*
X12330341Y-10528583D02*
X12339865Y-10509535D01*
X12339865Y-10509535D02*
X12339865Y-10500011D01*
X12339865Y-10500011D02*
X12330341Y-10480963D01*
X12330341Y-10480963D02*
X12311293Y-10471440D01*
X12311293Y-10471440D02*
X12282722Y-10471440D01*
X12282722Y-10471440D02*
X12263674Y-10461916D01*
X12263674Y-10461916D02*
X12254151Y-10442868D01*
X12254151Y-10442868D02*
X12254151Y-10433344D01*
X12254151Y-10433344D02*
X12263674Y-10414297D01*
X12263674Y-10414297D02*
X12282722Y-10404773D01*
X12282722Y-10404773D02*
X12311293Y-10404773D01*
X12311293Y-10404773D02*
X12330341Y-10414297D01*
X12406532Y-10614297D02*
X12416055Y-10604773D01*
X12416055Y-10604773D02*
X12435103Y-10576202D01*
X12435103Y-10576202D02*
X12444627Y-10557154D01*
X12444627Y-10557154D02*
X12454151Y-10528583D01*
X12454151Y-10528583D02*
X12463674Y-10480963D01*
X12463674Y-10480963D02*
X12463674Y-10442868D01*
X12463674Y-10442868D02*
X12454151Y-10395249D01*
X12454151Y-10395249D02*
X12444627Y-10366678D01*
X12444627Y-10366678D02*
X12435103Y-10347630D01*
X12435103Y-10347630D02*
X12416055Y-10319059D01*
X12416055Y-10319059D02*
X12406532Y-10309535D01*
D10*
X7440992Y-10710623D02*
G75*
G02*
X7402892Y-10710623I-19050J0D01*
G01*
X7402892Y-10710623D02*
G75*
G02*
X7440992Y-10710623I19050J0D01*
G01*
D11*
X7739864Y-10602106D02*
X7758912Y-10602106D01*
X7758912Y-10602106D02*
X7777960Y-10611630D01*
X7777960Y-10611630D02*
X7787484Y-10621154D01*
X7787484Y-10621154D02*
X7797007Y-10640202D01*
X7797007Y-10640202D02*
X7806531Y-10678297D01*
X7806531Y-10678297D02*
X7806531Y-10725916D01*
X7806531Y-10725916D02*
X7797007Y-10764011D01*
X7797007Y-10764011D02*
X7787484Y-10783059D01*
X7787484Y-10783059D02*
X7777960Y-10792583D01*
X7777960Y-10792583D02*
X7758912Y-10802106D01*
X7758912Y-10802106D02*
X7739864Y-10802106D01*
X7739864Y-10802106D02*
X7720817Y-10792583D01*
X7720817Y-10792583D02*
X7711293Y-10783059D01*
X7711293Y-10783059D02*
X7701769Y-10764011D01*
X7701769Y-10764011D02*
X7692245Y-10725916D01*
X7692245Y-10725916D02*
X7692245Y-10678297D01*
X7692245Y-10678297D02*
X7701769Y-10640202D01*
X7701769Y-10640202D02*
X7711293Y-10621154D01*
X7711293Y-10621154D02*
X7720817Y-10611630D01*
X7720817Y-10611630D02*
X7739864Y-10602106D01*
X7892245Y-10783059D02*
X7901769Y-10792583D01*
X7901769Y-10792583D02*
X7892245Y-10802106D01*
X7892245Y-10802106D02*
X7882722Y-10792583D01*
X7882722Y-10792583D02*
X7892245Y-10783059D01*
X7892245Y-10783059D02*
X7892245Y-10802106D01*
X7968436Y-10602106D02*
X8092245Y-10602106D01*
X8092245Y-10602106D02*
X8025579Y-10678297D01*
X8025579Y-10678297D02*
X8054150Y-10678297D01*
X8054150Y-10678297D02*
X8073198Y-10687821D01*
X8073198Y-10687821D02*
X8082722Y-10697344D01*
X8082722Y-10697344D02*
X8092245Y-10716392D01*
X8092245Y-10716392D02*
X8092245Y-10764011D01*
X8092245Y-10764011D02*
X8082722Y-10783059D01*
X8082722Y-10783059D02*
X8073198Y-10792583D01*
X8073198Y-10792583D02*
X8054150Y-10802106D01*
X8054150Y-10802106D02*
X7997007Y-10802106D01*
X7997007Y-10802106D02*
X7977960Y-10792583D01*
X7977960Y-10792583D02*
X7968436Y-10783059D01*
X8206531Y-10687821D02*
X8187484Y-10678297D01*
X8187484Y-10678297D02*
X8177960Y-10668773D01*
X8177960Y-10668773D02*
X8168436Y-10649725D01*
X8168436Y-10649725D02*
X8168436Y-10640202D01*
X8168436Y-10640202D02*
X8177960Y-10621154D01*
X8177960Y-10621154D02*
X8187484Y-10611630D01*
X8187484Y-10611630D02*
X8206531Y-10602106D01*
X8206531Y-10602106D02*
X8244626Y-10602106D01*
X8244626Y-10602106D02*
X8263674Y-10611630D01*
X8263674Y-10611630D02*
X8273198Y-10621154D01*
X8273198Y-10621154D02*
X8282722Y-10640202D01*
X8282722Y-10640202D02*
X8282722Y-10649725D01*
X8282722Y-10649725D02*
X8273198Y-10668773D01*
X8273198Y-10668773D02*
X8263674Y-10678297D01*
X8263674Y-10678297D02*
X8244626Y-10687821D01*
X8244626Y-10687821D02*
X8206531Y-10687821D01*
X8206531Y-10687821D02*
X8187484Y-10697344D01*
X8187484Y-10697344D02*
X8177960Y-10706868D01*
X8177960Y-10706868D02*
X8168436Y-10725916D01*
X8168436Y-10725916D02*
X8168436Y-10764011D01*
X8168436Y-10764011D02*
X8177960Y-10783059D01*
X8177960Y-10783059D02*
X8187484Y-10792583D01*
X8187484Y-10792583D02*
X8206531Y-10802106D01*
X8206531Y-10802106D02*
X8244626Y-10802106D01*
X8244626Y-10802106D02*
X8263674Y-10792583D01*
X8263674Y-10792583D02*
X8273198Y-10783059D01*
X8273198Y-10783059D02*
X8282722Y-10764011D01*
X8282722Y-10764011D02*
X8282722Y-10725916D01*
X8282722Y-10725916D02*
X8273198Y-10706868D01*
X8273198Y-10706868D02*
X8263674Y-10697344D01*
X8263674Y-10697344D02*
X8244626Y-10687821D01*
X8473198Y-10802106D02*
X8358912Y-10802106D01*
X8416055Y-10802106D02*
X8416055Y-10602106D01*
X8416055Y-10602106D02*
X8397007Y-10630678D01*
X8397007Y-10630678D02*
X8377960Y-10649725D01*
X8377960Y-10649725D02*
X8358912Y-10659249D01*
X8558912Y-10802106D02*
X8558912Y-10668773D01*
X8558912Y-10687821D02*
X8568436Y-10678297D01*
X8568436Y-10678297D02*
X8587484Y-10668773D01*
X8587484Y-10668773D02*
X8616055Y-10668773D01*
X8616055Y-10668773D02*
X8635103Y-10678297D01*
X8635103Y-10678297D02*
X8644627Y-10697344D01*
X8644627Y-10697344D02*
X8644627Y-10802106D01*
X8644627Y-10697344D02*
X8654150Y-10678297D01*
X8654150Y-10678297D02*
X8673198Y-10668773D01*
X8673198Y-10668773D02*
X8701769Y-10668773D01*
X8701769Y-10668773D02*
X8720817Y-10678297D01*
X8720817Y-10678297D02*
X8730341Y-10697344D01*
X8730341Y-10697344D02*
X8730341Y-10802106D01*
X8825579Y-10802106D02*
X8825579Y-10668773D01*
X8825579Y-10687821D02*
X8835103Y-10678297D01*
X8835103Y-10678297D02*
X8854150Y-10668773D01*
X8854150Y-10668773D02*
X8882722Y-10668773D01*
X8882722Y-10668773D02*
X8901769Y-10678297D01*
X8901769Y-10678297D02*
X8911293Y-10697344D01*
X8911293Y-10697344D02*
X8911293Y-10802106D01*
X8911293Y-10697344D02*
X8920817Y-10678297D01*
X8920817Y-10678297D02*
X8939865Y-10668773D01*
X8939865Y-10668773D02*
X8968436Y-10668773D01*
X8968436Y-10668773D02*
X8987484Y-10678297D01*
X8987484Y-10678297D02*
X8997008Y-10697344D01*
X8997008Y-10697344D02*
X8997008Y-10802106D01*
X9387484Y-10592583D02*
X9216055Y-10849725D01*
X9644627Y-10602106D02*
X9663674Y-10602106D01*
X9663674Y-10602106D02*
X9682722Y-10611630D01*
X9682722Y-10611630D02*
X9692246Y-10621154D01*
X9692246Y-10621154D02*
X9701770Y-10640202D01*
X9701770Y-10640202D02*
X9711293Y-10678297D01*
X9711293Y-10678297D02*
X9711293Y-10725916D01*
X9711293Y-10725916D02*
X9701770Y-10764011D01*
X9701770Y-10764011D02*
X9692246Y-10783059D01*
X9692246Y-10783059D02*
X9682722Y-10792583D01*
X9682722Y-10792583D02*
X9663674Y-10802106D01*
X9663674Y-10802106D02*
X9644627Y-10802106D01*
X9644627Y-10802106D02*
X9625579Y-10792583D01*
X9625579Y-10792583D02*
X9616055Y-10783059D01*
X9616055Y-10783059D02*
X9606531Y-10764011D01*
X9606531Y-10764011D02*
X9597008Y-10725916D01*
X9597008Y-10725916D02*
X9597008Y-10678297D01*
X9597008Y-10678297D02*
X9606531Y-10640202D01*
X9606531Y-10640202D02*
X9616055Y-10621154D01*
X9616055Y-10621154D02*
X9625579Y-10611630D01*
X9625579Y-10611630D02*
X9644627Y-10602106D01*
X9797008Y-10783059D02*
X9806531Y-10792583D01*
X9806531Y-10792583D02*
X9797008Y-10802106D01*
X9797008Y-10802106D02*
X9787484Y-10792583D01*
X9787484Y-10792583D02*
X9797008Y-10783059D01*
X9797008Y-10783059D02*
X9797008Y-10802106D01*
X9930341Y-10602106D02*
X9949389Y-10602106D01*
X9949389Y-10602106D02*
X9968436Y-10611630D01*
X9968436Y-10611630D02*
X9977960Y-10621154D01*
X9977960Y-10621154D02*
X9987484Y-10640202D01*
X9987484Y-10640202D02*
X9997008Y-10678297D01*
X9997008Y-10678297D02*
X9997008Y-10725916D01*
X9997008Y-10725916D02*
X9987484Y-10764011D01*
X9987484Y-10764011D02*
X9977960Y-10783059D01*
X9977960Y-10783059D02*
X9968436Y-10792583D01*
X9968436Y-10792583D02*
X9949389Y-10802106D01*
X9949389Y-10802106D02*
X9930341Y-10802106D01*
X9930341Y-10802106D02*
X9911293Y-10792583D01*
X9911293Y-10792583D02*
X9901770Y-10783059D01*
X9901770Y-10783059D02*
X9892246Y-10764011D01*
X9892246Y-10764011D02*
X9882722Y-10725916D01*
X9882722Y-10725916D02*
X9882722Y-10678297D01*
X9882722Y-10678297D02*
X9892246Y-10640202D01*
X9892246Y-10640202D02*
X9901770Y-10621154D01*
X9901770Y-10621154D02*
X9911293Y-10611630D01*
X9911293Y-10611630D02*
X9930341Y-10602106D01*
X10187484Y-10802106D02*
X10073198Y-10802106D01*
X10130341Y-10802106D02*
X10130341Y-10602106D01*
X10130341Y-10602106D02*
X10111293Y-10630678D01*
X10111293Y-10630678D02*
X10092246Y-10649725D01*
X10092246Y-10649725D02*
X10073198Y-10659249D01*
X10368436Y-10602106D02*
X10273198Y-10602106D01*
X10273198Y-10602106D02*
X10263674Y-10697344D01*
X10263674Y-10697344D02*
X10273198Y-10687821D01*
X10273198Y-10687821D02*
X10292246Y-10678297D01*
X10292246Y-10678297D02*
X10339865Y-10678297D01*
X10339865Y-10678297D02*
X10358912Y-10687821D01*
X10358912Y-10687821D02*
X10368436Y-10697344D01*
X10368436Y-10697344D02*
X10377960Y-10716392D01*
X10377960Y-10716392D02*
X10377960Y-10764011D01*
X10377960Y-10764011D02*
X10368436Y-10783059D01*
X10368436Y-10783059D02*
X10358912Y-10792583D01*
X10358912Y-10792583D02*
X10339865Y-10802106D01*
X10339865Y-10802106D02*
X10292246Y-10802106D01*
X10292246Y-10802106D02*
X10273198Y-10792583D01*
X10273198Y-10792583D02*
X10263674Y-10783059D01*
X10501770Y-10602106D02*
X10520817Y-10602106D01*
X10520817Y-10602106D02*
X10539865Y-10611630D01*
X10539865Y-10611630D02*
X10549389Y-10621154D01*
X10549389Y-10621154D02*
X10558912Y-10640202D01*
X10558912Y-10640202D02*
X10568436Y-10678297D01*
X10568436Y-10678297D02*
X10568436Y-10725916D01*
X10568436Y-10725916D02*
X10558912Y-10764011D01*
X10558912Y-10764011D02*
X10549389Y-10783059D01*
X10549389Y-10783059D02*
X10539865Y-10792583D01*
X10539865Y-10792583D02*
X10520817Y-10802106D01*
X10520817Y-10802106D02*
X10501770Y-10802106D01*
X10501770Y-10802106D02*
X10482722Y-10792583D01*
X10482722Y-10792583D02*
X10473198Y-10783059D01*
X10473198Y-10783059D02*
X10463674Y-10764011D01*
X10463674Y-10764011D02*
X10454151Y-10725916D01*
X10454151Y-10725916D02*
X10454151Y-10678297D01*
X10454151Y-10678297D02*
X10463674Y-10640202D01*
X10463674Y-10640202D02*
X10473198Y-10621154D01*
X10473198Y-10621154D02*
X10482722Y-10611630D01*
X10482722Y-10611630D02*
X10501770Y-10602106D01*
X10644627Y-10602106D02*
X10644627Y-10640202D01*
X10720817Y-10602106D02*
X10720817Y-10640202D01*
X11016055Y-10878297D02*
X11006532Y-10868773D01*
X11006532Y-10868773D02*
X10987484Y-10840202D01*
X10987484Y-10840202D02*
X10977960Y-10821154D01*
X10977960Y-10821154D02*
X10968436Y-10792583D01*
X10968436Y-10792583D02*
X10958913Y-10744963D01*
X10958913Y-10744963D02*
X10958913Y-10706868D01*
X10958913Y-10706868D02*
X10968436Y-10659249D01*
X10968436Y-10659249D02*
X10977960Y-10630678D01*
X10977960Y-10630678D02*
X10987484Y-10611630D01*
X10987484Y-10611630D02*
X11006532Y-10583059D01*
X11006532Y-10583059D02*
X11016055Y-10573535D01*
X11101770Y-10802106D02*
X11139865Y-10802106D01*
X11139865Y-10802106D02*
X11158913Y-10792583D01*
X11158913Y-10792583D02*
X11168436Y-10783059D01*
X11168436Y-10783059D02*
X11187484Y-10754487D01*
X11187484Y-10754487D02*
X11197008Y-10716392D01*
X11197008Y-10716392D02*
X11197008Y-10640202D01*
X11197008Y-10640202D02*
X11187484Y-10621154D01*
X11187484Y-10621154D02*
X11177960Y-10611630D01*
X11177960Y-10611630D02*
X11158913Y-10602106D01*
X11158913Y-10602106D02*
X11120817Y-10602106D01*
X11120817Y-10602106D02*
X11101770Y-10611630D01*
X11101770Y-10611630D02*
X11092246Y-10621154D01*
X11092246Y-10621154D02*
X11082722Y-10640202D01*
X11082722Y-10640202D02*
X11082722Y-10687821D01*
X11082722Y-10687821D02*
X11092246Y-10706868D01*
X11092246Y-10706868D02*
X11101770Y-10716392D01*
X11101770Y-10716392D02*
X11120817Y-10725916D01*
X11120817Y-10725916D02*
X11158913Y-10725916D01*
X11158913Y-10725916D02*
X11177960Y-10716392D01*
X11177960Y-10716392D02*
X11187484Y-10706868D01*
X11187484Y-10706868D02*
X11197008Y-10687821D01*
X11435103Y-10802106D02*
X11435103Y-10602106D01*
X11520817Y-10802106D02*
X11520817Y-10697344D01*
X11520817Y-10697344D02*
X11511293Y-10678297D01*
X11511293Y-10678297D02*
X11492246Y-10668773D01*
X11492246Y-10668773D02*
X11463674Y-10668773D01*
X11463674Y-10668773D02*
X11444627Y-10678297D01*
X11444627Y-10678297D02*
X11435103Y-10687821D01*
X11644627Y-10802106D02*
X11625579Y-10792583D01*
X11625579Y-10792583D02*
X11616055Y-10783059D01*
X11616055Y-10783059D02*
X11606532Y-10764011D01*
X11606532Y-10764011D02*
X11606532Y-10706868D01*
X11606532Y-10706868D02*
X11616055Y-10687821D01*
X11616055Y-10687821D02*
X11625579Y-10678297D01*
X11625579Y-10678297D02*
X11644627Y-10668773D01*
X11644627Y-10668773D02*
X11673198Y-10668773D01*
X11673198Y-10668773D02*
X11692246Y-10678297D01*
X11692246Y-10678297D02*
X11701770Y-10687821D01*
X11701770Y-10687821D02*
X11711293Y-10706868D01*
X11711293Y-10706868D02*
X11711293Y-10764011D01*
X11711293Y-10764011D02*
X11701770Y-10783059D01*
X11701770Y-10783059D02*
X11692246Y-10792583D01*
X11692246Y-10792583D02*
X11673198Y-10802106D01*
X11673198Y-10802106D02*
X11644627Y-10802106D01*
X11825579Y-10802106D02*
X11806532Y-10792583D01*
X11806532Y-10792583D02*
X11797008Y-10773535D01*
X11797008Y-10773535D02*
X11797008Y-10602106D01*
X11977960Y-10792583D02*
X11958913Y-10802106D01*
X11958913Y-10802106D02*
X11920817Y-10802106D01*
X11920817Y-10802106D02*
X11901770Y-10792583D01*
X11901770Y-10792583D02*
X11892246Y-10773535D01*
X11892246Y-10773535D02*
X11892246Y-10697344D01*
X11892246Y-10697344D02*
X11901770Y-10678297D01*
X11901770Y-10678297D02*
X11920817Y-10668773D01*
X11920817Y-10668773D02*
X11958913Y-10668773D01*
X11958913Y-10668773D02*
X11977960Y-10678297D01*
X11977960Y-10678297D02*
X11987484Y-10697344D01*
X11987484Y-10697344D02*
X11987484Y-10716392D01*
X11987484Y-10716392D02*
X11892246Y-10735440D01*
X12063674Y-10792583D02*
X12082722Y-10802106D01*
X12082722Y-10802106D02*
X12120817Y-10802106D01*
X12120817Y-10802106D02*
X12139865Y-10792583D01*
X12139865Y-10792583D02*
X12149389Y-10773535D01*
X12149389Y-10773535D02*
X12149389Y-10764011D01*
X12149389Y-10764011D02*
X12139865Y-10744963D01*
X12139865Y-10744963D02*
X12120817Y-10735440D01*
X12120817Y-10735440D02*
X12092246Y-10735440D01*
X12092246Y-10735440D02*
X12073198Y-10725916D01*
X12073198Y-10725916D02*
X12063674Y-10706868D01*
X12063674Y-10706868D02*
X12063674Y-10697344D01*
X12063674Y-10697344D02*
X12073198Y-10678297D01*
X12073198Y-10678297D02*
X12092246Y-10668773D01*
X12092246Y-10668773D02*
X12120817Y-10668773D01*
X12120817Y-10668773D02*
X12139865Y-10678297D01*
X12216055Y-10878297D02*
X12225579Y-10868773D01*
X12225579Y-10868773D02*
X12244627Y-10840202D01*
X12244627Y-10840202D02*
X12254151Y-10821154D01*
X12254151Y-10821154D02*
X12263674Y-10792583D01*
X12263674Y-10792583D02*
X12273198Y-10744963D01*
X12273198Y-10744963D02*
X12273198Y-10706868D01*
X12273198Y-10706868D02*
X12263674Y-10659249D01*
X12263674Y-10659249D02*
X12254151Y-10630678D01*
X12254151Y-10630678D02*
X12244627Y-10611630D01*
X12244627Y-10611630D02*
X12225579Y-10583059D01*
X12225579Y-10583059D02*
X12216055Y-10573535D01*
D10*
X7420992Y-10954623D02*
X7420992Y-10994623D01*
X7400992Y-10974623D02*
X7440992Y-10974623D01*
D11*
X7739864Y-10866106D02*
X7758912Y-10866106D01*
X7758912Y-10866106D02*
X7777960Y-10875630D01*
X7777960Y-10875630D02*
X7787484Y-10885154D01*
X7787484Y-10885154D02*
X7797007Y-10904202D01*
X7797007Y-10904202D02*
X7806531Y-10942297D01*
X7806531Y-10942297D02*
X7806531Y-10989916D01*
X7806531Y-10989916D02*
X7797007Y-11028011D01*
X7797007Y-11028011D02*
X7787484Y-11047059D01*
X7787484Y-11047059D02*
X7777960Y-11056583D01*
X7777960Y-11056583D02*
X7758912Y-11066106D01*
X7758912Y-11066106D02*
X7739864Y-11066106D01*
X7739864Y-11066106D02*
X7720817Y-11056583D01*
X7720817Y-11056583D02*
X7711293Y-11047059D01*
X7711293Y-11047059D02*
X7701769Y-11028011D01*
X7701769Y-11028011D02*
X7692245Y-10989916D01*
X7692245Y-10989916D02*
X7692245Y-10942297D01*
X7692245Y-10942297D02*
X7701769Y-10904202D01*
X7701769Y-10904202D02*
X7711293Y-10885154D01*
X7711293Y-10885154D02*
X7720817Y-10875630D01*
X7720817Y-10875630D02*
X7739864Y-10866106D01*
X7892245Y-11047059D02*
X7901769Y-11056583D01*
X7901769Y-11056583D02*
X7892245Y-11066106D01*
X7892245Y-11066106D02*
X7882722Y-11056583D01*
X7882722Y-11056583D02*
X7892245Y-11047059D01*
X7892245Y-11047059D02*
X7892245Y-11066106D01*
X8073198Y-10932773D02*
X8073198Y-11066106D01*
X8025579Y-10856583D02*
X7977960Y-10999440D01*
X7977960Y-10999440D02*
X8101769Y-10999440D01*
X8216055Y-10866106D02*
X8235103Y-10866106D01*
X8235103Y-10866106D02*
X8254150Y-10875630D01*
X8254150Y-10875630D02*
X8263674Y-10885154D01*
X8263674Y-10885154D02*
X8273198Y-10904202D01*
X8273198Y-10904202D02*
X8282722Y-10942297D01*
X8282722Y-10942297D02*
X8282722Y-10989916D01*
X8282722Y-10989916D02*
X8273198Y-11028011D01*
X8273198Y-11028011D02*
X8263674Y-11047059D01*
X8263674Y-11047059D02*
X8254150Y-11056583D01*
X8254150Y-11056583D02*
X8235103Y-11066106D01*
X8235103Y-11066106D02*
X8216055Y-11066106D01*
X8216055Y-11066106D02*
X8197007Y-11056583D01*
X8197007Y-11056583D02*
X8187484Y-11047059D01*
X8187484Y-11047059D02*
X8177960Y-11028011D01*
X8177960Y-11028011D02*
X8168436Y-10989916D01*
X8168436Y-10989916D02*
X8168436Y-10942297D01*
X8168436Y-10942297D02*
X8177960Y-10904202D01*
X8177960Y-10904202D02*
X8187484Y-10885154D01*
X8187484Y-10885154D02*
X8197007Y-10875630D01*
X8197007Y-10875630D02*
X8216055Y-10866106D01*
X8406531Y-10866106D02*
X8425579Y-10866106D01*
X8425579Y-10866106D02*
X8444627Y-10875630D01*
X8444627Y-10875630D02*
X8454150Y-10885154D01*
X8454150Y-10885154D02*
X8463674Y-10904202D01*
X8463674Y-10904202D02*
X8473198Y-10942297D01*
X8473198Y-10942297D02*
X8473198Y-10989916D01*
X8473198Y-10989916D02*
X8463674Y-11028011D01*
X8463674Y-11028011D02*
X8454150Y-11047059D01*
X8454150Y-11047059D02*
X8444627Y-11056583D01*
X8444627Y-11056583D02*
X8425579Y-11066106D01*
X8425579Y-11066106D02*
X8406531Y-11066106D01*
X8406531Y-11066106D02*
X8387484Y-11056583D01*
X8387484Y-11056583D02*
X8377960Y-11047059D01*
X8377960Y-11047059D02*
X8368436Y-11028011D01*
X8368436Y-11028011D02*
X8358912Y-10989916D01*
X8358912Y-10989916D02*
X8358912Y-10942297D01*
X8358912Y-10942297D02*
X8368436Y-10904202D01*
X8368436Y-10904202D02*
X8377960Y-10885154D01*
X8377960Y-10885154D02*
X8387484Y-10875630D01*
X8387484Y-10875630D02*
X8406531Y-10866106D01*
X8558912Y-11066106D02*
X8558912Y-10932773D01*
X8558912Y-10951821D02*
X8568436Y-10942297D01*
X8568436Y-10942297D02*
X8587484Y-10932773D01*
X8587484Y-10932773D02*
X8616055Y-10932773D01*
X8616055Y-10932773D02*
X8635103Y-10942297D01*
X8635103Y-10942297D02*
X8644627Y-10961344D01*
X8644627Y-10961344D02*
X8644627Y-11066106D01*
X8644627Y-10961344D02*
X8654150Y-10942297D01*
X8654150Y-10942297D02*
X8673198Y-10932773D01*
X8673198Y-10932773D02*
X8701769Y-10932773D01*
X8701769Y-10932773D02*
X8720817Y-10942297D01*
X8720817Y-10942297D02*
X8730341Y-10961344D01*
X8730341Y-10961344D02*
X8730341Y-11066106D01*
X8825579Y-11066106D02*
X8825579Y-10932773D01*
X8825579Y-10951821D02*
X8835103Y-10942297D01*
X8835103Y-10942297D02*
X8854150Y-10932773D01*
X8854150Y-10932773D02*
X8882722Y-10932773D01*
X8882722Y-10932773D02*
X8901769Y-10942297D01*
X8901769Y-10942297D02*
X8911293Y-10961344D01*
X8911293Y-10961344D02*
X8911293Y-11066106D01*
X8911293Y-10961344D02*
X8920817Y-10942297D01*
X8920817Y-10942297D02*
X8939865Y-10932773D01*
X8939865Y-10932773D02*
X8968436Y-10932773D01*
X8968436Y-10932773D02*
X8987484Y-10942297D01*
X8987484Y-10942297D02*
X8997008Y-10961344D01*
X8997008Y-10961344D02*
X8997008Y-11066106D01*
X9387484Y-10856583D02*
X9216055Y-11113725D01*
X9644627Y-10866106D02*
X9663674Y-10866106D01*
X9663674Y-10866106D02*
X9682722Y-10875630D01*
X9682722Y-10875630D02*
X9692246Y-10885154D01*
X9692246Y-10885154D02*
X9701770Y-10904202D01*
X9701770Y-10904202D02*
X9711293Y-10942297D01*
X9711293Y-10942297D02*
X9711293Y-10989916D01*
X9711293Y-10989916D02*
X9701770Y-11028011D01*
X9701770Y-11028011D02*
X9692246Y-11047059D01*
X9692246Y-11047059D02*
X9682722Y-11056583D01*
X9682722Y-11056583D02*
X9663674Y-11066106D01*
X9663674Y-11066106D02*
X9644627Y-11066106D01*
X9644627Y-11066106D02*
X9625579Y-11056583D01*
X9625579Y-11056583D02*
X9616055Y-11047059D01*
X9616055Y-11047059D02*
X9606531Y-11028011D01*
X9606531Y-11028011D02*
X9597008Y-10989916D01*
X9597008Y-10989916D02*
X9597008Y-10942297D01*
X9597008Y-10942297D02*
X9606531Y-10904202D01*
X9606531Y-10904202D02*
X9616055Y-10885154D01*
X9616055Y-10885154D02*
X9625579Y-10875630D01*
X9625579Y-10875630D02*
X9644627Y-10866106D01*
X9797008Y-11047059D02*
X9806531Y-11056583D01*
X9806531Y-11056583D02*
X9797008Y-11066106D01*
X9797008Y-11066106D02*
X9787484Y-11056583D01*
X9787484Y-11056583D02*
X9797008Y-11047059D01*
X9797008Y-11047059D02*
X9797008Y-11066106D01*
X9930341Y-10866106D02*
X9949389Y-10866106D01*
X9949389Y-10866106D02*
X9968436Y-10875630D01*
X9968436Y-10875630D02*
X9977960Y-10885154D01*
X9977960Y-10885154D02*
X9987484Y-10904202D01*
X9987484Y-10904202D02*
X9997008Y-10942297D01*
X9997008Y-10942297D02*
X9997008Y-10989916D01*
X9997008Y-10989916D02*
X9987484Y-11028011D01*
X9987484Y-11028011D02*
X9977960Y-11047059D01*
X9977960Y-11047059D02*
X9968436Y-11056583D01*
X9968436Y-11056583D02*
X9949389Y-11066106D01*
X9949389Y-11066106D02*
X9930341Y-11066106D01*
X9930341Y-11066106D02*
X9911293Y-11056583D01*
X9911293Y-11056583D02*
X9901770Y-11047059D01*
X9901770Y-11047059D02*
X9892246Y-11028011D01*
X9892246Y-11028011D02*
X9882722Y-10989916D01*
X9882722Y-10989916D02*
X9882722Y-10942297D01*
X9882722Y-10942297D02*
X9892246Y-10904202D01*
X9892246Y-10904202D02*
X9901770Y-10885154D01*
X9901770Y-10885154D02*
X9911293Y-10875630D01*
X9911293Y-10875630D02*
X9930341Y-10866106D01*
X10187484Y-11066106D02*
X10073198Y-11066106D01*
X10130341Y-11066106D02*
X10130341Y-10866106D01*
X10130341Y-10866106D02*
X10111293Y-10894678D01*
X10111293Y-10894678D02*
X10092246Y-10913725D01*
X10092246Y-10913725D02*
X10073198Y-10923249D01*
X10368436Y-10866106D02*
X10273198Y-10866106D01*
X10273198Y-10866106D02*
X10263674Y-10961344D01*
X10263674Y-10961344D02*
X10273198Y-10951821D01*
X10273198Y-10951821D02*
X10292246Y-10942297D01*
X10292246Y-10942297D02*
X10339865Y-10942297D01*
X10339865Y-10942297D02*
X10358912Y-10951821D01*
X10358912Y-10951821D02*
X10368436Y-10961344D01*
X10368436Y-10961344D02*
X10377960Y-10980392D01*
X10377960Y-10980392D02*
X10377960Y-11028011D01*
X10377960Y-11028011D02*
X10368436Y-11047059D01*
X10368436Y-11047059D02*
X10358912Y-11056583D01*
X10358912Y-11056583D02*
X10339865Y-11066106D01*
X10339865Y-11066106D02*
X10292246Y-11066106D01*
X10292246Y-11066106D02*
X10273198Y-11056583D01*
X10273198Y-11056583D02*
X10263674Y-11047059D01*
X10444627Y-10866106D02*
X10577960Y-10866106D01*
X10577960Y-10866106D02*
X10492246Y-11066106D01*
X10644627Y-10866106D02*
X10644627Y-10904202D01*
X10720817Y-10866106D02*
X10720817Y-10904202D01*
X11016055Y-11142297D02*
X11006532Y-11132773D01*
X11006532Y-11132773D02*
X10987484Y-11104202D01*
X10987484Y-11104202D02*
X10977960Y-11085154D01*
X10977960Y-11085154D02*
X10968436Y-11056583D01*
X10968436Y-11056583D02*
X10958913Y-11008963D01*
X10958913Y-11008963D02*
X10958913Y-10970868D01*
X10958913Y-10970868D02*
X10968436Y-10923249D01*
X10968436Y-10923249D02*
X10977960Y-10894678D01*
X10977960Y-10894678D02*
X10987484Y-10875630D01*
X10987484Y-10875630D02*
X11006532Y-10847059D01*
X11006532Y-10847059D02*
X11016055Y-10837535D01*
X11082722Y-10885154D02*
X11092246Y-10875630D01*
X11092246Y-10875630D02*
X11111293Y-10866106D01*
X11111293Y-10866106D02*
X11158913Y-10866106D01*
X11158913Y-10866106D02*
X11177960Y-10875630D01*
X11177960Y-10875630D02*
X11187484Y-10885154D01*
X11187484Y-10885154D02*
X11197008Y-10904202D01*
X11197008Y-10904202D02*
X11197008Y-10923249D01*
X11197008Y-10923249D02*
X11187484Y-10951821D01*
X11187484Y-10951821D02*
X11073198Y-11066106D01*
X11073198Y-11066106D02*
X11197008Y-11066106D01*
X11273198Y-10885154D02*
X11282722Y-10875630D01*
X11282722Y-10875630D02*
X11301770Y-10866106D01*
X11301770Y-10866106D02*
X11349389Y-10866106D01*
X11349389Y-10866106D02*
X11368436Y-10875630D01*
X11368436Y-10875630D02*
X11377960Y-10885154D01*
X11377960Y-10885154D02*
X11387484Y-10904202D01*
X11387484Y-10904202D02*
X11387484Y-10923249D01*
X11387484Y-10923249D02*
X11377960Y-10951821D01*
X11377960Y-10951821D02*
X11263674Y-11066106D01*
X11263674Y-11066106D02*
X11387484Y-11066106D01*
X11625579Y-11066106D02*
X11625579Y-10866106D01*
X11711293Y-11066106D02*
X11711293Y-10961344D01*
X11711293Y-10961344D02*
X11701770Y-10942297D01*
X11701770Y-10942297D02*
X11682722Y-10932773D01*
X11682722Y-10932773D02*
X11654151Y-10932773D01*
X11654151Y-10932773D02*
X11635103Y-10942297D01*
X11635103Y-10942297D02*
X11625579Y-10951821D01*
X11835103Y-11066106D02*
X11816055Y-11056583D01*
X11816055Y-11056583D02*
X11806532Y-11047059D01*
X11806532Y-11047059D02*
X11797008Y-11028011D01*
X11797008Y-11028011D02*
X11797008Y-10970868D01*
X11797008Y-10970868D02*
X11806532Y-10951821D01*
X11806532Y-10951821D02*
X11816055Y-10942297D01*
X11816055Y-10942297D02*
X11835103Y-10932773D01*
X11835103Y-10932773D02*
X11863674Y-10932773D01*
X11863674Y-10932773D02*
X11882722Y-10942297D01*
X11882722Y-10942297D02*
X11892246Y-10951821D01*
X11892246Y-10951821D02*
X11901770Y-10970868D01*
X11901770Y-10970868D02*
X11901770Y-11028011D01*
X11901770Y-11028011D02*
X11892246Y-11047059D01*
X11892246Y-11047059D02*
X11882722Y-11056583D01*
X11882722Y-11056583D02*
X11863674Y-11066106D01*
X11863674Y-11066106D02*
X11835103Y-11066106D01*
X12016055Y-11066106D02*
X11997008Y-11056583D01*
X11997008Y-11056583D02*
X11987484Y-11037535D01*
X11987484Y-11037535D02*
X11987484Y-10866106D01*
X12168436Y-11056583D02*
X12149389Y-11066106D01*
X12149389Y-11066106D02*
X12111293Y-11066106D01*
X12111293Y-11066106D02*
X12092246Y-11056583D01*
X12092246Y-11056583D02*
X12082722Y-11037535D01*
X12082722Y-11037535D02*
X12082722Y-10961344D01*
X12082722Y-10961344D02*
X12092246Y-10942297D01*
X12092246Y-10942297D02*
X12111293Y-10932773D01*
X12111293Y-10932773D02*
X12149389Y-10932773D01*
X12149389Y-10932773D02*
X12168436Y-10942297D01*
X12168436Y-10942297D02*
X12177960Y-10961344D01*
X12177960Y-10961344D02*
X12177960Y-10980392D01*
X12177960Y-10980392D02*
X12082722Y-10999440D01*
X12254151Y-11056583D02*
X12273198Y-11066106D01*
X12273198Y-11066106D02*
X12311293Y-11066106D01*
X12311293Y-11066106D02*
X12330341Y-11056583D01*
X12330341Y-11056583D02*
X12339865Y-11037535D01*
X12339865Y-11037535D02*
X12339865Y-11028011D01*
X12339865Y-11028011D02*
X12330341Y-11008963D01*
X12330341Y-11008963D02*
X12311293Y-10999440D01*
X12311293Y-10999440D02*
X12282722Y-10999440D01*
X12282722Y-10999440D02*
X12263674Y-10989916D01*
X12263674Y-10989916D02*
X12254151Y-10970868D01*
X12254151Y-10970868D02*
X12254151Y-10961344D01*
X12254151Y-10961344D02*
X12263674Y-10942297D01*
X12263674Y-10942297D02*
X12282722Y-10932773D01*
X12282722Y-10932773D02*
X12311293Y-10932773D01*
X12311293Y-10932773D02*
X12330341Y-10942297D01*
X12406532Y-11142297D02*
X12416055Y-11132773D01*
X12416055Y-11132773D02*
X12435103Y-11104202D01*
X12435103Y-11104202D02*
X12444627Y-11085154D01*
X12444627Y-11085154D02*
X12454151Y-11056583D01*
X12454151Y-11056583D02*
X12463674Y-11008963D01*
X12463674Y-11008963D02*
X12463674Y-10970868D01*
X12463674Y-10970868D02*
X12454151Y-10923249D01*
X12454151Y-10923249D02*
X12444627Y-10894678D01*
X12444627Y-10894678D02*
X12435103Y-10875630D01*
X12435103Y-10875630D02*
X12416055Y-10847059D01*
X12416055Y-10847059D02*
X12406532Y-10837535D01*
D10*
X7427813Y-11270443D02*
X7427813Y-11206802D01*
X7364172Y-11206802D01*
X7364172Y-11270443D01*
X7427813Y-11270443D01*
D11*
X7739864Y-11130106D02*
X7758912Y-11130106D01*
X7758912Y-11130106D02*
X7777960Y-11139630D01*
X7777960Y-11139630D02*
X7787484Y-11149154D01*
X7787484Y-11149154D02*
X7797007Y-11168202D01*
X7797007Y-11168202D02*
X7806531Y-11206297D01*
X7806531Y-11206297D02*
X7806531Y-11253916D01*
X7806531Y-11253916D02*
X7797007Y-11292011D01*
X7797007Y-11292011D02*
X7787484Y-11311059D01*
X7787484Y-11311059D02*
X7777960Y-11320582D01*
X7777960Y-11320582D02*
X7758912Y-11330106D01*
X7758912Y-11330106D02*
X7739864Y-11330106D01*
X7739864Y-11330106D02*
X7720817Y-11320582D01*
X7720817Y-11320582D02*
X7711293Y-11311059D01*
X7711293Y-11311059D02*
X7701769Y-11292011D01*
X7701769Y-11292011D02*
X7692245Y-11253916D01*
X7692245Y-11253916D02*
X7692245Y-11206297D01*
X7692245Y-11206297D02*
X7701769Y-11168202D01*
X7701769Y-11168202D02*
X7711293Y-11149154D01*
X7711293Y-11149154D02*
X7720817Y-11139630D01*
X7720817Y-11139630D02*
X7739864Y-11130106D01*
X7892245Y-11311059D02*
X7901769Y-11320582D01*
X7901769Y-11320582D02*
X7892245Y-11330106D01*
X7892245Y-11330106D02*
X7882722Y-11320582D01*
X7882722Y-11320582D02*
X7892245Y-11311059D01*
X7892245Y-11311059D02*
X7892245Y-11330106D01*
X7997007Y-11330106D02*
X8035103Y-11330106D01*
X8035103Y-11330106D02*
X8054150Y-11320582D01*
X8054150Y-11320582D02*
X8063674Y-11311059D01*
X8063674Y-11311059D02*
X8082722Y-11282487D01*
X8082722Y-11282487D02*
X8092245Y-11244392D01*
X8092245Y-11244392D02*
X8092245Y-11168202D01*
X8092245Y-11168202D02*
X8082722Y-11149154D01*
X8082722Y-11149154D02*
X8073198Y-11139630D01*
X8073198Y-11139630D02*
X8054150Y-11130106D01*
X8054150Y-11130106D02*
X8016055Y-11130106D01*
X8016055Y-11130106D02*
X7997007Y-11139630D01*
X7997007Y-11139630D02*
X7987484Y-11149154D01*
X7987484Y-11149154D02*
X7977960Y-11168202D01*
X7977960Y-11168202D02*
X7977960Y-11215820D01*
X7977960Y-11215820D02*
X7987484Y-11234868D01*
X7987484Y-11234868D02*
X7997007Y-11244392D01*
X7997007Y-11244392D02*
X8016055Y-11253916D01*
X8016055Y-11253916D02*
X8054150Y-11253916D01*
X8054150Y-11253916D02*
X8073198Y-11244392D01*
X8073198Y-11244392D02*
X8082722Y-11234868D01*
X8082722Y-11234868D02*
X8092245Y-11215820D01*
X8216055Y-11130106D02*
X8235103Y-11130106D01*
X8235103Y-11130106D02*
X8254150Y-11139630D01*
X8254150Y-11139630D02*
X8263674Y-11149154D01*
X8263674Y-11149154D02*
X8273198Y-11168202D01*
X8273198Y-11168202D02*
X8282722Y-11206297D01*
X8282722Y-11206297D02*
X8282722Y-11253916D01*
X8282722Y-11253916D02*
X8273198Y-11292011D01*
X8273198Y-11292011D02*
X8263674Y-11311059D01*
X8263674Y-11311059D02*
X8254150Y-11320582D01*
X8254150Y-11320582D02*
X8235103Y-11330106D01*
X8235103Y-11330106D02*
X8216055Y-11330106D01*
X8216055Y-11330106D02*
X8197007Y-11320582D01*
X8197007Y-11320582D02*
X8187484Y-11311059D01*
X8187484Y-11311059D02*
X8177960Y-11292011D01*
X8177960Y-11292011D02*
X8168436Y-11253916D01*
X8168436Y-11253916D02*
X8168436Y-11206297D01*
X8168436Y-11206297D02*
X8177960Y-11168202D01*
X8177960Y-11168202D02*
X8187484Y-11149154D01*
X8187484Y-11149154D02*
X8197007Y-11139630D01*
X8197007Y-11139630D02*
X8216055Y-11130106D01*
X8406531Y-11130106D02*
X8425579Y-11130106D01*
X8425579Y-11130106D02*
X8444627Y-11139630D01*
X8444627Y-11139630D02*
X8454150Y-11149154D01*
X8454150Y-11149154D02*
X8463674Y-11168202D01*
X8463674Y-11168202D02*
X8473198Y-11206297D01*
X8473198Y-11206297D02*
X8473198Y-11253916D01*
X8473198Y-11253916D02*
X8463674Y-11292011D01*
X8463674Y-11292011D02*
X8454150Y-11311059D01*
X8454150Y-11311059D02*
X8444627Y-11320582D01*
X8444627Y-11320582D02*
X8425579Y-11330106D01*
X8425579Y-11330106D02*
X8406531Y-11330106D01*
X8406531Y-11330106D02*
X8387484Y-11320582D01*
X8387484Y-11320582D02*
X8377960Y-11311059D01*
X8377960Y-11311059D02*
X8368436Y-11292011D01*
X8368436Y-11292011D02*
X8358912Y-11253916D01*
X8358912Y-11253916D02*
X8358912Y-11206297D01*
X8358912Y-11206297D02*
X8368436Y-11168202D01*
X8368436Y-11168202D02*
X8377960Y-11149154D01*
X8377960Y-11149154D02*
X8387484Y-11139630D01*
X8387484Y-11139630D02*
X8406531Y-11130106D01*
X8558912Y-11330106D02*
X8558912Y-11196773D01*
X8558912Y-11215820D02*
X8568436Y-11206297D01*
X8568436Y-11206297D02*
X8587484Y-11196773D01*
X8587484Y-11196773D02*
X8616055Y-11196773D01*
X8616055Y-11196773D02*
X8635103Y-11206297D01*
X8635103Y-11206297D02*
X8644627Y-11225344D01*
X8644627Y-11225344D02*
X8644627Y-11330106D01*
X8644627Y-11225344D02*
X8654150Y-11206297D01*
X8654150Y-11206297D02*
X8673198Y-11196773D01*
X8673198Y-11196773D02*
X8701769Y-11196773D01*
X8701769Y-11196773D02*
X8720817Y-11206297D01*
X8720817Y-11206297D02*
X8730341Y-11225344D01*
X8730341Y-11225344D02*
X8730341Y-11330106D01*
X8825579Y-11330106D02*
X8825579Y-11196773D01*
X8825579Y-11215820D02*
X8835103Y-11206297D01*
X8835103Y-11206297D02*
X8854150Y-11196773D01*
X8854150Y-11196773D02*
X8882722Y-11196773D01*
X8882722Y-11196773D02*
X8901769Y-11206297D01*
X8901769Y-11206297D02*
X8911293Y-11225344D01*
X8911293Y-11225344D02*
X8911293Y-11330106D01*
X8911293Y-11225344D02*
X8920817Y-11206297D01*
X8920817Y-11206297D02*
X8939865Y-11196773D01*
X8939865Y-11196773D02*
X8968436Y-11196773D01*
X8968436Y-11196773D02*
X8987484Y-11206297D01*
X8987484Y-11206297D02*
X8997008Y-11225344D01*
X8997008Y-11225344D02*
X8997008Y-11330106D01*
X9387484Y-11120583D02*
X9216055Y-11377725D01*
X9644627Y-11130106D02*
X9663674Y-11130106D01*
X9663674Y-11130106D02*
X9682722Y-11139630D01*
X9682722Y-11139630D02*
X9692246Y-11149154D01*
X9692246Y-11149154D02*
X9701770Y-11168202D01*
X9701770Y-11168202D02*
X9711293Y-11206297D01*
X9711293Y-11206297D02*
X9711293Y-11253916D01*
X9711293Y-11253916D02*
X9701770Y-11292011D01*
X9701770Y-11292011D02*
X9692246Y-11311059D01*
X9692246Y-11311059D02*
X9682722Y-11320582D01*
X9682722Y-11320582D02*
X9663674Y-11330106D01*
X9663674Y-11330106D02*
X9644627Y-11330106D01*
X9644627Y-11330106D02*
X9625579Y-11320582D01*
X9625579Y-11320582D02*
X9616055Y-11311059D01*
X9616055Y-11311059D02*
X9606531Y-11292011D01*
X9606531Y-11292011D02*
X9597008Y-11253916D01*
X9597008Y-11253916D02*
X9597008Y-11206297D01*
X9597008Y-11206297D02*
X9606531Y-11168202D01*
X9606531Y-11168202D02*
X9616055Y-11149154D01*
X9616055Y-11149154D02*
X9625579Y-11139630D01*
X9625579Y-11139630D02*
X9644627Y-11130106D01*
X9797008Y-11311059D02*
X9806531Y-11320582D01*
X9806531Y-11320582D02*
X9797008Y-11330106D01*
X9797008Y-11330106D02*
X9787484Y-11320582D01*
X9787484Y-11320582D02*
X9797008Y-11311059D01*
X9797008Y-11311059D02*
X9797008Y-11330106D01*
X9930341Y-11130106D02*
X9949389Y-11130106D01*
X9949389Y-11130106D02*
X9968436Y-11139630D01*
X9968436Y-11139630D02*
X9977960Y-11149154D01*
X9977960Y-11149154D02*
X9987484Y-11168202D01*
X9987484Y-11168202D02*
X9997008Y-11206297D01*
X9997008Y-11206297D02*
X9997008Y-11253916D01*
X9997008Y-11253916D02*
X9987484Y-11292011D01*
X9987484Y-11292011D02*
X9977960Y-11311059D01*
X9977960Y-11311059D02*
X9968436Y-11320582D01*
X9968436Y-11320582D02*
X9949389Y-11330106D01*
X9949389Y-11330106D02*
X9930341Y-11330106D01*
X9930341Y-11330106D02*
X9911293Y-11320582D01*
X9911293Y-11320582D02*
X9901770Y-11311059D01*
X9901770Y-11311059D02*
X9892246Y-11292011D01*
X9892246Y-11292011D02*
X9882722Y-11253916D01*
X9882722Y-11253916D02*
X9882722Y-11206297D01*
X9882722Y-11206297D02*
X9892246Y-11168202D01*
X9892246Y-11168202D02*
X9901770Y-11149154D01*
X9901770Y-11149154D02*
X9911293Y-11139630D01*
X9911293Y-11139630D02*
X9930341Y-11130106D01*
X10063674Y-11130106D02*
X10187484Y-11130106D01*
X10187484Y-11130106D02*
X10120817Y-11206297D01*
X10120817Y-11206297D02*
X10149389Y-11206297D01*
X10149389Y-11206297D02*
X10168436Y-11215820D01*
X10168436Y-11215820D02*
X10177960Y-11225344D01*
X10177960Y-11225344D02*
X10187484Y-11244392D01*
X10187484Y-11244392D02*
X10187484Y-11292011D01*
X10187484Y-11292011D02*
X10177960Y-11311059D01*
X10177960Y-11311059D02*
X10168436Y-11320582D01*
X10168436Y-11320582D02*
X10149389Y-11330106D01*
X10149389Y-11330106D02*
X10092246Y-11330106D01*
X10092246Y-11330106D02*
X10073198Y-11320582D01*
X10073198Y-11320582D02*
X10063674Y-11311059D01*
X10368436Y-11130106D02*
X10273198Y-11130106D01*
X10273198Y-11130106D02*
X10263674Y-11225344D01*
X10263674Y-11225344D02*
X10273198Y-11215820D01*
X10273198Y-11215820D02*
X10292246Y-11206297D01*
X10292246Y-11206297D02*
X10339865Y-11206297D01*
X10339865Y-11206297D02*
X10358912Y-11215820D01*
X10358912Y-11215820D02*
X10368436Y-11225344D01*
X10368436Y-11225344D02*
X10377960Y-11244392D01*
X10377960Y-11244392D02*
X10377960Y-11292011D01*
X10377960Y-11292011D02*
X10368436Y-11311059D01*
X10368436Y-11311059D02*
X10358912Y-11320582D01*
X10358912Y-11320582D02*
X10339865Y-11330106D01*
X10339865Y-11330106D02*
X10292246Y-11330106D01*
X10292246Y-11330106D02*
X10273198Y-11320582D01*
X10273198Y-11320582D02*
X10263674Y-11311059D01*
X10549389Y-11196773D02*
X10549389Y-11330106D01*
X10501770Y-11120583D02*
X10454151Y-11263440D01*
X10454151Y-11263440D02*
X10577960Y-11263440D01*
X10644627Y-11130106D02*
X10644627Y-11168202D01*
X10720817Y-11130106D02*
X10720817Y-11168202D01*
X11016055Y-11406297D02*
X11006532Y-11396773D01*
X11006532Y-11396773D02*
X10987484Y-11368201D01*
X10987484Y-11368201D02*
X10977960Y-11349154D01*
X10977960Y-11349154D02*
X10968436Y-11320582D01*
X10968436Y-11320582D02*
X10958913Y-11272963D01*
X10958913Y-11272963D02*
X10958913Y-11234868D01*
X10958913Y-11234868D02*
X10968436Y-11187249D01*
X10968436Y-11187249D02*
X10977960Y-11158678D01*
X10977960Y-11158678D02*
X10987484Y-11139630D01*
X10987484Y-11139630D02*
X11006532Y-11111059D01*
X11006532Y-11111059D02*
X11016055Y-11101535D01*
X11082722Y-11149154D02*
X11092246Y-11139630D01*
X11092246Y-11139630D02*
X11111293Y-11130106D01*
X11111293Y-11130106D02*
X11158913Y-11130106D01*
X11158913Y-11130106D02*
X11177960Y-11139630D01*
X11177960Y-11139630D02*
X11187484Y-11149154D01*
X11187484Y-11149154D02*
X11197008Y-11168202D01*
X11197008Y-11168202D02*
X11197008Y-11187249D01*
X11197008Y-11187249D02*
X11187484Y-11215820D01*
X11187484Y-11215820D02*
X11073198Y-11330106D01*
X11073198Y-11330106D02*
X11197008Y-11330106D01*
X11435103Y-11330106D02*
X11435103Y-11130106D01*
X11520817Y-11330106D02*
X11520817Y-11225344D01*
X11520817Y-11225344D02*
X11511293Y-11206297D01*
X11511293Y-11206297D02*
X11492246Y-11196773D01*
X11492246Y-11196773D02*
X11463674Y-11196773D01*
X11463674Y-11196773D02*
X11444627Y-11206297D01*
X11444627Y-11206297D02*
X11435103Y-11215820D01*
X11644627Y-11330106D02*
X11625579Y-11320582D01*
X11625579Y-11320582D02*
X11616055Y-11311059D01*
X11616055Y-11311059D02*
X11606532Y-11292011D01*
X11606532Y-11292011D02*
X11606532Y-11234868D01*
X11606532Y-11234868D02*
X11616055Y-11215820D01*
X11616055Y-11215820D02*
X11625579Y-11206297D01*
X11625579Y-11206297D02*
X11644627Y-11196773D01*
X11644627Y-11196773D02*
X11673198Y-11196773D01*
X11673198Y-11196773D02*
X11692246Y-11206297D01*
X11692246Y-11206297D02*
X11701770Y-11215820D01*
X11701770Y-11215820D02*
X11711293Y-11234868D01*
X11711293Y-11234868D02*
X11711293Y-11292011D01*
X11711293Y-11292011D02*
X11701770Y-11311059D01*
X11701770Y-11311059D02*
X11692246Y-11320582D01*
X11692246Y-11320582D02*
X11673198Y-11330106D01*
X11673198Y-11330106D02*
X11644627Y-11330106D01*
X11825579Y-11330106D02*
X11806532Y-11320582D01*
X11806532Y-11320582D02*
X11797008Y-11301535D01*
X11797008Y-11301535D02*
X11797008Y-11130106D01*
X11977960Y-11320582D02*
X11958913Y-11330106D01*
X11958913Y-11330106D02*
X11920817Y-11330106D01*
X11920817Y-11330106D02*
X11901770Y-11320582D01*
X11901770Y-11320582D02*
X11892246Y-11301535D01*
X11892246Y-11301535D02*
X11892246Y-11225344D01*
X11892246Y-11225344D02*
X11901770Y-11206297D01*
X11901770Y-11206297D02*
X11920817Y-11196773D01*
X11920817Y-11196773D02*
X11958913Y-11196773D01*
X11958913Y-11196773D02*
X11977960Y-11206297D01*
X11977960Y-11206297D02*
X11987484Y-11225344D01*
X11987484Y-11225344D02*
X11987484Y-11244392D01*
X11987484Y-11244392D02*
X11892246Y-11263440D01*
X12063674Y-11320582D02*
X12082722Y-11330106D01*
X12082722Y-11330106D02*
X12120817Y-11330106D01*
X12120817Y-11330106D02*
X12139865Y-11320582D01*
X12139865Y-11320582D02*
X12149389Y-11301535D01*
X12149389Y-11301535D02*
X12149389Y-11292011D01*
X12149389Y-11292011D02*
X12139865Y-11272963D01*
X12139865Y-11272963D02*
X12120817Y-11263440D01*
X12120817Y-11263440D02*
X12092246Y-11263440D01*
X12092246Y-11263440D02*
X12073198Y-11253916D01*
X12073198Y-11253916D02*
X12063674Y-11234868D01*
X12063674Y-11234868D02*
X12063674Y-11225344D01*
X12063674Y-11225344D02*
X12073198Y-11206297D01*
X12073198Y-11206297D02*
X12092246Y-11196773D01*
X12092246Y-11196773D02*
X12120817Y-11196773D01*
X12120817Y-11196773D02*
X12139865Y-11206297D01*
X12216055Y-11406297D02*
X12225579Y-11396773D01*
X12225579Y-11396773D02*
X12244627Y-11368201D01*
X12244627Y-11368201D02*
X12254151Y-11349154D01*
X12254151Y-11349154D02*
X12263674Y-11320582D01*
X12263674Y-11320582D02*
X12273198Y-11272963D01*
X12273198Y-11272963D02*
X12273198Y-11234868D01*
X12273198Y-11234868D02*
X12263674Y-11187249D01*
X12263674Y-11187249D02*
X12254151Y-11158678D01*
X12254151Y-11158678D02*
X12244627Y-11139630D01*
X12244627Y-11139630D02*
X12225579Y-11111059D01*
X12225579Y-11111059D02*
X12216055Y-11101535D01*
D10*
X7390992Y-11552622D02*
X7440992Y-11502622D01*
X7390992Y-11452622D01*
X7340992Y-11502622D01*
X7390992Y-11552622D01*
D11*
X7806531Y-11594106D02*
X7692245Y-11594106D01*
X7749388Y-11594106D02*
X7749388Y-11394106D01*
X7749388Y-11394106D02*
X7730341Y-11422678D01*
X7730341Y-11422678D02*
X7711293Y-11441725D01*
X7711293Y-11441725D02*
X7692245Y-11451249D01*
X7892245Y-11575059D02*
X7901769Y-11584582D01*
X7901769Y-11584582D02*
X7892245Y-11594106D01*
X7892245Y-11594106D02*
X7882722Y-11584582D01*
X7882722Y-11584582D02*
X7892245Y-11575059D01*
X7892245Y-11575059D02*
X7892245Y-11594106D01*
X8025579Y-11394106D02*
X8044626Y-11394106D01*
X8044626Y-11394106D02*
X8063674Y-11403630D01*
X8063674Y-11403630D02*
X8073198Y-11413154D01*
X8073198Y-11413154D02*
X8082722Y-11432201D01*
X8082722Y-11432201D02*
X8092245Y-11470297D01*
X8092245Y-11470297D02*
X8092245Y-11517916D01*
X8092245Y-11517916D02*
X8082722Y-11556011D01*
X8082722Y-11556011D02*
X8073198Y-11575059D01*
X8073198Y-11575059D02*
X8063674Y-11584582D01*
X8063674Y-11584582D02*
X8044626Y-11594106D01*
X8044626Y-11594106D02*
X8025579Y-11594106D01*
X8025579Y-11594106D02*
X8006531Y-11584582D01*
X8006531Y-11584582D02*
X7997007Y-11575059D01*
X7997007Y-11575059D02*
X7987484Y-11556011D01*
X7987484Y-11556011D02*
X7977960Y-11517916D01*
X7977960Y-11517916D02*
X7977960Y-11470297D01*
X7977960Y-11470297D02*
X7987484Y-11432201D01*
X7987484Y-11432201D02*
X7997007Y-11413154D01*
X7997007Y-11413154D02*
X8006531Y-11403630D01*
X8006531Y-11403630D02*
X8025579Y-11394106D01*
X8216055Y-11394106D02*
X8235103Y-11394106D01*
X8235103Y-11394106D02*
X8254150Y-11403630D01*
X8254150Y-11403630D02*
X8263674Y-11413154D01*
X8263674Y-11413154D02*
X8273198Y-11432201D01*
X8273198Y-11432201D02*
X8282722Y-11470297D01*
X8282722Y-11470297D02*
X8282722Y-11517916D01*
X8282722Y-11517916D02*
X8273198Y-11556011D01*
X8273198Y-11556011D02*
X8263674Y-11575059D01*
X8263674Y-11575059D02*
X8254150Y-11584582D01*
X8254150Y-11584582D02*
X8235103Y-11594106D01*
X8235103Y-11594106D02*
X8216055Y-11594106D01*
X8216055Y-11594106D02*
X8197007Y-11584582D01*
X8197007Y-11584582D02*
X8187484Y-11575059D01*
X8187484Y-11575059D02*
X8177960Y-11556011D01*
X8177960Y-11556011D02*
X8168436Y-11517916D01*
X8168436Y-11517916D02*
X8168436Y-11470297D01*
X8168436Y-11470297D02*
X8177960Y-11432201D01*
X8177960Y-11432201D02*
X8187484Y-11413154D01*
X8187484Y-11413154D02*
X8197007Y-11403630D01*
X8197007Y-11403630D02*
X8216055Y-11394106D01*
X8406531Y-11394106D02*
X8425579Y-11394106D01*
X8425579Y-11394106D02*
X8444627Y-11403630D01*
X8444627Y-11403630D02*
X8454150Y-11413154D01*
X8454150Y-11413154D02*
X8463674Y-11432201D01*
X8463674Y-11432201D02*
X8473198Y-11470297D01*
X8473198Y-11470297D02*
X8473198Y-11517916D01*
X8473198Y-11517916D02*
X8463674Y-11556011D01*
X8463674Y-11556011D02*
X8454150Y-11575059D01*
X8454150Y-11575059D02*
X8444627Y-11584582D01*
X8444627Y-11584582D02*
X8425579Y-11594106D01*
X8425579Y-11594106D02*
X8406531Y-11594106D01*
X8406531Y-11594106D02*
X8387484Y-11584582D01*
X8387484Y-11584582D02*
X8377960Y-11575059D01*
X8377960Y-11575059D02*
X8368436Y-11556011D01*
X8368436Y-11556011D02*
X8358912Y-11517916D01*
X8358912Y-11517916D02*
X8358912Y-11470297D01*
X8358912Y-11470297D02*
X8368436Y-11432201D01*
X8368436Y-11432201D02*
X8377960Y-11413154D01*
X8377960Y-11413154D02*
X8387484Y-11403630D01*
X8387484Y-11403630D02*
X8406531Y-11394106D01*
X8558912Y-11594106D02*
X8558912Y-11460773D01*
X8558912Y-11479820D02*
X8568436Y-11470297D01*
X8568436Y-11470297D02*
X8587484Y-11460773D01*
X8587484Y-11460773D02*
X8616055Y-11460773D01*
X8616055Y-11460773D02*
X8635103Y-11470297D01*
X8635103Y-11470297D02*
X8644627Y-11489344D01*
X8644627Y-11489344D02*
X8644627Y-11594106D01*
X8644627Y-11489344D02*
X8654150Y-11470297D01*
X8654150Y-11470297D02*
X8673198Y-11460773D01*
X8673198Y-11460773D02*
X8701769Y-11460773D01*
X8701769Y-11460773D02*
X8720817Y-11470297D01*
X8720817Y-11470297D02*
X8730341Y-11489344D01*
X8730341Y-11489344D02*
X8730341Y-11594106D01*
X8825579Y-11594106D02*
X8825579Y-11460773D01*
X8825579Y-11479820D02*
X8835103Y-11470297D01*
X8835103Y-11470297D02*
X8854150Y-11460773D01*
X8854150Y-11460773D02*
X8882722Y-11460773D01*
X8882722Y-11460773D02*
X8901769Y-11470297D01*
X8901769Y-11470297D02*
X8911293Y-11489344D01*
X8911293Y-11489344D02*
X8911293Y-11594106D01*
X8911293Y-11489344D02*
X8920817Y-11470297D01*
X8920817Y-11470297D02*
X8939865Y-11460773D01*
X8939865Y-11460773D02*
X8968436Y-11460773D01*
X8968436Y-11460773D02*
X8987484Y-11470297D01*
X8987484Y-11470297D02*
X8997008Y-11489344D01*
X8997008Y-11489344D02*
X8997008Y-11594106D01*
X9387484Y-11384582D02*
X9216055Y-11641725D01*
X9644627Y-11394106D02*
X9663674Y-11394106D01*
X9663674Y-11394106D02*
X9682722Y-11403630D01*
X9682722Y-11403630D02*
X9692246Y-11413154D01*
X9692246Y-11413154D02*
X9701770Y-11432201D01*
X9701770Y-11432201D02*
X9711293Y-11470297D01*
X9711293Y-11470297D02*
X9711293Y-11517916D01*
X9711293Y-11517916D02*
X9701770Y-11556011D01*
X9701770Y-11556011D02*
X9692246Y-11575059D01*
X9692246Y-11575059D02*
X9682722Y-11584582D01*
X9682722Y-11584582D02*
X9663674Y-11594106D01*
X9663674Y-11594106D02*
X9644627Y-11594106D01*
X9644627Y-11594106D02*
X9625579Y-11584582D01*
X9625579Y-11584582D02*
X9616055Y-11575059D01*
X9616055Y-11575059D02*
X9606531Y-11556011D01*
X9606531Y-11556011D02*
X9597008Y-11517916D01*
X9597008Y-11517916D02*
X9597008Y-11470297D01*
X9597008Y-11470297D02*
X9606531Y-11432201D01*
X9606531Y-11432201D02*
X9616055Y-11413154D01*
X9616055Y-11413154D02*
X9625579Y-11403630D01*
X9625579Y-11403630D02*
X9644627Y-11394106D01*
X9797008Y-11575059D02*
X9806531Y-11584582D01*
X9806531Y-11584582D02*
X9797008Y-11594106D01*
X9797008Y-11594106D02*
X9787484Y-11584582D01*
X9787484Y-11584582D02*
X9797008Y-11575059D01*
X9797008Y-11575059D02*
X9797008Y-11594106D01*
X9930341Y-11394106D02*
X9949389Y-11394106D01*
X9949389Y-11394106D02*
X9968436Y-11403630D01*
X9968436Y-11403630D02*
X9977960Y-11413154D01*
X9977960Y-11413154D02*
X9987484Y-11432201D01*
X9987484Y-11432201D02*
X9997008Y-11470297D01*
X9997008Y-11470297D02*
X9997008Y-11517916D01*
X9997008Y-11517916D02*
X9987484Y-11556011D01*
X9987484Y-11556011D02*
X9977960Y-11575059D01*
X9977960Y-11575059D02*
X9968436Y-11584582D01*
X9968436Y-11584582D02*
X9949389Y-11594106D01*
X9949389Y-11594106D02*
X9930341Y-11594106D01*
X9930341Y-11594106D02*
X9911293Y-11584582D01*
X9911293Y-11584582D02*
X9901770Y-11575059D01*
X9901770Y-11575059D02*
X9892246Y-11556011D01*
X9892246Y-11556011D02*
X9882722Y-11517916D01*
X9882722Y-11517916D02*
X9882722Y-11470297D01*
X9882722Y-11470297D02*
X9892246Y-11432201D01*
X9892246Y-11432201D02*
X9901770Y-11413154D01*
X9901770Y-11413154D02*
X9911293Y-11403630D01*
X9911293Y-11403630D02*
X9930341Y-11394106D01*
X10063674Y-11394106D02*
X10187484Y-11394106D01*
X10187484Y-11394106D02*
X10120817Y-11470297D01*
X10120817Y-11470297D02*
X10149389Y-11470297D01*
X10149389Y-11470297D02*
X10168436Y-11479820D01*
X10168436Y-11479820D02*
X10177960Y-11489344D01*
X10177960Y-11489344D02*
X10187484Y-11508392D01*
X10187484Y-11508392D02*
X10187484Y-11556011D01*
X10187484Y-11556011D02*
X10177960Y-11575059D01*
X10177960Y-11575059D02*
X10168436Y-11584582D01*
X10168436Y-11584582D02*
X10149389Y-11594106D01*
X10149389Y-11594106D02*
X10092246Y-11594106D01*
X10092246Y-11594106D02*
X10073198Y-11584582D01*
X10073198Y-11584582D02*
X10063674Y-11575059D01*
X10282722Y-11594106D02*
X10320817Y-11594106D01*
X10320817Y-11594106D02*
X10339865Y-11584582D01*
X10339865Y-11584582D02*
X10349389Y-11575059D01*
X10349389Y-11575059D02*
X10368436Y-11546487D01*
X10368436Y-11546487D02*
X10377960Y-11508392D01*
X10377960Y-11508392D02*
X10377960Y-11432201D01*
X10377960Y-11432201D02*
X10368436Y-11413154D01*
X10368436Y-11413154D02*
X10358912Y-11403630D01*
X10358912Y-11403630D02*
X10339865Y-11394106D01*
X10339865Y-11394106D02*
X10301770Y-11394106D01*
X10301770Y-11394106D02*
X10282722Y-11403630D01*
X10282722Y-11403630D02*
X10273198Y-11413154D01*
X10273198Y-11413154D02*
X10263674Y-11432201D01*
X10263674Y-11432201D02*
X10263674Y-11479820D01*
X10263674Y-11479820D02*
X10273198Y-11498868D01*
X10273198Y-11498868D02*
X10282722Y-11508392D01*
X10282722Y-11508392D02*
X10301770Y-11517916D01*
X10301770Y-11517916D02*
X10339865Y-11517916D01*
X10339865Y-11517916D02*
X10358912Y-11508392D01*
X10358912Y-11508392D02*
X10368436Y-11498868D01*
X10368436Y-11498868D02*
X10377960Y-11479820D01*
X10549389Y-11460773D02*
X10549389Y-11594106D01*
X10501770Y-11384582D02*
X10454151Y-11527440D01*
X10454151Y-11527440D02*
X10577960Y-11527440D01*
X10644627Y-11394106D02*
X10644627Y-11432201D01*
X10720817Y-11394106D02*
X10720817Y-11432201D01*
X11016055Y-11670297D02*
X11006532Y-11660773D01*
X11006532Y-11660773D02*
X10987484Y-11632201D01*
X10987484Y-11632201D02*
X10977960Y-11613154D01*
X10977960Y-11613154D02*
X10968436Y-11584582D01*
X10968436Y-11584582D02*
X10958913Y-11536963D01*
X10958913Y-11536963D02*
X10958913Y-11498868D01*
X10958913Y-11498868D02*
X10968436Y-11451249D01*
X10968436Y-11451249D02*
X10977960Y-11422678D01*
X10977960Y-11422678D02*
X10987484Y-11403630D01*
X10987484Y-11403630D02*
X11006532Y-11375059D01*
X11006532Y-11375059D02*
X11016055Y-11365535D01*
X11073198Y-11394106D02*
X11206531Y-11394106D01*
X11206531Y-11394106D02*
X11120817Y-11594106D01*
X11320817Y-11394106D02*
X11339865Y-11394106D01*
X11339865Y-11394106D02*
X11358912Y-11403630D01*
X11358912Y-11403630D02*
X11368436Y-11413154D01*
X11368436Y-11413154D02*
X11377960Y-11432201D01*
X11377960Y-11432201D02*
X11387484Y-11470297D01*
X11387484Y-11470297D02*
X11387484Y-11517916D01*
X11387484Y-11517916D02*
X11377960Y-11556011D01*
X11377960Y-11556011D02*
X11368436Y-11575059D01*
X11368436Y-11575059D02*
X11358912Y-11584582D01*
X11358912Y-11584582D02*
X11339865Y-11594106D01*
X11339865Y-11594106D02*
X11320817Y-11594106D01*
X11320817Y-11594106D02*
X11301770Y-11584582D01*
X11301770Y-11584582D02*
X11292246Y-11575059D01*
X11292246Y-11575059D02*
X11282722Y-11556011D01*
X11282722Y-11556011D02*
X11273198Y-11517916D01*
X11273198Y-11517916D02*
X11273198Y-11470297D01*
X11273198Y-11470297D02*
X11282722Y-11432201D01*
X11282722Y-11432201D02*
X11292246Y-11413154D01*
X11292246Y-11413154D02*
X11301770Y-11403630D01*
X11301770Y-11403630D02*
X11320817Y-11394106D01*
X11625579Y-11594106D02*
X11625579Y-11394106D01*
X11711293Y-11594106D02*
X11711293Y-11489344D01*
X11711293Y-11489344D02*
X11701770Y-11470297D01*
X11701770Y-11470297D02*
X11682722Y-11460773D01*
X11682722Y-11460773D02*
X11654151Y-11460773D01*
X11654151Y-11460773D02*
X11635103Y-11470297D01*
X11635103Y-11470297D02*
X11625579Y-11479820D01*
X11835103Y-11594106D02*
X11816055Y-11584582D01*
X11816055Y-11584582D02*
X11806532Y-11575059D01*
X11806532Y-11575059D02*
X11797008Y-11556011D01*
X11797008Y-11556011D02*
X11797008Y-11498868D01*
X11797008Y-11498868D02*
X11806532Y-11479820D01*
X11806532Y-11479820D02*
X11816055Y-11470297D01*
X11816055Y-11470297D02*
X11835103Y-11460773D01*
X11835103Y-11460773D02*
X11863674Y-11460773D01*
X11863674Y-11460773D02*
X11882722Y-11470297D01*
X11882722Y-11470297D02*
X11892246Y-11479820D01*
X11892246Y-11479820D02*
X11901770Y-11498868D01*
X11901770Y-11498868D02*
X11901770Y-11556011D01*
X11901770Y-11556011D02*
X11892246Y-11575059D01*
X11892246Y-11575059D02*
X11882722Y-11584582D01*
X11882722Y-11584582D02*
X11863674Y-11594106D01*
X11863674Y-11594106D02*
X11835103Y-11594106D01*
X12016055Y-11594106D02*
X11997008Y-11584582D01*
X11997008Y-11584582D02*
X11987484Y-11565535D01*
X11987484Y-11565535D02*
X11987484Y-11394106D01*
X12168436Y-11584582D02*
X12149389Y-11594106D01*
X12149389Y-11594106D02*
X12111293Y-11594106D01*
X12111293Y-11594106D02*
X12092246Y-11584582D01*
X12092246Y-11584582D02*
X12082722Y-11565535D01*
X12082722Y-11565535D02*
X12082722Y-11489344D01*
X12082722Y-11489344D02*
X12092246Y-11470297D01*
X12092246Y-11470297D02*
X12111293Y-11460773D01*
X12111293Y-11460773D02*
X12149389Y-11460773D01*
X12149389Y-11460773D02*
X12168436Y-11470297D01*
X12168436Y-11470297D02*
X12177960Y-11489344D01*
X12177960Y-11489344D02*
X12177960Y-11508392D01*
X12177960Y-11508392D02*
X12082722Y-11527440D01*
X12254151Y-11584582D02*
X12273198Y-11594106D01*
X12273198Y-11594106D02*
X12311293Y-11594106D01*
X12311293Y-11594106D02*
X12330341Y-11584582D01*
X12330341Y-11584582D02*
X12339865Y-11565535D01*
X12339865Y-11565535D02*
X12339865Y-11556011D01*
X12339865Y-11556011D02*
X12330341Y-11536963D01*
X12330341Y-11536963D02*
X12311293Y-11527440D01*
X12311293Y-11527440D02*
X12282722Y-11527440D01*
X12282722Y-11527440D02*
X12263674Y-11517916D01*
X12263674Y-11517916D02*
X12254151Y-11498868D01*
X12254151Y-11498868D02*
X12254151Y-11489344D01*
X12254151Y-11489344D02*
X12263674Y-11470297D01*
X12263674Y-11470297D02*
X12282722Y-11460773D01*
X12282722Y-11460773D02*
X12311293Y-11460773D01*
X12311293Y-11460773D02*
X12330341Y-11470297D01*
X12406532Y-11670297D02*
X12416055Y-11660773D01*
X12416055Y-11660773D02*
X12435103Y-11632201D01*
X12435103Y-11632201D02*
X12444627Y-11613154D01*
X12444627Y-11613154D02*
X12454151Y-11584582D01*
X12454151Y-11584582D02*
X12463674Y-11536963D01*
X12463674Y-11536963D02*
X12463674Y-11498868D01*
X12463674Y-11498868D02*
X12454151Y-11451249D01*
X12454151Y-11451249D02*
X12444627Y-11422678D01*
X12444627Y-11422678D02*
X12435103Y-11403630D01*
X12435103Y-11403630D02*
X12416055Y-11375059D01*
X12416055Y-11375059D02*
X12406532Y-11365535D01*
D12*
X7330992Y-11711622D02*
X7440992Y-11821622D01*
X7440992Y-11711622D02*
X7330992Y-11821622D01*
X7440992Y-11766622D02*
G75*
G02*
X7330992Y-11766622I-55000J0D01*
G01*
X7330992Y-11766622D02*
G75*
G02*
X7440992Y-11766622I55000J0D01*
G01*
D11*
X7806531Y-11858106D02*
X7692245Y-11858106D01*
X7749388Y-11858106D02*
X7749388Y-11658106D01*
X7749388Y-11658106D02*
X7730341Y-11686678D01*
X7730341Y-11686678D02*
X7711293Y-11705725D01*
X7711293Y-11705725D02*
X7692245Y-11715249D01*
X7892245Y-11839059D02*
X7901769Y-11848582D01*
X7901769Y-11848582D02*
X7892245Y-11858106D01*
X7892245Y-11858106D02*
X7882722Y-11848582D01*
X7882722Y-11848582D02*
X7892245Y-11839059D01*
X7892245Y-11839059D02*
X7892245Y-11858106D01*
X8092245Y-11858106D02*
X7977960Y-11858106D01*
X8035103Y-11858106D02*
X8035103Y-11658106D01*
X8035103Y-11658106D02*
X8016055Y-11686678D01*
X8016055Y-11686678D02*
X7997007Y-11705725D01*
X7997007Y-11705725D02*
X7977960Y-11715249D01*
X8216055Y-11658106D02*
X8235103Y-11658106D01*
X8235103Y-11658106D02*
X8254150Y-11667630D01*
X8254150Y-11667630D02*
X8263674Y-11677154D01*
X8263674Y-11677154D02*
X8273198Y-11696201D01*
X8273198Y-11696201D02*
X8282722Y-11734297D01*
X8282722Y-11734297D02*
X8282722Y-11781916D01*
X8282722Y-11781916D02*
X8273198Y-11820011D01*
X8273198Y-11820011D02*
X8263674Y-11839059D01*
X8263674Y-11839059D02*
X8254150Y-11848582D01*
X8254150Y-11848582D02*
X8235103Y-11858106D01*
X8235103Y-11858106D02*
X8216055Y-11858106D01*
X8216055Y-11858106D02*
X8197007Y-11848582D01*
X8197007Y-11848582D02*
X8187484Y-11839059D01*
X8187484Y-11839059D02*
X8177960Y-11820011D01*
X8177960Y-11820011D02*
X8168436Y-11781916D01*
X8168436Y-11781916D02*
X8168436Y-11734297D01*
X8168436Y-11734297D02*
X8177960Y-11696201D01*
X8177960Y-11696201D02*
X8187484Y-11677154D01*
X8187484Y-11677154D02*
X8197007Y-11667630D01*
X8197007Y-11667630D02*
X8216055Y-11658106D01*
X8406531Y-11658106D02*
X8425579Y-11658106D01*
X8425579Y-11658106D02*
X8444627Y-11667630D01*
X8444627Y-11667630D02*
X8454150Y-11677154D01*
X8454150Y-11677154D02*
X8463674Y-11696201D01*
X8463674Y-11696201D02*
X8473198Y-11734297D01*
X8473198Y-11734297D02*
X8473198Y-11781916D01*
X8473198Y-11781916D02*
X8463674Y-11820011D01*
X8463674Y-11820011D02*
X8454150Y-11839059D01*
X8454150Y-11839059D02*
X8444627Y-11848582D01*
X8444627Y-11848582D02*
X8425579Y-11858106D01*
X8425579Y-11858106D02*
X8406531Y-11858106D01*
X8406531Y-11858106D02*
X8387484Y-11848582D01*
X8387484Y-11848582D02*
X8377960Y-11839059D01*
X8377960Y-11839059D02*
X8368436Y-11820011D01*
X8368436Y-11820011D02*
X8358912Y-11781916D01*
X8358912Y-11781916D02*
X8358912Y-11734297D01*
X8358912Y-11734297D02*
X8368436Y-11696201D01*
X8368436Y-11696201D02*
X8377960Y-11677154D01*
X8377960Y-11677154D02*
X8387484Y-11667630D01*
X8387484Y-11667630D02*
X8406531Y-11658106D01*
X8558912Y-11858106D02*
X8558912Y-11724773D01*
X8558912Y-11743820D02*
X8568436Y-11734297D01*
X8568436Y-11734297D02*
X8587484Y-11724773D01*
X8587484Y-11724773D02*
X8616055Y-11724773D01*
X8616055Y-11724773D02*
X8635103Y-11734297D01*
X8635103Y-11734297D02*
X8644627Y-11753344D01*
X8644627Y-11753344D02*
X8644627Y-11858106D01*
X8644627Y-11753344D02*
X8654150Y-11734297D01*
X8654150Y-11734297D02*
X8673198Y-11724773D01*
X8673198Y-11724773D02*
X8701769Y-11724773D01*
X8701769Y-11724773D02*
X8720817Y-11734297D01*
X8720817Y-11734297D02*
X8730341Y-11753344D01*
X8730341Y-11753344D02*
X8730341Y-11858106D01*
X8825579Y-11858106D02*
X8825579Y-11724773D01*
X8825579Y-11743820D02*
X8835103Y-11734297D01*
X8835103Y-11734297D02*
X8854150Y-11724773D01*
X8854150Y-11724773D02*
X8882722Y-11724773D01*
X8882722Y-11724773D02*
X8901769Y-11734297D01*
X8901769Y-11734297D02*
X8911293Y-11753344D01*
X8911293Y-11753344D02*
X8911293Y-11858106D01*
X8911293Y-11753344D02*
X8920817Y-11734297D01*
X8920817Y-11734297D02*
X8939865Y-11724773D01*
X8939865Y-11724773D02*
X8968436Y-11724773D01*
X8968436Y-11724773D02*
X8987484Y-11734297D01*
X8987484Y-11734297D02*
X8997008Y-11753344D01*
X8997008Y-11753344D02*
X8997008Y-11858106D01*
X9387484Y-11648582D02*
X9216055Y-11905725D01*
X9644627Y-11658106D02*
X9663674Y-11658106D01*
X9663674Y-11658106D02*
X9682722Y-11667630D01*
X9682722Y-11667630D02*
X9692246Y-11677154D01*
X9692246Y-11677154D02*
X9701770Y-11696201D01*
X9701770Y-11696201D02*
X9711293Y-11734297D01*
X9711293Y-11734297D02*
X9711293Y-11781916D01*
X9711293Y-11781916D02*
X9701770Y-11820011D01*
X9701770Y-11820011D02*
X9692246Y-11839059D01*
X9692246Y-11839059D02*
X9682722Y-11848582D01*
X9682722Y-11848582D02*
X9663674Y-11858106D01*
X9663674Y-11858106D02*
X9644627Y-11858106D01*
X9644627Y-11858106D02*
X9625579Y-11848582D01*
X9625579Y-11848582D02*
X9616055Y-11839059D01*
X9616055Y-11839059D02*
X9606531Y-11820011D01*
X9606531Y-11820011D02*
X9597008Y-11781916D01*
X9597008Y-11781916D02*
X9597008Y-11734297D01*
X9597008Y-11734297D02*
X9606531Y-11696201D01*
X9606531Y-11696201D02*
X9616055Y-11677154D01*
X9616055Y-11677154D02*
X9625579Y-11667630D01*
X9625579Y-11667630D02*
X9644627Y-11658106D01*
X9797008Y-11839059D02*
X9806531Y-11848582D01*
X9806531Y-11848582D02*
X9797008Y-11858106D01*
X9797008Y-11858106D02*
X9787484Y-11848582D01*
X9787484Y-11848582D02*
X9797008Y-11839059D01*
X9797008Y-11839059D02*
X9797008Y-11858106D01*
X9930341Y-11658106D02*
X9949389Y-11658106D01*
X9949389Y-11658106D02*
X9968436Y-11667630D01*
X9968436Y-11667630D02*
X9977960Y-11677154D01*
X9977960Y-11677154D02*
X9987484Y-11696201D01*
X9987484Y-11696201D02*
X9997008Y-11734297D01*
X9997008Y-11734297D02*
X9997008Y-11781916D01*
X9997008Y-11781916D02*
X9987484Y-11820011D01*
X9987484Y-11820011D02*
X9977960Y-11839059D01*
X9977960Y-11839059D02*
X9968436Y-11848582D01*
X9968436Y-11848582D02*
X9949389Y-11858106D01*
X9949389Y-11858106D02*
X9930341Y-11858106D01*
X9930341Y-11858106D02*
X9911293Y-11848582D01*
X9911293Y-11848582D02*
X9901770Y-11839059D01*
X9901770Y-11839059D02*
X9892246Y-11820011D01*
X9892246Y-11820011D02*
X9882722Y-11781916D01*
X9882722Y-11781916D02*
X9882722Y-11734297D01*
X9882722Y-11734297D02*
X9892246Y-11696201D01*
X9892246Y-11696201D02*
X9901770Y-11677154D01*
X9901770Y-11677154D02*
X9911293Y-11667630D01*
X9911293Y-11667630D02*
X9930341Y-11658106D01*
X10168436Y-11724773D02*
X10168436Y-11858106D01*
X10120817Y-11648582D02*
X10073198Y-11791440D01*
X10073198Y-11791440D02*
X10197008Y-11791440D01*
X10254151Y-11658106D02*
X10377960Y-11658106D01*
X10377960Y-11658106D02*
X10311293Y-11734297D01*
X10311293Y-11734297D02*
X10339865Y-11734297D01*
X10339865Y-11734297D02*
X10358912Y-11743820D01*
X10358912Y-11743820D02*
X10368436Y-11753344D01*
X10368436Y-11753344D02*
X10377960Y-11772392D01*
X10377960Y-11772392D02*
X10377960Y-11820011D01*
X10377960Y-11820011D02*
X10368436Y-11839059D01*
X10368436Y-11839059D02*
X10358912Y-11848582D01*
X10358912Y-11848582D02*
X10339865Y-11858106D01*
X10339865Y-11858106D02*
X10282722Y-11858106D01*
X10282722Y-11858106D02*
X10263674Y-11848582D01*
X10263674Y-11848582D02*
X10254151Y-11839059D01*
X10444627Y-11658106D02*
X10568436Y-11658106D01*
X10568436Y-11658106D02*
X10501770Y-11734297D01*
X10501770Y-11734297D02*
X10530341Y-11734297D01*
X10530341Y-11734297D02*
X10549389Y-11743820D01*
X10549389Y-11743820D02*
X10558912Y-11753344D01*
X10558912Y-11753344D02*
X10568436Y-11772392D01*
X10568436Y-11772392D02*
X10568436Y-11820011D01*
X10568436Y-11820011D02*
X10558912Y-11839059D01*
X10558912Y-11839059D02*
X10549389Y-11848582D01*
X10549389Y-11848582D02*
X10530341Y-11858106D01*
X10530341Y-11858106D02*
X10473198Y-11858106D01*
X10473198Y-11858106D02*
X10454151Y-11848582D01*
X10454151Y-11848582D02*
X10444627Y-11839059D01*
X10644627Y-11658106D02*
X10644627Y-11696201D01*
X10720817Y-11658106D02*
X10720817Y-11696201D01*
X11016055Y-11934297D02*
X11006532Y-11924773D01*
X11006532Y-11924773D02*
X10987484Y-11896201D01*
X10987484Y-11896201D02*
X10977960Y-11877154D01*
X10977960Y-11877154D02*
X10968436Y-11848582D01*
X10968436Y-11848582D02*
X10958913Y-11800963D01*
X10958913Y-11800963D02*
X10958913Y-11762868D01*
X10958913Y-11762868D02*
X10968436Y-11715249D01*
X10968436Y-11715249D02*
X10977960Y-11686678D01*
X10977960Y-11686678D02*
X10987484Y-11667630D01*
X10987484Y-11667630D02*
X11006532Y-11639059D01*
X11006532Y-11639059D02*
X11016055Y-11629535D01*
X11197008Y-11858106D02*
X11082722Y-11858106D01*
X11139865Y-11858106D02*
X11139865Y-11658106D01*
X11139865Y-11658106D02*
X11120817Y-11686678D01*
X11120817Y-11686678D02*
X11101770Y-11705725D01*
X11101770Y-11705725D02*
X11082722Y-11715249D01*
X11368436Y-11658106D02*
X11330341Y-11658106D01*
X11330341Y-11658106D02*
X11311293Y-11667630D01*
X11311293Y-11667630D02*
X11301770Y-11677154D01*
X11301770Y-11677154D02*
X11282722Y-11705725D01*
X11282722Y-11705725D02*
X11273198Y-11743820D01*
X11273198Y-11743820D02*
X11273198Y-11820011D01*
X11273198Y-11820011D02*
X11282722Y-11839059D01*
X11282722Y-11839059D02*
X11292246Y-11848582D01*
X11292246Y-11848582D02*
X11311293Y-11858106D01*
X11311293Y-11858106D02*
X11349389Y-11858106D01*
X11349389Y-11858106D02*
X11368436Y-11848582D01*
X11368436Y-11848582D02*
X11377960Y-11839059D01*
X11377960Y-11839059D02*
X11387484Y-11820011D01*
X11387484Y-11820011D02*
X11387484Y-11772392D01*
X11387484Y-11772392D02*
X11377960Y-11753344D01*
X11377960Y-11753344D02*
X11368436Y-11743820D01*
X11368436Y-11743820D02*
X11349389Y-11734297D01*
X11349389Y-11734297D02*
X11311293Y-11734297D01*
X11311293Y-11734297D02*
X11292246Y-11743820D01*
X11292246Y-11743820D02*
X11282722Y-11753344D01*
X11282722Y-11753344D02*
X11273198Y-11772392D01*
X11625579Y-11858106D02*
X11625579Y-11658106D01*
X11711293Y-11858106D02*
X11711293Y-11753344D01*
X11711293Y-11753344D02*
X11701770Y-11734297D01*
X11701770Y-11734297D02*
X11682722Y-11724773D01*
X11682722Y-11724773D02*
X11654151Y-11724773D01*
X11654151Y-11724773D02*
X11635103Y-11734297D01*
X11635103Y-11734297D02*
X11625579Y-11743820D01*
X11835103Y-11858106D02*
X11816055Y-11848582D01*
X11816055Y-11848582D02*
X11806532Y-11839059D01*
X11806532Y-11839059D02*
X11797008Y-11820011D01*
X11797008Y-11820011D02*
X11797008Y-11762868D01*
X11797008Y-11762868D02*
X11806532Y-11743820D01*
X11806532Y-11743820D02*
X11816055Y-11734297D01*
X11816055Y-11734297D02*
X11835103Y-11724773D01*
X11835103Y-11724773D02*
X11863674Y-11724773D01*
X11863674Y-11724773D02*
X11882722Y-11734297D01*
X11882722Y-11734297D02*
X11892246Y-11743820D01*
X11892246Y-11743820D02*
X11901770Y-11762868D01*
X11901770Y-11762868D02*
X11901770Y-11820011D01*
X11901770Y-11820011D02*
X11892246Y-11839059D01*
X11892246Y-11839059D02*
X11882722Y-11848582D01*
X11882722Y-11848582D02*
X11863674Y-11858106D01*
X11863674Y-11858106D02*
X11835103Y-11858106D01*
X12016055Y-11858106D02*
X11997008Y-11848582D01*
X11997008Y-11848582D02*
X11987484Y-11829535D01*
X11987484Y-11829535D02*
X11987484Y-11658106D01*
X12168436Y-11848582D02*
X12149389Y-11858106D01*
X12149389Y-11858106D02*
X12111293Y-11858106D01*
X12111293Y-11858106D02*
X12092246Y-11848582D01*
X12092246Y-11848582D02*
X12082722Y-11829535D01*
X12082722Y-11829535D02*
X12082722Y-11753344D01*
X12082722Y-11753344D02*
X12092246Y-11734297D01*
X12092246Y-11734297D02*
X12111293Y-11724773D01*
X12111293Y-11724773D02*
X12149389Y-11724773D01*
X12149389Y-11724773D02*
X12168436Y-11734297D01*
X12168436Y-11734297D02*
X12177960Y-11753344D01*
X12177960Y-11753344D02*
X12177960Y-11772392D01*
X12177960Y-11772392D02*
X12082722Y-11791440D01*
X12254151Y-11848582D02*
X12273198Y-11858106D01*
X12273198Y-11858106D02*
X12311293Y-11858106D01*
X12311293Y-11858106D02*
X12330341Y-11848582D01*
X12330341Y-11848582D02*
X12339865Y-11829535D01*
X12339865Y-11829535D02*
X12339865Y-11820011D01*
X12339865Y-11820011D02*
X12330341Y-11800963D01*
X12330341Y-11800963D02*
X12311293Y-11791440D01*
X12311293Y-11791440D02*
X12282722Y-11791440D01*
X12282722Y-11791440D02*
X12263674Y-11781916D01*
X12263674Y-11781916D02*
X12254151Y-11762868D01*
X12254151Y-11762868D02*
X12254151Y-11753344D01*
X12254151Y-11753344D02*
X12263674Y-11734297D01*
X12263674Y-11734297D02*
X12282722Y-11724773D01*
X12282722Y-11724773D02*
X12311293Y-11724773D01*
X12311293Y-11724773D02*
X12330341Y-11734297D01*
X12406532Y-11934297D02*
X12416055Y-11924773D01*
X12416055Y-11924773D02*
X12435103Y-11896201D01*
X12435103Y-11896201D02*
X12444627Y-11877154D01*
X12444627Y-11877154D02*
X12454151Y-11848582D01*
X12454151Y-11848582D02*
X12463674Y-11800963D01*
X12463674Y-11800963D02*
X12463674Y-11762868D01*
X12463674Y-11762868D02*
X12454151Y-11715249D01*
X12454151Y-11715249D02*
X12444627Y-11686678D01*
X12444627Y-11686678D02*
X12435103Y-11667630D01*
X12435103Y-11667630D02*
X12416055Y-11639059D01*
X12416055Y-11639059D02*
X12406532Y-11629535D01*
D13*
X7300992Y-11960622D02*
X7440992Y-12100622D01*
X7440992Y-11960622D02*
X7300992Y-12100622D01*
X7370992Y-11960622D02*
X7370992Y-12100622D01*
X7300992Y-12030622D02*
X7440992Y-12030622D01*
D11*
X7806531Y-12122106D02*
X7692245Y-12122106D01*
X7749388Y-12122106D02*
X7749388Y-11922106D01*
X7749388Y-11922106D02*
X7730341Y-11950678D01*
X7730341Y-11950678D02*
X7711293Y-11969725D01*
X7711293Y-11969725D02*
X7692245Y-11979249D01*
X7892245Y-12103059D02*
X7901769Y-12112582D01*
X7901769Y-12112582D02*
X7892245Y-12122106D01*
X7892245Y-12122106D02*
X7882722Y-12112582D01*
X7882722Y-12112582D02*
X7892245Y-12103059D01*
X7892245Y-12103059D02*
X7892245Y-12122106D01*
X8073198Y-11988773D02*
X8073198Y-12122106D01*
X8025579Y-11912582D02*
X7977960Y-12055440D01*
X7977960Y-12055440D02*
X8101769Y-12055440D01*
X8216055Y-11922106D02*
X8235103Y-11922106D01*
X8235103Y-11922106D02*
X8254150Y-11931630D01*
X8254150Y-11931630D02*
X8263674Y-11941154D01*
X8263674Y-11941154D02*
X8273198Y-11960201D01*
X8273198Y-11960201D02*
X8282722Y-11998297D01*
X8282722Y-11998297D02*
X8282722Y-12045916D01*
X8282722Y-12045916D02*
X8273198Y-12084011D01*
X8273198Y-12084011D02*
X8263674Y-12103059D01*
X8263674Y-12103059D02*
X8254150Y-12112582D01*
X8254150Y-12112582D02*
X8235103Y-12122106D01*
X8235103Y-12122106D02*
X8216055Y-12122106D01*
X8216055Y-12122106D02*
X8197007Y-12112582D01*
X8197007Y-12112582D02*
X8187484Y-12103059D01*
X8187484Y-12103059D02*
X8177960Y-12084011D01*
X8177960Y-12084011D02*
X8168436Y-12045916D01*
X8168436Y-12045916D02*
X8168436Y-11998297D01*
X8168436Y-11998297D02*
X8177960Y-11960201D01*
X8177960Y-11960201D02*
X8187484Y-11941154D01*
X8187484Y-11941154D02*
X8197007Y-11931630D01*
X8197007Y-11931630D02*
X8216055Y-11922106D01*
X8406531Y-11922106D02*
X8425579Y-11922106D01*
X8425579Y-11922106D02*
X8444627Y-11931630D01*
X8444627Y-11931630D02*
X8454150Y-11941154D01*
X8454150Y-11941154D02*
X8463674Y-11960201D01*
X8463674Y-11960201D02*
X8473198Y-11998297D01*
X8473198Y-11998297D02*
X8473198Y-12045916D01*
X8473198Y-12045916D02*
X8463674Y-12084011D01*
X8463674Y-12084011D02*
X8454150Y-12103059D01*
X8454150Y-12103059D02*
X8444627Y-12112582D01*
X8444627Y-12112582D02*
X8425579Y-12122106D01*
X8425579Y-12122106D02*
X8406531Y-12122106D01*
X8406531Y-12122106D02*
X8387484Y-12112582D01*
X8387484Y-12112582D02*
X8377960Y-12103059D01*
X8377960Y-12103059D02*
X8368436Y-12084011D01*
X8368436Y-12084011D02*
X8358912Y-12045916D01*
X8358912Y-12045916D02*
X8358912Y-11998297D01*
X8358912Y-11998297D02*
X8368436Y-11960201D01*
X8368436Y-11960201D02*
X8377960Y-11941154D01*
X8377960Y-11941154D02*
X8387484Y-11931630D01*
X8387484Y-11931630D02*
X8406531Y-11922106D01*
X8558912Y-12122106D02*
X8558912Y-11988773D01*
X8558912Y-12007820D02*
X8568436Y-11998297D01*
X8568436Y-11998297D02*
X8587484Y-11988773D01*
X8587484Y-11988773D02*
X8616055Y-11988773D01*
X8616055Y-11988773D02*
X8635103Y-11998297D01*
X8635103Y-11998297D02*
X8644627Y-12017344D01*
X8644627Y-12017344D02*
X8644627Y-12122106D01*
X8644627Y-12017344D02*
X8654150Y-11998297D01*
X8654150Y-11998297D02*
X8673198Y-11988773D01*
X8673198Y-11988773D02*
X8701769Y-11988773D01*
X8701769Y-11988773D02*
X8720817Y-11998297D01*
X8720817Y-11998297D02*
X8730341Y-12017344D01*
X8730341Y-12017344D02*
X8730341Y-12122106D01*
X8825579Y-12122106D02*
X8825579Y-11988773D01*
X8825579Y-12007820D02*
X8835103Y-11998297D01*
X8835103Y-11998297D02*
X8854150Y-11988773D01*
X8854150Y-11988773D02*
X8882722Y-11988773D01*
X8882722Y-11988773D02*
X8901769Y-11998297D01*
X8901769Y-11998297D02*
X8911293Y-12017344D01*
X8911293Y-12017344D02*
X8911293Y-12122106D01*
X8911293Y-12017344D02*
X8920817Y-11998297D01*
X8920817Y-11998297D02*
X8939865Y-11988773D01*
X8939865Y-11988773D02*
X8968436Y-11988773D01*
X8968436Y-11988773D02*
X8987484Y-11998297D01*
X8987484Y-11998297D02*
X8997008Y-12017344D01*
X8997008Y-12017344D02*
X8997008Y-12122106D01*
X9387484Y-11912582D02*
X9216055Y-12169725D01*
X9644627Y-11922106D02*
X9663674Y-11922106D01*
X9663674Y-11922106D02*
X9682722Y-11931630D01*
X9682722Y-11931630D02*
X9692246Y-11941154D01*
X9692246Y-11941154D02*
X9701770Y-11960201D01*
X9701770Y-11960201D02*
X9711293Y-11998297D01*
X9711293Y-11998297D02*
X9711293Y-12045916D01*
X9711293Y-12045916D02*
X9701770Y-12084011D01*
X9701770Y-12084011D02*
X9692246Y-12103059D01*
X9692246Y-12103059D02*
X9682722Y-12112582D01*
X9682722Y-12112582D02*
X9663674Y-12122106D01*
X9663674Y-12122106D02*
X9644627Y-12122106D01*
X9644627Y-12122106D02*
X9625579Y-12112582D01*
X9625579Y-12112582D02*
X9616055Y-12103059D01*
X9616055Y-12103059D02*
X9606531Y-12084011D01*
X9606531Y-12084011D02*
X9597008Y-12045916D01*
X9597008Y-12045916D02*
X9597008Y-11998297D01*
X9597008Y-11998297D02*
X9606531Y-11960201D01*
X9606531Y-11960201D02*
X9616055Y-11941154D01*
X9616055Y-11941154D02*
X9625579Y-11931630D01*
X9625579Y-11931630D02*
X9644627Y-11922106D01*
X9797008Y-12103059D02*
X9806531Y-12112582D01*
X9806531Y-12112582D02*
X9797008Y-12122106D01*
X9797008Y-12122106D02*
X9787484Y-12112582D01*
X9787484Y-12112582D02*
X9797008Y-12103059D01*
X9797008Y-12103059D02*
X9797008Y-12122106D01*
X9930341Y-11922106D02*
X9949389Y-11922106D01*
X9949389Y-11922106D02*
X9968436Y-11931630D01*
X9968436Y-11931630D02*
X9977960Y-11941154D01*
X9977960Y-11941154D02*
X9987484Y-11960201D01*
X9987484Y-11960201D02*
X9997008Y-11998297D01*
X9997008Y-11998297D02*
X9997008Y-12045916D01*
X9997008Y-12045916D02*
X9987484Y-12084011D01*
X9987484Y-12084011D02*
X9977960Y-12103059D01*
X9977960Y-12103059D02*
X9968436Y-12112582D01*
X9968436Y-12112582D02*
X9949389Y-12122106D01*
X9949389Y-12122106D02*
X9930341Y-12122106D01*
X9930341Y-12122106D02*
X9911293Y-12112582D01*
X9911293Y-12112582D02*
X9901770Y-12103059D01*
X9901770Y-12103059D02*
X9892246Y-12084011D01*
X9892246Y-12084011D02*
X9882722Y-12045916D01*
X9882722Y-12045916D02*
X9882722Y-11998297D01*
X9882722Y-11998297D02*
X9892246Y-11960201D01*
X9892246Y-11960201D02*
X9901770Y-11941154D01*
X9901770Y-11941154D02*
X9911293Y-11931630D01*
X9911293Y-11931630D02*
X9930341Y-11922106D01*
X10177960Y-11922106D02*
X10082722Y-11922106D01*
X10082722Y-11922106D02*
X10073198Y-12017344D01*
X10073198Y-12017344D02*
X10082722Y-12007820D01*
X10082722Y-12007820D02*
X10101770Y-11998297D01*
X10101770Y-11998297D02*
X10149389Y-11998297D01*
X10149389Y-11998297D02*
X10168436Y-12007820D01*
X10168436Y-12007820D02*
X10177960Y-12017344D01*
X10177960Y-12017344D02*
X10187484Y-12036392D01*
X10187484Y-12036392D02*
X10187484Y-12084011D01*
X10187484Y-12084011D02*
X10177960Y-12103059D01*
X10177960Y-12103059D02*
X10168436Y-12112582D01*
X10168436Y-12112582D02*
X10149389Y-12122106D01*
X10149389Y-12122106D02*
X10101770Y-12122106D01*
X10101770Y-12122106D02*
X10082722Y-12112582D01*
X10082722Y-12112582D02*
X10073198Y-12103059D01*
X10368436Y-11922106D02*
X10273198Y-11922106D01*
X10273198Y-11922106D02*
X10263674Y-12017344D01*
X10263674Y-12017344D02*
X10273198Y-12007820D01*
X10273198Y-12007820D02*
X10292246Y-11998297D01*
X10292246Y-11998297D02*
X10339865Y-11998297D01*
X10339865Y-11998297D02*
X10358912Y-12007820D01*
X10358912Y-12007820D02*
X10368436Y-12017344D01*
X10368436Y-12017344D02*
X10377960Y-12036392D01*
X10377960Y-12036392D02*
X10377960Y-12084011D01*
X10377960Y-12084011D02*
X10368436Y-12103059D01*
X10368436Y-12103059D02*
X10358912Y-12112582D01*
X10358912Y-12112582D02*
X10339865Y-12122106D01*
X10339865Y-12122106D02*
X10292246Y-12122106D01*
X10292246Y-12122106D02*
X10273198Y-12112582D01*
X10273198Y-12112582D02*
X10263674Y-12103059D01*
X10568436Y-12122106D02*
X10454151Y-12122106D01*
X10511293Y-12122106D02*
X10511293Y-11922106D01*
X10511293Y-11922106D02*
X10492246Y-11950678D01*
X10492246Y-11950678D02*
X10473198Y-11969725D01*
X10473198Y-11969725D02*
X10454151Y-11979249D01*
X10644627Y-11922106D02*
X10644627Y-11960201D01*
X10720817Y-11922106D02*
X10720817Y-11960201D01*
X11016055Y-12198297D02*
X11006532Y-12188773D01*
X11006532Y-12188773D02*
X10987484Y-12160201D01*
X10987484Y-12160201D02*
X10977960Y-12141154D01*
X10977960Y-12141154D02*
X10968436Y-12112582D01*
X10968436Y-12112582D02*
X10958913Y-12064963D01*
X10958913Y-12064963D02*
X10958913Y-12026868D01*
X10958913Y-12026868D02*
X10968436Y-11979249D01*
X10968436Y-11979249D02*
X10977960Y-11950678D01*
X10977960Y-11950678D02*
X10987484Y-11931630D01*
X10987484Y-11931630D02*
X11006532Y-11903059D01*
X11006532Y-11903059D02*
X11016055Y-11893535D01*
X11197008Y-12122106D02*
X11082722Y-12122106D01*
X11139865Y-12122106D02*
X11139865Y-11922106D01*
X11139865Y-11922106D02*
X11120817Y-11950678D01*
X11120817Y-11950678D02*
X11101770Y-11969725D01*
X11101770Y-11969725D02*
X11082722Y-11979249D01*
X11368436Y-11988773D02*
X11368436Y-12122106D01*
X11320817Y-11912582D02*
X11273198Y-12055440D01*
X11273198Y-12055440D02*
X11397008Y-12055440D01*
X11625579Y-12122106D02*
X11625579Y-11922106D01*
X11711293Y-12122106D02*
X11711293Y-12017344D01*
X11711293Y-12017344D02*
X11701770Y-11998297D01*
X11701770Y-11998297D02*
X11682722Y-11988773D01*
X11682722Y-11988773D02*
X11654151Y-11988773D01*
X11654151Y-11988773D02*
X11635103Y-11998297D01*
X11635103Y-11998297D02*
X11625579Y-12007820D01*
X11835103Y-12122106D02*
X11816055Y-12112582D01*
X11816055Y-12112582D02*
X11806532Y-12103059D01*
X11806532Y-12103059D02*
X11797008Y-12084011D01*
X11797008Y-12084011D02*
X11797008Y-12026868D01*
X11797008Y-12026868D02*
X11806532Y-12007820D01*
X11806532Y-12007820D02*
X11816055Y-11998297D01*
X11816055Y-11998297D02*
X11835103Y-11988773D01*
X11835103Y-11988773D02*
X11863674Y-11988773D01*
X11863674Y-11988773D02*
X11882722Y-11998297D01*
X11882722Y-11998297D02*
X11892246Y-12007820D01*
X11892246Y-12007820D02*
X11901770Y-12026868D01*
X11901770Y-12026868D02*
X11901770Y-12084011D01*
X11901770Y-12084011D02*
X11892246Y-12103059D01*
X11892246Y-12103059D02*
X11882722Y-12112582D01*
X11882722Y-12112582D02*
X11863674Y-12122106D01*
X11863674Y-12122106D02*
X11835103Y-12122106D01*
X12016055Y-12122106D02*
X11997008Y-12112582D01*
X11997008Y-12112582D02*
X11987484Y-12093535D01*
X11987484Y-12093535D02*
X11987484Y-11922106D01*
X12168436Y-12112582D02*
X12149389Y-12122106D01*
X12149389Y-12122106D02*
X12111293Y-12122106D01*
X12111293Y-12122106D02*
X12092246Y-12112582D01*
X12092246Y-12112582D02*
X12082722Y-12093535D01*
X12082722Y-12093535D02*
X12082722Y-12017344D01*
X12082722Y-12017344D02*
X12092246Y-11998297D01*
X12092246Y-11998297D02*
X12111293Y-11988773D01*
X12111293Y-11988773D02*
X12149389Y-11988773D01*
X12149389Y-11988773D02*
X12168436Y-11998297D01*
X12168436Y-11998297D02*
X12177960Y-12017344D01*
X12177960Y-12017344D02*
X12177960Y-12036392D01*
X12177960Y-12036392D02*
X12082722Y-12055440D01*
X12254151Y-12112582D02*
X12273198Y-12122106D01*
X12273198Y-12122106D02*
X12311293Y-12122106D01*
X12311293Y-12122106D02*
X12330341Y-12112582D01*
X12330341Y-12112582D02*
X12339865Y-12093535D01*
X12339865Y-12093535D02*
X12339865Y-12084011D01*
X12339865Y-12084011D02*
X12330341Y-12064963D01*
X12330341Y-12064963D02*
X12311293Y-12055440D01*
X12311293Y-12055440D02*
X12282722Y-12055440D01*
X12282722Y-12055440D02*
X12263674Y-12045916D01*
X12263674Y-12045916D02*
X12254151Y-12026868D01*
X12254151Y-12026868D02*
X12254151Y-12017344D01*
X12254151Y-12017344D02*
X12263674Y-11998297D01*
X12263674Y-11998297D02*
X12282722Y-11988773D01*
X12282722Y-11988773D02*
X12311293Y-11988773D01*
X12311293Y-11988773D02*
X12330341Y-11998297D01*
X12406532Y-12198297D02*
X12416055Y-12188773D01*
X12416055Y-12188773D02*
X12435103Y-12160201D01*
X12435103Y-12160201D02*
X12444627Y-12141154D01*
X12444627Y-12141154D02*
X12454151Y-12112582D01*
X12454151Y-12112582D02*
X12463674Y-12064963D01*
X12463674Y-12064963D02*
X12463674Y-12026868D01*
X12463674Y-12026868D02*
X12454151Y-11979249D01*
X12454151Y-11979249D02*
X12444627Y-11950678D01*
X12444627Y-11950678D02*
X12435103Y-11931630D01*
X12435103Y-11931630D02*
X12416055Y-11903059D01*
X12416055Y-11903059D02*
X12406532Y-11893535D01*
D14*
X7280992Y-12214622D02*
X7440992Y-12374622D01*
X7440992Y-12214622D02*
X7280992Y-12374622D01*
X7417562Y-12351192D02*
X7417562Y-12238053D01*
X7304423Y-12238053D01*
X7304423Y-12351192D01*
X7417562Y-12351192D01*
D11*
X7806531Y-12386106D02*
X7692245Y-12386106D01*
X7749388Y-12386106D02*
X7749388Y-12186106D01*
X7749388Y-12186106D02*
X7730341Y-12214678D01*
X7730341Y-12214678D02*
X7711293Y-12233725D01*
X7711293Y-12233725D02*
X7692245Y-12243249D01*
X7892245Y-12367059D02*
X7901769Y-12376582D01*
X7901769Y-12376582D02*
X7892245Y-12386106D01*
X7892245Y-12386106D02*
X7882722Y-12376582D01*
X7882722Y-12376582D02*
X7892245Y-12367059D01*
X7892245Y-12367059D02*
X7892245Y-12386106D01*
X8073198Y-12186106D02*
X8035103Y-12186106D01*
X8035103Y-12186106D02*
X8016055Y-12195630D01*
X8016055Y-12195630D02*
X8006531Y-12205154D01*
X8006531Y-12205154D02*
X7987484Y-12233725D01*
X7987484Y-12233725D02*
X7977960Y-12271820D01*
X7977960Y-12271820D02*
X7977960Y-12348011D01*
X7977960Y-12348011D02*
X7987484Y-12367059D01*
X7987484Y-12367059D02*
X7997007Y-12376582D01*
X7997007Y-12376582D02*
X8016055Y-12386106D01*
X8016055Y-12386106D02*
X8054150Y-12386106D01*
X8054150Y-12386106D02*
X8073198Y-12376582D01*
X8073198Y-12376582D02*
X8082722Y-12367059D01*
X8082722Y-12367059D02*
X8092245Y-12348011D01*
X8092245Y-12348011D02*
X8092245Y-12300392D01*
X8092245Y-12300392D02*
X8082722Y-12281344D01*
X8082722Y-12281344D02*
X8073198Y-12271820D01*
X8073198Y-12271820D02*
X8054150Y-12262297D01*
X8054150Y-12262297D02*
X8016055Y-12262297D01*
X8016055Y-12262297D02*
X7997007Y-12271820D01*
X7997007Y-12271820D02*
X7987484Y-12281344D01*
X7987484Y-12281344D02*
X7977960Y-12300392D01*
X8216055Y-12186106D02*
X8235103Y-12186106D01*
X8235103Y-12186106D02*
X8254150Y-12195630D01*
X8254150Y-12195630D02*
X8263674Y-12205154D01*
X8263674Y-12205154D02*
X8273198Y-12224201D01*
X8273198Y-12224201D02*
X8282722Y-12262297D01*
X8282722Y-12262297D02*
X8282722Y-12309916D01*
X8282722Y-12309916D02*
X8273198Y-12348011D01*
X8273198Y-12348011D02*
X8263674Y-12367059D01*
X8263674Y-12367059D02*
X8254150Y-12376582D01*
X8254150Y-12376582D02*
X8235103Y-12386106D01*
X8235103Y-12386106D02*
X8216055Y-12386106D01*
X8216055Y-12386106D02*
X8197007Y-12376582D01*
X8197007Y-12376582D02*
X8187484Y-12367059D01*
X8187484Y-12367059D02*
X8177960Y-12348011D01*
X8177960Y-12348011D02*
X8168436Y-12309916D01*
X8168436Y-12309916D02*
X8168436Y-12262297D01*
X8168436Y-12262297D02*
X8177960Y-12224201D01*
X8177960Y-12224201D02*
X8187484Y-12205154D01*
X8187484Y-12205154D02*
X8197007Y-12195630D01*
X8197007Y-12195630D02*
X8216055Y-12186106D01*
X8406531Y-12186106D02*
X8425579Y-12186106D01*
X8425579Y-12186106D02*
X8444627Y-12195630D01*
X8444627Y-12195630D02*
X8454150Y-12205154D01*
X8454150Y-12205154D02*
X8463674Y-12224201D01*
X8463674Y-12224201D02*
X8473198Y-12262297D01*
X8473198Y-12262297D02*
X8473198Y-12309916D01*
X8473198Y-12309916D02*
X8463674Y-12348011D01*
X8463674Y-12348011D02*
X8454150Y-12367059D01*
X8454150Y-12367059D02*
X8444627Y-12376582D01*
X8444627Y-12376582D02*
X8425579Y-12386106D01*
X8425579Y-12386106D02*
X8406531Y-12386106D01*
X8406531Y-12386106D02*
X8387484Y-12376582D01*
X8387484Y-12376582D02*
X8377960Y-12367059D01*
X8377960Y-12367059D02*
X8368436Y-12348011D01*
X8368436Y-12348011D02*
X8358912Y-12309916D01*
X8358912Y-12309916D02*
X8358912Y-12262297D01*
X8358912Y-12262297D02*
X8368436Y-12224201D01*
X8368436Y-12224201D02*
X8377960Y-12205154D01*
X8377960Y-12205154D02*
X8387484Y-12195630D01*
X8387484Y-12195630D02*
X8406531Y-12186106D01*
X8558912Y-12386106D02*
X8558912Y-12252773D01*
X8558912Y-12271820D02*
X8568436Y-12262297D01*
X8568436Y-12262297D02*
X8587484Y-12252773D01*
X8587484Y-12252773D02*
X8616055Y-12252773D01*
X8616055Y-12252773D02*
X8635103Y-12262297D01*
X8635103Y-12262297D02*
X8644627Y-12281344D01*
X8644627Y-12281344D02*
X8644627Y-12386106D01*
X8644627Y-12281344D02*
X8654150Y-12262297D01*
X8654150Y-12262297D02*
X8673198Y-12252773D01*
X8673198Y-12252773D02*
X8701769Y-12252773D01*
X8701769Y-12252773D02*
X8720817Y-12262297D01*
X8720817Y-12262297D02*
X8730341Y-12281344D01*
X8730341Y-12281344D02*
X8730341Y-12386106D01*
X8825579Y-12386106D02*
X8825579Y-12252773D01*
X8825579Y-12271820D02*
X8835103Y-12262297D01*
X8835103Y-12262297D02*
X8854150Y-12252773D01*
X8854150Y-12252773D02*
X8882722Y-12252773D01*
X8882722Y-12252773D02*
X8901769Y-12262297D01*
X8901769Y-12262297D02*
X8911293Y-12281344D01*
X8911293Y-12281344D02*
X8911293Y-12386106D01*
X8911293Y-12281344D02*
X8920817Y-12262297D01*
X8920817Y-12262297D02*
X8939865Y-12252773D01*
X8939865Y-12252773D02*
X8968436Y-12252773D01*
X8968436Y-12252773D02*
X8987484Y-12262297D01*
X8987484Y-12262297D02*
X8997008Y-12281344D01*
X8997008Y-12281344D02*
X8997008Y-12386106D01*
X9387484Y-12176582D02*
X9216055Y-12433725D01*
X9644627Y-12186106D02*
X9663674Y-12186106D01*
X9663674Y-12186106D02*
X9682722Y-12195630D01*
X9682722Y-12195630D02*
X9692246Y-12205154D01*
X9692246Y-12205154D02*
X9701770Y-12224201D01*
X9701770Y-12224201D02*
X9711293Y-12262297D01*
X9711293Y-12262297D02*
X9711293Y-12309916D01*
X9711293Y-12309916D02*
X9701770Y-12348011D01*
X9701770Y-12348011D02*
X9692246Y-12367059D01*
X9692246Y-12367059D02*
X9682722Y-12376582D01*
X9682722Y-12376582D02*
X9663674Y-12386106D01*
X9663674Y-12386106D02*
X9644627Y-12386106D01*
X9644627Y-12386106D02*
X9625579Y-12376582D01*
X9625579Y-12376582D02*
X9616055Y-12367059D01*
X9616055Y-12367059D02*
X9606531Y-12348011D01*
X9606531Y-12348011D02*
X9597008Y-12309916D01*
X9597008Y-12309916D02*
X9597008Y-12262297D01*
X9597008Y-12262297D02*
X9606531Y-12224201D01*
X9606531Y-12224201D02*
X9616055Y-12205154D01*
X9616055Y-12205154D02*
X9625579Y-12195630D01*
X9625579Y-12195630D02*
X9644627Y-12186106D01*
X9797008Y-12367059D02*
X9806531Y-12376582D01*
X9806531Y-12376582D02*
X9797008Y-12386106D01*
X9797008Y-12386106D02*
X9787484Y-12376582D01*
X9787484Y-12376582D02*
X9797008Y-12367059D01*
X9797008Y-12367059D02*
X9797008Y-12386106D01*
X9930341Y-12186106D02*
X9949389Y-12186106D01*
X9949389Y-12186106D02*
X9968436Y-12195630D01*
X9968436Y-12195630D02*
X9977960Y-12205154D01*
X9977960Y-12205154D02*
X9987484Y-12224201D01*
X9987484Y-12224201D02*
X9997008Y-12262297D01*
X9997008Y-12262297D02*
X9997008Y-12309916D01*
X9997008Y-12309916D02*
X9987484Y-12348011D01*
X9987484Y-12348011D02*
X9977960Y-12367059D01*
X9977960Y-12367059D02*
X9968436Y-12376582D01*
X9968436Y-12376582D02*
X9949389Y-12386106D01*
X9949389Y-12386106D02*
X9930341Y-12386106D01*
X9930341Y-12386106D02*
X9911293Y-12376582D01*
X9911293Y-12376582D02*
X9901770Y-12367059D01*
X9901770Y-12367059D02*
X9892246Y-12348011D01*
X9892246Y-12348011D02*
X9882722Y-12309916D01*
X9882722Y-12309916D02*
X9882722Y-12262297D01*
X9882722Y-12262297D02*
X9892246Y-12224201D01*
X9892246Y-12224201D02*
X9901770Y-12205154D01*
X9901770Y-12205154D02*
X9911293Y-12195630D01*
X9911293Y-12195630D02*
X9930341Y-12186106D01*
X10168436Y-12186106D02*
X10130341Y-12186106D01*
X10130341Y-12186106D02*
X10111293Y-12195630D01*
X10111293Y-12195630D02*
X10101770Y-12205154D01*
X10101770Y-12205154D02*
X10082722Y-12233725D01*
X10082722Y-12233725D02*
X10073198Y-12271820D01*
X10073198Y-12271820D02*
X10073198Y-12348011D01*
X10073198Y-12348011D02*
X10082722Y-12367059D01*
X10082722Y-12367059D02*
X10092246Y-12376582D01*
X10092246Y-12376582D02*
X10111293Y-12386106D01*
X10111293Y-12386106D02*
X10149389Y-12386106D01*
X10149389Y-12386106D02*
X10168436Y-12376582D01*
X10168436Y-12376582D02*
X10177960Y-12367059D01*
X10177960Y-12367059D02*
X10187484Y-12348011D01*
X10187484Y-12348011D02*
X10187484Y-12300392D01*
X10187484Y-12300392D02*
X10177960Y-12281344D01*
X10177960Y-12281344D02*
X10168436Y-12271820D01*
X10168436Y-12271820D02*
X10149389Y-12262297D01*
X10149389Y-12262297D02*
X10111293Y-12262297D01*
X10111293Y-12262297D02*
X10092246Y-12271820D01*
X10092246Y-12271820D02*
X10082722Y-12281344D01*
X10082722Y-12281344D02*
X10073198Y-12300392D01*
X10254151Y-12186106D02*
X10377960Y-12186106D01*
X10377960Y-12186106D02*
X10311293Y-12262297D01*
X10311293Y-12262297D02*
X10339865Y-12262297D01*
X10339865Y-12262297D02*
X10358912Y-12271820D01*
X10358912Y-12271820D02*
X10368436Y-12281344D01*
X10368436Y-12281344D02*
X10377960Y-12300392D01*
X10377960Y-12300392D02*
X10377960Y-12348011D01*
X10377960Y-12348011D02*
X10368436Y-12367059D01*
X10368436Y-12367059D02*
X10358912Y-12376582D01*
X10358912Y-12376582D02*
X10339865Y-12386106D01*
X10339865Y-12386106D02*
X10282722Y-12386106D01*
X10282722Y-12386106D02*
X10263674Y-12376582D01*
X10263674Y-12376582D02*
X10254151Y-12367059D01*
X10501770Y-12186106D02*
X10520817Y-12186106D01*
X10520817Y-12186106D02*
X10539865Y-12195630D01*
X10539865Y-12195630D02*
X10549389Y-12205154D01*
X10549389Y-12205154D02*
X10558912Y-12224201D01*
X10558912Y-12224201D02*
X10568436Y-12262297D01*
X10568436Y-12262297D02*
X10568436Y-12309916D01*
X10568436Y-12309916D02*
X10558912Y-12348011D01*
X10558912Y-12348011D02*
X10549389Y-12367059D01*
X10549389Y-12367059D02*
X10539865Y-12376582D01*
X10539865Y-12376582D02*
X10520817Y-12386106D01*
X10520817Y-12386106D02*
X10501770Y-12386106D01*
X10501770Y-12386106D02*
X10482722Y-12376582D01*
X10482722Y-12376582D02*
X10473198Y-12367059D01*
X10473198Y-12367059D02*
X10463674Y-12348011D01*
X10463674Y-12348011D02*
X10454151Y-12309916D01*
X10454151Y-12309916D02*
X10454151Y-12262297D01*
X10454151Y-12262297D02*
X10463674Y-12224201D01*
X10463674Y-12224201D02*
X10473198Y-12205154D01*
X10473198Y-12205154D02*
X10482722Y-12195630D01*
X10482722Y-12195630D02*
X10501770Y-12186106D01*
X10644627Y-12186106D02*
X10644627Y-12224201D01*
X10720817Y-12186106D02*
X10720817Y-12224201D01*
X11016055Y-12462297D02*
X11006532Y-12452773D01*
X11006532Y-12452773D02*
X10987484Y-12424201D01*
X10987484Y-12424201D02*
X10977960Y-12405154D01*
X10977960Y-12405154D02*
X10968436Y-12376582D01*
X10968436Y-12376582D02*
X10958913Y-12328963D01*
X10958913Y-12328963D02*
X10958913Y-12290868D01*
X10958913Y-12290868D02*
X10968436Y-12243249D01*
X10968436Y-12243249D02*
X10977960Y-12214678D01*
X10977960Y-12214678D02*
X10987484Y-12195630D01*
X10987484Y-12195630D02*
X11006532Y-12167059D01*
X11006532Y-12167059D02*
X11016055Y-12157535D01*
X11082722Y-12205154D02*
X11092246Y-12195630D01*
X11092246Y-12195630D02*
X11111293Y-12186106D01*
X11111293Y-12186106D02*
X11158913Y-12186106D01*
X11158913Y-12186106D02*
X11177960Y-12195630D01*
X11177960Y-12195630D02*
X11187484Y-12205154D01*
X11187484Y-12205154D02*
X11197008Y-12224201D01*
X11197008Y-12224201D02*
X11197008Y-12243249D01*
X11197008Y-12243249D02*
X11187484Y-12271820D01*
X11187484Y-12271820D02*
X11073198Y-12386106D01*
X11073198Y-12386106D02*
X11197008Y-12386106D01*
X11368436Y-12252773D02*
X11368436Y-12386106D01*
X11320817Y-12176582D02*
X11273198Y-12319440D01*
X11273198Y-12319440D02*
X11397008Y-12319440D01*
X11625579Y-12386106D02*
X11625579Y-12186106D01*
X11711293Y-12386106D02*
X11711293Y-12281344D01*
X11711293Y-12281344D02*
X11701770Y-12262297D01*
X11701770Y-12262297D02*
X11682722Y-12252773D01*
X11682722Y-12252773D02*
X11654151Y-12252773D01*
X11654151Y-12252773D02*
X11635103Y-12262297D01*
X11635103Y-12262297D02*
X11625579Y-12271820D01*
X11835103Y-12386106D02*
X11816055Y-12376582D01*
X11816055Y-12376582D02*
X11806532Y-12367059D01*
X11806532Y-12367059D02*
X11797008Y-12348011D01*
X11797008Y-12348011D02*
X11797008Y-12290868D01*
X11797008Y-12290868D02*
X11806532Y-12271820D01*
X11806532Y-12271820D02*
X11816055Y-12262297D01*
X11816055Y-12262297D02*
X11835103Y-12252773D01*
X11835103Y-12252773D02*
X11863674Y-12252773D01*
X11863674Y-12252773D02*
X11882722Y-12262297D01*
X11882722Y-12262297D02*
X11892246Y-12271820D01*
X11892246Y-12271820D02*
X11901770Y-12290868D01*
X11901770Y-12290868D02*
X11901770Y-12348011D01*
X11901770Y-12348011D02*
X11892246Y-12367059D01*
X11892246Y-12367059D02*
X11882722Y-12376582D01*
X11882722Y-12376582D02*
X11863674Y-12386106D01*
X11863674Y-12386106D02*
X11835103Y-12386106D01*
X12016055Y-12386106D02*
X11997008Y-12376582D01*
X11997008Y-12376582D02*
X11987484Y-12357535D01*
X11987484Y-12357535D02*
X11987484Y-12186106D01*
X12168436Y-12376582D02*
X12149389Y-12386106D01*
X12149389Y-12386106D02*
X12111293Y-12386106D01*
X12111293Y-12386106D02*
X12092246Y-12376582D01*
X12092246Y-12376582D02*
X12082722Y-12357535D01*
X12082722Y-12357535D02*
X12082722Y-12281344D01*
X12082722Y-12281344D02*
X12092246Y-12262297D01*
X12092246Y-12262297D02*
X12111293Y-12252773D01*
X12111293Y-12252773D02*
X12149389Y-12252773D01*
X12149389Y-12252773D02*
X12168436Y-12262297D01*
X12168436Y-12262297D02*
X12177960Y-12281344D01*
X12177960Y-12281344D02*
X12177960Y-12300392D01*
X12177960Y-12300392D02*
X12082722Y-12319440D01*
X12254151Y-12376582D02*
X12273198Y-12386106D01*
X12273198Y-12386106D02*
X12311293Y-12386106D01*
X12311293Y-12386106D02*
X12330341Y-12376582D01*
X12330341Y-12376582D02*
X12339865Y-12357535D01*
X12339865Y-12357535D02*
X12339865Y-12348011D01*
X12339865Y-12348011D02*
X12330341Y-12328963D01*
X12330341Y-12328963D02*
X12311293Y-12319440D01*
X12311293Y-12319440D02*
X12282722Y-12319440D01*
X12282722Y-12319440D02*
X12263674Y-12309916D01*
X12263674Y-12309916D02*
X12254151Y-12290868D01*
X12254151Y-12290868D02*
X12254151Y-12281344D01*
X12254151Y-12281344D02*
X12263674Y-12262297D01*
X12263674Y-12262297D02*
X12282722Y-12252773D01*
X12282722Y-12252773D02*
X12311293Y-12252773D01*
X12311293Y-12252773D02*
X12330341Y-12262297D01*
X12406532Y-12462297D02*
X12416055Y-12452773D01*
X12416055Y-12452773D02*
X12435103Y-12424201D01*
X12435103Y-12424201D02*
X12444627Y-12405154D01*
X12444627Y-12405154D02*
X12454151Y-12376582D01*
X12454151Y-12376582D02*
X12463674Y-12328963D01*
X12463674Y-12328963D02*
X12463674Y-12290868D01*
X12463674Y-12290868D02*
X12454151Y-12243249D01*
X12454151Y-12243249D02*
X12444627Y-12214678D01*
X12444627Y-12214678D02*
X12435103Y-12195630D01*
X12435103Y-12195630D02*
X12416055Y-12167059D01*
X12416055Y-12167059D02*
X12406532Y-12157535D01*
X7240992Y-12474622D02*
X7440992Y-12674622D01*
X7440992Y-12474622D02*
X7240992Y-12674622D01*
X7340992Y-12674622D02*
X7440992Y-12574622D01*
X7340992Y-12474622D01*
X7240992Y-12574622D01*
X7340992Y-12674622D01*
X7692245Y-12485154D02*
X7701769Y-12475630D01*
X7701769Y-12475630D02*
X7720817Y-12466106D01*
X7720817Y-12466106D02*
X7768436Y-12466106D01*
X7768436Y-12466106D02*
X7787484Y-12475630D01*
X7787484Y-12475630D02*
X7797007Y-12485154D01*
X7797007Y-12485154D02*
X7806531Y-12504201D01*
X7806531Y-12504201D02*
X7806531Y-12523249D01*
X7806531Y-12523249D02*
X7797007Y-12551820D01*
X7797007Y-12551820D02*
X7682722Y-12666106D01*
X7682722Y-12666106D02*
X7806531Y-12666106D01*
X7892245Y-12647059D02*
X7901769Y-12656582D01*
X7901769Y-12656582D02*
X7892245Y-12666106D01*
X7892245Y-12666106D02*
X7882722Y-12656582D01*
X7882722Y-12656582D02*
X7892245Y-12647059D01*
X7892245Y-12647059D02*
X7892245Y-12666106D01*
X7968436Y-12466106D02*
X8101769Y-12466106D01*
X8101769Y-12466106D02*
X8016055Y-12666106D01*
X8273198Y-12466106D02*
X8177960Y-12466106D01*
X8177960Y-12466106D02*
X8168436Y-12561344D01*
X8168436Y-12561344D02*
X8177960Y-12551820D01*
X8177960Y-12551820D02*
X8197007Y-12542297D01*
X8197007Y-12542297D02*
X8244626Y-12542297D01*
X8244626Y-12542297D02*
X8263674Y-12551820D01*
X8263674Y-12551820D02*
X8273198Y-12561344D01*
X8273198Y-12561344D02*
X8282722Y-12580392D01*
X8282722Y-12580392D02*
X8282722Y-12628011D01*
X8282722Y-12628011D02*
X8273198Y-12647059D01*
X8273198Y-12647059D02*
X8263674Y-12656582D01*
X8263674Y-12656582D02*
X8244626Y-12666106D01*
X8244626Y-12666106D02*
X8197007Y-12666106D01*
X8197007Y-12666106D02*
X8177960Y-12656582D01*
X8177960Y-12656582D02*
X8168436Y-12647059D01*
X8406531Y-12466106D02*
X8425579Y-12466106D01*
X8425579Y-12466106D02*
X8444627Y-12475630D01*
X8444627Y-12475630D02*
X8454150Y-12485154D01*
X8454150Y-12485154D02*
X8463674Y-12504201D01*
X8463674Y-12504201D02*
X8473198Y-12542297D01*
X8473198Y-12542297D02*
X8473198Y-12589916D01*
X8473198Y-12589916D02*
X8463674Y-12628011D01*
X8463674Y-12628011D02*
X8454150Y-12647059D01*
X8454150Y-12647059D02*
X8444627Y-12656582D01*
X8444627Y-12656582D02*
X8425579Y-12666106D01*
X8425579Y-12666106D02*
X8406531Y-12666106D01*
X8406531Y-12666106D02*
X8387484Y-12656582D01*
X8387484Y-12656582D02*
X8377960Y-12647059D01*
X8377960Y-12647059D02*
X8368436Y-12628011D01*
X8368436Y-12628011D02*
X8358912Y-12589916D01*
X8358912Y-12589916D02*
X8358912Y-12542297D01*
X8358912Y-12542297D02*
X8368436Y-12504201D01*
X8368436Y-12504201D02*
X8377960Y-12485154D01*
X8377960Y-12485154D02*
X8387484Y-12475630D01*
X8387484Y-12475630D02*
X8406531Y-12466106D01*
X8558912Y-12666106D02*
X8558912Y-12532773D01*
X8558912Y-12551820D02*
X8568436Y-12542297D01*
X8568436Y-12542297D02*
X8587484Y-12532773D01*
X8587484Y-12532773D02*
X8616055Y-12532773D01*
X8616055Y-12532773D02*
X8635103Y-12542297D01*
X8635103Y-12542297D02*
X8644627Y-12561344D01*
X8644627Y-12561344D02*
X8644627Y-12666106D01*
X8644627Y-12561344D02*
X8654150Y-12542297D01*
X8654150Y-12542297D02*
X8673198Y-12532773D01*
X8673198Y-12532773D02*
X8701769Y-12532773D01*
X8701769Y-12532773D02*
X8720817Y-12542297D01*
X8720817Y-12542297D02*
X8730341Y-12561344D01*
X8730341Y-12561344D02*
X8730341Y-12666106D01*
X8825579Y-12666106D02*
X8825579Y-12532773D01*
X8825579Y-12551820D02*
X8835103Y-12542297D01*
X8835103Y-12542297D02*
X8854150Y-12532773D01*
X8854150Y-12532773D02*
X8882722Y-12532773D01*
X8882722Y-12532773D02*
X8901769Y-12542297D01*
X8901769Y-12542297D02*
X8911293Y-12561344D01*
X8911293Y-12561344D02*
X8911293Y-12666106D01*
X8911293Y-12561344D02*
X8920817Y-12542297D01*
X8920817Y-12542297D02*
X8939865Y-12532773D01*
X8939865Y-12532773D02*
X8968436Y-12532773D01*
X8968436Y-12532773D02*
X8987484Y-12542297D01*
X8987484Y-12542297D02*
X8997008Y-12561344D01*
X8997008Y-12561344D02*
X8997008Y-12666106D01*
X9387484Y-12456582D02*
X9216055Y-12713725D01*
X9644627Y-12466106D02*
X9663674Y-12466106D01*
X9663674Y-12466106D02*
X9682722Y-12475630D01*
X9682722Y-12475630D02*
X9692246Y-12485154D01*
X9692246Y-12485154D02*
X9701770Y-12504201D01*
X9701770Y-12504201D02*
X9711293Y-12542297D01*
X9711293Y-12542297D02*
X9711293Y-12589916D01*
X9711293Y-12589916D02*
X9701770Y-12628011D01*
X9701770Y-12628011D02*
X9692246Y-12647059D01*
X9692246Y-12647059D02*
X9682722Y-12656582D01*
X9682722Y-12656582D02*
X9663674Y-12666106D01*
X9663674Y-12666106D02*
X9644627Y-12666106D01*
X9644627Y-12666106D02*
X9625579Y-12656582D01*
X9625579Y-12656582D02*
X9616055Y-12647059D01*
X9616055Y-12647059D02*
X9606531Y-12628011D01*
X9606531Y-12628011D02*
X9597008Y-12589916D01*
X9597008Y-12589916D02*
X9597008Y-12542297D01*
X9597008Y-12542297D02*
X9606531Y-12504201D01*
X9606531Y-12504201D02*
X9616055Y-12485154D01*
X9616055Y-12485154D02*
X9625579Y-12475630D01*
X9625579Y-12475630D02*
X9644627Y-12466106D01*
X9797008Y-12647059D02*
X9806531Y-12656582D01*
X9806531Y-12656582D02*
X9797008Y-12666106D01*
X9797008Y-12666106D02*
X9787484Y-12656582D01*
X9787484Y-12656582D02*
X9797008Y-12647059D01*
X9797008Y-12647059D02*
X9797008Y-12666106D01*
X9997008Y-12666106D02*
X9882722Y-12666106D01*
X9939865Y-12666106D02*
X9939865Y-12466106D01*
X9939865Y-12466106D02*
X9920817Y-12494678D01*
X9920817Y-12494678D02*
X9901770Y-12513725D01*
X9901770Y-12513725D02*
X9882722Y-12523249D01*
X10120817Y-12466106D02*
X10139865Y-12466106D01*
X10139865Y-12466106D02*
X10158912Y-12475630D01*
X10158912Y-12475630D02*
X10168436Y-12485154D01*
X10168436Y-12485154D02*
X10177960Y-12504201D01*
X10177960Y-12504201D02*
X10187484Y-12542297D01*
X10187484Y-12542297D02*
X10187484Y-12589916D01*
X10187484Y-12589916D02*
X10177960Y-12628011D01*
X10177960Y-12628011D02*
X10168436Y-12647059D01*
X10168436Y-12647059D02*
X10158912Y-12656582D01*
X10158912Y-12656582D02*
X10139865Y-12666106D01*
X10139865Y-12666106D02*
X10120817Y-12666106D01*
X10120817Y-12666106D02*
X10101770Y-12656582D01*
X10101770Y-12656582D02*
X10092246Y-12647059D01*
X10092246Y-12647059D02*
X10082722Y-12628011D01*
X10082722Y-12628011D02*
X10073198Y-12589916D01*
X10073198Y-12589916D02*
X10073198Y-12542297D01*
X10073198Y-12542297D02*
X10082722Y-12504201D01*
X10082722Y-12504201D02*
X10092246Y-12485154D01*
X10092246Y-12485154D02*
X10101770Y-12475630D01*
X10101770Y-12475630D02*
X10120817Y-12466106D01*
X10301770Y-12551820D02*
X10282722Y-12542297D01*
X10282722Y-12542297D02*
X10273198Y-12532773D01*
X10273198Y-12532773D02*
X10263674Y-12513725D01*
X10263674Y-12513725D02*
X10263674Y-12504201D01*
X10263674Y-12504201D02*
X10273198Y-12485154D01*
X10273198Y-12485154D02*
X10282722Y-12475630D01*
X10282722Y-12475630D02*
X10301770Y-12466106D01*
X10301770Y-12466106D02*
X10339865Y-12466106D01*
X10339865Y-12466106D02*
X10358912Y-12475630D01*
X10358912Y-12475630D02*
X10368436Y-12485154D01*
X10368436Y-12485154D02*
X10377960Y-12504201D01*
X10377960Y-12504201D02*
X10377960Y-12513725D01*
X10377960Y-12513725D02*
X10368436Y-12532773D01*
X10368436Y-12532773D02*
X10358912Y-12542297D01*
X10358912Y-12542297D02*
X10339865Y-12551820D01*
X10339865Y-12551820D02*
X10301770Y-12551820D01*
X10301770Y-12551820D02*
X10282722Y-12561344D01*
X10282722Y-12561344D02*
X10273198Y-12570868D01*
X10273198Y-12570868D02*
X10263674Y-12589916D01*
X10263674Y-12589916D02*
X10263674Y-12628011D01*
X10263674Y-12628011D02*
X10273198Y-12647059D01*
X10273198Y-12647059D02*
X10282722Y-12656582D01*
X10282722Y-12656582D02*
X10301770Y-12666106D01*
X10301770Y-12666106D02*
X10339865Y-12666106D01*
X10339865Y-12666106D02*
X10358912Y-12656582D01*
X10358912Y-12656582D02*
X10368436Y-12647059D01*
X10368436Y-12647059D02*
X10377960Y-12628011D01*
X10377960Y-12628011D02*
X10377960Y-12589916D01*
X10377960Y-12589916D02*
X10368436Y-12570868D01*
X10368436Y-12570868D02*
X10358912Y-12561344D01*
X10358912Y-12561344D02*
X10339865Y-12551820D01*
X10444627Y-12466106D02*
X10568436Y-12466106D01*
X10568436Y-12466106D02*
X10501770Y-12542297D01*
X10501770Y-12542297D02*
X10530341Y-12542297D01*
X10530341Y-12542297D02*
X10549389Y-12551820D01*
X10549389Y-12551820D02*
X10558912Y-12561344D01*
X10558912Y-12561344D02*
X10568436Y-12580392D01*
X10568436Y-12580392D02*
X10568436Y-12628011D01*
X10568436Y-12628011D02*
X10558912Y-12647059D01*
X10558912Y-12647059D02*
X10549389Y-12656582D01*
X10549389Y-12656582D02*
X10530341Y-12666106D01*
X10530341Y-12666106D02*
X10473198Y-12666106D01*
X10473198Y-12666106D02*
X10454151Y-12656582D01*
X10454151Y-12656582D02*
X10444627Y-12647059D01*
X10644627Y-12466106D02*
X10644627Y-12504201D01*
X10720817Y-12466106D02*
X10720817Y-12504201D01*
X11016055Y-12742297D02*
X11006532Y-12732773D01*
X11006532Y-12732773D02*
X10987484Y-12704201D01*
X10987484Y-12704201D02*
X10977960Y-12685154D01*
X10977960Y-12685154D02*
X10968436Y-12656582D01*
X10968436Y-12656582D02*
X10958913Y-12608963D01*
X10958913Y-12608963D02*
X10958913Y-12570868D01*
X10958913Y-12570868D02*
X10968436Y-12523249D01*
X10968436Y-12523249D02*
X10977960Y-12494678D01*
X10977960Y-12494678D02*
X10987484Y-12475630D01*
X10987484Y-12475630D02*
X11006532Y-12447059D01*
X11006532Y-12447059D02*
X11016055Y-12437535D01*
X11073198Y-12466106D02*
X11206531Y-12466106D01*
X11206531Y-12466106D02*
X11120817Y-12666106D01*
X11435103Y-12666106D02*
X11435103Y-12466106D01*
X11520817Y-12666106D02*
X11520817Y-12561344D01*
X11520817Y-12561344D02*
X11511293Y-12542297D01*
X11511293Y-12542297D02*
X11492246Y-12532773D01*
X11492246Y-12532773D02*
X11463674Y-12532773D01*
X11463674Y-12532773D02*
X11444627Y-12542297D01*
X11444627Y-12542297D02*
X11435103Y-12551820D01*
X11644627Y-12666106D02*
X11625579Y-12656582D01*
X11625579Y-12656582D02*
X11616055Y-12647059D01*
X11616055Y-12647059D02*
X11606532Y-12628011D01*
X11606532Y-12628011D02*
X11606532Y-12570868D01*
X11606532Y-12570868D02*
X11616055Y-12551820D01*
X11616055Y-12551820D02*
X11625579Y-12542297D01*
X11625579Y-12542297D02*
X11644627Y-12532773D01*
X11644627Y-12532773D02*
X11673198Y-12532773D01*
X11673198Y-12532773D02*
X11692246Y-12542297D01*
X11692246Y-12542297D02*
X11701770Y-12551820D01*
X11701770Y-12551820D02*
X11711293Y-12570868D01*
X11711293Y-12570868D02*
X11711293Y-12628011D01*
X11711293Y-12628011D02*
X11701770Y-12647059D01*
X11701770Y-12647059D02*
X11692246Y-12656582D01*
X11692246Y-12656582D02*
X11673198Y-12666106D01*
X11673198Y-12666106D02*
X11644627Y-12666106D01*
X11825579Y-12666106D02*
X11806532Y-12656582D01*
X11806532Y-12656582D02*
X11797008Y-12637535D01*
X11797008Y-12637535D02*
X11797008Y-12466106D01*
X11977960Y-12656582D02*
X11958913Y-12666106D01*
X11958913Y-12666106D02*
X11920817Y-12666106D01*
X11920817Y-12666106D02*
X11901770Y-12656582D01*
X11901770Y-12656582D02*
X11892246Y-12637535D01*
X11892246Y-12637535D02*
X11892246Y-12561344D01*
X11892246Y-12561344D02*
X11901770Y-12542297D01*
X11901770Y-12542297D02*
X11920817Y-12532773D01*
X11920817Y-12532773D02*
X11958913Y-12532773D01*
X11958913Y-12532773D02*
X11977960Y-12542297D01*
X11977960Y-12542297D02*
X11987484Y-12561344D01*
X11987484Y-12561344D02*
X11987484Y-12580392D01*
X11987484Y-12580392D02*
X11892246Y-12599440D01*
X12063674Y-12656582D02*
X12082722Y-12666106D01*
X12082722Y-12666106D02*
X12120817Y-12666106D01*
X12120817Y-12666106D02*
X12139865Y-12656582D01*
X12139865Y-12656582D02*
X12149389Y-12637535D01*
X12149389Y-12637535D02*
X12149389Y-12628011D01*
X12149389Y-12628011D02*
X12139865Y-12608963D01*
X12139865Y-12608963D02*
X12120817Y-12599440D01*
X12120817Y-12599440D02*
X12092246Y-12599440D01*
X12092246Y-12599440D02*
X12073198Y-12589916D01*
X12073198Y-12589916D02*
X12063674Y-12570868D01*
X12063674Y-12570868D02*
X12063674Y-12561344D01*
X12063674Y-12561344D02*
X12073198Y-12542297D01*
X12073198Y-12542297D02*
X12092246Y-12532773D01*
X12092246Y-12532773D02*
X12120817Y-12532773D01*
X12120817Y-12532773D02*
X12139865Y-12542297D01*
X12216055Y-12742297D02*
X12225579Y-12732773D01*
X12225579Y-12732773D02*
X12244627Y-12704201D01*
X12244627Y-12704201D02*
X12254151Y-12685154D01*
X12254151Y-12685154D02*
X12263674Y-12656582D01*
X12263674Y-12656582D02*
X12273198Y-12608963D01*
X12273198Y-12608963D02*
X12273198Y-12570868D01*
X12273198Y-12570868D02*
X12263674Y-12523249D01*
X12263674Y-12523249D02*
X12254151Y-12494678D01*
X12254151Y-12494678D02*
X12244627Y-12475630D01*
X12244627Y-12475630D02*
X12225579Y-12447059D01*
X12225579Y-12447059D02*
X12216055Y-12437535D01*
M02*
