%TF.GenerationSoftware,KiCad,Pcbnew,8.0.3*%
%TF.CreationDate,2024-11-03T20:58:56+01:00*%
%TF.ProjectId,Rev2_RGB2HDMI,52657632-5f52-4474-9232-48444d492e6b,rev?*%
%TF.SameCoordinates,Original*%
%TF.FileFunction,Legend,Top*%
%TF.FilePolarity,Positive*%
%FSLAX46Y46*%
G04 Gerber Fmt 4.6, Leading zero omitted, Abs format (unit mm)*
G04 Created by KiCad (PCBNEW 8.0.3) date 2024-11-03 20:58:56*
%MOMM*%
%LPD*%
G01*
G04 APERTURE LIST*
%ADD10C,0.100100*%
%ADD11C,0.250000*%
%ADD12C,0.300000*%
%ADD13C,0.150000*%
%ADD14C,0.120000*%
G04 APERTURE END LIST*
D10*
X94997205Y-97767315D02*
X75061255Y-97767315D01*
X75061255Y-97767315D02*
X75061255Y-46167465D01*
X75061255Y-46167465D02*
X94997205Y-46167465D01*
D11*
X173773810Y-86737210D02*
X173952381Y-86796733D01*
X173952381Y-86796733D02*
X174250000Y-86796733D01*
X174250000Y-86796733D02*
X174369048Y-86737210D01*
X174369048Y-86737210D02*
X174428572Y-86677686D01*
X174428572Y-86677686D02*
X174488095Y-86558638D01*
X174488095Y-86558638D02*
X174488095Y-86439590D01*
X174488095Y-86439590D02*
X174428572Y-86320543D01*
X174428572Y-86320543D02*
X174369048Y-86261019D01*
X174369048Y-86261019D02*
X174250000Y-86201495D01*
X174250000Y-86201495D02*
X174011905Y-86141971D01*
X174011905Y-86141971D02*
X173892857Y-86082448D01*
X173892857Y-86082448D02*
X173833334Y-86022924D01*
X173833334Y-86022924D02*
X173773810Y-85903876D01*
X173773810Y-85903876D02*
X173773810Y-85784829D01*
X173773810Y-85784829D02*
X173833334Y-85665781D01*
X173833334Y-85665781D02*
X173892857Y-85606257D01*
X173892857Y-85606257D02*
X174011905Y-85546733D01*
X174011905Y-85546733D02*
X174309524Y-85546733D01*
X174309524Y-85546733D02*
X174488095Y-85606257D01*
X175023810Y-86141971D02*
X175440476Y-86141971D01*
X175619048Y-86796733D02*
X175023810Y-86796733D01*
X175023810Y-86796733D02*
X175023810Y-85546733D01*
X175023810Y-85546733D02*
X175619048Y-85546733D01*
X176214285Y-86737210D02*
X176214285Y-86796733D01*
X176214285Y-86796733D02*
X176154762Y-86915781D01*
X176154762Y-86915781D02*
X176095238Y-86975305D01*
X177642857Y-86737210D02*
X177821428Y-86796733D01*
X177821428Y-86796733D02*
X178119047Y-86796733D01*
X178119047Y-86796733D02*
X178238095Y-86737210D01*
X178238095Y-86737210D02*
X178297619Y-86677686D01*
X178297619Y-86677686D02*
X178357142Y-86558638D01*
X178357142Y-86558638D02*
X178357142Y-86439590D01*
X178357142Y-86439590D02*
X178297619Y-86320543D01*
X178297619Y-86320543D02*
X178238095Y-86261019D01*
X178238095Y-86261019D02*
X178119047Y-86201495D01*
X178119047Y-86201495D02*
X177880952Y-86141971D01*
X177880952Y-86141971D02*
X177761904Y-86082448D01*
X177761904Y-86082448D02*
X177702381Y-86022924D01*
X177702381Y-86022924D02*
X177642857Y-85903876D01*
X177642857Y-85903876D02*
X177642857Y-85784829D01*
X177642857Y-85784829D02*
X177702381Y-85665781D01*
X177702381Y-85665781D02*
X177761904Y-85606257D01*
X177761904Y-85606257D02*
X177880952Y-85546733D01*
X177880952Y-85546733D02*
X178178571Y-85546733D01*
X178178571Y-85546733D02*
X178357142Y-85606257D01*
X178892857Y-86141971D02*
X179309523Y-86141971D01*
X179488095Y-86796733D02*
X178892857Y-86796733D01*
X178892857Y-86796733D02*
X178892857Y-85546733D01*
X178892857Y-85546733D02*
X179488095Y-85546733D01*
X180916666Y-85487210D02*
X179845237Y-87094352D01*
X181214285Y-85546733D02*
X181988094Y-85546733D01*
X181988094Y-85546733D02*
X181571428Y-86022924D01*
X181571428Y-86022924D02*
X181749999Y-86022924D01*
X181749999Y-86022924D02*
X181869047Y-86082448D01*
X181869047Y-86082448D02*
X181928571Y-86141971D01*
X181928571Y-86141971D02*
X181988094Y-86261019D01*
X181988094Y-86261019D02*
X181988094Y-86558638D01*
X181988094Y-86558638D02*
X181928571Y-86677686D01*
X181928571Y-86677686D02*
X181869047Y-86737210D01*
X181869047Y-86737210D02*
X181749999Y-86796733D01*
X181749999Y-86796733D02*
X181392856Y-86796733D01*
X181392856Y-86796733D02*
X181273809Y-86737210D01*
X181273809Y-86737210D02*
X181214285Y-86677686D01*
X182761904Y-85546733D02*
X182880951Y-85546733D01*
X182880951Y-85546733D02*
X182999999Y-85606257D01*
X182999999Y-85606257D02*
X183059523Y-85665781D01*
X183059523Y-85665781D02*
X183119047Y-85784829D01*
X183119047Y-85784829D02*
X183178570Y-86022924D01*
X183178570Y-86022924D02*
X183178570Y-86320543D01*
X183178570Y-86320543D02*
X183119047Y-86558638D01*
X183119047Y-86558638D02*
X183059523Y-86677686D01*
X183059523Y-86677686D02*
X182999999Y-86737210D01*
X182999999Y-86737210D02*
X182880951Y-86796733D01*
X182880951Y-86796733D02*
X182761904Y-86796733D01*
X182761904Y-86796733D02*
X182642856Y-86737210D01*
X182642856Y-86737210D02*
X182583332Y-86677686D01*
X182583332Y-86677686D02*
X182523809Y-86558638D01*
X182523809Y-86558638D02*
X182464285Y-86320543D01*
X182464285Y-86320543D02*
X182464285Y-86022924D01*
X182464285Y-86022924D02*
X182523809Y-85784829D01*
X182523809Y-85784829D02*
X182583332Y-85665781D01*
X182583332Y-85665781D02*
X182642856Y-85606257D01*
X182642856Y-85606257D02*
X182761904Y-85546733D01*
X185380951Y-86677686D02*
X185321427Y-86737210D01*
X185321427Y-86737210D02*
X185142856Y-86796733D01*
X185142856Y-86796733D02*
X185023808Y-86796733D01*
X185023808Y-86796733D02*
X184845237Y-86737210D01*
X184845237Y-86737210D02*
X184726189Y-86618162D01*
X184726189Y-86618162D02*
X184666666Y-86499114D01*
X184666666Y-86499114D02*
X184607142Y-86261019D01*
X184607142Y-86261019D02*
X184607142Y-86082448D01*
X184607142Y-86082448D02*
X184666666Y-85844352D01*
X184666666Y-85844352D02*
X184726189Y-85725305D01*
X184726189Y-85725305D02*
X184845237Y-85606257D01*
X184845237Y-85606257D02*
X185023808Y-85546733D01*
X185023808Y-85546733D02*
X185142856Y-85546733D01*
X185142856Y-85546733D02*
X185321427Y-85606257D01*
X185321427Y-85606257D02*
X185380951Y-85665781D01*
X186095237Y-86796733D02*
X185976189Y-86737210D01*
X185976189Y-86737210D02*
X185916666Y-86677686D01*
X185916666Y-86677686D02*
X185857142Y-86558638D01*
X185857142Y-86558638D02*
X185857142Y-86201495D01*
X185857142Y-86201495D02*
X185916666Y-86082448D01*
X185916666Y-86082448D02*
X185976189Y-86022924D01*
X185976189Y-86022924D02*
X186095237Y-85963400D01*
X186095237Y-85963400D02*
X186273808Y-85963400D01*
X186273808Y-85963400D02*
X186392856Y-86022924D01*
X186392856Y-86022924D02*
X186452380Y-86082448D01*
X186452380Y-86082448D02*
X186511904Y-86201495D01*
X186511904Y-86201495D02*
X186511904Y-86558638D01*
X186511904Y-86558638D02*
X186452380Y-86677686D01*
X186452380Y-86677686D02*
X186392856Y-86737210D01*
X186392856Y-86737210D02*
X186273808Y-86796733D01*
X186273808Y-86796733D02*
X186095237Y-86796733D01*
X187047618Y-86796733D02*
X187047618Y-85963400D01*
X187047618Y-86082448D02*
X187107141Y-86022924D01*
X187107141Y-86022924D02*
X187226189Y-85963400D01*
X187226189Y-85963400D02*
X187404760Y-85963400D01*
X187404760Y-85963400D02*
X187523808Y-86022924D01*
X187523808Y-86022924D02*
X187583332Y-86141971D01*
X187583332Y-86141971D02*
X187583332Y-86796733D01*
X187583332Y-86141971D02*
X187642856Y-86022924D01*
X187642856Y-86022924D02*
X187761903Y-85963400D01*
X187761903Y-85963400D02*
X187940475Y-85963400D01*
X187940475Y-85963400D02*
X188059522Y-86022924D01*
X188059522Y-86022924D02*
X188119046Y-86141971D01*
X188119046Y-86141971D02*
X188119046Y-86796733D01*
X188714285Y-85963400D02*
X188714285Y-87213400D01*
X188714285Y-86022924D02*
X188833332Y-85963400D01*
X188833332Y-85963400D02*
X189071427Y-85963400D01*
X189071427Y-85963400D02*
X189190475Y-86022924D01*
X189190475Y-86022924D02*
X189249999Y-86082448D01*
X189249999Y-86082448D02*
X189309523Y-86201495D01*
X189309523Y-86201495D02*
X189309523Y-86558638D01*
X189309523Y-86558638D02*
X189249999Y-86677686D01*
X189249999Y-86677686D02*
X189190475Y-86737210D01*
X189190475Y-86737210D02*
X189071427Y-86796733D01*
X189071427Y-86796733D02*
X188833332Y-86796733D01*
X188833332Y-86796733D02*
X188714285Y-86737210D01*
X190380951Y-86796733D02*
X190380951Y-86141971D01*
X190380951Y-86141971D02*
X190321427Y-86022924D01*
X190321427Y-86022924D02*
X190202379Y-85963400D01*
X190202379Y-85963400D02*
X189964284Y-85963400D01*
X189964284Y-85963400D02*
X189845237Y-86022924D01*
X190380951Y-86737210D02*
X190261903Y-86796733D01*
X190261903Y-86796733D02*
X189964284Y-86796733D01*
X189964284Y-86796733D02*
X189845237Y-86737210D01*
X189845237Y-86737210D02*
X189785713Y-86618162D01*
X189785713Y-86618162D02*
X189785713Y-86499114D01*
X189785713Y-86499114D02*
X189845237Y-86380067D01*
X189845237Y-86380067D02*
X189964284Y-86320543D01*
X189964284Y-86320543D02*
X190261903Y-86320543D01*
X190261903Y-86320543D02*
X190380951Y-86261019D01*
X191511903Y-86737210D02*
X191392855Y-86796733D01*
X191392855Y-86796733D02*
X191154760Y-86796733D01*
X191154760Y-86796733D02*
X191035712Y-86737210D01*
X191035712Y-86737210D02*
X190976189Y-86677686D01*
X190976189Y-86677686D02*
X190916665Y-86558638D01*
X190916665Y-86558638D02*
X190916665Y-86201495D01*
X190916665Y-86201495D02*
X190976189Y-86082448D01*
X190976189Y-86082448D02*
X191035712Y-86022924D01*
X191035712Y-86022924D02*
X191154760Y-85963400D01*
X191154760Y-85963400D02*
X191392855Y-85963400D01*
X191392855Y-85963400D02*
X191511903Y-86022924D01*
X191869046Y-85963400D02*
X192345237Y-85963400D01*
X192047618Y-85546733D02*
X192047618Y-86618162D01*
X192047618Y-86618162D02*
X192107141Y-86737210D01*
X192107141Y-86737210D02*
X192226189Y-86796733D01*
X192226189Y-86796733D02*
X192345237Y-86796733D01*
X166244047Y-88690116D02*
X166184523Y-88749640D01*
X166184523Y-88749640D02*
X166005952Y-88809163D01*
X166005952Y-88809163D02*
X165886904Y-88809163D01*
X165886904Y-88809163D02*
X165708333Y-88749640D01*
X165708333Y-88749640D02*
X165589285Y-88630592D01*
X165589285Y-88630592D02*
X165529762Y-88511544D01*
X165529762Y-88511544D02*
X165470238Y-88273449D01*
X165470238Y-88273449D02*
X165470238Y-88094878D01*
X165470238Y-88094878D02*
X165529762Y-87856782D01*
X165529762Y-87856782D02*
X165589285Y-87737735D01*
X165589285Y-87737735D02*
X165708333Y-87618687D01*
X165708333Y-87618687D02*
X165886904Y-87559163D01*
X165886904Y-87559163D02*
X166005952Y-87559163D01*
X166005952Y-87559163D02*
X166184523Y-87618687D01*
X166184523Y-87618687D02*
X166244047Y-87678211D01*
X166779762Y-88809163D02*
X166779762Y-87975830D01*
X166779762Y-88213925D02*
X166839285Y-88094878D01*
X166839285Y-88094878D02*
X166898809Y-88035354D01*
X166898809Y-88035354D02*
X167017857Y-87975830D01*
X167017857Y-87975830D02*
X167136904Y-87975830D01*
X168029762Y-88749640D02*
X167910714Y-88809163D01*
X167910714Y-88809163D02*
X167672619Y-88809163D01*
X167672619Y-88809163D02*
X167553572Y-88749640D01*
X167553572Y-88749640D02*
X167494048Y-88630592D01*
X167494048Y-88630592D02*
X167494048Y-88154401D01*
X167494048Y-88154401D02*
X167553572Y-88035354D01*
X167553572Y-88035354D02*
X167672619Y-87975830D01*
X167672619Y-87975830D02*
X167910714Y-87975830D01*
X167910714Y-87975830D02*
X168029762Y-88035354D01*
X168029762Y-88035354D02*
X168089286Y-88154401D01*
X168089286Y-88154401D02*
X168089286Y-88273449D01*
X168089286Y-88273449D02*
X167494048Y-88392497D01*
X169160715Y-88809163D02*
X169160715Y-88154401D01*
X169160715Y-88154401D02*
X169101191Y-88035354D01*
X169101191Y-88035354D02*
X168982143Y-87975830D01*
X168982143Y-87975830D02*
X168744048Y-87975830D01*
X168744048Y-87975830D02*
X168625001Y-88035354D01*
X169160715Y-88749640D02*
X169041667Y-88809163D01*
X169041667Y-88809163D02*
X168744048Y-88809163D01*
X168744048Y-88809163D02*
X168625001Y-88749640D01*
X168625001Y-88749640D02*
X168565477Y-88630592D01*
X168565477Y-88630592D02*
X168565477Y-88511544D01*
X168565477Y-88511544D02*
X168625001Y-88392497D01*
X168625001Y-88392497D02*
X168744048Y-88332973D01*
X168744048Y-88332973D02*
X169041667Y-88332973D01*
X169041667Y-88332973D02*
X169160715Y-88273449D01*
X169577381Y-87975830D02*
X170053572Y-87975830D01*
X169755953Y-87559163D02*
X169755953Y-88630592D01*
X169755953Y-88630592D02*
X169815476Y-88749640D01*
X169815476Y-88749640D02*
X169934524Y-88809163D01*
X169934524Y-88809163D02*
X170053572Y-88809163D01*
X170946429Y-88749640D02*
X170827381Y-88809163D01*
X170827381Y-88809163D02*
X170589286Y-88809163D01*
X170589286Y-88809163D02*
X170470239Y-88749640D01*
X170470239Y-88749640D02*
X170410715Y-88630592D01*
X170410715Y-88630592D02*
X170410715Y-88154401D01*
X170410715Y-88154401D02*
X170470239Y-88035354D01*
X170470239Y-88035354D02*
X170589286Y-87975830D01*
X170589286Y-87975830D02*
X170827381Y-87975830D01*
X170827381Y-87975830D02*
X170946429Y-88035354D01*
X170946429Y-88035354D02*
X171005953Y-88154401D01*
X171005953Y-88154401D02*
X171005953Y-88273449D01*
X171005953Y-88273449D02*
X170410715Y-88392497D01*
X172077382Y-88809163D02*
X172077382Y-87559163D01*
X172077382Y-88749640D02*
X171958334Y-88809163D01*
X171958334Y-88809163D02*
X171720239Y-88809163D01*
X171720239Y-88809163D02*
X171601191Y-88749640D01*
X171601191Y-88749640D02*
X171541668Y-88690116D01*
X171541668Y-88690116D02*
X171482144Y-88571068D01*
X171482144Y-88571068D02*
X171482144Y-88213925D01*
X171482144Y-88213925D02*
X171541668Y-88094878D01*
X171541668Y-88094878D02*
X171601191Y-88035354D01*
X171601191Y-88035354D02*
X171720239Y-87975830D01*
X171720239Y-87975830D02*
X171958334Y-87975830D01*
X171958334Y-87975830D02*
X172077382Y-88035354D01*
X173625001Y-88809163D02*
X173625001Y-87559163D01*
X173625001Y-88035354D02*
X173744048Y-87975830D01*
X173744048Y-87975830D02*
X173982143Y-87975830D01*
X173982143Y-87975830D02*
X174101191Y-88035354D01*
X174101191Y-88035354D02*
X174160715Y-88094878D01*
X174160715Y-88094878D02*
X174220239Y-88213925D01*
X174220239Y-88213925D02*
X174220239Y-88571068D01*
X174220239Y-88571068D02*
X174160715Y-88690116D01*
X174160715Y-88690116D02*
X174101191Y-88749640D01*
X174101191Y-88749640D02*
X173982143Y-88809163D01*
X173982143Y-88809163D02*
X173744048Y-88809163D01*
X173744048Y-88809163D02*
X173625001Y-88749640D01*
X174636905Y-87975830D02*
X174934524Y-88809163D01*
X175232143Y-87975830D02*
X174934524Y-88809163D01*
X174934524Y-88809163D02*
X174815476Y-89106782D01*
X174815476Y-89106782D02*
X174755953Y-89166306D01*
X174755953Y-89166306D02*
X174636905Y-89225830D01*
X176482143Y-87975830D02*
X176958334Y-87975830D01*
X176660715Y-87559163D02*
X176660715Y-88630592D01*
X176660715Y-88630592D02*
X176720238Y-88749640D01*
X176720238Y-88749640D02*
X176839286Y-88809163D01*
X176839286Y-88809163D02*
X176958334Y-88809163D01*
X177375001Y-88809163D02*
X177375001Y-87559163D01*
X177910715Y-88809163D02*
X177910715Y-88154401D01*
X177910715Y-88154401D02*
X177851191Y-88035354D01*
X177851191Y-88035354D02*
X177732143Y-87975830D01*
X177732143Y-87975830D02*
X177553572Y-87975830D01*
X177553572Y-87975830D02*
X177434524Y-88035354D01*
X177434524Y-88035354D02*
X177375001Y-88094878D01*
X178982143Y-88749640D02*
X178863095Y-88809163D01*
X178863095Y-88809163D02*
X178625000Y-88809163D01*
X178625000Y-88809163D02*
X178505953Y-88749640D01*
X178505953Y-88749640D02*
X178446429Y-88630592D01*
X178446429Y-88630592D02*
X178446429Y-88154401D01*
X178446429Y-88154401D02*
X178505953Y-88035354D01*
X178505953Y-88035354D02*
X178625000Y-87975830D01*
X178625000Y-87975830D02*
X178863095Y-87975830D01*
X178863095Y-87975830D02*
X178982143Y-88035354D01*
X178982143Y-88035354D02*
X179041667Y-88154401D01*
X179041667Y-88154401D02*
X179041667Y-88273449D01*
X179041667Y-88273449D02*
X178446429Y-88392497D01*
X181244048Y-88690116D02*
X181184524Y-88749640D01*
X181184524Y-88749640D02*
X181005953Y-88809163D01*
X181005953Y-88809163D02*
X180886905Y-88809163D01*
X180886905Y-88809163D02*
X180708334Y-88749640D01*
X180708334Y-88749640D02*
X180589286Y-88630592D01*
X180589286Y-88630592D02*
X180529763Y-88511544D01*
X180529763Y-88511544D02*
X180470239Y-88273449D01*
X180470239Y-88273449D02*
X180470239Y-88094878D01*
X180470239Y-88094878D02*
X180529763Y-87856782D01*
X180529763Y-87856782D02*
X180589286Y-87737735D01*
X180589286Y-87737735D02*
X180708334Y-87618687D01*
X180708334Y-87618687D02*
X180886905Y-87559163D01*
X180886905Y-87559163D02*
X181005953Y-87559163D01*
X181005953Y-87559163D02*
X181184524Y-87618687D01*
X181184524Y-87618687D02*
X181244048Y-87678211D01*
X182315477Y-88809163D02*
X182315477Y-88154401D01*
X182315477Y-88154401D02*
X182255953Y-88035354D01*
X182255953Y-88035354D02*
X182136905Y-87975830D01*
X182136905Y-87975830D02*
X181898810Y-87975830D01*
X181898810Y-87975830D02*
X181779763Y-88035354D01*
X182315477Y-88749640D02*
X182196429Y-88809163D01*
X182196429Y-88809163D02*
X181898810Y-88809163D01*
X181898810Y-88809163D02*
X181779763Y-88749640D01*
X181779763Y-88749640D02*
X181720239Y-88630592D01*
X181720239Y-88630592D02*
X181720239Y-88511544D01*
X181720239Y-88511544D02*
X181779763Y-88392497D01*
X181779763Y-88392497D02*
X181898810Y-88332973D01*
X181898810Y-88332973D02*
X182196429Y-88332973D01*
X182196429Y-88332973D02*
X182315477Y-88273449D01*
X182791667Y-87975830D02*
X183089286Y-88809163D01*
X183386905Y-87975830D02*
X183089286Y-88809163D01*
X183089286Y-88809163D02*
X182970238Y-89106782D01*
X182970238Y-89106782D02*
X182910715Y-89166306D01*
X182910715Y-89166306D02*
X182791667Y-89225830D01*
X183863096Y-88809163D02*
X183863096Y-87559163D01*
X183863096Y-87559163D02*
X184279762Y-88452020D01*
X184279762Y-88452020D02*
X184696429Y-87559163D01*
X184696429Y-87559163D02*
X184696429Y-88809163D01*
X185827381Y-88809163D02*
X185827381Y-88154401D01*
X185827381Y-88154401D02*
X185767857Y-88035354D01*
X185767857Y-88035354D02*
X185648809Y-87975830D01*
X185648809Y-87975830D02*
X185410714Y-87975830D01*
X185410714Y-87975830D02*
X185291667Y-88035354D01*
X185827381Y-88749640D02*
X185708333Y-88809163D01*
X185708333Y-88809163D02*
X185410714Y-88809163D01*
X185410714Y-88809163D02*
X185291667Y-88749640D01*
X185291667Y-88749640D02*
X185232143Y-88630592D01*
X185232143Y-88630592D02*
X185232143Y-88511544D01*
X185232143Y-88511544D02*
X185291667Y-88392497D01*
X185291667Y-88392497D02*
X185410714Y-88332973D01*
X185410714Y-88332973D02*
X185708333Y-88332973D01*
X185708333Y-88332973D02*
X185827381Y-88273449D01*
X186958333Y-88749640D02*
X186839285Y-88809163D01*
X186839285Y-88809163D02*
X186601190Y-88809163D01*
X186601190Y-88809163D02*
X186482142Y-88749640D01*
X186482142Y-88749640D02*
X186422619Y-88690116D01*
X186422619Y-88690116D02*
X186363095Y-88571068D01*
X186363095Y-88571068D02*
X186363095Y-88213925D01*
X186363095Y-88213925D02*
X186422619Y-88094878D01*
X186422619Y-88094878D02*
X186482142Y-88035354D01*
X186482142Y-88035354D02*
X186601190Y-87975830D01*
X186601190Y-87975830D02*
X186839285Y-87975830D01*
X186839285Y-87975830D02*
X186958333Y-88035354D01*
X188267857Y-87559163D02*
X188684524Y-88809163D01*
X188684524Y-88809163D02*
X189101190Y-87559163D01*
X189517858Y-88809163D02*
X189517858Y-87975830D01*
X189517858Y-87559163D02*
X189458334Y-87618687D01*
X189458334Y-87618687D02*
X189517858Y-87678211D01*
X189517858Y-87678211D02*
X189577381Y-87618687D01*
X189577381Y-87618687D02*
X189517858Y-87559163D01*
X189517858Y-87559163D02*
X189517858Y-87678211D01*
X190113096Y-87975830D02*
X190113096Y-88809163D01*
X190113096Y-88094878D02*
X190172619Y-88035354D01*
X190172619Y-88035354D02*
X190291667Y-87975830D01*
X190291667Y-87975830D02*
X190470238Y-87975830D01*
X190470238Y-87975830D02*
X190589286Y-88035354D01*
X190589286Y-88035354D02*
X190648810Y-88154401D01*
X190648810Y-88154401D02*
X190648810Y-88809163D01*
X191065476Y-87975830D02*
X191541667Y-87975830D01*
X191244048Y-87559163D02*
X191244048Y-88630592D01*
X191244048Y-88630592D02*
X191303571Y-88749640D01*
X191303571Y-88749640D02*
X191422619Y-88809163D01*
X191422619Y-88809163D02*
X191541667Y-88809163D01*
X192494048Y-88809163D02*
X192494048Y-88154401D01*
X192494048Y-88154401D02*
X192434524Y-88035354D01*
X192434524Y-88035354D02*
X192315476Y-87975830D01*
X192315476Y-87975830D02*
X192077381Y-87975830D01*
X192077381Y-87975830D02*
X191958334Y-88035354D01*
X192494048Y-88749640D02*
X192375000Y-88809163D01*
X192375000Y-88809163D02*
X192077381Y-88809163D01*
X192077381Y-88809163D02*
X191958334Y-88749640D01*
X191958334Y-88749640D02*
X191898810Y-88630592D01*
X191898810Y-88630592D02*
X191898810Y-88511544D01*
X191898810Y-88511544D02*
X191958334Y-88392497D01*
X191958334Y-88392497D02*
X192077381Y-88332973D01*
X192077381Y-88332973D02*
X192375000Y-88332973D01*
X192375000Y-88332973D02*
X192494048Y-88273449D01*
X193625000Y-87975830D02*
X193625000Y-88987735D01*
X193625000Y-88987735D02*
X193565476Y-89106782D01*
X193565476Y-89106782D02*
X193505952Y-89166306D01*
X193505952Y-89166306D02*
X193386905Y-89225830D01*
X193386905Y-89225830D02*
X193208333Y-89225830D01*
X193208333Y-89225830D02*
X193089286Y-89166306D01*
X193625000Y-88749640D02*
X193505952Y-88809163D01*
X193505952Y-88809163D02*
X193267857Y-88809163D01*
X193267857Y-88809163D02*
X193148809Y-88749640D01*
X193148809Y-88749640D02*
X193089286Y-88690116D01*
X193089286Y-88690116D02*
X193029762Y-88571068D01*
X193029762Y-88571068D02*
X193029762Y-88213925D01*
X193029762Y-88213925D02*
X193089286Y-88094878D01*
X193089286Y-88094878D02*
X193148809Y-88035354D01*
X193148809Y-88035354D02*
X193267857Y-87975830D01*
X193267857Y-87975830D02*
X193505952Y-87975830D01*
X193505952Y-87975830D02*
X193625000Y-88035354D01*
X194696428Y-88749640D02*
X194577380Y-88809163D01*
X194577380Y-88809163D02*
X194339285Y-88809163D01*
X194339285Y-88809163D02*
X194220238Y-88749640D01*
X194220238Y-88749640D02*
X194160714Y-88630592D01*
X194160714Y-88630592D02*
X194160714Y-88154401D01*
X194160714Y-88154401D02*
X194220238Y-88035354D01*
X194220238Y-88035354D02*
X194339285Y-87975830D01*
X194339285Y-87975830D02*
X194577380Y-87975830D01*
X194577380Y-87975830D02*
X194696428Y-88035354D01*
X194696428Y-88035354D02*
X194755952Y-88154401D01*
X194755952Y-88154401D02*
X194755952Y-88273449D01*
X194755952Y-88273449D02*
X194160714Y-88392497D01*
X196065476Y-87559163D02*
X196779762Y-87559163D01*
X196422619Y-88809163D02*
X196422619Y-87559163D01*
X197672619Y-88749640D02*
X197553571Y-88809163D01*
X197553571Y-88809163D02*
X197315476Y-88809163D01*
X197315476Y-88809163D02*
X197196429Y-88749640D01*
X197196429Y-88749640D02*
X197136905Y-88630592D01*
X197136905Y-88630592D02*
X197136905Y-88154401D01*
X197136905Y-88154401D02*
X197196429Y-88035354D01*
X197196429Y-88035354D02*
X197315476Y-87975830D01*
X197315476Y-87975830D02*
X197553571Y-87975830D01*
X197553571Y-87975830D02*
X197672619Y-88035354D01*
X197672619Y-88035354D02*
X197732143Y-88154401D01*
X197732143Y-88154401D02*
X197732143Y-88273449D01*
X197732143Y-88273449D02*
X197136905Y-88392497D01*
X198803572Y-88809163D02*
X198803572Y-88154401D01*
X198803572Y-88154401D02*
X198744048Y-88035354D01*
X198744048Y-88035354D02*
X198625000Y-87975830D01*
X198625000Y-87975830D02*
X198386905Y-87975830D01*
X198386905Y-87975830D02*
X198267858Y-88035354D01*
X198803572Y-88749640D02*
X198684524Y-88809163D01*
X198684524Y-88809163D02*
X198386905Y-88809163D01*
X198386905Y-88809163D02*
X198267858Y-88749640D01*
X198267858Y-88749640D02*
X198208334Y-88630592D01*
X198208334Y-88630592D02*
X198208334Y-88511544D01*
X198208334Y-88511544D02*
X198267858Y-88392497D01*
X198267858Y-88392497D02*
X198386905Y-88332973D01*
X198386905Y-88332973D02*
X198684524Y-88332973D01*
X198684524Y-88332973D02*
X198803572Y-88273449D01*
X199398810Y-88809163D02*
X199398810Y-87975830D01*
X199398810Y-88094878D02*
X199458333Y-88035354D01*
X199458333Y-88035354D02*
X199577381Y-87975830D01*
X199577381Y-87975830D02*
X199755952Y-87975830D01*
X199755952Y-87975830D02*
X199875000Y-88035354D01*
X199875000Y-88035354D02*
X199934524Y-88154401D01*
X199934524Y-88154401D02*
X199934524Y-88809163D01*
X199934524Y-88154401D02*
X199994048Y-88035354D01*
X199994048Y-88035354D02*
X200113095Y-87975830D01*
X200113095Y-87975830D02*
X200291667Y-87975830D01*
X200291667Y-87975830D02*
X200410714Y-88035354D01*
X200410714Y-88035354D02*
X200470238Y-88154401D01*
X200470238Y-88154401D02*
X200470238Y-88809163D01*
X178416667Y-89690641D02*
X178476191Y-89631117D01*
X178476191Y-89631117D02*
X178595238Y-89571593D01*
X178595238Y-89571593D02*
X178892857Y-89571593D01*
X178892857Y-89571593D02*
X179011905Y-89631117D01*
X179011905Y-89631117D02*
X179071429Y-89690641D01*
X179071429Y-89690641D02*
X179130952Y-89809689D01*
X179130952Y-89809689D02*
X179130952Y-89928736D01*
X179130952Y-89928736D02*
X179071429Y-90107308D01*
X179071429Y-90107308D02*
X178357143Y-90821593D01*
X178357143Y-90821593D02*
X179130952Y-90821593D01*
X179904762Y-89571593D02*
X180023809Y-89571593D01*
X180023809Y-89571593D02*
X180142857Y-89631117D01*
X180142857Y-89631117D02*
X180202381Y-89690641D01*
X180202381Y-89690641D02*
X180261905Y-89809689D01*
X180261905Y-89809689D02*
X180321428Y-90047784D01*
X180321428Y-90047784D02*
X180321428Y-90345403D01*
X180321428Y-90345403D02*
X180261905Y-90583498D01*
X180261905Y-90583498D02*
X180202381Y-90702546D01*
X180202381Y-90702546D02*
X180142857Y-90762070D01*
X180142857Y-90762070D02*
X180023809Y-90821593D01*
X180023809Y-90821593D02*
X179904762Y-90821593D01*
X179904762Y-90821593D02*
X179785714Y-90762070D01*
X179785714Y-90762070D02*
X179726190Y-90702546D01*
X179726190Y-90702546D02*
X179666667Y-90583498D01*
X179666667Y-90583498D02*
X179607143Y-90345403D01*
X179607143Y-90345403D02*
X179607143Y-90047784D01*
X179607143Y-90047784D02*
X179666667Y-89809689D01*
X179666667Y-89809689D02*
X179726190Y-89690641D01*
X179726190Y-89690641D02*
X179785714Y-89631117D01*
X179785714Y-89631117D02*
X179904762Y-89571593D01*
X180797619Y-89690641D02*
X180857143Y-89631117D01*
X180857143Y-89631117D02*
X180976190Y-89571593D01*
X180976190Y-89571593D02*
X181273809Y-89571593D01*
X181273809Y-89571593D02*
X181392857Y-89631117D01*
X181392857Y-89631117D02*
X181452381Y-89690641D01*
X181452381Y-89690641D02*
X181511904Y-89809689D01*
X181511904Y-89809689D02*
X181511904Y-89928736D01*
X181511904Y-89928736D02*
X181452381Y-90107308D01*
X181452381Y-90107308D02*
X180738095Y-90821593D01*
X180738095Y-90821593D02*
X181511904Y-90821593D01*
X182583333Y-89988260D02*
X182583333Y-90821593D01*
X182285714Y-89512070D02*
X181988095Y-90404927D01*
X181988095Y-90404927D02*
X182761904Y-90404927D01*
X184071428Y-89988260D02*
X184369047Y-90821593D01*
X184369047Y-90821593D02*
X184666666Y-89988260D01*
X185797618Y-90821593D02*
X185083333Y-90821593D01*
X185440476Y-90821593D02*
X185440476Y-89571593D01*
X185440476Y-89571593D02*
X185321428Y-89750165D01*
X185321428Y-89750165D02*
X185202380Y-89869212D01*
X185202380Y-89869212D02*
X185083333Y-89928736D01*
X186333333Y-90702546D02*
X186392856Y-90762070D01*
X186392856Y-90762070D02*
X186333333Y-90821593D01*
X186333333Y-90821593D02*
X186273809Y-90762070D01*
X186273809Y-90762070D02*
X186333333Y-90702546D01*
X186333333Y-90702546D02*
X186333333Y-90821593D01*
X187464285Y-89571593D02*
X187226190Y-89571593D01*
X187226190Y-89571593D02*
X187107142Y-89631117D01*
X187107142Y-89631117D02*
X187047618Y-89690641D01*
X187047618Y-89690641D02*
X186928571Y-89869212D01*
X186928571Y-89869212D02*
X186869047Y-90107308D01*
X186869047Y-90107308D02*
X186869047Y-90583498D01*
X186869047Y-90583498D02*
X186928571Y-90702546D01*
X186928571Y-90702546D02*
X186988094Y-90762070D01*
X186988094Y-90762070D02*
X187107142Y-90821593D01*
X187107142Y-90821593D02*
X187345237Y-90821593D01*
X187345237Y-90821593D02*
X187464285Y-90762070D01*
X187464285Y-90762070D02*
X187523809Y-90702546D01*
X187523809Y-90702546D02*
X187583332Y-90583498D01*
X187583332Y-90583498D02*
X187583332Y-90285879D01*
X187583332Y-90285879D02*
X187523809Y-90166831D01*
X187523809Y-90166831D02*
X187464285Y-90107308D01*
X187464285Y-90107308D02*
X187345237Y-90047784D01*
X187345237Y-90047784D02*
X187107142Y-90047784D01*
X187107142Y-90047784D02*
X186988094Y-90107308D01*
X186988094Y-90107308D02*
X186928571Y-90166831D01*
X186928571Y-90166831D02*
X186869047Y-90285879D01*
X170678571Y-92834023D02*
X170083333Y-92834023D01*
X170083333Y-92834023D02*
X170083333Y-91584023D01*
X171095238Y-92834023D02*
X171095238Y-92000690D01*
X171095238Y-91584023D02*
X171035714Y-91643547D01*
X171035714Y-91643547D02*
X171095238Y-91703071D01*
X171095238Y-91703071D02*
X171154761Y-91643547D01*
X171154761Y-91643547D02*
X171095238Y-91584023D01*
X171095238Y-91584023D02*
X171095238Y-91703071D01*
X172226190Y-92774500D02*
X172107142Y-92834023D01*
X172107142Y-92834023D02*
X171869047Y-92834023D01*
X171869047Y-92834023D02*
X171749999Y-92774500D01*
X171749999Y-92774500D02*
X171690476Y-92714976D01*
X171690476Y-92714976D02*
X171630952Y-92595928D01*
X171630952Y-92595928D02*
X171630952Y-92238785D01*
X171630952Y-92238785D02*
X171690476Y-92119738D01*
X171690476Y-92119738D02*
X171749999Y-92060214D01*
X171749999Y-92060214D02*
X171869047Y-92000690D01*
X171869047Y-92000690D02*
X172107142Y-92000690D01*
X172107142Y-92000690D02*
X172226190Y-92060214D01*
X173238095Y-92774500D02*
X173119047Y-92834023D01*
X173119047Y-92834023D02*
X172880952Y-92834023D01*
X172880952Y-92834023D02*
X172761905Y-92774500D01*
X172761905Y-92774500D02*
X172702381Y-92655452D01*
X172702381Y-92655452D02*
X172702381Y-92179261D01*
X172702381Y-92179261D02*
X172761905Y-92060214D01*
X172761905Y-92060214D02*
X172880952Y-92000690D01*
X172880952Y-92000690D02*
X173119047Y-92000690D01*
X173119047Y-92000690D02*
X173238095Y-92060214D01*
X173238095Y-92060214D02*
X173297619Y-92179261D01*
X173297619Y-92179261D02*
X173297619Y-92298309D01*
X173297619Y-92298309D02*
X172702381Y-92417357D01*
X173833334Y-92000690D02*
X173833334Y-92834023D01*
X173833334Y-92119738D02*
X173892857Y-92060214D01*
X173892857Y-92060214D02*
X174011905Y-92000690D01*
X174011905Y-92000690D02*
X174190476Y-92000690D01*
X174190476Y-92000690D02*
X174309524Y-92060214D01*
X174309524Y-92060214D02*
X174369048Y-92179261D01*
X174369048Y-92179261D02*
X174369048Y-92834023D01*
X174904762Y-92774500D02*
X175023809Y-92834023D01*
X175023809Y-92834023D02*
X175261905Y-92834023D01*
X175261905Y-92834023D02*
X175380952Y-92774500D01*
X175380952Y-92774500D02*
X175440476Y-92655452D01*
X175440476Y-92655452D02*
X175440476Y-92595928D01*
X175440476Y-92595928D02*
X175380952Y-92476880D01*
X175380952Y-92476880D02*
X175261905Y-92417357D01*
X175261905Y-92417357D02*
X175083333Y-92417357D01*
X175083333Y-92417357D02*
X174964286Y-92357833D01*
X174964286Y-92357833D02*
X174904762Y-92238785D01*
X174904762Y-92238785D02*
X174904762Y-92179261D01*
X174904762Y-92179261D02*
X174964286Y-92060214D01*
X174964286Y-92060214D02*
X175083333Y-92000690D01*
X175083333Y-92000690D02*
X175261905Y-92000690D01*
X175261905Y-92000690D02*
X175380952Y-92060214D01*
X176452381Y-92774500D02*
X176333333Y-92834023D01*
X176333333Y-92834023D02*
X176095238Y-92834023D01*
X176095238Y-92834023D02*
X175976191Y-92774500D01*
X175976191Y-92774500D02*
X175916667Y-92655452D01*
X175916667Y-92655452D02*
X175916667Y-92179261D01*
X175916667Y-92179261D02*
X175976191Y-92060214D01*
X175976191Y-92060214D02*
X176095238Y-92000690D01*
X176095238Y-92000690D02*
X176333333Y-92000690D01*
X176333333Y-92000690D02*
X176452381Y-92060214D01*
X176452381Y-92060214D02*
X176511905Y-92179261D01*
X176511905Y-92179261D02*
X176511905Y-92298309D01*
X176511905Y-92298309D02*
X175916667Y-92417357D01*
X177047620Y-92714976D02*
X177107143Y-92774500D01*
X177107143Y-92774500D02*
X177047620Y-92834023D01*
X177047620Y-92834023D02*
X176988096Y-92774500D01*
X176988096Y-92774500D02*
X177047620Y-92714976D01*
X177047620Y-92714976D02*
X177047620Y-92834023D01*
X177047620Y-92060214D02*
X177107143Y-92119738D01*
X177107143Y-92119738D02*
X177047620Y-92179261D01*
X177047620Y-92179261D02*
X176988096Y-92119738D01*
X176988096Y-92119738D02*
X177047620Y-92060214D01*
X177047620Y-92060214D02*
X177047620Y-92179261D01*
X179309524Y-92714976D02*
X179250000Y-92774500D01*
X179250000Y-92774500D02*
X179071429Y-92834023D01*
X179071429Y-92834023D02*
X178952381Y-92834023D01*
X178952381Y-92834023D02*
X178773810Y-92774500D01*
X178773810Y-92774500D02*
X178654762Y-92655452D01*
X178654762Y-92655452D02*
X178595239Y-92536404D01*
X178595239Y-92536404D02*
X178535715Y-92298309D01*
X178535715Y-92298309D02*
X178535715Y-92119738D01*
X178535715Y-92119738D02*
X178595239Y-91881642D01*
X178595239Y-91881642D02*
X178654762Y-91762595D01*
X178654762Y-91762595D02*
X178773810Y-91643547D01*
X178773810Y-91643547D02*
X178952381Y-91584023D01*
X178952381Y-91584023D02*
X179071429Y-91584023D01*
X179071429Y-91584023D02*
X179250000Y-91643547D01*
X179250000Y-91643547D02*
X179309524Y-91703071D01*
X180559524Y-92714976D02*
X180500000Y-92774500D01*
X180500000Y-92774500D02*
X180321429Y-92834023D01*
X180321429Y-92834023D02*
X180202381Y-92834023D01*
X180202381Y-92834023D02*
X180023810Y-92774500D01*
X180023810Y-92774500D02*
X179904762Y-92655452D01*
X179904762Y-92655452D02*
X179845239Y-92536404D01*
X179845239Y-92536404D02*
X179785715Y-92298309D01*
X179785715Y-92298309D02*
X179785715Y-92119738D01*
X179785715Y-92119738D02*
X179845239Y-91881642D01*
X179845239Y-91881642D02*
X179904762Y-91762595D01*
X179904762Y-91762595D02*
X180023810Y-91643547D01*
X180023810Y-91643547D02*
X180202381Y-91584023D01*
X180202381Y-91584023D02*
X180321429Y-91584023D01*
X180321429Y-91584023D02*
X180500000Y-91643547D01*
X180500000Y-91643547D02*
X180559524Y-91703071D01*
X182583334Y-92000690D02*
X182583334Y-92834023D01*
X182285715Y-91524500D02*
X181988096Y-92417357D01*
X181988096Y-92417357D02*
X182761905Y-92417357D01*
X183238096Y-92714976D02*
X183297619Y-92774500D01*
X183297619Y-92774500D02*
X183238096Y-92834023D01*
X183238096Y-92834023D02*
X183178572Y-92774500D01*
X183178572Y-92774500D02*
X183238096Y-92714976D01*
X183238096Y-92714976D02*
X183238096Y-92834023D01*
X184071429Y-91584023D02*
X184190476Y-91584023D01*
X184190476Y-91584023D02*
X184309524Y-91643547D01*
X184309524Y-91643547D02*
X184369048Y-91703071D01*
X184369048Y-91703071D02*
X184428572Y-91822119D01*
X184428572Y-91822119D02*
X184488095Y-92060214D01*
X184488095Y-92060214D02*
X184488095Y-92357833D01*
X184488095Y-92357833D02*
X184428572Y-92595928D01*
X184428572Y-92595928D02*
X184369048Y-92714976D01*
X184369048Y-92714976D02*
X184309524Y-92774500D01*
X184309524Y-92774500D02*
X184190476Y-92834023D01*
X184190476Y-92834023D02*
X184071429Y-92834023D01*
X184071429Y-92834023D02*
X183952381Y-92774500D01*
X183952381Y-92774500D02*
X183892857Y-92714976D01*
X183892857Y-92714976D02*
X183833334Y-92595928D01*
X183833334Y-92595928D02*
X183773810Y-92357833D01*
X183773810Y-92357833D02*
X183773810Y-92060214D01*
X183773810Y-92060214D02*
X183833334Y-91822119D01*
X183833334Y-91822119D02*
X183892857Y-91703071D01*
X183892857Y-91703071D02*
X183952381Y-91643547D01*
X183952381Y-91643547D02*
X184071429Y-91584023D01*
X186392857Y-92179261D02*
X186571429Y-92238785D01*
X186571429Y-92238785D02*
X186630952Y-92298309D01*
X186630952Y-92298309D02*
X186690476Y-92417357D01*
X186690476Y-92417357D02*
X186690476Y-92595928D01*
X186690476Y-92595928D02*
X186630952Y-92714976D01*
X186630952Y-92714976D02*
X186571429Y-92774500D01*
X186571429Y-92774500D02*
X186452381Y-92834023D01*
X186452381Y-92834023D02*
X185976191Y-92834023D01*
X185976191Y-92834023D02*
X185976191Y-91584023D01*
X185976191Y-91584023D02*
X186392857Y-91584023D01*
X186392857Y-91584023D02*
X186511905Y-91643547D01*
X186511905Y-91643547D02*
X186571429Y-91703071D01*
X186571429Y-91703071D02*
X186630952Y-91822119D01*
X186630952Y-91822119D02*
X186630952Y-91941166D01*
X186630952Y-91941166D02*
X186571429Y-92060214D01*
X186571429Y-92060214D02*
X186511905Y-92119738D01*
X186511905Y-92119738D02*
X186392857Y-92179261D01*
X186392857Y-92179261D02*
X185976191Y-92179261D01*
X187464286Y-92238785D02*
X187464286Y-92834023D01*
X187047619Y-91584023D02*
X187464286Y-92238785D01*
X187464286Y-92238785D02*
X187880952Y-91584023D01*
X188297620Y-92357833D02*
X189250001Y-92357833D01*
X189845239Y-92834023D02*
X189845239Y-91584023D01*
X189845239Y-91584023D02*
X190559524Y-92834023D01*
X190559524Y-92834023D02*
X190559524Y-91584023D01*
X191869048Y-92714976D02*
X191809524Y-92774500D01*
X191809524Y-92774500D02*
X191630953Y-92834023D01*
X191630953Y-92834023D02*
X191511905Y-92834023D01*
X191511905Y-92834023D02*
X191333334Y-92774500D01*
X191333334Y-92774500D02*
X191214286Y-92655452D01*
X191214286Y-92655452D02*
X191154763Y-92536404D01*
X191154763Y-92536404D02*
X191095239Y-92298309D01*
X191095239Y-92298309D02*
X191095239Y-92119738D01*
X191095239Y-92119738D02*
X191154763Y-91881642D01*
X191154763Y-91881642D02*
X191214286Y-91762595D01*
X191214286Y-91762595D02*
X191333334Y-91643547D01*
X191333334Y-91643547D02*
X191511905Y-91584023D01*
X191511905Y-91584023D02*
X191630953Y-91584023D01*
X191630953Y-91584023D02*
X191809524Y-91643547D01*
X191809524Y-91643547D02*
X191869048Y-91703071D01*
X192404763Y-92357833D02*
X193357144Y-92357833D01*
X193952382Y-92834023D02*
X193952382Y-91584023D01*
X193952382Y-91584023D02*
X194666667Y-92834023D01*
X194666667Y-92834023D02*
X194666667Y-91584023D01*
X195261906Y-92834023D02*
X195261906Y-91584023D01*
X195261906Y-91584023D02*
X195559525Y-91584023D01*
X195559525Y-91584023D02*
X195738096Y-91643547D01*
X195738096Y-91643547D02*
X195857144Y-91762595D01*
X195857144Y-91762595D02*
X195916667Y-91881642D01*
X195916667Y-91881642D02*
X195976191Y-92119738D01*
X195976191Y-92119738D02*
X195976191Y-92298309D01*
X195976191Y-92298309D02*
X195916667Y-92536404D01*
X195916667Y-92536404D02*
X195857144Y-92655452D01*
X195857144Y-92655452D02*
X195738096Y-92774500D01*
X195738096Y-92774500D02*
X195559525Y-92834023D01*
X195559525Y-92834023D02*
X195261906Y-92834023D01*
D12*
X96983082Y-91130400D02*
X97897368Y-91130400D01*
X97440225Y-91587542D02*
X97440225Y-90673257D01*
X129733082Y-56380400D02*
X130647368Y-56380400D01*
X130190225Y-56837542D02*
X130190225Y-55923257D01*
X108483082Y-61880400D02*
X109397368Y-61880400D01*
X108940225Y-62337542D02*
X108940225Y-61423257D01*
D13*
X130969819Y-91461068D02*
X129969819Y-91461068D01*
X130446009Y-91461068D02*
X130446009Y-90889640D01*
X130969819Y-90889640D02*
X129969819Y-90889640D01*
X130922200Y-90461068D02*
X130969819Y-90318211D01*
X130969819Y-90318211D02*
X130969819Y-90080116D01*
X130969819Y-90080116D02*
X130922200Y-89984878D01*
X130922200Y-89984878D02*
X130874580Y-89937259D01*
X130874580Y-89937259D02*
X130779342Y-89889640D01*
X130779342Y-89889640D02*
X130684104Y-89889640D01*
X130684104Y-89889640D02*
X130588866Y-89937259D01*
X130588866Y-89937259D02*
X130541247Y-89984878D01*
X130541247Y-89984878D02*
X130493628Y-90080116D01*
X130493628Y-90080116D02*
X130446009Y-90270592D01*
X130446009Y-90270592D02*
X130398390Y-90365830D01*
X130398390Y-90365830D02*
X130350771Y-90413449D01*
X130350771Y-90413449D02*
X130255533Y-90461068D01*
X130255533Y-90461068D02*
X130160295Y-90461068D01*
X130160295Y-90461068D02*
X130065057Y-90413449D01*
X130065057Y-90413449D02*
X130017438Y-90365830D01*
X130017438Y-90365830D02*
X129969819Y-90270592D01*
X129969819Y-90270592D02*
X129969819Y-90032497D01*
X129969819Y-90032497D02*
X130017438Y-89889640D01*
X130493628Y-89270592D02*
X130969819Y-89270592D01*
X129969819Y-89603925D02*
X130493628Y-89270592D01*
X130493628Y-89270592D02*
X129969819Y-88937259D01*
X130969819Y-88603925D02*
X129969819Y-88603925D01*
X129969819Y-88603925D02*
X130969819Y-88032497D01*
X130969819Y-88032497D02*
X129969819Y-88032497D01*
X130874580Y-86984878D02*
X130922200Y-87032497D01*
X130922200Y-87032497D02*
X130969819Y-87175354D01*
X130969819Y-87175354D02*
X130969819Y-87270592D01*
X130969819Y-87270592D02*
X130922200Y-87413449D01*
X130922200Y-87413449D02*
X130826961Y-87508687D01*
X130826961Y-87508687D02*
X130731723Y-87556306D01*
X130731723Y-87556306D02*
X130541247Y-87603925D01*
X130541247Y-87603925D02*
X130398390Y-87603925D01*
X130398390Y-87603925D02*
X130207914Y-87556306D01*
X130207914Y-87556306D02*
X130112676Y-87508687D01*
X130112676Y-87508687D02*
X130017438Y-87413449D01*
X130017438Y-87413449D02*
X129969819Y-87270592D01*
X129969819Y-87270592D02*
X129969819Y-87175354D01*
X129969819Y-87175354D02*
X130017438Y-87032497D01*
X130017438Y-87032497D02*
X130065057Y-86984878D01*
D12*
X130733082Y-51380400D02*
X131647368Y-51380400D01*
X131190225Y-51837542D02*
X131190225Y-50923257D01*
D13*
X109488866Y-88913220D02*
X109488866Y-88151316D01*
X109869819Y-87151316D02*
X109869819Y-87722744D01*
X109869819Y-87437030D02*
X108869819Y-87437030D01*
X108869819Y-87437030D02*
X109012676Y-87532268D01*
X109012676Y-87532268D02*
X109107914Y-87627506D01*
X109107914Y-87627506D02*
X109155533Y-87722744D01*
X108965057Y-86770363D02*
X108917438Y-86722744D01*
X108917438Y-86722744D02*
X108869819Y-86627506D01*
X108869819Y-86627506D02*
X108869819Y-86389411D01*
X108869819Y-86389411D02*
X108917438Y-86294173D01*
X108917438Y-86294173D02*
X108965057Y-86246554D01*
X108965057Y-86246554D02*
X109060295Y-86198935D01*
X109060295Y-86198935D02*
X109155533Y-86198935D01*
X109155533Y-86198935D02*
X109298390Y-86246554D01*
X109298390Y-86246554D02*
X109869819Y-86817982D01*
X109869819Y-86817982D02*
X109869819Y-86198935D01*
X108869819Y-85913220D02*
X109869819Y-85579887D01*
X109869819Y-85579887D02*
X108869819Y-85246554D01*
X134524580Y-91539640D02*
X134572200Y-91587259D01*
X134572200Y-91587259D02*
X134619819Y-91730116D01*
X134619819Y-91730116D02*
X134619819Y-91825354D01*
X134619819Y-91825354D02*
X134572200Y-91968211D01*
X134572200Y-91968211D02*
X134476961Y-92063449D01*
X134476961Y-92063449D02*
X134381723Y-92111068D01*
X134381723Y-92111068D02*
X134191247Y-92158687D01*
X134191247Y-92158687D02*
X134048390Y-92158687D01*
X134048390Y-92158687D02*
X133857914Y-92111068D01*
X133857914Y-92111068D02*
X133762676Y-92063449D01*
X133762676Y-92063449D02*
X133667438Y-91968211D01*
X133667438Y-91968211D02*
X133619819Y-91825354D01*
X133619819Y-91825354D02*
X133619819Y-91730116D01*
X133619819Y-91730116D02*
X133667438Y-91587259D01*
X133667438Y-91587259D02*
X133715057Y-91539640D01*
X133619819Y-91253925D02*
X134619819Y-90920592D01*
X134619819Y-90920592D02*
X133619819Y-90587259D01*
X134619819Y-90253925D02*
X133619819Y-90253925D01*
X134619819Y-89777735D02*
X133619819Y-89777735D01*
X133619819Y-89777735D02*
X133619819Y-89539640D01*
X133619819Y-89539640D02*
X133667438Y-89396783D01*
X133667438Y-89396783D02*
X133762676Y-89301545D01*
X133762676Y-89301545D02*
X133857914Y-89253926D01*
X133857914Y-89253926D02*
X134048390Y-89206307D01*
X134048390Y-89206307D02*
X134191247Y-89206307D01*
X134191247Y-89206307D02*
X134381723Y-89253926D01*
X134381723Y-89253926D02*
X134476961Y-89301545D01*
X134476961Y-89301545D02*
X134572200Y-89396783D01*
X134572200Y-89396783D02*
X134619819Y-89539640D01*
X134619819Y-89539640D02*
X134619819Y-89777735D01*
X134096009Y-88777735D02*
X134096009Y-88444402D01*
X134619819Y-88301545D02*
X134619819Y-88777735D01*
X134619819Y-88777735D02*
X133619819Y-88777735D01*
X133619819Y-88777735D02*
X133619819Y-88301545D01*
X133619819Y-87682497D02*
X133619819Y-87492021D01*
X133619819Y-87492021D02*
X133667438Y-87396783D01*
X133667438Y-87396783D02*
X133762676Y-87301545D01*
X133762676Y-87301545D02*
X133953152Y-87253926D01*
X133953152Y-87253926D02*
X134286485Y-87253926D01*
X134286485Y-87253926D02*
X134476961Y-87301545D01*
X134476961Y-87301545D02*
X134572200Y-87396783D01*
X134572200Y-87396783D02*
X134619819Y-87492021D01*
X134619819Y-87492021D02*
X134619819Y-87682497D01*
X134619819Y-87682497D02*
X134572200Y-87777735D01*
X134572200Y-87777735D02*
X134476961Y-87872973D01*
X134476961Y-87872973D02*
X134286485Y-87920592D01*
X134286485Y-87920592D02*
X133953152Y-87920592D01*
X133953152Y-87920592D02*
X133762676Y-87872973D01*
X133762676Y-87872973D02*
X133667438Y-87777735D01*
X133667438Y-87777735D02*
X133619819Y-87682497D01*
D12*
X190304510Y-64300828D02*
X190304510Y-62800828D01*
X190304510Y-62800828D02*
X191161653Y-64300828D01*
X191161653Y-64300828D02*
X191161653Y-62800828D01*
X192447368Y-64229400D02*
X192304511Y-64300828D01*
X192304511Y-64300828D02*
X192018797Y-64300828D01*
X192018797Y-64300828D02*
X191875939Y-64229400D01*
X191875939Y-64229400D02*
X191804511Y-64086542D01*
X191804511Y-64086542D02*
X191804511Y-63515114D01*
X191804511Y-63515114D02*
X191875939Y-63372257D01*
X191875939Y-63372257D02*
X192018797Y-63300828D01*
X192018797Y-63300828D02*
X192304511Y-63300828D01*
X192304511Y-63300828D02*
X192447368Y-63372257D01*
X192447368Y-63372257D02*
X192518797Y-63515114D01*
X192518797Y-63515114D02*
X192518797Y-63657971D01*
X192518797Y-63657971D02*
X191804511Y-63800828D01*
X193018796Y-64300828D02*
X193804511Y-63300828D01*
X193018796Y-63300828D02*
X193804511Y-64300828D01*
X194161654Y-63300828D02*
X194733082Y-63300828D01*
X194375939Y-62800828D02*
X194375939Y-64086542D01*
X194375939Y-64086542D02*
X194447368Y-64229400D01*
X194447368Y-64229400D02*
X194590225Y-64300828D01*
X194590225Y-64300828D02*
X194733082Y-64300828D01*
X197983082Y-64229400D02*
X198197368Y-64300828D01*
X198197368Y-64300828D02*
X198554510Y-64300828D01*
X198554510Y-64300828D02*
X198697368Y-64229400D01*
X198697368Y-64229400D02*
X198768796Y-64157971D01*
X198768796Y-64157971D02*
X198840225Y-64015114D01*
X198840225Y-64015114D02*
X198840225Y-63872257D01*
X198840225Y-63872257D02*
X198768796Y-63729400D01*
X198768796Y-63729400D02*
X198697368Y-63657971D01*
X198697368Y-63657971D02*
X198554510Y-63586542D01*
X198554510Y-63586542D02*
X198268796Y-63515114D01*
X198268796Y-63515114D02*
X198125939Y-63443685D01*
X198125939Y-63443685D02*
X198054510Y-63372257D01*
X198054510Y-63372257D02*
X197983082Y-63229400D01*
X197983082Y-63229400D02*
X197983082Y-63086542D01*
X197983082Y-63086542D02*
X198054510Y-62943685D01*
X198054510Y-62943685D02*
X198125939Y-62872257D01*
X198125939Y-62872257D02*
X198268796Y-62800828D01*
X198268796Y-62800828D02*
X198625939Y-62800828D01*
X198625939Y-62800828D02*
X198840225Y-62872257D01*
X200054510Y-64229400D02*
X199911653Y-64300828D01*
X199911653Y-64300828D02*
X199625939Y-64300828D01*
X199625939Y-64300828D02*
X199483081Y-64229400D01*
X199483081Y-64229400D02*
X199411653Y-64086542D01*
X199411653Y-64086542D02*
X199411653Y-63515114D01*
X199411653Y-63515114D02*
X199483081Y-63372257D01*
X199483081Y-63372257D02*
X199625939Y-63300828D01*
X199625939Y-63300828D02*
X199911653Y-63300828D01*
X199911653Y-63300828D02*
X200054510Y-63372257D01*
X200054510Y-63372257D02*
X200125939Y-63515114D01*
X200125939Y-63515114D02*
X200125939Y-63657971D01*
X200125939Y-63657971D02*
X199411653Y-63800828D01*
X200983081Y-64300828D02*
X200840224Y-64229400D01*
X200840224Y-64229400D02*
X200768795Y-64086542D01*
X200768795Y-64086542D02*
X200768795Y-62800828D01*
X202125938Y-64229400D02*
X201983081Y-64300828D01*
X201983081Y-64300828D02*
X201697367Y-64300828D01*
X201697367Y-64300828D02*
X201554509Y-64229400D01*
X201554509Y-64229400D02*
X201483081Y-64086542D01*
X201483081Y-64086542D02*
X201483081Y-63515114D01*
X201483081Y-63515114D02*
X201554509Y-63372257D01*
X201554509Y-63372257D02*
X201697367Y-63300828D01*
X201697367Y-63300828D02*
X201983081Y-63300828D01*
X201983081Y-63300828D02*
X202125938Y-63372257D01*
X202125938Y-63372257D02*
X202197367Y-63515114D01*
X202197367Y-63515114D02*
X202197367Y-63657971D01*
X202197367Y-63657971D02*
X201483081Y-63800828D01*
X203483081Y-64229400D02*
X203340223Y-64300828D01*
X203340223Y-64300828D02*
X203054509Y-64300828D01*
X203054509Y-64300828D02*
X202911652Y-64229400D01*
X202911652Y-64229400D02*
X202840223Y-64157971D01*
X202840223Y-64157971D02*
X202768795Y-64015114D01*
X202768795Y-64015114D02*
X202768795Y-63586542D01*
X202768795Y-63586542D02*
X202840223Y-63443685D01*
X202840223Y-63443685D02*
X202911652Y-63372257D01*
X202911652Y-63372257D02*
X203054509Y-63300828D01*
X203054509Y-63300828D02*
X203340223Y-63300828D01*
X203340223Y-63300828D02*
X203483081Y-63372257D01*
X203911652Y-63300828D02*
X204483080Y-63300828D01*
X204125937Y-62800828D02*
X204125937Y-64086542D01*
X204125937Y-64086542D02*
X204197366Y-64229400D01*
X204197366Y-64229400D02*
X204340223Y-64300828D01*
X204340223Y-64300828D02*
X204483080Y-64300828D01*
X181304510Y-64300828D02*
X181304510Y-62800828D01*
X181304510Y-62800828D02*
X181875939Y-62800828D01*
X181875939Y-62800828D02*
X182018796Y-62872257D01*
X182018796Y-62872257D02*
X182090225Y-62943685D01*
X182090225Y-62943685D02*
X182161653Y-63086542D01*
X182161653Y-63086542D02*
X182161653Y-63300828D01*
X182161653Y-63300828D02*
X182090225Y-63443685D01*
X182090225Y-63443685D02*
X182018796Y-63515114D01*
X182018796Y-63515114D02*
X181875939Y-63586542D01*
X181875939Y-63586542D02*
X181304510Y-63586542D01*
X182804510Y-64300828D02*
X182804510Y-63300828D01*
X182804510Y-63586542D02*
X182875939Y-63443685D01*
X182875939Y-63443685D02*
X182947368Y-63372257D01*
X182947368Y-63372257D02*
X183090225Y-63300828D01*
X183090225Y-63300828D02*
X183233082Y-63300828D01*
X184304510Y-64229400D02*
X184161653Y-64300828D01*
X184161653Y-64300828D02*
X183875939Y-64300828D01*
X183875939Y-64300828D02*
X183733081Y-64229400D01*
X183733081Y-64229400D02*
X183661653Y-64086542D01*
X183661653Y-64086542D02*
X183661653Y-63515114D01*
X183661653Y-63515114D02*
X183733081Y-63372257D01*
X183733081Y-63372257D02*
X183875939Y-63300828D01*
X183875939Y-63300828D02*
X184161653Y-63300828D01*
X184161653Y-63300828D02*
X184304510Y-63372257D01*
X184304510Y-63372257D02*
X184375939Y-63515114D01*
X184375939Y-63515114D02*
X184375939Y-63657971D01*
X184375939Y-63657971D02*
X183661653Y-63800828D01*
X184875938Y-63300828D02*
X185233081Y-64300828D01*
X185233081Y-64300828D02*
X185590224Y-63300828D01*
X98411653Y-89300828D02*
X99340225Y-89300828D01*
X99340225Y-89300828D02*
X98840225Y-89872257D01*
X98840225Y-89872257D02*
X99054510Y-89872257D01*
X99054510Y-89872257D02*
X99197368Y-89943685D01*
X99197368Y-89943685D02*
X99268796Y-90015114D01*
X99268796Y-90015114D02*
X99340225Y-90157971D01*
X99340225Y-90157971D02*
X99340225Y-90515114D01*
X99340225Y-90515114D02*
X99268796Y-90657971D01*
X99268796Y-90657971D02*
X99197368Y-90729400D01*
X99197368Y-90729400D02*
X99054510Y-90800828D01*
X99054510Y-90800828D02*
X98625939Y-90800828D01*
X98625939Y-90800828D02*
X98483082Y-90729400D01*
X98483082Y-90729400D02*
X98411653Y-90657971D01*
X99983081Y-90657971D02*
X100054510Y-90729400D01*
X100054510Y-90729400D02*
X99983081Y-90800828D01*
X99983081Y-90800828D02*
X99911653Y-90729400D01*
X99911653Y-90729400D02*
X99983081Y-90657971D01*
X99983081Y-90657971D02*
X99983081Y-90800828D01*
X100554510Y-89300828D02*
X101483082Y-89300828D01*
X101483082Y-89300828D02*
X100983082Y-89872257D01*
X100983082Y-89872257D02*
X101197367Y-89872257D01*
X101197367Y-89872257D02*
X101340225Y-89943685D01*
X101340225Y-89943685D02*
X101411653Y-90015114D01*
X101411653Y-90015114D02*
X101483082Y-90157971D01*
X101483082Y-90157971D02*
X101483082Y-90515114D01*
X101483082Y-90515114D02*
X101411653Y-90657971D01*
X101411653Y-90657971D02*
X101340225Y-90729400D01*
X101340225Y-90729400D02*
X101197367Y-90800828D01*
X101197367Y-90800828D02*
X100768796Y-90800828D01*
X100768796Y-90800828D02*
X100625939Y-90729400D01*
X100625939Y-90729400D02*
X100554510Y-90657971D01*
X101911653Y-89300828D02*
X102411653Y-90800828D01*
X102411653Y-90800828D02*
X102911653Y-89300828D01*
X100018796Y-48550828D02*
X99304510Y-48550828D01*
X99304510Y-48550828D02*
X99233082Y-49265114D01*
X99233082Y-49265114D02*
X99304510Y-49193685D01*
X99304510Y-49193685D02*
X99447368Y-49122257D01*
X99447368Y-49122257D02*
X99804510Y-49122257D01*
X99804510Y-49122257D02*
X99947368Y-49193685D01*
X99947368Y-49193685D02*
X100018796Y-49265114D01*
X100018796Y-49265114D02*
X100090225Y-49407971D01*
X100090225Y-49407971D02*
X100090225Y-49765114D01*
X100090225Y-49765114D02*
X100018796Y-49907971D01*
X100018796Y-49907971D02*
X99947368Y-49979400D01*
X99947368Y-49979400D02*
X99804510Y-50050828D01*
X99804510Y-50050828D02*
X99447368Y-50050828D01*
X99447368Y-50050828D02*
X99304510Y-49979400D01*
X99304510Y-49979400D02*
X99233082Y-49907971D01*
X100518796Y-48550828D02*
X101018796Y-50050828D01*
X101018796Y-50050828D02*
X101518796Y-48550828D01*
X106161652Y-48550828D02*
X105447366Y-48550828D01*
X105447366Y-48550828D02*
X105375938Y-49265114D01*
X105375938Y-49265114D02*
X105447366Y-49193685D01*
X105447366Y-49193685D02*
X105590224Y-49122257D01*
X105590224Y-49122257D02*
X105947366Y-49122257D01*
X105947366Y-49122257D02*
X106090224Y-49193685D01*
X106090224Y-49193685D02*
X106161652Y-49265114D01*
X106161652Y-49265114D02*
X106233081Y-49407971D01*
X106233081Y-49407971D02*
X106233081Y-49765114D01*
X106233081Y-49765114D02*
X106161652Y-49907971D01*
X106161652Y-49907971D02*
X106090224Y-49979400D01*
X106090224Y-49979400D02*
X105947366Y-50050828D01*
X105947366Y-50050828D02*
X105590224Y-50050828D01*
X105590224Y-50050828D02*
X105447366Y-49979400D01*
X105447366Y-49979400D02*
X105375938Y-49907971D01*
X106661652Y-48550828D02*
X107161652Y-50050828D01*
X107161652Y-50050828D02*
X107661652Y-48550828D01*
X124911653Y-49837542D02*
X124225939Y-49837542D01*
X124568796Y-49837542D02*
X124568796Y-48637542D01*
X124568796Y-48637542D02*
X124454510Y-48808971D01*
X124454510Y-48808971D02*
X124340225Y-48923257D01*
X124340225Y-48923257D02*
X124225939Y-48980400D01*
X125368796Y-48751828D02*
X125425939Y-48694685D01*
X125425939Y-48694685D02*
X125540225Y-48637542D01*
X125540225Y-48637542D02*
X125825939Y-48637542D01*
X125825939Y-48637542D02*
X125940225Y-48694685D01*
X125940225Y-48694685D02*
X125997367Y-48751828D01*
X125997367Y-48751828D02*
X126054510Y-48866114D01*
X126054510Y-48866114D02*
X126054510Y-48980400D01*
X126054510Y-48980400D02*
X125997367Y-49151828D01*
X125997367Y-49151828D02*
X125311653Y-49837542D01*
X125311653Y-49837542D02*
X126054510Y-49837542D01*
X126397367Y-48637542D02*
X126797367Y-49837542D01*
X126797367Y-49837542D02*
X127197367Y-48637542D01*
D13*
X122619819Y-88134878D02*
X122619819Y-88611068D01*
X122619819Y-88611068D02*
X123096009Y-88658687D01*
X123096009Y-88658687D02*
X123048390Y-88611068D01*
X123048390Y-88611068D02*
X123000771Y-88515830D01*
X123000771Y-88515830D02*
X123000771Y-88277735D01*
X123000771Y-88277735D02*
X123048390Y-88182497D01*
X123048390Y-88182497D02*
X123096009Y-88134878D01*
X123096009Y-88134878D02*
X123191247Y-88087259D01*
X123191247Y-88087259D02*
X123429342Y-88087259D01*
X123429342Y-88087259D02*
X123524580Y-88134878D01*
X123524580Y-88134878D02*
X123572200Y-88182497D01*
X123572200Y-88182497D02*
X123619819Y-88277735D01*
X123619819Y-88277735D02*
X123619819Y-88515830D01*
X123619819Y-88515830D02*
X123572200Y-88611068D01*
X123572200Y-88611068D02*
X123524580Y-88658687D01*
X122619819Y-87801544D02*
X123619819Y-87468211D01*
X123619819Y-87468211D02*
X122619819Y-87134878D01*
D11*
X111200187Y-57658209D02*
X111200187Y-56458209D01*
X111200187Y-56458209D02*
X111657330Y-56458209D01*
X111657330Y-56458209D02*
X111771615Y-56515352D01*
X111771615Y-56515352D02*
X111828758Y-56572495D01*
X111828758Y-56572495D02*
X111885901Y-56686781D01*
X111885901Y-56686781D02*
X111885901Y-56858209D01*
X111885901Y-56858209D02*
X111828758Y-56972495D01*
X111828758Y-56972495D02*
X111771615Y-57029638D01*
X111771615Y-57029638D02*
X111657330Y-57086781D01*
X111657330Y-57086781D02*
X111200187Y-57086781D01*
X112571615Y-57658209D02*
X112457330Y-57601067D01*
X112457330Y-57601067D02*
X112400187Y-57543924D01*
X112400187Y-57543924D02*
X112343044Y-57429638D01*
X112343044Y-57429638D02*
X112343044Y-57086781D01*
X112343044Y-57086781D02*
X112400187Y-56972495D01*
X112400187Y-56972495D02*
X112457330Y-56915352D01*
X112457330Y-56915352D02*
X112571615Y-56858209D01*
X112571615Y-56858209D02*
X112743044Y-56858209D01*
X112743044Y-56858209D02*
X112857330Y-56915352D01*
X112857330Y-56915352D02*
X112914473Y-56972495D01*
X112914473Y-56972495D02*
X112971615Y-57086781D01*
X112971615Y-57086781D02*
X112971615Y-57429638D01*
X112971615Y-57429638D02*
X112914473Y-57543924D01*
X112914473Y-57543924D02*
X112857330Y-57601067D01*
X112857330Y-57601067D02*
X112743044Y-57658209D01*
X112743044Y-57658209D02*
X112571615Y-57658209D01*
X113371615Y-56858209D02*
X113600187Y-57658209D01*
X113600187Y-57658209D02*
X113828758Y-57086781D01*
X113828758Y-57086781D02*
X114057329Y-57658209D01*
X114057329Y-57658209D02*
X114285901Y-56858209D01*
X115200187Y-57601067D02*
X115085901Y-57658209D01*
X115085901Y-57658209D02*
X114857330Y-57658209D01*
X114857330Y-57658209D02*
X114743044Y-57601067D01*
X114743044Y-57601067D02*
X114685901Y-57486781D01*
X114685901Y-57486781D02*
X114685901Y-57029638D01*
X114685901Y-57029638D02*
X114743044Y-56915352D01*
X114743044Y-56915352D02*
X114857330Y-56858209D01*
X114857330Y-56858209D02*
X115085901Y-56858209D01*
X115085901Y-56858209D02*
X115200187Y-56915352D01*
X115200187Y-56915352D02*
X115257330Y-57029638D01*
X115257330Y-57029638D02*
X115257330Y-57143924D01*
X115257330Y-57143924D02*
X114685901Y-57258209D01*
X115771615Y-57658209D02*
X115771615Y-56858209D01*
X115771615Y-57086781D02*
X115828758Y-56972495D01*
X115828758Y-56972495D02*
X115885901Y-56915352D01*
X115885901Y-56915352D02*
X116000186Y-56858209D01*
X116000186Y-56858209D02*
X116114472Y-56858209D01*
X111714473Y-58790142D02*
X111714473Y-59761571D01*
X111714473Y-59761571D02*
X111657330Y-59875857D01*
X111657330Y-59875857D02*
X111600187Y-59933000D01*
X111600187Y-59933000D02*
X111485901Y-59990142D01*
X111485901Y-59990142D02*
X111314473Y-59990142D01*
X111314473Y-59990142D02*
X111200187Y-59933000D01*
X111714473Y-59533000D02*
X111600187Y-59590142D01*
X111600187Y-59590142D02*
X111371615Y-59590142D01*
X111371615Y-59590142D02*
X111257330Y-59533000D01*
X111257330Y-59533000D02*
X111200187Y-59475857D01*
X111200187Y-59475857D02*
X111143044Y-59361571D01*
X111143044Y-59361571D02*
X111143044Y-59018714D01*
X111143044Y-59018714D02*
X111200187Y-58904428D01*
X111200187Y-58904428D02*
X111257330Y-58847285D01*
X111257330Y-58847285D02*
X111371615Y-58790142D01*
X111371615Y-58790142D02*
X111600187Y-58790142D01*
X111600187Y-58790142D02*
X111714473Y-58847285D01*
X112457329Y-59590142D02*
X112343044Y-59533000D01*
X112343044Y-59533000D02*
X112285901Y-59475857D01*
X112285901Y-59475857D02*
X112228758Y-59361571D01*
X112228758Y-59361571D02*
X112228758Y-59018714D01*
X112228758Y-59018714D02*
X112285901Y-58904428D01*
X112285901Y-58904428D02*
X112343044Y-58847285D01*
X112343044Y-58847285D02*
X112457329Y-58790142D01*
X112457329Y-58790142D02*
X112628758Y-58790142D01*
X112628758Y-58790142D02*
X112743044Y-58847285D01*
X112743044Y-58847285D02*
X112800187Y-58904428D01*
X112800187Y-58904428D02*
X112857329Y-59018714D01*
X112857329Y-59018714D02*
X112857329Y-59361571D01*
X112857329Y-59361571D02*
X112800187Y-59475857D01*
X112800187Y-59475857D02*
X112743044Y-59533000D01*
X112743044Y-59533000D02*
X112628758Y-59590142D01*
X112628758Y-59590142D02*
X112457329Y-59590142D01*
X113543043Y-59590142D02*
X113428758Y-59533000D01*
X113428758Y-59533000D02*
X113371615Y-59475857D01*
X113371615Y-59475857D02*
X113314472Y-59361571D01*
X113314472Y-59361571D02*
X113314472Y-59018714D01*
X113314472Y-59018714D02*
X113371615Y-58904428D01*
X113371615Y-58904428D02*
X113428758Y-58847285D01*
X113428758Y-58847285D02*
X113543043Y-58790142D01*
X113543043Y-58790142D02*
X113714472Y-58790142D01*
X113714472Y-58790142D02*
X113828758Y-58847285D01*
X113828758Y-58847285D02*
X113885901Y-58904428D01*
X113885901Y-58904428D02*
X113943043Y-59018714D01*
X113943043Y-59018714D02*
X113943043Y-59361571D01*
X113943043Y-59361571D02*
X113885901Y-59475857D01*
X113885901Y-59475857D02*
X113828758Y-59533000D01*
X113828758Y-59533000D02*
X113714472Y-59590142D01*
X113714472Y-59590142D02*
X113543043Y-59590142D01*
X114971615Y-59590142D02*
X114971615Y-58390142D01*
X114971615Y-59533000D02*
X114857329Y-59590142D01*
X114857329Y-59590142D02*
X114628757Y-59590142D01*
X114628757Y-59590142D02*
X114514472Y-59533000D01*
X114514472Y-59533000D02*
X114457329Y-59475857D01*
X114457329Y-59475857D02*
X114400186Y-59361571D01*
X114400186Y-59361571D02*
X114400186Y-59018714D01*
X114400186Y-59018714D02*
X114457329Y-58904428D01*
X114457329Y-58904428D02*
X114514472Y-58847285D01*
X114514472Y-58847285D02*
X114628757Y-58790142D01*
X114628757Y-58790142D02*
X114857329Y-58790142D01*
X114857329Y-58790142D02*
X114971615Y-58847285D01*
D13*
X119488866Y-89861068D02*
X119488866Y-89099164D01*
X118869819Y-88146783D02*
X118869819Y-88622973D01*
X118869819Y-88622973D02*
X119346009Y-88670592D01*
X119346009Y-88670592D02*
X119298390Y-88622973D01*
X119298390Y-88622973D02*
X119250771Y-88527735D01*
X119250771Y-88527735D02*
X119250771Y-88289640D01*
X119250771Y-88289640D02*
X119298390Y-88194402D01*
X119298390Y-88194402D02*
X119346009Y-88146783D01*
X119346009Y-88146783D02*
X119441247Y-88099164D01*
X119441247Y-88099164D02*
X119679342Y-88099164D01*
X119679342Y-88099164D02*
X119774580Y-88146783D01*
X119774580Y-88146783D02*
X119822200Y-88194402D01*
X119822200Y-88194402D02*
X119869819Y-88289640D01*
X119869819Y-88289640D02*
X119869819Y-88527735D01*
X119869819Y-88527735D02*
X119822200Y-88622973D01*
X119822200Y-88622973D02*
X119774580Y-88670592D01*
X118869819Y-87813449D02*
X119869819Y-87480116D01*
X119869819Y-87480116D02*
X118869819Y-87146783D01*
D12*
X131861653Y-50337542D02*
X131175939Y-50337542D01*
X131518796Y-50337542D02*
X131518796Y-49137542D01*
X131518796Y-49137542D02*
X131404510Y-49308971D01*
X131404510Y-49308971D02*
X131290225Y-49423257D01*
X131290225Y-49423257D02*
X131175939Y-49480400D01*
X132318796Y-49251828D02*
X132375939Y-49194685D01*
X132375939Y-49194685D02*
X132490225Y-49137542D01*
X132490225Y-49137542D02*
X132775939Y-49137542D01*
X132775939Y-49137542D02*
X132890225Y-49194685D01*
X132890225Y-49194685D02*
X132947367Y-49251828D01*
X132947367Y-49251828D02*
X133004510Y-49366114D01*
X133004510Y-49366114D02*
X133004510Y-49480400D01*
X133004510Y-49480400D02*
X132947367Y-49651828D01*
X132947367Y-49651828D02*
X132261653Y-50337542D01*
X132261653Y-50337542D02*
X133004510Y-50337542D01*
X133347367Y-49137542D02*
X133747367Y-50337542D01*
X133747367Y-50337542D02*
X134147367Y-49137542D01*
X135461653Y-50337542D02*
X135461653Y-49137542D01*
X135461653Y-49137542D02*
X135918796Y-49137542D01*
X135918796Y-49137542D02*
X136033081Y-49194685D01*
X136033081Y-49194685D02*
X136090224Y-49251828D01*
X136090224Y-49251828D02*
X136147367Y-49366114D01*
X136147367Y-49366114D02*
X136147367Y-49537542D01*
X136147367Y-49537542D02*
X136090224Y-49651828D01*
X136090224Y-49651828D02*
X136033081Y-49708971D01*
X136033081Y-49708971D02*
X135918796Y-49766114D01*
X135918796Y-49766114D02*
X135461653Y-49766114D01*
X136547367Y-49137542D02*
X136833081Y-50337542D01*
X136833081Y-50337542D02*
X137061653Y-49480400D01*
X137061653Y-49480400D02*
X137290224Y-50337542D01*
X137290224Y-50337542D02*
X137575939Y-49137542D01*
X138033082Y-50337542D02*
X138033082Y-49137542D01*
X138033082Y-49137542D02*
X138433082Y-49994685D01*
X138433082Y-49994685D02*
X138833082Y-49137542D01*
X138833082Y-49137542D02*
X138833082Y-50337542D01*
X140718797Y-49708971D02*
X140318797Y-49708971D01*
X140318797Y-50337542D02*
X140318797Y-49137542D01*
X140318797Y-49137542D02*
X140890225Y-49137542D01*
X141290225Y-49994685D02*
X141861654Y-49994685D01*
X141175939Y-50337542D02*
X141575939Y-49137542D01*
X141575939Y-49137542D02*
X141975939Y-50337542D01*
X142375939Y-50337542D02*
X142375939Y-49137542D01*
X142375939Y-49137542D02*
X143061653Y-50337542D01*
X143061653Y-50337542D02*
X143061653Y-49137542D01*
X120983082Y-50380400D02*
X121897368Y-50380400D01*
X121440225Y-50837542D02*
X121440225Y-49923257D01*
X159713082Y-52380400D02*
X160627368Y-52380400D01*
X160170225Y-52837542D02*
X160170225Y-51923257D01*
X127983082Y-50380400D02*
X128897368Y-50380400D01*
X128440225Y-50837542D02*
X128440225Y-49923257D01*
D13*
X126369819Y-91503925D02*
X127369819Y-91170592D01*
X127369819Y-91170592D02*
X126369819Y-90837259D01*
X127322200Y-90551544D02*
X127369819Y-90408687D01*
X127369819Y-90408687D02*
X127369819Y-90170592D01*
X127369819Y-90170592D02*
X127322200Y-90075354D01*
X127322200Y-90075354D02*
X127274580Y-90027735D01*
X127274580Y-90027735D02*
X127179342Y-89980116D01*
X127179342Y-89980116D02*
X127084104Y-89980116D01*
X127084104Y-89980116D02*
X126988866Y-90027735D01*
X126988866Y-90027735D02*
X126941247Y-90075354D01*
X126941247Y-90075354D02*
X126893628Y-90170592D01*
X126893628Y-90170592D02*
X126846009Y-90361068D01*
X126846009Y-90361068D02*
X126798390Y-90456306D01*
X126798390Y-90456306D02*
X126750771Y-90503925D01*
X126750771Y-90503925D02*
X126655533Y-90551544D01*
X126655533Y-90551544D02*
X126560295Y-90551544D01*
X126560295Y-90551544D02*
X126465057Y-90503925D01*
X126465057Y-90503925D02*
X126417438Y-90456306D01*
X126417438Y-90456306D02*
X126369819Y-90361068D01*
X126369819Y-90361068D02*
X126369819Y-90122973D01*
X126369819Y-90122973D02*
X126417438Y-89980116D01*
X126893628Y-89361068D02*
X127369819Y-89361068D01*
X126369819Y-89694401D02*
X126893628Y-89361068D01*
X126893628Y-89361068D02*
X126369819Y-89027735D01*
X127369819Y-88694401D02*
X126369819Y-88694401D01*
X126369819Y-88694401D02*
X127369819Y-88122973D01*
X127369819Y-88122973D02*
X126369819Y-88122973D01*
X127274580Y-87075354D02*
X127322200Y-87122973D01*
X127322200Y-87122973D02*
X127369819Y-87265830D01*
X127369819Y-87265830D02*
X127369819Y-87361068D01*
X127369819Y-87361068D02*
X127322200Y-87503925D01*
X127322200Y-87503925D02*
X127226961Y-87599163D01*
X127226961Y-87599163D02*
X127131723Y-87646782D01*
X127131723Y-87646782D02*
X126941247Y-87694401D01*
X126941247Y-87694401D02*
X126798390Y-87694401D01*
X126798390Y-87694401D02*
X126607914Y-87646782D01*
X126607914Y-87646782D02*
X126512676Y-87599163D01*
X126512676Y-87599163D02*
X126417438Y-87503925D01*
X126417438Y-87503925D02*
X126369819Y-87361068D01*
X126369819Y-87361068D02*
X126369819Y-87265830D01*
X126369819Y-87265830D02*
X126417438Y-87122973D01*
X126417438Y-87122973D02*
X126465057Y-87075354D01*
D12*
X114733082Y-49208971D02*
X115133082Y-49208971D01*
X115304510Y-49837542D02*
X114733082Y-49837542D01*
X114733082Y-49837542D02*
X114733082Y-48637542D01*
X114733082Y-48637542D02*
X115304510Y-48637542D01*
X115704510Y-49837542D02*
X116333082Y-49037542D01*
X115704510Y-49037542D02*
X116333082Y-49837542D01*
X116618796Y-49037542D02*
X117075939Y-49037542D01*
X116790225Y-48637542D02*
X116790225Y-49666114D01*
X116790225Y-49666114D02*
X116847368Y-49780400D01*
X116847368Y-49780400D02*
X116961653Y-49837542D01*
X116961653Y-49837542D02*
X117075939Y-49837542D01*
X118961653Y-49837542D02*
X118390225Y-49837542D01*
X118390225Y-49837542D02*
X118390225Y-48637542D01*
X119361654Y-49208971D02*
X119761654Y-49208971D01*
X119933082Y-49837542D02*
X119361654Y-49837542D01*
X119361654Y-49837542D02*
X119361654Y-48637542D01*
X119361654Y-48637542D02*
X119933082Y-48637542D01*
X120447368Y-49837542D02*
X120447368Y-48637542D01*
X120447368Y-48637542D02*
X120733082Y-48637542D01*
X120733082Y-48637542D02*
X120904511Y-48694685D01*
X120904511Y-48694685D02*
X121018796Y-48808971D01*
X121018796Y-48808971D02*
X121075939Y-48923257D01*
X121075939Y-48923257D02*
X121133082Y-49151828D01*
X121133082Y-49151828D02*
X121133082Y-49323257D01*
X121133082Y-49323257D02*
X121075939Y-49551828D01*
X121075939Y-49551828D02*
X121018796Y-49666114D01*
X121018796Y-49666114D02*
X120904511Y-49780400D01*
X120904511Y-49780400D02*
X120733082Y-49837542D01*
X120733082Y-49837542D02*
X120447368Y-49837542D01*
X172911653Y-64300828D02*
X172411653Y-63586542D01*
X172054510Y-64300828D02*
X172054510Y-62800828D01*
X172054510Y-62800828D02*
X172625939Y-62800828D01*
X172625939Y-62800828D02*
X172768796Y-62872257D01*
X172768796Y-62872257D02*
X172840225Y-62943685D01*
X172840225Y-62943685D02*
X172911653Y-63086542D01*
X172911653Y-63086542D02*
X172911653Y-63300828D01*
X172911653Y-63300828D02*
X172840225Y-63443685D01*
X172840225Y-63443685D02*
X172768796Y-63515114D01*
X172768796Y-63515114D02*
X172625939Y-63586542D01*
X172625939Y-63586542D02*
X172054510Y-63586542D01*
X174125939Y-64229400D02*
X173983082Y-64300828D01*
X173983082Y-64300828D02*
X173697368Y-64300828D01*
X173697368Y-64300828D02*
X173554510Y-64229400D01*
X173554510Y-64229400D02*
X173483082Y-64086542D01*
X173483082Y-64086542D02*
X173483082Y-63515114D01*
X173483082Y-63515114D02*
X173554510Y-63372257D01*
X173554510Y-63372257D02*
X173697368Y-63300828D01*
X173697368Y-63300828D02*
X173983082Y-63300828D01*
X173983082Y-63300828D02*
X174125939Y-63372257D01*
X174125939Y-63372257D02*
X174197368Y-63515114D01*
X174197368Y-63515114D02*
X174197368Y-63657971D01*
X174197368Y-63657971D02*
X173483082Y-63800828D01*
X174768796Y-64229400D02*
X174911653Y-64300828D01*
X174911653Y-64300828D02*
X175197367Y-64300828D01*
X175197367Y-64300828D02*
X175340224Y-64229400D01*
X175340224Y-64229400D02*
X175411653Y-64086542D01*
X175411653Y-64086542D02*
X175411653Y-64015114D01*
X175411653Y-64015114D02*
X175340224Y-63872257D01*
X175340224Y-63872257D02*
X175197367Y-63800828D01*
X175197367Y-63800828D02*
X174983082Y-63800828D01*
X174983082Y-63800828D02*
X174840224Y-63729400D01*
X174840224Y-63729400D02*
X174768796Y-63586542D01*
X174768796Y-63586542D02*
X174768796Y-63515114D01*
X174768796Y-63515114D02*
X174840224Y-63372257D01*
X174840224Y-63372257D02*
X174983082Y-63300828D01*
X174983082Y-63300828D02*
X175197367Y-63300828D01*
X175197367Y-63300828D02*
X175340224Y-63372257D01*
X176625939Y-64229400D02*
X176483082Y-64300828D01*
X176483082Y-64300828D02*
X176197368Y-64300828D01*
X176197368Y-64300828D02*
X176054510Y-64229400D01*
X176054510Y-64229400D02*
X175983082Y-64086542D01*
X175983082Y-64086542D02*
X175983082Y-63515114D01*
X175983082Y-63515114D02*
X176054510Y-63372257D01*
X176054510Y-63372257D02*
X176197368Y-63300828D01*
X176197368Y-63300828D02*
X176483082Y-63300828D01*
X176483082Y-63300828D02*
X176625939Y-63372257D01*
X176625939Y-63372257D02*
X176697368Y-63515114D01*
X176697368Y-63515114D02*
X176697368Y-63657971D01*
X176697368Y-63657971D02*
X175983082Y-63800828D01*
X177125939Y-63300828D02*
X177697367Y-63300828D01*
X177340224Y-62800828D02*
X177340224Y-64086542D01*
X177340224Y-64086542D02*
X177411653Y-64229400D01*
X177411653Y-64229400D02*
X177554510Y-64300828D01*
X177554510Y-64300828D02*
X177697367Y-64300828D01*
X160483082Y-58380400D02*
X161397368Y-58380400D01*
X160940225Y-58837542D02*
X160940225Y-57923257D01*
D13*
X116119819Y-89087259D02*
X116119819Y-89658687D01*
X116119819Y-89372973D02*
X115119819Y-89372973D01*
X115119819Y-89372973D02*
X115262676Y-89468211D01*
X115262676Y-89468211D02*
X115357914Y-89563449D01*
X115357914Y-89563449D02*
X115405533Y-89658687D01*
X115215057Y-88706306D02*
X115167438Y-88658687D01*
X115167438Y-88658687D02*
X115119819Y-88563449D01*
X115119819Y-88563449D02*
X115119819Y-88325354D01*
X115119819Y-88325354D02*
X115167438Y-88230116D01*
X115167438Y-88230116D02*
X115215057Y-88182497D01*
X115215057Y-88182497D02*
X115310295Y-88134878D01*
X115310295Y-88134878D02*
X115405533Y-88134878D01*
X115405533Y-88134878D02*
X115548390Y-88182497D01*
X115548390Y-88182497D02*
X116119819Y-88753925D01*
X116119819Y-88753925D02*
X116119819Y-88134878D01*
X115119819Y-87849163D02*
X116119819Y-87515830D01*
X116119819Y-87515830D02*
X115119819Y-87182497D01*
X137617438Y-89337259D02*
X137569819Y-89432497D01*
X137569819Y-89432497D02*
X137569819Y-89575354D01*
X137569819Y-89575354D02*
X137617438Y-89718211D01*
X137617438Y-89718211D02*
X137712676Y-89813449D01*
X137712676Y-89813449D02*
X137807914Y-89861068D01*
X137807914Y-89861068D02*
X137998390Y-89908687D01*
X137998390Y-89908687D02*
X138141247Y-89908687D01*
X138141247Y-89908687D02*
X138331723Y-89861068D01*
X138331723Y-89861068D02*
X138426961Y-89813449D01*
X138426961Y-89813449D02*
X138522200Y-89718211D01*
X138522200Y-89718211D02*
X138569819Y-89575354D01*
X138569819Y-89575354D02*
X138569819Y-89480116D01*
X138569819Y-89480116D02*
X138522200Y-89337259D01*
X138522200Y-89337259D02*
X138474580Y-89289640D01*
X138474580Y-89289640D02*
X138141247Y-89289640D01*
X138141247Y-89289640D02*
X138141247Y-89480116D01*
X138569819Y-88861068D02*
X137569819Y-88861068D01*
X137569819Y-88861068D02*
X138569819Y-88289640D01*
X138569819Y-88289640D02*
X137569819Y-88289640D01*
X138569819Y-87813449D02*
X137569819Y-87813449D01*
X137569819Y-87813449D02*
X137569819Y-87575354D01*
X137569819Y-87575354D02*
X137617438Y-87432497D01*
X137617438Y-87432497D02*
X137712676Y-87337259D01*
X137712676Y-87337259D02*
X137807914Y-87289640D01*
X137807914Y-87289640D02*
X137998390Y-87242021D01*
X137998390Y-87242021D02*
X138141247Y-87242021D01*
X138141247Y-87242021D02*
X138331723Y-87289640D01*
X138331723Y-87289640D02*
X138426961Y-87337259D01*
X138426961Y-87337259D02*
X138522200Y-87432497D01*
X138522200Y-87432497D02*
X138569819Y-87575354D01*
X138569819Y-87575354D02*
X138569819Y-87813449D01*
D12*
X99554510Y-78300828D02*
X99554510Y-76800828D01*
X99554510Y-76800828D02*
X100125939Y-76800828D01*
X100125939Y-76800828D02*
X100268796Y-76872257D01*
X100268796Y-76872257D02*
X100340225Y-76943685D01*
X100340225Y-76943685D02*
X100411653Y-77086542D01*
X100411653Y-77086542D02*
X100411653Y-77300828D01*
X100411653Y-77300828D02*
X100340225Y-77443685D01*
X100340225Y-77443685D02*
X100268796Y-77515114D01*
X100268796Y-77515114D02*
X100125939Y-77586542D01*
X100125939Y-77586542D02*
X99554510Y-77586542D01*
X100983082Y-78229400D02*
X101197368Y-78300828D01*
X101197368Y-78300828D02*
X101554510Y-78300828D01*
X101554510Y-78300828D02*
X101697368Y-78229400D01*
X101697368Y-78229400D02*
X101768796Y-78157971D01*
X101768796Y-78157971D02*
X101840225Y-78015114D01*
X101840225Y-78015114D02*
X101840225Y-77872257D01*
X101840225Y-77872257D02*
X101768796Y-77729400D01*
X101768796Y-77729400D02*
X101697368Y-77657971D01*
X101697368Y-77657971D02*
X101554510Y-77586542D01*
X101554510Y-77586542D02*
X101268796Y-77515114D01*
X101268796Y-77515114D02*
X101125939Y-77443685D01*
X101125939Y-77443685D02*
X101054510Y-77372257D01*
X101054510Y-77372257D02*
X100983082Y-77229400D01*
X100983082Y-77229400D02*
X100983082Y-77086542D01*
X100983082Y-77086542D02*
X101054510Y-76943685D01*
X101054510Y-76943685D02*
X101125939Y-76872257D01*
X101125939Y-76872257D02*
X101268796Y-76800828D01*
X101268796Y-76800828D02*
X101625939Y-76800828D01*
X101625939Y-76800828D02*
X101840225Y-76872257D01*
X102768796Y-76800828D02*
X103054510Y-76800828D01*
X103054510Y-76800828D02*
X103197367Y-76872257D01*
X103197367Y-76872257D02*
X103340224Y-77015114D01*
X103340224Y-77015114D02*
X103411653Y-77300828D01*
X103411653Y-77300828D02*
X103411653Y-77800828D01*
X103411653Y-77800828D02*
X103340224Y-78086542D01*
X103340224Y-78086542D02*
X103197367Y-78229400D01*
X103197367Y-78229400D02*
X103054510Y-78300828D01*
X103054510Y-78300828D02*
X102768796Y-78300828D01*
X102768796Y-78300828D02*
X102625939Y-78229400D01*
X102625939Y-78229400D02*
X102483081Y-78086542D01*
X102483081Y-78086542D02*
X102411653Y-77800828D01*
X102411653Y-77800828D02*
X102411653Y-77300828D01*
X102411653Y-77300828D02*
X102483081Y-77015114D01*
X102483081Y-77015114D02*
X102625939Y-76872257D01*
X102625939Y-76872257D02*
X102768796Y-76800828D01*
X104054510Y-78300828D02*
X104054510Y-76800828D01*
X104054510Y-76800828D02*
X104911653Y-78300828D01*
X104911653Y-78300828D02*
X104911653Y-76800828D01*
X205483082Y-47880400D02*
X206397368Y-47880400D01*
X205940225Y-48337542D02*
X205940225Y-47423257D01*
D13*
X208511905Y-66204819D02*
X208511905Y-65204819D01*
X208511905Y-65204819D02*
X208892857Y-65204819D01*
X208892857Y-65204819D02*
X208988095Y-65252438D01*
X208988095Y-65252438D02*
X209035714Y-65300057D01*
X209035714Y-65300057D02*
X209083333Y-65395295D01*
X209083333Y-65395295D02*
X209083333Y-65538152D01*
X209083333Y-65538152D02*
X209035714Y-65633390D01*
X209035714Y-65633390D02*
X208988095Y-65681009D01*
X208988095Y-65681009D02*
X208892857Y-65728628D01*
X208892857Y-65728628D02*
X208511905Y-65728628D01*
X210035714Y-66204819D02*
X209464286Y-66204819D01*
X209750000Y-66204819D02*
X209750000Y-65204819D01*
X209750000Y-65204819D02*
X209654762Y-65347676D01*
X209654762Y-65347676D02*
X209559524Y-65442914D01*
X209559524Y-65442914D02*
X209464286Y-65490533D01*
X159940476Y-59204819D02*
X159940476Y-59919104D01*
X159940476Y-59919104D02*
X159892857Y-60061961D01*
X159892857Y-60061961D02*
X159797619Y-60157200D01*
X159797619Y-60157200D02*
X159654762Y-60204819D01*
X159654762Y-60204819D02*
X159559524Y-60204819D01*
X160940476Y-60204819D02*
X160369048Y-60204819D01*
X160654762Y-60204819D02*
X160654762Y-59204819D01*
X160654762Y-59204819D02*
X160559524Y-59347676D01*
X160559524Y-59347676D02*
X160464286Y-59442914D01*
X160464286Y-59442914D02*
X160369048Y-59490533D01*
X161559524Y-59204819D02*
X161654762Y-59204819D01*
X161654762Y-59204819D02*
X161750000Y-59252438D01*
X161750000Y-59252438D02*
X161797619Y-59300057D01*
X161797619Y-59300057D02*
X161845238Y-59395295D01*
X161845238Y-59395295D02*
X161892857Y-59585771D01*
X161892857Y-59585771D02*
X161892857Y-59823866D01*
X161892857Y-59823866D02*
X161845238Y-60014342D01*
X161845238Y-60014342D02*
X161797619Y-60109580D01*
X161797619Y-60109580D02*
X161750000Y-60157200D01*
X161750000Y-60157200D02*
X161654762Y-60204819D01*
X161654762Y-60204819D02*
X161559524Y-60204819D01*
X161559524Y-60204819D02*
X161464286Y-60157200D01*
X161464286Y-60157200D02*
X161416667Y-60109580D01*
X161416667Y-60109580D02*
X161369048Y-60014342D01*
X161369048Y-60014342D02*
X161321429Y-59823866D01*
X161321429Y-59823866D02*
X161321429Y-59585771D01*
X161321429Y-59585771D02*
X161369048Y-59395295D01*
X161369048Y-59395295D02*
X161416667Y-59300057D01*
X161416667Y-59300057D02*
X161464286Y-59252438D01*
X161464286Y-59252438D02*
X161559524Y-59204819D01*
X190825069Y-58407200D02*
X190967926Y-58454819D01*
X190967926Y-58454819D02*
X191206021Y-58454819D01*
X191206021Y-58454819D02*
X191301259Y-58407200D01*
X191301259Y-58407200D02*
X191348878Y-58359580D01*
X191348878Y-58359580D02*
X191396497Y-58264342D01*
X191396497Y-58264342D02*
X191396497Y-58169104D01*
X191396497Y-58169104D02*
X191348878Y-58073866D01*
X191348878Y-58073866D02*
X191301259Y-58026247D01*
X191301259Y-58026247D02*
X191206021Y-57978628D01*
X191206021Y-57978628D02*
X191015545Y-57931009D01*
X191015545Y-57931009D02*
X190920307Y-57883390D01*
X190920307Y-57883390D02*
X190872688Y-57835771D01*
X190872688Y-57835771D02*
X190825069Y-57740533D01*
X190825069Y-57740533D02*
X190825069Y-57645295D01*
X190825069Y-57645295D02*
X190872688Y-57550057D01*
X190872688Y-57550057D02*
X190920307Y-57502438D01*
X190920307Y-57502438D02*
X191015545Y-57454819D01*
X191015545Y-57454819D02*
X191253640Y-57454819D01*
X191253640Y-57454819D02*
X191396497Y-57502438D01*
X191729831Y-57454819D02*
X191967926Y-58454819D01*
X191967926Y-58454819D02*
X192158402Y-57740533D01*
X192158402Y-57740533D02*
X192348878Y-58454819D01*
X192348878Y-58454819D02*
X192586974Y-57454819D01*
X192920307Y-57550057D02*
X192967926Y-57502438D01*
X192967926Y-57502438D02*
X193063164Y-57454819D01*
X193063164Y-57454819D02*
X193301259Y-57454819D01*
X193301259Y-57454819D02*
X193396497Y-57502438D01*
X193396497Y-57502438D02*
X193444116Y-57550057D01*
X193444116Y-57550057D02*
X193491735Y-57645295D01*
X193491735Y-57645295D02*
X193491735Y-57740533D01*
X193491735Y-57740533D02*
X193444116Y-57883390D01*
X193444116Y-57883390D02*
X192872688Y-58454819D01*
X192872688Y-58454819D02*
X193491735Y-58454819D01*
X173166667Y-58407200D02*
X173309524Y-58454819D01*
X173309524Y-58454819D02*
X173547619Y-58454819D01*
X173547619Y-58454819D02*
X173642857Y-58407200D01*
X173642857Y-58407200D02*
X173690476Y-58359580D01*
X173690476Y-58359580D02*
X173738095Y-58264342D01*
X173738095Y-58264342D02*
X173738095Y-58169104D01*
X173738095Y-58169104D02*
X173690476Y-58073866D01*
X173690476Y-58073866D02*
X173642857Y-58026247D01*
X173642857Y-58026247D02*
X173547619Y-57978628D01*
X173547619Y-57978628D02*
X173357143Y-57931009D01*
X173357143Y-57931009D02*
X173261905Y-57883390D01*
X173261905Y-57883390D02*
X173214286Y-57835771D01*
X173214286Y-57835771D02*
X173166667Y-57740533D01*
X173166667Y-57740533D02*
X173166667Y-57645295D01*
X173166667Y-57645295D02*
X173214286Y-57550057D01*
X173214286Y-57550057D02*
X173261905Y-57502438D01*
X173261905Y-57502438D02*
X173357143Y-57454819D01*
X173357143Y-57454819D02*
X173595238Y-57454819D01*
X173595238Y-57454819D02*
X173738095Y-57502438D01*
X174071429Y-57454819D02*
X174309524Y-58454819D01*
X174309524Y-58454819D02*
X174500000Y-57740533D01*
X174500000Y-57740533D02*
X174690476Y-58454819D01*
X174690476Y-58454819D02*
X174928572Y-57454819D01*
X175738095Y-57788152D02*
X175738095Y-58454819D01*
X175500000Y-57407200D02*
X175261905Y-58121485D01*
X175261905Y-58121485D02*
X175880952Y-58121485D01*
X106440476Y-94954819D02*
X106440476Y-95669104D01*
X106440476Y-95669104D02*
X106392857Y-95811961D01*
X106392857Y-95811961D02*
X106297619Y-95907200D01*
X106297619Y-95907200D02*
X106154762Y-95954819D01*
X106154762Y-95954819D02*
X106059524Y-95954819D01*
X107440476Y-95954819D02*
X106869048Y-95954819D01*
X107154762Y-95954819D02*
X107154762Y-94954819D01*
X107154762Y-94954819D02*
X107059524Y-95097676D01*
X107059524Y-95097676D02*
X106964286Y-95192914D01*
X106964286Y-95192914D02*
X106869048Y-95240533D01*
X108392857Y-95954819D02*
X107821429Y-95954819D01*
X108107143Y-95954819D02*
X108107143Y-94954819D01*
X108107143Y-94954819D02*
X108011905Y-95097676D01*
X108011905Y-95097676D02*
X107916667Y-95192914D01*
X107916667Y-95192914D02*
X107821429Y-95240533D01*
X112416666Y-53367844D02*
X112416666Y-54082129D01*
X112416666Y-54082129D02*
X112369047Y-54224986D01*
X112369047Y-54224986D02*
X112273809Y-54320225D01*
X112273809Y-54320225D02*
X112130952Y-54367844D01*
X112130952Y-54367844D02*
X112035714Y-54367844D01*
X113321428Y-53367844D02*
X113130952Y-53367844D01*
X113130952Y-53367844D02*
X113035714Y-53415463D01*
X113035714Y-53415463D02*
X112988095Y-53463082D01*
X112988095Y-53463082D02*
X112892857Y-53605939D01*
X112892857Y-53605939D02*
X112845238Y-53796415D01*
X112845238Y-53796415D02*
X112845238Y-54177367D01*
X112845238Y-54177367D02*
X112892857Y-54272605D01*
X112892857Y-54272605D02*
X112940476Y-54320225D01*
X112940476Y-54320225D02*
X113035714Y-54367844D01*
X113035714Y-54367844D02*
X113226190Y-54367844D01*
X113226190Y-54367844D02*
X113321428Y-54320225D01*
X113321428Y-54320225D02*
X113369047Y-54272605D01*
X113369047Y-54272605D02*
X113416666Y-54177367D01*
X113416666Y-54177367D02*
X113416666Y-53939272D01*
X113416666Y-53939272D02*
X113369047Y-53844034D01*
X113369047Y-53844034D02*
X113321428Y-53796415D01*
X113321428Y-53796415D02*
X113226190Y-53748796D01*
X113226190Y-53748796D02*
X113035714Y-53748796D01*
X113035714Y-53748796D02*
X112940476Y-53796415D01*
X112940476Y-53796415D02*
X112892857Y-53844034D01*
X112892857Y-53844034D02*
X112845238Y-53939272D01*
X129666666Y-52204819D02*
X129666666Y-52919104D01*
X129666666Y-52919104D02*
X129619047Y-53061961D01*
X129619047Y-53061961D02*
X129523809Y-53157200D01*
X129523809Y-53157200D02*
X129380952Y-53204819D01*
X129380952Y-53204819D02*
X129285714Y-53204819D01*
X130571428Y-52538152D02*
X130571428Y-53204819D01*
X130333333Y-52157200D02*
X130095238Y-52871485D01*
X130095238Y-52871485D02*
X130714285Y-52871485D01*
X173596191Y-77461644D02*
X173596191Y-78175929D01*
X173596191Y-78175929D02*
X173548572Y-78318786D01*
X173548572Y-78318786D02*
X173453334Y-78414025D01*
X173453334Y-78414025D02*
X173310477Y-78461644D01*
X173310477Y-78461644D02*
X173215239Y-78461644D01*
X174072382Y-78461644D02*
X174072382Y-77461644D01*
X174072382Y-77461644D02*
X174453334Y-77461644D01*
X174453334Y-77461644D02*
X174548572Y-77509263D01*
X174548572Y-77509263D02*
X174596191Y-77556882D01*
X174596191Y-77556882D02*
X174643810Y-77652120D01*
X174643810Y-77652120D02*
X174643810Y-77794977D01*
X174643810Y-77794977D02*
X174596191Y-77890215D01*
X174596191Y-77890215D02*
X174548572Y-77937834D01*
X174548572Y-77937834D02*
X174453334Y-77985453D01*
X174453334Y-77985453D02*
X174072382Y-77985453D01*
X175500953Y-77794977D02*
X175500953Y-78461644D01*
X175262858Y-77414025D02*
X175024763Y-78128310D01*
X175024763Y-78128310D02*
X175643810Y-78128310D01*
X104166666Y-50954819D02*
X104166666Y-51669104D01*
X104166666Y-51669104D02*
X104119047Y-51811961D01*
X104119047Y-51811961D02*
X104023809Y-51907200D01*
X104023809Y-51907200D02*
X103880952Y-51954819D01*
X103880952Y-51954819D02*
X103785714Y-51954819D01*
X104690476Y-51954819D02*
X104880952Y-51954819D01*
X104880952Y-51954819D02*
X104976190Y-51907200D01*
X104976190Y-51907200D02*
X105023809Y-51859580D01*
X105023809Y-51859580D02*
X105119047Y-51716723D01*
X105119047Y-51716723D02*
X105166666Y-51526247D01*
X105166666Y-51526247D02*
X105166666Y-51145295D01*
X105166666Y-51145295D02*
X105119047Y-51050057D01*
X105119047Y-51050057D02*
X105071428Y-51002438D01*
X105071428Y-51002438D02*
X104976190Y-50954819D01*
X104976190Y-50954819D02*
X104785714Y-50954819D01*
X104785714Y-50954819D02*
X104690476Y-51002438D01*
X104690476Y-51002438D02*
X104642857Y-51050057D01*
X104642857Y-51050057D02*
X104595238Y-51145295D01*
X104595238Y-51145295D02*
X104595238Y-51383390D01*
X104595238Y-51383390D02*
X104642857Y-51478628D01*
X104642857Y-51478628D02*
X104690476Y-51526247D01*
X104690476Y-51526247D02*
X104785714Y-51573866D01*
X104785714Y-51573866D02*
X104976190Y-51573866D01*
X104976190Y-51573866D02*
X105071428Y-51526247D01*
X105071428Y-51526247D02*
X105119047Y-51478628D01*
X105119047Y-51478628D02*
X105166666Y-51383390D01*
X173611191Y-74820044D02*
X173611191Y-75534329D01*
X173611191Y-75534329D02*
X173563572Y-75677186D01*
X173563572Y-75677186D02*
X173468334Y-75772425D01*
X173468334Y-75772425D02*
X173325477Y-75820044D01*
X173325477Y-75820044D02*
X173230239Y-75820044D01*
X174087382Y-75820044D02*
X174087382Y-74820044D01*
X174087382Y-74820044D02*
X174468334Y-74820044D01*
X174468334Y-74820044D02*
X174563572Y-74867663D01*
X174563572Y-74867663D02*
X174611191Y-74915282D01*
X174611191Y-74915282D02*
X174658810Y-75010520D01*
X174658810Y-75010520D02*
X174658810Y-75153377D01*
X174658810Y-75153377D02*
X174611191Y-75248615D01*
X174611191Y-75248615D02*
X174563572Y-75296234D01*
X174563572Y-75296234D02*
X174468334Y-75343853D01*
X174468334Y-75343853D02*
X174087382Y-75343853D01*
X175611191Y-75820044D02*
X175039763Y-75820044D01*
X175325477Y-75820044D02*
X175325477Y-74820044D01*
X175325477Y-74820044D02*
X175230239Y-74962901D01*
X175230239Y-74962901D02*
X175135001Y-75058139D01*
X175135001Y-75058139D02*
X175039763Y-75105758D01*
X182166667Y-58407200D02*
X182309524Y-58454819D01*
X182309524Y-58454819D02*
X182547619Y-58454819D01*
X182547619Y-58454819D02*
X182642857Y-58407200D01*
X182642857Y-58407200D02*
X182690476Y-58359580D01*
X182690476Y-58359580D02*
X182738095Y-58264342D01*
X182738095Y-58264342D02*
X182738095Y-58169104D01*
X182738095Y-58169104D02*
X182690476Y-58073866D01*
X182690476Y-58073866D02*
X182642857Y-58026247D01*
X182642857Y-58026247D02*
X182547619Y-57978628D01*
X182547619Y-57978628D02*
X182357143Y-57931009D01*
X182357143Y-57931009D02*
X182261905Y-57883390D01*
X182261905Y-57883390D02*
X182214286Y-57835771D01*
X182214286Y-57835771D02*
X182166667Y-57740533D01*
X182166667Y-57740533D02*
X182166667Y-57645295D01*
X182166667Y-57645295D02*
X182214286Y-57550057D01*
X182214286Y-57550057D02*
X182261905Y-57502438D01*
X182261905Y-57502438D02*
X182357143Y-57454819D01*
X182357143Y-57454819D02*
X182595238Y-57454819D01*
X182595238Y-57454819D02*
X182738095Y-57502438D01*
X183071429Y-57454819D02*
X183309524Y-58454819D01*
X183309524Y-58454819D02*
X183500000Y-57740533D01*
X183500000Y-57740533D02*
X183690476Y-58454819D01*
X183690476Y-58454819D02*
X183928572Y-57454819D01*
X184214286Y-57454819D02*
X184833333Y-57454819D01*
X184833333Y-57454819D02*
X184500000Y-57835771D01*
X184500000Y-57835771D02*
X184642857Y-57835771D01*
X184642857Y-57835771D02*
X184738095Y-57883390D01*
X184738095Y-57883390D02*
X184785714Y-57931009D01*
X184785714Y-57931009D02*
X184833333Y-58026247D01*
X184833333Y-58026247D02*
X184833333Y-58264342D01*
X184833333Y-58264342D02*
X184785714Y-58359580D01*
X184785714Y-58359580D02*
X184738095Y-58407200D01*
X184738095Y-58407200D02*
X184642857Y-58454819D01*
X184642857Y-58454819D02*
X184357143Y-58454819D01*
X184357143Y-58454819D02*
X184261905Y-58407200D01*
X184261905Y-58407200D02*
X184214286Y-58359580D01*
X165261905Y-66204819D02*
X165261905Y-65204819D01*
X165261905Y-65204819D02*
X165500000Y-65204819D01*
X165500000Y-65204819D02*
X165642857Y-65252438D01*
X165642857Y-65252438D02*
X165738095Y-65347676D01*
X165738095Y-65347676D02*
X165785714Y-65442914D01*
X165785714Y-65442914D02*
X165833333Y-65633390D01*
X165833333Y-65633390D02*
X165833333Y-65776247D01*
X165833333Y-65776247D02*
X165785714Y-65966723D01*
X165785714Y-65966723D02*
X165738095Y-66061961D01*
X165738095Y-66061961D02*
X165642857Y-66157200D01*
X165642857Y-66157200D02*
X165500000Y-66204819D01*
X165500000Y-66204819D02*
X165261905Y-66204819D01*
X166214286Y-65300057D02*
X166261905Y-65252438D01*
X166261905Y-65252438D02*
X166357143Y-65204819D01*
X166357143Y-65204819D02*
X166595238Y-65204819D01*
X166595238Y-65204819D02*
X166690476Y-65252438D01*
X166690476Y-65252438D02*
X166738095Y-65300057D01*
X166738095Y-65300057D02*
X166785714Y-65395295D01*
X166785714Y-65395295D02*
X166785714Y-65490533D01*
X166785714Y-65490533D02*
X166738095Y-65633390D01*
X166738095Y-65633390D02*
X166166667Y-66204819D01*
X166166667Y-66204819D02*
X166785714Y-66204819D01*
X99669104Y-73488095D02*
X99669104Y-73011905D01*
X99954819Y-73583333D02*
X98954819Y-73250000D01*
X98954819Y-73250000D02*
X99954819Y-72916667D01*
X98954819Y-72726190D02*
X98954819Y-72154762D01*
X99954819Y-72440476D02*
X98954819Y-72440476D01*
X98954819Y-71916666D02*
X99954819Y-71250000D01*
X98954819Y-71250000D02*
X99954819Y-71916666D01*
X99859580Y-69535714D02*
X99907200Y-69583333D01*
X99907200Y-69583333D02*
X99954819Y-69726190D01*
X99954819Y-69726190D02*
X99954819Y-69821428D01*
X99954819Y-69821428D02*
X99907200Y-69964285D01*
X99907200Y-69964285D02*
X99811961Y-70059523D01*
X99811961Y-70059523D02*
X99716723Y-70107142D01*
X99716723Y-70107142D02*
X99526247Y-70154761D01*
X99526247Y-70154761D02*
X99383390Y-70154761D01*
X99383390Y-70154761D02*
X99192914Y-70107142D01*
X99192914Y-70107142D02*
X99097676Y-70059523D01*
X99097676Y-70059523D02*
X99002438Y-69964285D01*
X99002438Y-69964285D02*
X98954819Y-69821428D01*
X98954819Y-69821428D02*
X98954819Y-69726190D01*
X98954819Y-69726190D02*
X99002438Y-69583333D01*
X99002438Y-69583333D02*
X99050057Y-69535714D01*
X99954819Y-68964285D02*
X99907200Y-69059523D01*
X99907200Y-69059523D02*
X99859580Y-69107142D01*
X99859580Y-69107142D02*
X99764342Y-69154761D01*
X99764342Y-69154761D02*
X99478628Y-69154761D01*
X99478628Y-69154761D02*
X99383390Y-69107142D01*
X99383390Y-69107142D02*
X99335771Y-69059523D01*
X99335771Y-69059523D02*
X99288152Y-68964285D01*
X99288152Y-68964285D02*
X99288152Y-68821428D01*
X99288152Y-68821428D02*
X99335771Y-68726190D01*
X99335771Y-68726190D02*
X99383390Y-68678571D01*
X99383390Y-68678571D02*
X99478628Y-68630952D01*
X99478628Y-68630952D02*
X99764342Y-68630952D01*
X99764342Y-68630952D02*
X99859580Y-68678571D01*
X99859580Y-68678571D02*
X99907200Y-68726190D01*
X99907200Y-68726190D02*
X99954819Y-68821428D01*
X99954819Y-68821428D02*
X99954819Y-68964285D01*
X99288152Y-68202380D02*
X99954819Y-68202380D01*
X99383390Y-68202380D02*
X99335771Y-68154761D01*
X99335771Y-68154761D02*
X99288152Y-68059523D01*
X99288152Y-68059523D02*
X99288152Y-67916666D01*
X99288152Y-67916666D02*
X99335771Y-67821428D01*
X99335771Y-67821428D02*
X99431009Y-67773809D01*
X99431009Y-67773809D02*
X99954819Y-67773809D01*
X99288152Y-67297618D02*
X99954819Y-67297618D01*
X99383390Y-67297618D02*
X99335771Y-67249999D01*
X99335771Y-67249999D02*
X99288152Y-67154761D01*
X99288152Y-67154761D02*
X99288152Y-67011904D01*
X99288152Y-67011904D02*
X99335771Y-66916666D01*
X99335771Y-66916666D02*
X99431009Y-66869047D01*
X99431009Y-66869047D02*
X99954819Y-66869047D01*
X99907200Y-66011904D02*
X99954819Y-66107142D01*
X99954819Y-66107142D02*
X99954819Y-66297618D01*
X99954819Y-66297618D02*
X99907200Y-66392856D01*
X99907200Y-66392856D02*
X99811961Y-66440475D01*
X99811961Y-66440475D02*
X99431009Y-66440475D01*
X99431009Y-66440475D02*
X99335771Y-66392856D01*
X99335771Y-66392856D02*
X99288152Y-66297618D01*
X99288152Y-66297618D02*
X99288152Y-66107142D01*
X99288152Y-66107142D02*
X99335771Y-66011904D01*
X99335771Y-66011904D02*
X99431009Y-65964285D01*
X99431009Y-65964285D02*
X99526247Y-65964285D01*
X99526247Y-65964285D02*
X99621485Y-66440475D01*
X99907200Y-65107142D02*
X99954819Y-65202380D01*
X99954819Y-65202380D02*
X99954819Y-65392856D01*
X99954819Y-65392856D02*
X99907200Y-65488094D01*
X99907200Y-65488094D02*
X99859580Y-65535713D01*
X99859580Y-65535713D02*
X99764342Y-65583332D01*
X99764342Y-65583332D02*
X99478628Y-65583332D01*
X99478628Y-65583332D02*
X99383390Y-65535713D01*
X99383390Y-65535713D02*
X99335771Y-65488094D01*
X99335771Y-65488094D02*
X99288152Y-65392856D01*
X99288152Y-65392856D02*
X99288152Y-65202380D01*
X99288152Y-65202380D02*
X99335771Y-65107142D01*
X99288152Y-64821427D02*
X99288152Y-64440475D01*
X98954819Y-64678570D02*
X99811961Y-64678570D01*
X99811961Y-64678570D02*
X99907200Y-64630951D01*
X99907200Y-64630951D02*
X99954819Y-64535713D01*
X99954819Y-64535713D02*
X99954819Y-64440475D01*
X99954819Y-63964284D02*
X99907200Y-64059522D01*
X99907200Y-64059522D02*
X99859580Y-64107141D01*
X99859580Y-64107141D02*
X99764342Y-64154760D01*
X99764342Y-64154760D02*
X99478628Y-64154760D01*
X99478628Y-64154760D02*
X99383390Y-64107141D01*
X99383390Y-64107141D02*
X99335771Y-64059522D01*
X99335771Y-64059522D02*
X99288152Y-63964284D01*
X99288152Y-63964284D02*
X99288152Y-63821427D01*
X99288152Y-63821427D02*
X99335771Y-63726189D01*
X99335771Y-63726189D02*
X99383390Y-63678570D01*
X99383390Y-63678570D02*
X99478628Y-63630951D01*
X99478628Y-63630951D02*
X99764342Y-63630951D01*
X99764342Y-63630951D02*
X99859580Y-63678570D01*
X99859580Y-63678570D02*
X99907200Y-63726189D01*
X99907200Y-63726189D02*
X99954819Y-63821427D01*
X99954819Y-63821427D02*
X99954819Y-63964284D01*
X99954819Y-63202379D02*
X99288152Y-63202379D01*
X99478628Y-63202379D02*
X99383390Y-63154760D01*
X99383390Y-63154760D02*
X99335771Y-63107141D01*
X99335771Y-63107141D02*
X99288152Y-63011903D01*
X99288152Y-63011903D02*
X99288152Y-62916665D01*
X106690476Y-81954819D02*
X106690476Y-82669104D01*
X106690476Y-82669104D02*
X106642857Y-82811961D01*
X106642857Y-82811961D02*
X106547619Y-82907200D01*
X106547619Y-82907200D02*
X106404762Y-82954819D01*
X106404762Y-82954819D02*
X106309524Y-82954819D01*
X107690476Y-82954819D02*
X107119048Y-82954819D01*
X107404762Y-82954819D02*
X107404762Y-81954819D01*
X107404762Y-81954819D02*
X107309524Y-82097676D01*
X107309524Y-82097676D02*
X107214286Y-82192914D01*
X107214286Y-82192914D02*
X107119048Y-82240533D01*
X108023810Y-81954819D02*
X108642857Y-81954819D01*
X108642857Y-81954819D02*
X108309524Y-82335771D01*
X108309524Y-82335771D02*
X108452381Y-82335771D01*
X108452381Y-82335771D02*
X108547619Y-82383390D01*
X108547619Y-82383390D02*
X108595238Y-82431009D01*
X108595238Y-82431009D02*
X108642857Y-82526247D01*
X108642857Y-82526247D02*
X108642857Y-82764342D01*
X108642857Y-82764342D02*
X108595238Y-82859580D01*
X108595238Y-82859580D02*
X108547619Y-82907200D01*
X108547619Y-82907200D02*
X108452381Y-82954819D01*
X108452381Y-82954819D02*
X108166667Y-82954819D01*
X108166667Y-82954819D02*
X108071429Y-82907200D01*
X108071429Y-82907200D02*
X108023810Y-82859580D01*
X130166666Y-58454819D02*
X130166666Y-59169104D01*
X130166666Y-59169104D02*
X130119047Y-59311961D01*
X130119047Y-59311961D02*
X130023809Y-59407200D01*
X130023809Y-59407200D02*
X129880952Y-59454819D01*
X129880952Y-59454819D02*
X129785714Y-59454819D01*
X130785714Y-58883390D02*
X130690476Y-58835771D01*
X130690476Y-58835771D02*
X130642857Y-58788152D01*
X130642857Y-58788152D02*
X130595238Y-58692914D01*
X130595238Y-58692914D02*
X130595238Y-58645295D01*
X130595238Y-58645295D02*
X130642857Y-58550057D01*
X130642857Y-58550057D02*
X130690476Y-58502438D01*
X130690476Y-58502438D02*
X130785714Y-58454819D01*
X130785714Y-58454819D02*
X130976190Y-58454819D01*
X130976190Y-58454819D02*
X131071428Y-58502438D01*
X131071428Y-58502438D02*
X131119047Y-58550057D01*
X131119047Y-58550057D02*
X131166666Y-58645295D01*
X131166666Y-58645295D02*
X131166666Y-58692914D01*
X131166666Y-58692914D02*
X131119047Y-58788152D01*
X131119047Y-58788152D02*
X131071428Y-58835771D01*
X131071428Y-58835771D02*
X130976190Y-58883390D01*
X130976190Y-58883390D02*
X130785714Y-58883390D01*
X130785714Y-58883390D02*
X130690476Y-58931009D01*
X130690476Y-58931009D02*
X130642857Y-58978628D01*
X130642857Y-58978628D02*
X130595238Y-59073866D01*
X130595238Y-59073866D02*
X130595238Y-59264342D01*
X130595238Y-59264342D02*
X130642857Y-59359580D01*
X130642857Y-59359580D02*
X130690476Y-59407200D01*
X130690476Y-59407200D02*
X130785714Y-59454819D01*
X130785714Y-59454819D02*
X130976190Y-59454819D01*
X130976190Y-59454819D02*
X131071428Y-59407200D01*
X131071428Y-59407200D02*
X131119047Y-59359580D01*
X131119047Y-59359580D02*
X131166666Y-59264342D01*
X131166666Y-59264342D02*
X131166666Y-59073866D01*
X131166666Y-59073866D02*
X131119047Y-58978628D01*
X131119047Y-58978628D02*
X131071428Y-58931009D01*
X131071428Y-58931009D02*
X130976190Y-58883390D01*
X155336380Y-74418910D02*
X155336380Y-73418910D01*
X155336380Y-73418910D02*
X155717332Y-73418910D01*
X155717332Y-73418910D02*
X155812570Y-73466529D01*
X155812570Y-73466529D02*
X155860189Y-73514148D01*
X155860189Y-73514148D02*
X155907808Y-73609386D01*
X155907808Y-73609386D02*
X155907808Y-73752243D01*
X155907808Y-73752243D02*
X155860189Y-73847481D01*
X155860189Y-73847481D02*
X155812570Y-73895100D01*
X155812570Y-73895100D02*
X155717332Y-73942719D01*
X155717332Y-73942719D02*
X155336380Y-73942719D01*
X156764951Y-73752243D02*
X156764951Y-74418910D01*
X156526856Y-73371291D02*
X156288761Y-74085576D01*
X156288761Y-74085576D02*
X156907808Y-74085576D01*
X165511905Y-46554819D02*
X165511905Y-45554819D01*
X165511905Y-45554819D02*
X165750000Y-45554819D01*
X165750000Y-45554819D02*
X165892857Y-45602438D01*
X165892857Y-45602438D02*
X165988095Y-45697676D01*
X165988095Y-45697676D02*
X166035714Y-45792914D01*
X166035714Y-45792914D02*
X166083333Y-45983390D01*
X166083333Y-45983390D02*
X166083333Y-46126247D01*
X166083333Y-46126247D02*
X166035714Y-46316723D01*
X166035714Y-46316723D02*
X165988095Y-46411961D01*
X165988095Y-46411961D02*
X165892857Y-46507200D01*
X165892857Y-46507200D02*
X165750000Y-46554819D01*
X165750000Y-46554819D02*
X165511905Y-46554819D01*
X167035714Y-46554819D02*
X166464286Y-46554819D01*
X166750000Y-46554819D02*
X166750000Y-45554819D01*
X166750000Y-45554819D02*
X166654762Y-45697676D01*
X166654762Y-45697676D02*
X166559524Y-45792914D01*
X166559524Y-45792914D02*
X166464286Y-45840533D01*
X199825069Y-58407200D02*
X199967926Y-58454819D01*
X199967926Y-58454819D02*
X200206021Y-58454819D01*
X200206021Y-58454819D02*
X200301259Y-58407200D01*
X200301259Y-58407200D02*
X200348878Y-58359580D01*
X200348878Y-58359580D02*
X200396497Y-58264342D01*
X200396497Y-58264342D02*
X200396497Y-58169104D01*
X200396497Y-58169104D02*
X200348878Y-58073866D01*
X200348878Y-58073866D02*
X200301259Y-58026247D01*
X200301259Y-58026247D02*
X200206021Y-57978628D01*
X200206021Y-57978628D02*
X200015545Y-57931009D01*
X200015545Y-57931009D02*
X199920307Y-57883390D01*
X199920307Y-57883390D02*
X199872688Y-57835771D01*
X199872688Y-57835771D02*
X199825069Y-57740533D01*
X199825069Y-57740533D02*
X199825069Y-57645295D01*
X199825069Y-57645295D02*
X199872688Y-57550057D01*
X199872688Y-57550057D02*
X199920307Y-57502438D01*
X199920307Y-57502438D02*
X200015545Y-57454819D01*
X200015545Y-57454819D02*
X200253640Y-57454819D01*
X200253640Y-57454819D02*
X200396497Y-57502438D01*
X200729831Y-57454819D02*
X200967926Y-58454819D01*
X200967926Y-58454819D02*
X201158402Y-57740533D01*
X201158402Y-57740533D02*
X201348878Y-58454819D01*
X201348878Y-58454819D02*
X201586974Y-57454819D01*
X202491735Y-58454819D02*
X201920307Y-58454819D01*
X202206021Y-58454819D02*
X202206021Y-57454819D01*
X202206021Y-57454819D02*
X202110783Y-57597676D01*
X202110783Y-57597676D02*
X202015545Y-57692914D01*
X202015545Y-57692914D02*
X201920307Y-57740533D01*
X159666666Y-53454819D02*
X159666666Y-54169104D01*
X159666666Y-54169104D02*
X159619047Y-54311961D01*
X159619047Y-54311961D02*
X159523809Y-54407200D01*
X159523809Y-54407200D02*
X159380952Y-54454819D01*
X159380952Y-54454819D02*
X159285714Y-54454819D01*
X160047619Y-53454819D02*
X160714285Y-53454819D01*
X160714285Y-53454819D02*
X160285714Y-54454819D01*
X117511905Y-61704819D02*
X117511905Y-60704819D01*
X117511905Y-60704819D02*
X117750000Y-60704819D01*
X117750000Y-60704819D02*
X117892857Y-60752438D01*
X117892857Y-60752438D02*
X117988095Y-60847676D01*
X117988095Y-60847676D02*
X118035714Y-60942914D01*
X118035714Y-60942914D02*
X118083333Y-61133390D01*
X118083333Y-61133390D02*
X118083333Y-61276247D01*
X118083333Y-61276247D02*
X118035714Y-61466723D01*
X118035714Y-61466723D02*
X117988095Y-61561961D01*
X117988095Y-61561961D02*
X117892857Y-61657200D01*
X117892857Y-61657200D02*
X117750000Y-61704819D01*
X117750000Y-61704819D02*
X117511905Y-61704819D01*
X118940476Y-61038152D02*
X118940476Y-61704819D01*
X118702381Y-60657200D02*
X118464286Y-61371485D01*
X118464286Y-61371485D02*
X119083333Y-61371485D01*
X199993264Y-45302617D02*
X199993264Y-46016902D01*
X199993264Y-46016902D02*
X199945645Y-46159759D01*
X199945645Y-46159759D02*
X199850407Y-46254998D01*
X199850407Y-46254998D02*
X199707550Y-46302617D01*
X199707550Y-46302617D02*
X199612312Y-46302617D01*
X200374217Y-45302617D02*
X200993264Y-45302617D01*
X200993264Y-45302617D02*
X200659931Y-45683569D01*
X200659931Y-45683569D02*
X200802788Y-45683569D01*
X200802788Y-45683569D02*
X200898026Y-45731188D01*
X200898026Y-45731188D02*
X200945645Y-45778807D01*
X200945645Y-45778807D02*
X200993264Y-45874045D01*
X200993264Y-45874045D02*
X200993264Y-46112140D01*
X200993264Y-46112140D02*
X200945645Y-46207378D01*
X200945645Y-46207378D02*
X200898026Y-46254998D01*
X200898026Y-46254998D02*
X200802788Y-46302617D01*
X200802788Y-46302617D02*
X200517074Y-46302617D01*
X200517074Y-46302617D02*
X200421836Y-46254998D01*
X200421836Y-46254998D02*
X200374217Y-46207378D01*
X139190476Y-54454819D02*
X139190476Y-55169104D01*
X139190476Y-55169104D02*
X139142857Y-55311961D01*
X139142857Y-55311961D02*
X139047619Y-55407200D01*
X139047619Y-55407200D02*
X138904762Y-55454819D01*
X138904762Y-55454819D02*
X138809524Y-55454819D01*
X140190476Y-55454819D02*
X139619048Y-55454819D01*
X139904762Y-55454819D02*
X139904762Y-54454819D01*
X139904762Y-54454819D02*
X139809524Y-54597676D01*
X139809524Y-54597676D02*
X139714286Y-54692914D01*
X139714286Y-54692914D02*
X139619048Y-54740533D01*
X140571429Y-54550057D02*
X140619048Y-54502438D01*
X140619048Y-54502438D02*
X140714286Y-54454819D01*
X140714286Y-54454819D02*
X140952381Y-54454819D01*
X140952381Y-54454819D02*
X141047619Y-54502438D01*
X141047619Y-54502438D02*
X141095238Y-54550057D01*
X141095238Y-54550057D02*
X141142857Y-54645295D01*
X141142857Y-54645295D02*
X141142857Y-54740533D01*
X141142857Y-54740533D02*
X141095238Y-54883390D01*
X141095238Y-54883390D02*
X140523810Y-55454819D01*
X140523810Y-55454819D02*
X141142857Y-55454819D01*
X173575391Y-80027044D02*
X173575391Y-80741329D01*
X173575391Y-80741329D02*
X173527772Y-80884186D01*
X173527772Y-80884186D02*
X173432534Y-80979425D01*
X173432534Y-80979425D02*
X173289677Y-81027044D01*
X173289677Y-81027044D02*
X173194439Y-81027044D01*
X174051582Y-81027044D02*
X174051582Y-80027044D01*
X174051582Y-80027044D02*
X174432534Y-80027044D01*
X174432534Y-80027044D02*
X174527772Y-80074663D01*
X174527772Y-80074663D02*
X174575391Y-80122282D01*
X174575391Y-80122282D02*
X174623010Y-80217520D01*
X174623010Y-80217520D02*
X174623010Y-80360377D01*
X174623010Y-80360377D02*
X174575391Y-80455615D01*
X174575391Y-80455615D02*
X174527772Y-80503234D01*
X174527772Y-80503234D02*
X174432534Y-80550853D01*
X174432534Y-80550853D02*
X174051582Y-80550853D01*
X175003963Y-80122282D02*
X175051582Y-80074663D01*
X175051582Y-80074663D02*
X175146820Y-80027044D01*
X175146820Y-80027044D02*
X175384915Y-80027044D01*
X175384915Y-80027044D02*
X175480153Y-80074663D01*
X175480153Y-80074663D02*
X175527772Y-80122282D01*
X175527772Y-80122282D02*
X175575391Y-80217520D01*
X175575391Y-80217520D02*
X175575391Y-80312758D01*
X175575391Y-80312758D02*
X175527772Y-80455615D01*
X175527772Y-80455615D02*
X174956344Y-81027044D01*
X174956344Y-81027044D02*
X175575391Y-81027044D01*
X97666666Y-50954819D02*
X97666666Y-51669104D01*
X97666666Y-51669104D02*
X97619047Y-51811961D01*
X97619047Y-51811961D02*
X97523809Y-51907200D01*
X97523809Y-51907200D02*
X97380952Y-51954819D01*
X97380952Y-51954819D02*
X97285714Y-51954819D01*
X98619047Y-50954819D02*
X98142857Y-50954819D01*
X98142857Y-50954819D02*
X98095238Y-51431009D01*
X98095238Y-51431009D02*
X98142857Y-51383390D01*
X98142857Y-51383390D02*
X98238095Y-51335771D01*
X98238095Y-51335771D02*
X98476190Y-51335771D01*
X98476190Y-51335771D02*
X98571428Y-51383390D01*
X98571428Y-51383390D02*
X98619047Y-51431009D01*
X98619047Y-51431009D02*
X98666666Y-51526247D01*
X98666666Y-51526247D02*
X98666666Y-51764342D01*
X98666666Y-51764342D02*
X98619047Y-51859580D01*
X98619047Y-51859580D02*
X98571428Y-51907200D01*
X98571428Y-51907200D02*
X98476190Y-51954819D01*
X98476190Y-51954819D02*
X98238095Y-51954819D01*
X98238095Y-51954819D02*
X98142857Y-51907200D01*
X98142857Y-51907200D02*
X98095238Y-51859580D01*
D14*
%TO.C,P1*%
X157104475Y-67274091D02*
X157104475Y-72474091D01*
X205424475Y-69874091D02*
X205424475Y-72474091D01*
X205424475Y-72474091D02*
X157104475Y-72474091D01*
X208024475Y-67274091D02*
X157104475Y-67274091D01*
X208024475Y-67274091D02*
X208024475Y-69874091D01*
X208024475Y-69874091D02*
X205424475Y-69874091D01*
X208024475Y-71144091D02*
X208024475Y-72474091D01*
X208024475Y-72474091D02*
X206694475Y-72474091D01*
%TO.C,J10*%
X164420000Y-61080000D02*
X164420000Y-59750000D01*
X165750000Y-61080000D02*
X164420000Y-61080000D01*
X167020000Y-58420000D02*
X169620000Y-58420000D01*
X167020000Y-61080000D02*
X167020000Y-58420000D01*
X167020000Y-61080000D02*
X169620000Y-61080000D01*
X169620000Y-61080000D02*
X169620000Y-58420000D01*
%TO.C,SW2*%
X189138402Y-55462202D02*
X189138402Y-59962202D01*
X191638402Y-61212202D02*
X193138402Y-61212202D01*
X193138402Y-54212202D02*
X191638402Y-54212202D01*
X195638402Y-59962202D02*
X195638402Y-55462202D01*
%TO.C,SW4*%
X171358402Y-55462202D02*
X171358402Y-59962202D01*
X173858402Y-61212202D02*
X175358402Y-61212202D01*
X175358402Y-54212202D02*
X173858402Y-54212202D01*
X177858402Y-59962202D02*
X177858402Y-55462202D01*
%TO.C,J11*%
X104330000Y-92670000D02*
X104330000Y-94000000D01*
X103000000Y-92670000D02*
X104330000Y-92670000D01*
X101730000Y-95330000D02*
X99130000Y-95330000D01*
X101730000Y-92670000D02*
X101730000Y-95330000D01*
X101730000Y-92670000D02*
X99130000Y-92670000D01*
X99130000Y-92670000D02*
X99130000Y-95330000D01*
%TO.C,J6*%
X115210925Y-55243025D02*
X115210925Y-53913025D01*
X116540925Y-55243025D02*
X115210925Y-55243025D01*
X117810925Y-52583025D02*
X120410925Y-52583025D01*
X117810925Y-55243025D02*
X117810925Y-52583025D01*
X117810925Y-55243025D02*
X120410925Y-55243025D01*
X120410925Y-55243025D02*
X120410925Y-52583025D01*
%TO.C,J4*%
X122920000Y-55315025D02*
X122920000Y-53985025D01*
X124250000Y-55315025D02*
X122920000Y-55315025D01*
X125520000Y-52655025D02*
X128120000Y-52655025D01*
X125520000Y-55315025D02*
X125520000Y-52655025D01*
X125520000Y-55315025D02*
X128120000Y-55315025D01*
X128120000Y-55315025D02*
X128120000Y-52655025D01*
%TO.C,JP4*%
X169996525Y-78306825D02*
X169996525Y-77706825D01*
X170696525Y-77006825D02*
X172096525Y-77006825D01*
X172096525Y-79006825D02*
X170696525Y-79006825D01*
X172796525Y-77706825D02*
X172796525Y-78306825D01*
X169996525Y-77706825D02*
G75*
G02*
X170696525Y-77006825I700000J0D01*
G01*
X170696525Y-79006825D02*
G75*
G02*
X169996525Y-78306825I0J700000D01*
G01*
X172096525Y-77006825D02*
G75*
G02*
X172796525Y-77706825I1J-699999D01*
G01*
X172796525Y-78306825D02*
G75*
G02*
X172096525Y-79006825I-699999J-1D01*
G01*
%TO.C,J9*%
X105670000Y-53395000D02*
X107000000Y-53395000D01*
X105670000Y-54725000D02*
X105670000Y-53395000D01*
X105670000Y-55995000D02*
X105670000Y-58595000D01*
X105670000Y-55995000D02*
X108330000Y-55995000D01*
X105670000Y-58595000D02*
X108330000Y-58595000D01*
X108330000Y-55995000D02*
X108330000Y-58595000D01*
%TO.C,JP1*%
X169996525Y-75665225D02*
X169996525Y-75065225D01*
X170696525Y-74365225D02*
X172096525Y-74365225D01*
X172096525Y-76365225D02*
X170696525Y-76365225D01*
X172796525Y-75065225D02*
X172796525Y-75665225D01*
X169996525Y-75065225D02*
G75*
G02*
X170696525Y-74365225I700000J0D01*
G01*
X170696525Y-76365225D02*
G75*
G02*
X169996525Y-75665225I0J700000D01*
G01*
X172096525Y-74365225D02*
G75*
G02*
X172796525Y-75065225I1J-699999D01*
G01*
X172796525Y-75665225D02*
G75*
G02*
X172096525Y-76365225I-699999J-1D01*
G01*
%TO.C,SW3*%
X180248402Y-55462202D02*
X180248402Y-59962202D01*
X182748402Y-61212202D02*
X184248402Y-61212202D01*
X184248402Y-54212202D02*
X182748402Y-54212202D01*
X186748402Y-59962202D02*
X186748402Y-55462202D01*
%TO.C,D2*%
X165000000Y-64710000D02*
X167860000Y-64710000D01*
X167860000Y-62790000D02*
X165000000Y-62790000D01*
X167860000Y-64710000D02*
X167860000Y-62790000D01*
%TO.C,J1*%
X86229925Y-95165025D02*
X86229925Y-98015025D01*
X86229925Y-98015025D02*
X89079925Y-98015025D01*
X86469925Y-45955025D02*
X96289925Y-45955025D01*
X86469925Y-71865025D02*
X86469925Y-45955025D01*
X86469925Y-71865025D02*
X86469925Y-97775025D01*
X86469925Y-97775025D02*
X96289925Y-97775025D01*
X96289925Y-45955025D02*
X96289925Y-70055025D01*
X96289925Y-70055025D02*
X97689925Y-70055025D01*
X96289925Y-73675025D02*
X97689925Y-73675025D01*
X96289925Y-97775025D02*
X96289925Y-73675025D01*
X97689925Y-70055025D02*
X97689925Y-71865025D01*
X97689925Y-73675025D02*
X97689925Y-71865025D01*
%TO.C,J13*%
X99170000Y-81170000D02*
X99170000Y-83830000D01*
X101770000Y-81170000D02*
X99170000Y-81170000D01*
X101770000Y-81170000D02*
X101770000Y-83830000D01*
X101770000Y-83830000D02*
X99170000Y-83830000D01*
X103040000Y-81170000D02*
X104370000Y-81170000D01*
X104370000Y-81170000D02*
X104370000Y-82500000D01*
%TO.C,J8*%
X122895000Y-60830000D02*
X122895000Y-59500000D01*
X124225000Y-60830000D02*
X122895000Y-60830000D01*
X125495000Y-58170000D02*
X128095000Y-58170000D01*
X125495000Y-60830000D02*
X125495000Y-58170000D01*
X125495000Y-60830000D02*
X128095000Y-60830000D01*
X128095000Y-60830000D02*
X128095000Y-58170000D01*
%TO.C,P4*%
X157104475Y-72354091D02*
X157104475Y-75014091D01*
X159704475Y-72354091D02*
X157104475Y-72354091D01*
X159704475Y-72354091D02*
X159704475Y-75014091D01*
X159704475Y-75014091D02*
X157104475Y-75014091D01*
X162304475Y-73684091D02*
X162304475Y-75014091D01*
X162304475Y-75014091D02*
X160974475Y-75014091D01*
%TO.C,D1*%
X165200000Y-48960000D02*
X168060000Y-48960000D01*
X168060000Y-47040000D02*
X165200000Y-47040000D01*
X168060000Y-48960000D02*
X168060000Y-47040000D01*
%TO.C,SW1*%
X198028402Y-55462202D02*
X198028402Y-59962202D01*
X200528402Y-61212202D02*
X202028402Y-61212202D01*
X202028402Y-54212202D02*
X200528402Y-54212202D01*
X204528402Y-59962202D02*
X204528402Y-55462202D01*
%TO.C,J7*%
X162670000Y-55330000D02*
X162670000Y-54000000D01*
X164000000Y-55330000D02*
X162670000Y-55330000D01*
X165270000Y-52670000D02*
X167870000Y-52670000D01*
X165270000Y-55330000D02*
X165270000Y-52670000D01*
X165270000Y-55330000D02*
X167870000Y-55330000D01*
X167870000Y-55330000D02*
X167870000Y-52670000D01*
%TO.C,REF\u002A\u002A*%
X121670000Y-83867848D02*
X123000000Y-83867848D01*
X121670000Y-85197848D02*
X121670000Y-83867848D01*
X121670000Y-86467848D02*
X121670000Y-86527848D01*
X121670000Y-86467848D02*
X124330000Y-86467848D01*
X121670000Y-86527848D02*
X124330000Y-86527848D01*
X124330000Y-86467848D02*
X124330000Y-86527848D01*
X129170000Y-83867848D02*
X130500000Y-83867848D01*
X129170000Y-85197848D02*
X129170000Y-83867848D01*
X129170000Y-86467848D02*
X129170000Y-86527848D01*
X129170000Y-86467848D02*
X131830000Y-86467848D01*
X129170000Y-86527848D02*
X131830000Y-86527848D01*
X131830000Y-86467848D02*
X131830000Y-86527848D01*
%TO.C,D4*%
X116565000Y-57290000D02*
X116565000Y-59210000D01*
X116565000Y-59210000D02*
X119250000Y-59210000D01*
X119250000Y-57290000D02*
X116565000Y-57290000D01*
%TO.C,J3*%
X197655000Y-47920000D02*
X197655000Y-50580000D01*
X200255000Y-47920000D02*
X197655000Y-47920000D01*
X200255000Y-47920000D02*
X200255000Y-50580000D01*
X200255000Y-50580000D02*
X197655000Y-50580000D01*
X201525000Y-47920000D02*
X202855000Y-47920000D01*
X202855000Y-47920000D02*
X202855000Y-49250000D01*
%TO.C,REF\u002A\u002A*%
X125420000Y-83867848D02*
X126750000Y-83867848D01*
X125420000Y-85197848D02*
X125420000Y-83867848D01*
X125420000Y-86467848D02*
X125420000Y-86527848D01*
X125420000Y-86467848D02*
X128080000Y-86467848D01*
X125420000Y-86527848D02*
X128080000Y-86527848D01*
X128080000Y-86467848D02*
X128080000Y-86527848D01*
%TO.C,J12*%
X132105000Y-53670000D02*
X132105000Y-56330000D01*
X134705000Y-53670000D02*
X132105000Y-53670000D01*
X134705000Y-53670000D02*
X134705000Y-56330000D01*
X134705000Y-56330000D02*
X132105000Y-56330000D01*
X135975000Y-53670000D02*
X137305000Y-53670000D01*
X137305000Y-53670000D02*
X137305000Y-55000000D01*
%TO.C,REF\u002A\u002A*%
X110420000Y-83867848D02*
X111750000Y-83867848D01*
X110420000Y-85197848D02*
X110420000Y-83867848D01*
X110420000Y-86467848D02*
X110420000Y-86527848D01*
X110420000Y-86467848D02*
X113080000Y-86467848D01*
X110420000Y-86527848D02*
X113080000Y-86527848D01*
X113080000Y-86467848D02*
X113080000Y-86527848D01*
X132920000Y-83867848D02*
X134250000Y-83867848D01*
X132920000Y-85197848D02*
X132920000Y-83867848D01*
X132920000Y-86467848D02*
X132920000Y-86527848D01*
X132920000Y-86467848D02*
X135580000Y-86467848D01*
X132920000Y-86527848D02*
X135580000Y-86527848D01*
X135580000Y-86467848D02*
X135580000Y-86527848D01*
%TO.C,JP2*%
X169945725Y-80872225D02*
X169945725Y-80272225D01*
X170645725Y-79572225D02*
X172045725Y-79572225D01*
X172045725Y-81572225D02*
X170645725Y-81572225D01*
X172745725Y-80272225D02*
X172745725Y-80872225D01*
X169945725Y-80272225D02*
G75*
G02*
X170645725Y-79572225I700000J0D01*
G01*
X170645725Y-81572225D02*
G75*
G02*
X169945725Y-80872225I0J700000D01*
G01*
X172045725Y-79572225D02*
G75*
G02*
X172745725Y-80272225I1J-699999D01*
G01*
X172745725Y-80872225D02*
G75*
G02*
X172045725Y-81572225I-699999J-1D01*
G01*
%TO.C,REF\u002A\u002A*%
X117920000Y-83867848D02*
X119250000Y-83867848D01*
X117920000Y-85197848D02*
X117920000Y-83867848D01*
X117920000Y-86467848D02*
X117920000Y-86527848D01*
X117920000Y-86467848D02*
X120580000Y-86467848D01*
X117920000Y-86527848D02*
X120580000Y-86527848D01*
X120580000Y-86467848D02*
X120580000Y-86527848D01*
X136670000Y-83867848D02*
X138000000Y-83867848D01*
X136670000Y-85197848D02*
X136670000Y-83867848D01*
X136670000Y-86467848D02*
X136670000Y-86527848D01*
X136670000Y-86467848D02*
X139330000Y-86467848D01*
X136670000Y-86527848D02*
X139330000Y-86527848D01*
X139330000Y-86467848D02*
X139330000Y-86527848D01*
%TO.C,J5*%
X99670000Y-53395000D02*
X101000000Y-53395000D01*
X99670000Y-54725000D02*
X99670000Y-53395000D01*
X99670000Y-55995000D02*
X99670000Y-58595000D01*
X99670000Y-55995000D02*
X102330000Y-55995000D01*
X99670000Y-58595000D02*
X102330000Y-58595000D01*
X102330000Y-55995000D02*
X102330000Y-58595000D01*
%TO.C,REF\u002A\u002A*%
X114170000Y-83867848D02*
X115500000Y-83867848D01*
X114170000Y-85197848D02*
X114170000Y-83867848D01*
X114170000Y-86467848D02*
X114170000Y-86527848D01*
X114170000Y-86467848D02*
X116830000Y-86467848D01*
X114170000Y-86527848D02*
X116830000Y-86527848D01*
X116830000Y-86467848D02*
X116830000Y-86527848D01*
%TD*%
M02*
