M48
; DRILL file {KiCad 8.0.3} date 2024-11-03T20:58:58+0100
; FORMAT={-:-/ absolute / inch / decimal}
; #@! TF.CreationDate,2024-11-03T20:58:58+01:00
; #@! TF.GenerationSoftware,Kicad,Pcbnew,8.0.3
; #@! TF.FileFunction,Plated,1,2,PTH
FMAT,2
INCH
; #@! TA.AperFunction,Plated,PTH,ViaDrill
T1C0.0120
; #@! TA.AperFunction,Plated,PTH,ViaDrill
T2C0.0150
; #@! TA.AperFunction,Plated,PTH,ViaDrill
T3C0.0157
; #@! TA.AperFunction,Plated,PTH,ComponentDrill
T4C0.0354
; #@! TA.AperFunction,Plated,PTH,ComponentDrill
T5C0.0394
; #@! TA.AperFunction,Plated,PTH,ComponentDrill
T6C0.0433
; #@! TA.AperFunction,Plated,PTH,ComponentDrill
T7C0.0551
; #@! TA.AperFunction,Plated,PTH,ComponentDrill
T8C0.0630
; #@! TA.AperFunction,Plated,PTH,ComponentDrill
T9C0.1083
%
G90
G05
T1
X6.1985Y-3.1591
X6.2365Y-3.2345
X6.2575Y-2.9651
X6.6685Y-3.1751
X6.8067Y-2.9091
X6.8094Y-3.1872
X6.8308Y-3.0179
X6.8425Y-2.9401
X6.8577Y-3.3941
X6.9115Y-2.9941
X6.9705Y-3.0581
X6.9935Y-3.2041
X7.0017Y-3.0441
X7.3545Y-2.8701
X7.3865Y-3.6101
X7.4515Y-2.9071
X7.6935Y-2.9011
X7.8465Y-3.0211
X7.8475Y-3.3061
X7.9005Y-2.9171
X7.9805Y-2.9611
X8.0296Y-2.9162
T2
X6.8648Y-3.4395
X6.9252Y-3.3266
X6.9387Y-3.5827
X7.0272Y-3.4676
X7.0507Y-2.8941
X7.1905Y-2.8651
X7.2191Y-3.0376
X7.4077Y-3.1421
X7.4081Y-3.3683
T3
X4.7441Y-2.4114
X5.1181Y-2.4409
X5.2634Y-2.3776
X5.4134Y-1.9291
X5.6398Y-1.9291
X5.6791Y-2.1063
X5.8642Y-2.2304
X5.9823Y-2.4076
X5.9823Y-2.5552
X6.0512Y-2.0139
X6.0512Y-2.1221
X6.0551Y-1.8898
X6.2894Y-3.0906
X6.2992Y-2.6162
X6.411Y-2.2901
X6.437Y-2.6181
X6.6633Y-3.443
X6.7433Y-3.5228
X6.8956Y-3.5453
X7.0413Y-3.5611
X7.126Y-3.5335
X7.8939Y-3.1102
T4
X6.2376Y-2.9009
X6.3376Y-2.9009
T5
X3.9551Y-3.7008
X3.9567Y-3.248
X3.9764Y-2.1545
X3.9764Y-2.2545
X4.0551Y-3.7008
X4.0567Y-3.248
X4.2126Y-2.1545
X4.2126Y-2.2545
X4.3996Y-3.3542
X4.5472Y-3.3542
X4.5882Y-2.1226
X4.6882Y-2.1226
X4.6949Y-3.3542
X4.8425Y-3.3542
X4.8907Y-2.3425
X4.8917Y-2.1254
X4.9902Y-3.3542
X4.9907Y-2.3425
X4.9917Y-2.1254
X5.1378Y-3.3542
X5.2533Y-2.1654
X5.2854Y-3.3542
X5.3533Y-2.1654
X5.4331Y-3.3542
X6.2376Y-2.7009
X6.2376Y-2.8009
X6.3376Y-2.7009
X6.3376Y-2.8009
X6.4376Y-2.7009
X6.4376Y-2.8009
X6.4567Y-2.126
X6.5256Y-2.3524
X6.5376Y-2.7009
X6.5376Y-2.8009
X6.5567Y-2.126
X6.6256Y-2.3524
X6.6376Y-2.7009
X6.6376Y-2.8009
X6.7376Y-2.7009
X6.7376Y-2.8009
X6.8376Y-2.7009
X6.8376Y-2.8009
X6.9376Y-2.7009
X6.9376Y-2.8009
X7.0376Y-2.7009
X7.0376Y-2.8009
X7.1376Y-2.7009
X7.1376Y-2.8009
X7.2376Y-2.7009
X7.2376Y-2.8009
X7.3376Y-2.7009
X7.3376Y-2.8009
X7.4376Y-2.7009
X7.4376Y-2.8009
X7.5376Y-2.7009
X7.5376Y-2.8009
X7.6376Y-2.7009
X7.6376Y-2.8009
X7.7376Y-2.7009
X7.7376Y-2.8009
X7.8341Y-1.939
X7.8376Y-2.7009
X7.8376Y-2.8009
X7.9341Y-1.939
X7.9376Y-2.7009
X7.9376Y-2.8009
X8.0376Y-2.7009
X8.0376Y-2.8009
X8.1376Y-2.7009
X8.1376Y-2.8009
T6
X6.7858Y-2.1442
X6.7858Y-2.4001
X6.9629Y-2.1442
X6.9629Y-2.4001
X7.1358Y-2.1442
X7.1358Y-2.4001
X7.3129Y-2.1442
X7.3129Y-2.4001
X7.4858Y-2.1442
X7.4858Y-2.4001
X7.6629Y-2.1442
X7.6629Y-2.4001
X7.8358Y-2.1442
X7.8358Y-2.4001
X8.0129Y-2.1442
X8.0129Y-2.4001
T7
X4.4186Y-2.9579
X4.4186Y-3.1744
X4.5839Y-2.9579
X4.5839Y-3.1744
X4.7493Y-2.9579
X4.7493Y-3.1744
X4.9146Y-2.9579
X4.9146Y-3.1744
X5.08Y-2.9579
X5.08Y-3.1744
X5.2453Y-2.9579
X5.2453Y-3.1744
X5.4107Y-2.9579
X5.4107Y-3.1744
T8
X3.4972Y-1.9199
X3.4972Y-2.0852
X3.4972Y-2.2506
X3.4972Y-2.4159
X3.4972Y-2.5813
X3.4972Y-2.7467
X3.4972Y-2.912
X3.4972Y-3.0774
X3.4972Y-3.2427
X3.4972Y-3.4081
X3.4972Y-3.5734
X3.4972Y-3.7388
X3.7138Y-1.9199
X3.7138Y-2.0852
X3.7138Y-2.2506
X3.7138Y-2.4159
X3.7138Y-2.5813
X3.7138Y-2.7467
X3.7138Y-2.912
X3.7138Y-3.0774
X3.7138Y-3.2427
X3.7138Y-3.4081
X3.7138Y-3.5734
X3.7138Y-3.7388
T9
X4.3291Y-1.8104
X4.3291Y-3.6555
X6.0469Y-2.75
X6.0469Y-3.6555
X8.3055Y-1.8104
X8.3303Y-2.75
X8.3303Y-3.6555
M30
