%TF.GenerationSoftware,KiCad,Pcbnew,8.0.3*%
%TF.CreationDate,2024-11-03T20:58:58+01:00*%
%TF.ProjectId,Rev2_RGB2HDMI,52657632-5f52-4474-9232-48444d492e6b,rev?*%
%TF.SameCoordinates,Original*%
%TF.FileFunction,Drillmap*%
%TF.FilePolarity,Positive*%
%FSLAX45Y45*%
G04 Gerber Fmt 4.5, Leading zero omitted, Abs format (unit mm)*
G04 Created by KiCad (PCBNEW 8.0.3) date 2024-11-03 20:58:58*
%MOMM*%
%LPD*%
G01*
G04 APERTURE LIST*
%ADD10C,0.100000*%
%ADD11C,0.200000*%
%ADD12C,0.300000*%
G04 APERTURE END LIST*
D10*
X14445140Y-7290220D02*
X15520140Y-7290220D01*
X15520140Y-8965220D01*
X14445140Y-8965220D01*
X14445140Y-7290220D01*
X21560593Y-4200363D02*
X21563893Y-9801623D01*
X7445992Y-9798503D02*
X7445992Y-4198503D01*
X7445992Y-4198503D02*
X21560593Y-4200363D01*
X21563893Y-9801623D02*
X7445992Y-9798503D01*
D11*
D12*
X7995992Y-4736503D02*
X8295992Y-5036503D01*
X8295992Y-4736503D02*
X7995992Y-5036503D01*
X7998532Y-9359303D02*
X8298532Y-9659303D01*
X8298532Y-9359303D02*
X7998532Y-9659303D01*
X10603155Y-7409000D02*
X10903155Y-7709000D01*
X10903155Y-7409000D02*
X10603155Y-7709000D01*
X14063155Y-7409000D02*
X14363155Y-7709000D01*
X14363155Y-7409000D02*
X14063155Y-7709000D01*
D11*
X7701769Y-10118106D02*
X7701769Y-9918106D01*
X7701769Y-9918106D02*
X7749388Y-9918106D01*
X7749388Y-9918106D02*
X7777960Y-9927630D01*
X7777960Y-9927630D02*
X7797007Y-9946678D01*
X7797007Y-9946678D02*
X7806531Y-9965725D01*
X7806531Y-9965725D02*
X7816055Y-10003821D01*
X7816055Y-10003821D02*
X7816055Y-10032392D01*
X7816055Y-10032392D02*
X7806531Y-10070487D01*
X7806531Y-10070487D02*
X7797007Y-10089535D01*
X7797007Y-10089535D02*
X7777960Y-10108583D01*
X7777960Y-10108583D02*
X7749388Y-10118106D01*
X7749388Y-10118106D02*
X7701769Y-10118106D01*
X7901769Y-10118106D02*
X7901769Y-9984773D01*
X7901769Y-10022868D02*
X7911293Y-10003821D01*
X7911293Y-10003821D02*
X7920817Y-9994297D01*
X7920817Y-9994297D02*
X7939864Y-9984773D01*
X7939864Y-9984773D02*
X7958912Y-9984773D01*
X8025579Y-10118106D02*
X8025579Y-9984773D01*
X8025579Y-9918106D02*
X8016055Y-9927630D01*
X8016055Y-9927630D02*
X8025579Y-9937154D01*
X8025579Y-9937154D02*
X8035103Y-9927630D01*
X8035103Y-9927630D02*
X8025579Y-9918106D01*
X8025579Y-9918106D02*
X8025579Y-9937154D01*
X8149388Y-10118106D02*
X8130341Y-10108583D01*
X8130341Y-10108583D02*
X8120817Y-10089535D01*
X8120817Y-10089535D02*
X8120817Y-9918106D01*
X8254150Y-10118106D02*
X8235103Y-10108583D01*
X8235103Y-10108583D02*
X8225579Y-10089535D01*
X8225579Y-10089535D02*
X8225579Y-9918106D01*
X8482722Y-10118106D02*
X8482722Y-9918106D01*
X8482722Y-9918106D02*
X8549388Y-10060963D01*
X8549388Y-10060963D02*
X8616055Y-9918106D01*
X8616055Y-9918106D02*
X8616055Y-10118106D01*
X8797007Y-10118106D02*
X8797007Y-10013344D01*
X8797007Y-10013344D02*
X8787484Y-9994297D01*
X8787484Y-9994297D02*
X8768436Y-9984773D01*
X8768436Y-9984773D02*
X8730341Y-9984773D01*
X8730341Y-9984773D02*
X8711293Y-9994297D01*
X8797007Y-10108583D02*
X8777960Y-10118106D01*
X8777960Y-10118106D02*
X8730341Y-10118106D01*
X8730341Y-10118106D02*
X8711293Y-10108583D01*
X8711293Y-10108583D02*
X8701769Y-10089535D01*
X8701769Y-10089535D02*
X8701769Y-10070487D01*
X8701769Y-10070487D02*
X8711293Y-10051440D01*
X8711293Y-10051440D02*
X8730341Y-10041916D01*
X8730341Y-10041916D02*
X8777960Y-10041916D01*
X8777960Y-10041916D02*
X8797007Y-10032392D01*
X8892246Y-9984773D02*
X8892246Y-10184773D01*
X8892246Y-9994297D02*
X8911293Y-9984773D01*
X8911293Y-9984773D02*
X8949388Y-9984773D01*
X8949388Y-9984773D02*
X8968436Y-9994297D01*
X8968436Y-9994297D02*
X8977960Y-10003821D01*
X8977960Y-10003821D02*
X8987484Y-10022868D01*
X8987484Y-10022868D02*
X8987484Y-10080011D01*
X8987484Y-10080011D02*
X8977960Y-10099059D01*
X8977960Y-10099059D02*
X8968436Y-10108583D01*
X8968436Y-10108583D02*
X8949388Y-10118106D01*
X8949388Y-10118106D02*
X8911293Y-10118106D01*
X8911293Y-10118106D02*
X8892246Y-10108583D01*
X9073198Y-10099059D02*
X9082722Y-10108583D01*
X9082722Y-10108583D02*
X9073198Y-10118106D01*
X9073198Y-10118106D02*
X9063674Y-10108583D01*
X9063674Y-10108583D02*
X9073198Y-10099059D01*
X9073198Y-10099059D02*
X9073198Y-10118106D01*
X9073198Y-9994297D02*
X9082722Y-10003821D01*
X9082722Y-10003821D02*
X9073198Y-10013344D01*
X9073198Y-10013344D02*
X9063674Y-10003821D01*
X9063674Y-10003821D02*
X9073198Y-9994297D01*
X9073198Y-9994297D02*
X9073198Y-10013344D01*
X7240992Y-10346623D02*
X7440992Y-10546623D01*
X7440992Y-10346623D02*
X7240992Y-10546623D01*
X7682722Y-10338106D02*
X7806531Y-10338106D01*
X7806531Y-10338106D02*
X7739864Y-10414297D01*
X7739864Y-10414297D02*
X7768436Y-10414297D01*
X7768436Y-10414297D02*
X7787484Y-10423821D01*
X7787484Y-10423821D02*
X7797007Y-10433344D01*
X7797007Y-10433344D02*
X7806531Y-10452392D01*
X7806531Y-10452392D02*
X7806531Y-10500011D01*
X7806531Y-10500011D02*
X7797007Y-10519059D01*
X7797007Y-10519059D02*
X7787484Y-10528583D01*
X7787484Y-10528583D02*
X7768436Y-10538106D01*
X7768436Y-10538106D02*
X7711293Y-10538106D01*
X7711293Y-10538106D02*
X7692245Y-10528583D01*
X7692245Y-10528583D02*
X7682722Y-10519059D01*
X7892245Y-10519059D02*
X7901769Y-10528583D01*
X7901769Y-10528583D02*
X7892245Y-10538106D01*
X7892245Y-10538106D02*
X7882722Y-10528583D01*
X7882722Y-10528583D02*
X7892245Y-10519059D01*
X7892245Y-10519059D02*
X7892245Y-10538106D01*
X8025579Y-10338106D02*
X8044626Y-10338106D01*
X8044626Y-10338106D02*
X8063674Y-10347630D01*
X8063674Y-10347630D02*
X8073198Y-10357154D01*
X8073198Y-10357154D02*
X8082722Y-10376202D01*
X8082722Y-10376202D02*
X8092245Y-10414297D01*
X8092245Y-10414297D02*
X8092245Y-10461916D01*
X8092245Y-10461916D02*
X8082722Y-10500011D01*
X8082722Y-10500011D02*
X8073198Y-10519059D01*
X8073198Y-10519059D02*
X8063674Y-10528583D01*
X8063674Y-10528583D02*
X8044626Y-10538106D01*
X8044626Y-10538106D02*
X8025579Y-10538106D01*
X8025579Y-10538106D02*
X8006531Y-10528583D01*
X8006531Y-10528583D02*
X7997007Y-10519059D01*
X7997007Y-10519059D02*
X7987484Y-10500011D01*
X7987484Y-10500011D02*
X7977960Y-10461916D01*
X7977960Y-10461916D02*
X7977960Y-10414297D01*
X7977960Y-10414297D02*
X7987484Y-10376202D01*
X7987484Y-10376202D02*
X7997007Y-10357154D01*
X7997007Y-10357154D02*
X8006531Y-10347630D01*
X8006531Y-10347630D02*
X8025579Y-10338106D01*
X8216055Y-10338106D02*
X8235103Y-10338106D01*
X8235103Y-10338106D02*
X8254150Y-10347630D01*
X8254150Y-10347630D02*
X8263674Y-10357154D01*
X8263674Y-10357154D02*
X8273198Y-10376202D01*
X8273198Y-10376202D02*
X8282722Y-10414297D01*
X8282722Y-10414297D02*
X8282722Y-10461916D01*
X8282722Y-10461916D02*
X8273198Y-10500011D01*
X8273198Y-10500011D02*
X8263674Y-10519059D01*
X8263674Y-10519059D02*
X8254150Y-10528583D01*
X8254150Y-10528583D02*
X8235103Y-10538106D01*
X8235103Y-10538106D02*
X8216055Y-10538106D01*
X8216055Y-10538106D02*
X8197007Y-10528583D01*
X8197007Y-10528583D02*
X8187484Y-10519059D01*
X8187484Y-10519059D02*
X8177960Y-10500011D01*
X8177960Y-10500011D02*
X8168436Y-10461916D01*
X8168436Y-10461916D02*
X8168436Y-10414297D01*
X8168436Y-10414297D02*
X8177960Y-10376202D01*
X8177960Y-10376202D02*
X8187484Y-10357154D01*
X8187484Y-10357154D02*
X8197007Y-10347630D01*
X8197007Y-10347630D02*
X8216055Y-10338106D01*
X8406531Y-10338106D02*
X8425579Y-10338106D01*
X8425579Y-10338106D02*
X8444627Y-10347630D01*
X8444627Y-10347630D02*
X8454150Y-10357154D01*
X8454150Y-10357154D02*
X8463674Y-10376202D01*
X8463674Y-10376202D02*
X8473198Y-10414297D01*
X8473198Y-10414297D02*
X8473198Y-10461916D01*
X8473198Y-10461916D02*
X8463674Y-10500011D01*
X8463674Y-10500011D02*
X8454150Y-10519059D01*
X8454150Y-10519059D02*
X8444627Y-10528583D01*
X8444627Y-10528583D02*
X8425579Y-10538106D01*
X8425579Y-10538106D02*
X8406531Y-10538106D01*
X8406531Y-10538106D02*
X8387484Y-10528583D01*
X8387484Y-10528583D02*
X8377960Y-10519059D01*
X8377960Y-10519059D02*
X8368436Y-10500011D01*
X8368436Y-10500011D02*
X8358912Y-10461916D01*
X8358912Y-10461916D02*
X8358912Y-10414297D01*
X8358912Y-10414297D02*
X8368436Y-10376202D01*
X8368436Y-10376202D02*
X8377960Y-10357154D01*
X8377960Y-10357154D02*
X8387484Y-10347630D01*
X8387484Y-10347630D02*
X8406531Y-10338106D01*
X8558912Y-10538106D02*
X8558912Y-10404773D01*
X8558912Y-10423821D02*
X8568436Y-10414297D01*
X8568436Y-10414297D02*
X8587484Y-10404773D01*
X8587484Y-10404773D02*
X8616055Y-10404773D01*
X8616055Y-10404773D02*
X8635103Y-10414297D01*
X8635103Y-10414297D02*
X8644627Y-10433344D01*
X8644627Y-10433344D02*
X8644627Y-10538106D01*
X8644627Y-10433344D02*
X8654150Y-10414297D01*
X8654150Y-10414297D02*
X8673198Y-10404773D01*
X8673198Y-10404773D02*
X8701769Y-10404773D01*
X8701769Y-10404773D02*
X8720817Y-10414297D01*
X8720817Y-10414297D02*
X8730341Y-10433344D01*
X8730341Y-10433344D02*
X8730341Y-10538106D01*
X8825579Y-10538106D02*
X8825579Y-10404773D01*
X8825579Y-10423821D02*
X8835103Y-10414297D01*
X8835103Y-10414297D02*
X8854150Y-10404773D01*
X8854150Y-10404773D02*
X8882722Y-10404773D01*
X8882722Y-10404773D02*
X8901769Y-10414297D01*
X8901769Y-10414297D02*
X8911293Y-10433344D01*
X8911293Y-10433344D02*
X8911293Y-10538106D01*
X8911293Y-10433344D02*
X8920817Y-10414297D01*
X8920817Y-10414297D02*
X8939865Y-10404773D01*
X8939865Y-10404773D02*
X8968436Y-10404773D01*
X8968436Y-10404773D02*
X8987484Y-10414297D01*
X8987484Y-10414297D02*
X8997008Y-10433344D01*
X8997008Y-10433344D02*
X8997008Y-10538106D01*
X9387484Y-10328583D02*
X9216055Y-10585725D01*
X9644627Y-10338106D02*
X9663674Y-10338106D01*
X9663674Y-10338106D02*
X9682722Y-10347630D01*
X9682722Y-10347630D02*
X9692246Y-10357154D01*
X9692246Y-10357154D02*
X9701770Y-10376202D01*
X9701770Y-10376202D02*
X9711293Y-10414297D01*
X9711293Y-10414297D02*
X9711293Y-10461916D01*
X9711293Y-10461916D02*
X9701770Y-10500011D01*
X9701770Y-10500011D02*
X9692246Y-10519059D01*
X9692246Y-10519059D02*
X9682722Y-10528583D01*
X9682722Y-10528583D02*
X9663674Y-10538106D01*
X9663674Y-10538106D02*
X9644627Y-10538106D01*
X9644627Y-10538106D02*
X9625579Y-10528583D01*
X9625579Y-10528583D02*
X9616055Y-10519059D01*
X9616055Y-10519059D02*
X9606531Y-10500011D01*
X9606531Y-10500011D02*
X9597008Y-10461916D01*
X9597008Y-10461916D02*
X9597008Y-10414297D01*
X9597008Y-10414297D02*
X9606531Y-10376202D01*
X9606531Y-10376202D02*
X9616055Y-10357154D01*
X9616055Y-10357154D02*
X9625579Y-10347630D01*
X9625579Y-10347630D02*
X9644627Y-10338106D01*
X9797008Y-10519059D02*
X9806531Y-10528583D01*
X9806531Y-10528583D02*
X9797008Y-10538106D01*
X9797008Y-10538106D02*
X9787484Y-10528583D01*
X9787484Y-10528583D02*
X9797008Y-10519059D01*
X9797008Y-10519059D02*
X9797008Y-10538106D01*
X9997008Y-10538106D02*
X9882722Y-10538106D01*
X9939865Y-10538106D02*
X9939865Y-10338106D01*
X9939865Y-10338106D02*
X9920817Y-10366678D01*
X9920817Y-10366678D02*
X9901770Y-10385725D01*
X9901770Y-10385725D02*
X9882722Y-10395249D01*
X10187484Y-10538106D02*
X10073198Y-10538106D01*
X10130341Y-10538106D02*
X10130341Y-10338106D01*
X10130341Y-10338106D02*
X10111293Y-10366678D01*
X10111293Y-10366678D02*
X10092246Y-10385725D01*
X10092246Y-10385725D02*
X10073198Y-10395249D01*
X10301770Y-10423821D02*
X10282722Y-10414297D01*
X10282722Y-10414297D02*
X10273198Y-10404773D01*
X10273198Y-10404773D02*
X10263674Y-10385725D01*
X10263674Y-10385725D02*
X10263674Y-10376202D01*
X10263674Y-10376202D02*
X10273198Y-10357154D01*
X10273198Y-10357154D02*
X10282722Y-10347630D01*
X10282722Y-10347630D02*
X10301770Y-10338106D01*
X10301770Y-10338106D02*
X10339865Y-10338106D01*
X10339865Y-10338106D02*
X10358912Y-10347630D01*
X10358912Y-10347630D02*
X10368436Y-10357154D01*
X10368436Y-10357154D02*
X10377960Y-10376202D01*
X10377960Y-10376202D02*
X10377960Y-10385725D01*
X10377960Y-10385725D02*
X10368436Y-10404773D01*
X10368436Y-10404773D02*
X10358912Y-10414297D01*
X10358912Y-10414297D02*
X10339865Y-10423821D01*
X10339865Y-10423821D02*
X10301770Y-10423821D01*
X10301770Y-10423821D02*
X10282722Y-10433344D01*
X10282722Y-10433344D02*
X10273198Y-10442868D01*
X10273198Y-10442868D02*
X10263674Y-10461916D01*
X10263674Y-10461916D02*
X10263674Y-10500011D01*
X10263674Y-10500011D02*
X10273198Y-10519059D01*
X10273198Y-10519059D02*
X10282722Y-10528583D01*
X10282722Y-10528583D02*
X10301770Y-10538106D01*
X10301770Y-10538106D02*
X10339865Y-10538106D01*
X10339865Y-10538106D02*
X10358912Y-10528583D01*
X10358912Y-10528583D02*
X10368436Y-10519059D01*
X10368436Y-10519059D02*
X10377960Y-10500011D01*
X10377960Y-10500011D02*
X10377960Y-10461916D01*
X10377960Y-10461916D02*
X10368436Y-10442868D01*
X10368436Y-10442868D02*
X10358912Y-10433344D01*
X10358912Y-10433344D02*
X10339865Y-10423821D01*
X10568436Y-10538106D02*
X10454151Y-10538106D01*
X10511293Y-10538106D02*
X10511293Y-10338106D01*
X10511293Y-10338106D02*
X10492246Y-10366678D01*
X10492246Y-10366678D02*
X10473198Y-10385725D01*
X10473198Y-10385725D02*
X10454151Y-10395249D01*
X10644627Y-10338106D02*
X10644627Y-10376202D01*
X10720817Y-10338106D02*
X10720817Y-10376202D01*
X11016055Y-10614297D02*
X11006532Y-10604773D01*
X11006532Y-10604773D02*
X10987484Y-10576202D01*
X10987484Y-10576202D02*
X10977960Y-10557154D01*
X10977960Y-10557154D02*
X10968436Y-10528583D01*
X10968436Y-10528583D02*
X10958913Y-10480963D01*
X10958913Y-10480963D02*
X10958913Y-10442868D01*
X10958913Y-10442868D02*
X10968436Y-10395249D01*
X10968436Y-10395249D02*
X10977960Y-10366678D01*
X10977960Y-10366678D02*
X10987484Y-10347630D01*
X10987484Y-10347630D02*
X11006532Y-10319059D01*
X11006532Y-10319059D02*
X11016055Y-10309535D01*
X11177960Y-10404773D02*
X11177960Y-10538106D01*
X11130341Y-10328583D02*
X11082722Y-10471440D01*
X11082722Y-10471440D02*
X11206531Y-10471440D01*
X11435103Y-10538106D02*
X11435103Y-10338106D01*
X11520817Y-10538106D02*
X11520817Y-10433344D01*
X11520817Y-10433344D02*
X11511293Y-10414297D01*
X11511293Y-10414297D02*
X11492246Y-10404773D01*
X11492246Y-10404773D02*
X11463674Y-10404773D01*
X11463674Y-10404773D02*
X11444627Y-10414297D01*
X11444627Y-10414297D02*
X11435103Y-10423821D01*
X11644627Y-10538106D02*
X11625579Y-10528583D01*
X11625579Y-10528583D02*
X11616055Y-10519059D01*
X11616055Y-10519059D02*
X11606532Y-10500011D01*
X11606532Y-10500011D02*
X11606532Y-10442868D01*
X11606532Y-10442868D02*
X11616055Y-10423821D01*
X11616055Y-10423821D02*
X11625579Y-10414297D01*
X11625579Y-10414297D02*
X11644627Y-10404773D01*
X11644627Y-10404773D02*
X11673198Y-10404773D01*
X11673198Y-10404773D02*
X11692246Y-10414297D01*
X11692246Y-10414297D02*
X11701770Y-10423821D01*
X11701770Y-10423821D02*
X11711293Y-10442868D01*
X11711293Y-10442868D02*
X11711293Y-10500011D01*
X11711293Y-10500011D02*
X11701770Y-10519059D01*
X11701770Y-10519059D02*
X11692246Y-10528583D01*
X11692246Y-10528583D02*
X11673198Y-10538106D01*
X11673198Y-10538106D02*
X11644627Y-10538106D01*
X11825579Y-10538106D02*
X11806532Y-10528583D01*
X11806532Y-10528583D02*
X11797008Y-10509535D01*
X11797008Y-10509535D02*
X11797008Y-10338106D01*
X11977960Y-10528583D02*
X11958913Y-10538106D01*
X11958913Y-10538106D02*
X11920817Y-10538106D01*
X11920817Y-10538106D02*
X11901770Y-10528583D01*
X11901770Y-10528583D02*
X11892246Y-10509535D01*
X11892246Y-10509535D02*
X11892246Y-10433344D01*
X11892246Y-10433344D02*
X11901770Y-10414297D01*
X11901770Y-10414297D02*
X11920817Y-10404773D01*
X11920817Y-10404773D02*
X11958913Y-10404773D01*
X11958913Y-10404773D02*
X11977960Y-10414297D01*
X11977960Y-10414297D02*
X11987484Y-10433344D01*
X11987484Y-10433344D02*
X11987484Y-10452392D01*
X11987484Y-10452392D02*
X11892246Y-10471440D01*
X12063674Y-10528583D02*
X12082722Y-10538106D01*
X12082722Y-10538106D02*
X12120817Y-10538106D01*
X12120817Y-10538106D02*
X12139865Y-10528583D01*
X12139865Y-10528583D02*
X12149389Y-10509535D01*
X12149389Y-10509535D02*
X12149389Y-10500011D01*
X12149389Y-10500011D02*
X12139865Y-10480963D01*
X12139865Y-10480963D02*
X12120817Y-10471440D01*
X12120817Y-10471440D02*
X12092246Y-10471440D01*
X12092246Y-10471440D02*
X12073198Y-10461916D01*
X12073198Y-10461916D02*
X12063674Y-10442868D01*
X12063674Y-10442868D02*
X12063674Y-10433344D01*
X12063674Y-10433344D02*
X12073198Y-10414297D01*
X12073198Y-10414297D02*
X12092246Y-10404773D01*
X12092246Y-10404773D02*
X12120817Y-10404773D01*
X12120817Y-10404773D02*
X12139865Y-10414297D01*
X12216055Y-10614297D02*
X12225579Y-10604773D01*
X12225579Y-10604773D02*
X12244627Y-10576202D01*
X12244627Y-10576202D02*
X12254151Y-10557154D01*
X12254151Y-10557154D02*
X12263674Y-10528583D01*
X12263674Y-10528583D02*
X12273198Y-10480963D01*
X12273198Y-10480963D02*
X12273198Y-10442868D01*
X12273198Y-10442868D02*
X12263674Y-10395249D01*
X12263674Y-10395249D02*
X12254151Y-10366678D01*
X12254151Y-10366678D02*
X12244627Y-10347630D01*
X12244627Y-10347630D02*
X12225579Y-10319059D01*
X12225579Y-10319059D02*
X12216055Y-10309535D01*
X12577960Y-10614297D02*
X12568436Y-10604773D01*
X12568436Y-10604773D02*
X12549389Y-10576202D01*
X12549389Y-10576202D02*
X12539865Y-10557154D01*
X12539865Y-10557154D02*
X12530341Y-10528583D01*
X12530341Y-10528583D02*
X12520817Y-10480963D01*
X12520817Y-10480963D02*
X12520817Y-10442868D01*
X12520817Y-10442868D02*
X12530341Y-10395249D01*
X12530341Y-10395249D02*
X12539865Y-10366678D01*
X12539865Y-10366678D02*
X12549389Y-10347630D01*
X12549389Y-10347630D02*
X12568436Y-10319059D01*
X12568436Y-10319059D02*
X12577960Y-10309535D01*
X12654151Y-10404773D02*
X12654151Y-10538106D01*
X12654151Y-10423821D02*
X12663674Y-10414297D01*
X12663674Y-10414297D02*
X12682722Y-10404773D01*
X12682722Y-10404773D02*
X12711294Y-10404773D01*
X12711294Y-10404773D02*
X12730341Y-10414297D01*
X12730341Y-10414297D02*
X12739865Y-10433344D01*
X12739865Y-10433344D02*
X12739865Y-10538106D01*
X12863674Y-10538106D02*
X12844627Y-10528583D01*
X12844627Y-10528583D02*
X12835103Y-10519059D01*
X12835103Y-10519059D02*
X12825579Y-10500011D01*
X12825579Y-10500011D02*
X12825579Y-10442868D01*
X12825579Y-10442868D02*
X12835103Y-10423821D01*
X12835103Y-10423821D02*
X12844627Y-10414297D01*
X12844627Y-10414297D02*
X12863674Y-10404773D01*
X12863674Y-10404773D02*
X12892246Y-10404773D01*
X12892246Y-10404773D02*
X12911294Y-10414297D01*
X12911294Y-10414297D02*
X12920817Y-10423821D01*
X12920817Y-10423821D02*
X12930341Y-10442868D01*
X12930341Y-10442868D02*
X12930341Y-10500011D01*
X12930341Y-10500011D02*
X12920817Y-10519059D01*
X12920817Y-10519059D02*
X12911294Y-10528583D01*
X12911294Y-10528583D02*
X12892246Y-10538106D01*
X12892246Y-10538106D02*
X12863674Y-10538106D01*
X12987484Y-10404773D02*
X13063674Y-10404773D01*
X13016055Y-10338106D02*
X13016055Y-10509535D01*
X13016055Y-10509535D02*
X13025579Y-10528583D01*
X13025579Y-10528583D02*
X13044627Y-10538106D01*
X13044627Y-10538106D02*
X13063674Y-10538106D01*
X13282722Y-10404773D02*
X13282722Y-10604773D01*
X13282722Y-10414297D02*
X13301770Y-10404773D01*
X13301770Y-10404773D02*
X13339865Y-10404773D01*
X13339865Y-10404773D02*
X13358913Y-10414297D01*
X13358913Y-10414297D02*
X13368436Y-10423821D01*
X13368436Y-10423821D02*
X13377960Y-10442868D01*
X13377960Y-10442868D02*
X13377960Y-10500011D01*
X13377960Y-10500011D02*
X13368436Y-10519059D01*
X13368436Y-10519059D02*
X13358913Y-10528583D01*
X13358913Y-10528583D02*
X13339865Y-10538106D01*
X13339865Y-10538106D02*
X13301770Y-10538106D01*
X13301770Y-10538106D02*
X13282722Y-10528583D01*
X13492246Y-10538106D02*
X13473198Y-10528583D01*
X13473198Y-10528583D02*
X13463675Y-10509535D01*
X13463675Y-10509535D02*
X13463675Y-10338106D01*
X13654151Y-10538106D02*
X13654151Y-10433344D01*
X13654151Y-10433344D02*
X13644627Y-10414297D01*
X13644627Y-10414297D02*
X13625579Y-10404773D01*
X13625579Y-10404773D02*
X13587484Y-10404773D01*
X13587484Y-10404773D02*
X13568436Y-10414297D01*
X13654151Y-10528583D02*
X13635103Y-10538106D01*
X13635103Y-10538106D02*
X13587484Y-10538106D01*
X13587484Y-10538106D02*
X13568436Y-10528583D01*
X13568436Y-10528583D02*
X13558913Y-10509535D01*
X13558913Y-10509535D02*
X13558913Y-10490487D01*
X13558913Y-10490487D02*
X13568436Y-10471440D01*
X13568436Y-10471440D02*
X13587484Y-10461916D01*
X13587484Y-10461916D02*
X13635103Y-10461916D01*
X13635103Y-10461916D02*
X13654151Y-10452392D01*
X13720817Y-10404773D02*
X13797008Y-10404773D01*
X13749389Y-10338106D02*
X13749389Y-10509535D01*
X13749389Y-10509535D02*
X13758913Y-10528583D01*
X13758913Y-10528583D02*
X13777960Y-10538106D01*
X13777960Y-10538106D02*
X13797008Y-10538106D01*
X13939865Y-10528583D02*
X13920817Y-10538106D01*
X13920817Y-10538106D02*
X13882722Y-10538106D01*
X13882722Y-10538106D02*
X13863675Y-10528583D01*
X13863675Y-10528583D02*
X13854151Y-10509535D01*
X13854151Y-10509535D02*
X13854151Y-10433344D01*
X13854151Y-10433344D02*
X13863675Y-10414297D01*
X13863675Y-10414297D02*
X13882722Y-10404773D01*
X13882722Y-10404773D02*
X13920817Y-10404773D01*
X13920817Y-10404773D02*
X13939865Y-10414297D01*
X13939865Y-10414297D02*
X13949389Y-10433344D01*
X13949389Y-10433344D02*
X13949389Y-10452392D01*
X13949389Y-10452392D02*
X13854151Y-10471440D01*
X14120817Y-10538106D02*
X14120817Y-10338106D01*
X14120817Y-10528583D02*
X14101770Y-10538106D01*
X14101770Y-10538106D02*
X14063675Y-10538106D01*
X14063675Y-10538106D02*
X14044627Y-10528583D01*
X14044627Y-10528583D02*
X14035103Y-10519059D01*
X14035103Y-10519059D02*
X14025579Y-10500011D01*
X14025579Y-10500011D02*
X14025579Y-10442868D01*
X14025579Y-10442868D02*
X14035103Y-10423821D01*
X14035103Y-10423821D02*
X14044627Y-10414297D01*
X14044627Y-10414297D02*
X14063675Y-10404773D01*
X14063675Y-10404773D02*
X14101770Y-10404773D01*
X14101770Y-10404773D02*
X14120817Y-10414297D01*
X14197008Y-10614297D02*
X14206532Y-10604773D01*
X14206532Y-10604773D02*
X14225579Y-10576202D01*
X14225579Y-10576202D02*
X14235103Y-10557154D01*
X14235103Y-10557154D02*
X14244627Y-10528583D01*
X14244627Y-10528583D02*
X14254151Y-10480963D01*
X14254151Y-10480963D02*
X14254151Y-10442868D01*
X14254151Y-10442868D02*
X14244627Y-10395249D01*
X14244627Y-10395249D02*
X14235103Y-10366678D01*
X14235103Y-10366678D02*
X14225579Y-10347630D01*
X14225579Y-10347630D02*
X14206532Y-10319059D01*
X14206532Y-10319059D02*
X14197008Y-10309535D01*
M02*
