%TF.GenerationSoftware,KiCad,Pcbnew,8.0.3*%
%TF.CreationDate,2024-11-03T20:58:56+01:00*%
%TF.ProjectId,Rev2_RGB2HDMI,52657632-5f52-4474-9232-48444d492e6b,rev?*%
%TF.SameCoordinates,Original*%
%TF.FileFunction,Paste,Bot*%
%TF.FilePolarity,Positive*%
%FSLAX46Y46*%
G04 Gerber Fmt 4.6, Leading zero omitted, Abs format (unit mm)*
G04 Created by KiCad (PCBNEW 8.0.3) date 2024-11-03 20:58:56*
%MOMM*%
%LPD*%
G01*
G04 APERTURE LIST*
G04 Aperture macros list*
%AMRoundRect*
0 Rectangle with rounded corners*
0 $1 Rounding radius*
0 $2 $3 $4 $5 $6 $7 $8 $9 X,Y pos of 4 corners*
0 Add a 4 corners polygon primitive as box body*
4,1,4,$2,$3,$4,$5,$6,$7,$8,$9,$2,$3,0*
0 Add four circle primitives for the rounded corners*
1,1,$1+$1,$2,$3*
1,1,$1+$1,$4,$5*
1,1,$1+$1,$6,$7*
1,1,$1+$1,$8,$9*
0 Add four rect primitives between the rounded corners*
20,1,$1+$1,$2,$3,$4,$5,0*
20,1,$1+$1,$4,$5,$6,$7,0*
20,1,$1+$1,$6,$7,$8,$9,0*
20,1,$1+$1,$8,$9,$2,$3,0*%
G04 Aperture macros list end*
%ADD10RoundRect,0.200000X-0.200000X-0.275000X0.200000X-0.275000X0.200000X0.275000X-0.200000X0.275000X0*%
%ADD11RoundRect,0.250000X0.450000X-0.325000X0.450000X0.325000X-0.450000X0.325000X-0.450000X-0.325000X0*%
%ADD12RoundRect,0.250000X-0.325000X-0.450000X0.325000X-0.450000X0.325000X0.450000X-0.325000X0.450000X0*%
%ADD13R,1.100000X0.900000*%
%ADD14R,1.400000X0.900000*%
%ADD15R,1.750000X0.650000*%
%ADD16RoundRect,0.250000X-0.350000X-0.450000X0.350000X-0.450000X0.350000X0.450000X-0.350000X0.450000X0*%
%ADD17RoundRect,0.250000X-0.337500X-0.475000X0.337500X-0.475000X0.337500X0.475000X-0.337500X0.475000X0*%
%ADD18RoundRect,0.250000X-0.450000X0.325000X-0.450000X-0.325000X0.450000X-0.325000X0.450000X0.325000X0*%
%ADD19RoundRect,0.150000X-0.825000X-0.150000X0.825000X-0.150000X0.825000X0.150000X-0.825000X0.150000X0*%
%ADD20RoundRect,0.237500X0.250000X0.237500X-0.250000X0.237500X-0.250000X-0.237500X0.250000X-0.237500X0*%
%ADD21RoundRect,0.250000X-1.000000X-0.900000X1.000000X-0.900000X1.000000X0.900000X-1.000000X0.900000X0*%
%ADD22RoundRect,0.137500X-0.600000X-0.137500X0.600000X-0.137500X0.600000X0.137500X-0.600000X0.137500X0*%
%ADD23RoundRect,0.137500X-0.137500X-0.600000X0.137500X-0.600000X0.137500X0.600000X-0.137500X0.600000X0*%
%ADD24RoundRect,0.200000X0.275000X-0.200000X0.275000X0.200000X-0.275000X0.200000X-0.275000X-0.200000X0*%
%ADD25RoundRect,0.200000X0.200000X0.275000X-0.200000X0.275000X-0.200000X-0.275000X0.200000X-0.275000X0*%
%ADD26RoundRect,0.150000X0.150000X-0.825000X0.150000X0.825000X-0.150000X0.825000X-0.150000X-0.825000X0*%
%ADD27R,1.250000X0.650000*%
%ADD28RoundRect,0.200000X-0.275000X0.200000X-0.275000X-0.200000X0.275000X-0.200000X0.275000X0.200000X0*%
%ADD29RoundRect,0.250000X0.325000X0.450000X-0.325000X0.450000X-0.325000X-0.450000X0.325000X-0.450000X0*%
%ADD30RoundRect,0.250000X0.475000X-0.337500X0.475000X0.337500X-0.475000X0.337500X-0.475000X-0.337500X0*%
G04 APERTURE END LIST*
D10*
%TO.C,R10*%
X117425000Y-61250000D03*
X119075000Y-61250000D03*
%TD*%
D11*
%TO.C,R3*%
X172508925Y-93840025D03*
X172508925Y-91790025D03*
%TD*%
D12*
%TO.C,C1*%
X176817925Y-87354025D03*
X178867925Y-87354025D03*
%TD*%
D13*
%TO.C,VR1*%
X147950000Y-46900000D03*
D14*
X149100000Y-43600000D03*
D13*
X150250000Y-46900000D03*
%TD*%
D15*
%TO.C,U3*%
X144625000Y-43095000D03*
X144625000Y-44365000D03*
X144625000Y-45635000D03*
X144625000Y-46905000D03*
X137375000Y-46905000D03*
X137375000Y-45635000D03*
X137375000Y-44365000D03*
X137375000Y-43095000D03*
%TD*%
D12*
%TO.C,C4*%
X190889525Y-87481025D03*
X192939525Y-87481025D03*
%TD*%
D16*
%TO.C,R14*%
X99750000Y-64000000D03*
X101750000Y-64000000D03*
%TD*%
D17*
%TO.C,C7*%
X99712500Y-66500000D03*
X101787500Y-66500000D03*
%TD*%
D11*
%TO.C,R7*%
X158409265Y-78815925D03*
X158409265Y-76765925D03*
%TD*%
D18*
%TO.C,R1*%
X190893325Y-91755625D03*
X190893325Y-93805625D03*
%TD*%
D19*
%TO.C,U2*%
X146476402Y-57212202D03*
X146476402Y-55942202D03*
X146476402Y-54672202D03*
X146476402Y-53402202D03*
X146476402Y-52132202D03*
X146476402Y-50862202D03*
X146476402Y-49592202D03*
X151426402Y-49592202D03*
X151426402Y-50862202D03*
X151426402Y-52132202D03*
X151426402Y-53402202D03*
X151426402Y-54672202D03*
X151426402Y-55942202D03*
X151426402Y-57212202D03*
%TD*%
D17*
%TO.C,C8*%
X99000000Y-76750000D03*
X101075000Y-76750000D03*
%TD*%
%TO.C,C6*%
X139675000Y-49250000D03*
X141750000Y-49250000D03*
%TD*%
D12*
%TO.C,R4*%
X170475000Y-51250000D03*
X172525000Y-51250000D03*
%TD*%
D20*
%TO.C,TH1*%
X122662500Y-44800000D03*
X120837500Y-44800000D03*
%TD*%
D21*
%TO.C,D3*%
X129850000Y-49500000D03*
X134150000Y-49500000D03*
%TD*%
D10*
%TO.C,R12*%
X125425000Y-44800000D03*
X127075000Y-44800000D03*
%TD*%
D22*
%TO.C,U1*%
X179292425Y-85385025D03*
X179292425Y-84585025D03*
X179292425Y-83785025D03*
X179292425Y-82985025D03*
X179292425Y-82185025D03*
X179292425Y-81385025D03*
X179292425Y-80585025D03*
X179292425Y-79785025D03*
X179292425Y-78985025D03*
X179292425Y-78185025D03*
X179292425Y-77385025D03*
D23*
X180954925Y-75722525D03*
X181754925Y-75722525D03*
X182554925Y-75722525D03*
X183354925Y-75722525D03*
X184154925Y-75722525D03*
X184954925Y-75722525D03*
X185754925Y-75722525D03*
X186554925Y-75722525D03*
X187354925Y-75722525D03*
X188154925Y-75722525D03*
X188954925Y-75722525D03*
D22*
X190617425Y-77385025D03*
X190617425Y-78185025D03*
X190617425Y-78985025D03*
X190617425Y-79785025D03*
X190617425Y-80585025D03*
X190617425Y-81385025D03*
X190617425Y-82185025D03*
X190617425Y-82985025D03*
X190617425Y-83785025D03*
X190617425Y-84585025D03*
X190617425Y-85385025D03*
D23*
X188954925Y-87047525D03*
X188154925Y-87047525D03*
X187354925Y-87047525D03*
X186554925Y-87047525D03*
X185754925Y-87047525D03*
X184954925Y-87047525D03*
X184154925Y-87047525D03*
X183354925Y-87047525D03*
X182554925Y-87047525D03*
X181754925Y-87047525D03*
X180954925Y-87047525D03*
%TD*%
D11*
%TO.C,R2*%
X174782225Y-93840025D03*
X174782225Y-91790025D03*
%TD*%
D24*
%TO.C,R8*%
X182250000Y-91325000D03*
X182250000Y-89675000D03*
%TD*%
D16*
%TO.C,R15*%
X99000000Y-79000000D03*
X101000000Y-79000000D03*
%TD*%
D25*
%TO.C,R11*%
X135325000Y-46000000D03*
X133675000Y-46000000D03*
%TD*%
D26*
%TO.C,U4*%
X102655000Y-74225000D03*
X101385000Y-74225000D03*
X100115000Y-74225000D03*
X98845000Y-74225000D03*
X98845000Y-69275000D03*
X100115000Y-69275000D03*
X101385000Y-69275000D03*
X102655000Y-69275000D03*
%TD*%
D24*
%TO.C,R9*%
X207000000Y-75325000D03*
X207000000Y-73675000D03*
%TD*%
D12*
%TO.C,R5*%
X168503402Y-64062202D03*
X170553402Y-64062202D03*
%TD*%
D27*
%TO.C,Q1*%
X131650000Y-44450000D03*
X131650000Y-46350000D03*
X129550000Y-45400000D03*
%TD*%
D11*
%TO.C,C2*%
X193082925Y-79616025D03*
X193082925Y-77566025D03*
%TD*%
D28*
%TO.C,R13*%
X135000000Y-42675000D03*
X135000000Y-44325000D03*
%TD*%
D10*
%TO.C,R6*%
X198425000Y-82000000D03*
X200075000Y-82000000D03*
%TD*%
D29*
%TO.C,C3*%
X178867925Y-75289025D03*
X176817925Y-75289025D03*
%TD*%
D30*
%TO.C,C5*%
X148951402Y-61439702D03*
X148951402Y-59364702D03*
%TD*%
M02*
